<?xml version="1.0" encoding="utf-8"?>
<!-- Generator: Adobe Illustrator 24.2.0, SVG Export Plug-In . SVG Version: 6.00 Build 0)  -->
<svg version="1.1" id="Capa_1" xmlns="http://www.w3.org/2000/svg" xmlns:xlink="http://www.w3.org/1999/xlink" x="0px" y="0px"
	 viewBox="0 0 581.3 307.6" style="enable-background:new 0 0 581.3 307.6;" xml:space="preserve">
<style type="text/css">
	.st0{fill:none;stroke:#A4DBF5;stroke-width:3;stroke-linecap:round;stroke-linejoin:round;}
	.st1{fill:#A4DBF5;}
	.st2{fill:#00223D;}
	.st3{font-family:'OpenSans-Bold';}
	.st4{font-size:16px;}
	.st5{fill:#51B9AE;}
	.st6{fill:#FFFFFF;}
	.st7{font-family:'Montserrat-SemiBold';}
	.st8{font-size:22px;}
	.st9{fill:#4384CD;}
	.st10{font-family:'OpenSans';}
	.st11{fill:#4DD0E0;}
</style>
<g id="Grupo_10393" transform="translate(-429.908 -989.494)">
	<g id="Grupo_10385">
		<line id="Línea_176" class="st0" x1="550.6" y1="1070.3" x2="642" y2="1070.3"/>
		<path id="Trazado_3471" class="st1" d="M638.4,1076.7c-2,1-3.6,0-3.6-2.2v-8.4c0-2.2,1.6-3.2,3.6-2.2l9.2,4.6c2,1,2,2.6,0,3.6
			L638.4,1076.7z"/>
	</g>
	<g id="Grupo_10386">
		<line id="Línea_177" class="st0" x1="778.9" y1="1070.3" x2="870.3" y2="1070.3"/>
		<path id="Trazado_3472" class="st1" d="M866.7,1076.7c-2,1-3.6,0-3.6-2.2v-8.4c0-2.2,1.6-3.2,3.6-2.2l9.2,4.6c2,1,2,2.6,0,3.6
			L866.7,1076.7z"/>
	</g>
	<text transform="matrix(1 0 0 1 883.222 1119.879)" class="st2 st3 st4">INFORMACIÓN </text>
	<text transform="matrix(1 0 0 1 883.222 1141.879)" class="st2 st3 st4">PROCESADA</text>
	<g id="Grupo_10387">
		<path id="Rectángulo_6351" class="st5" d="M433.9,1045h112.7c2.2,0,4,1.8,4,4v42.6c0,2.2-1.8,4-4,4H433.9c-2.2,0-4-1.8-4-4V1049
			C429.9,1046.8,431.7,1045,433.9,1045z"/>
		<text transform="matrix(1 0 0 1 445.193 1076.705)" class="st6 st7 st8">Entrada</text>
	</g>
	<g id="Grupo_10388">
		<path id="Rectángulo_6352" class="st5" d="M662.2,1045h112.7c2.2,0,4,1.8,4,4v42.6c0,2.2-1.8,4-4,4H662.2c-2.2,0-4-1.8-4-4V1049
			C658.2,1046.8,660,1045,662.2,1045z"/>
		<text transform="matrix(1 0 0 1 673.226 1076.705)" class="st6 st7 st8">Proceso</text>
	</g>
	<g id="Grupo_10389">
		<path id="Rectángulo_6353" class="st9" d="M603.6,1183.8h229.9c2.2,0,4,1.8,4,4v42.6c0,2.2-1.8,4-4,4H603.6c-2.2,0-4-1.8-4-4
			v-42.6C599.6,1185.6,601.4,1183.8,603.6,1183.8z"/>
		<text transform="matrix(1 0 0 1 620.768 1215.505)" class="st6 st7 st8">Almacenamiento</text>
	</g>
	<g id="Grupo_10390">
		<path id="Rectángulo_6354" class="st5" d="M890.5,1045h112.7c2.2,0,4,1.8,4,4v42.6c0,2.2-1.8,4-4,4H890.5c-2.2,0-4-1.8-4-4V1049
			C886.5,1046.8,888.3,1045,890.5,1045z"/>
		<text transform="matrix(1 0 0 1 912.668 1076.705)" class="st6 st7 st8">Salida</text>
	</g>
	<g id="Grupo_10391">
		<line id="Línea_178" class="st0" x1="718.6" y1="1110.3" x2="718.6" y2="1160.1"/>
		<path id="Trazado_3473" class="st1" d="M725,1115c1,2,0,3.6-2.2,3.6h-8.4c-2.2,0-3.2-1.6-2.2-3.6l4.6-9.2c1-2,2.6-2,3.6,0
			L725,1115z"/>
		<path id="Trazado_3474" class="st1" d="M712.1,1163.7c-1-2,0-3.6,2.2-3.6h8.4c2.2,0,3.2,1.6,2.2,3.6l-4.6,9.2c-1,2-2.6,2-3.6,0
			L712.1,1163.7z"/>
	</g>
	<g id="Grupo_10392">
		<text transform="matrix(1 0 0 1 429.908 1119.879)" class="st2 st3 st4">MANUAL</text>
		<text transform="matrix(1 0 0 1 444.606 1141.8831)" class="st2 st10 st4">Usuario</text>
		<text transform="matrix(1 0 0 1 434.249 1141.8831)" class="st11 st3 st4">•</text>
		<text transform="matrix(1 0 0 1 429.908 1168.476)" class="st2 st3 st4">AUTOMÁTICA</text>
		<text transform="matrix(1 0 0 1 444.606 1190.479)" class="st2 st10 st4">De otros </text>
		<text transform="matrix(1 0 0 1 444.606 1212.479)" class="st2 st10 st4">sistemas o </text>
		<text transform="matrix(1 0 0 1 444.606 1234.479)" class="st2 st10 st4">módulos</text>
		<text transform="matrix(1 0 0 1 434.249 1190.479)" class="st11 st3 st4">•</text>
	</g>
	<text transform="matrix(1 0 0 1 554.159 1006.494)" class="st2 st10 st4">Permite la transformación de datos en </text>
	<text transform="matrix(1 0 0 1 554.159 1028.494)" class="st2 st10 st4">información para la toma de decisiones.</text>
	<text transform="matrix(1 0 0 1 612.043 1258.076)" class="st2 st10 st4">La información suele ser </text>
	<text transform="matrix(1 0 0 1 612.043 1280.076)" class="st2 st10 st4">almacenada en archivos.</text>
</g>
</svg>
