<?xml version="1.0" encoding="utf-8"?>
<!-- Generator: Adobe Illustrator 24.1.3, SVG Export Plug-In . SVG Version: 6.00 Build 0)  -->
<svg version="1.1" id="Capa_1" xmlns="http://www.w3.org/2000/svg" xmlns:xlink="http://www.w3.org/1999/xlink" x="0px" y="0px"
	 viewBox="0 0 1140.1 1057.5" style="enable-background:new 0 0 1140.1 1057.5;" xml:space="preserve">
<style type="text/css">
	.st0{fill:#C69C6D;}
	.st1{fill:#FFFFFF;}
	.st2{opacity:0.1;fill-rule:evenodd;clip-rule:evenodd;enable-background:new    ;}
	.st3{fill-rule:evenodd;clip-rule:evenodd;fill:url(#Trazado_3247_1_);}
	.st4{fill:#1A1A1A;}
	.st5{font-family:'Montserrat-Bold';}
	.st6{font-size:25.133px;}
	.st7{font-family:'OpenSans';}
	.st8{font-size:18.85px;}
	.st9{fill-rule:evenodd;clip-rule:evenodd;fill:#1A1A1A;}
</style>
<g id="Grupo_10410" transform="translate(-358.999 -142.845)">
	<g id="Grupo_10409" transform="translate(209 -1067.6)">
		<g id="Grupo_10407">
			<g id="Grupo_10294">
				<rect id="Rectángulo_6221" x="150" y="1316.8" class="st0" width="1140.1" height="951.1"/>
				<rect id="Rectángulo_6222" x="188.3" y="1316.8" class="st1" width="1061.8" height="951.1"/>
			</g>
			<path id="Rectángulo_6223" class="st0" d="M178.6,1223.8h1083c15.7,0,28.5,12.8,28.5,28.5v65.5l0,0h-1140l0,0v-65.5
				C150.1,1236.6,162.9,1223.8,178.6,1223.8z"/>
		</g>
		<g id="Grupo_10297" transform="translate(0 1)">
			<path id="Rectángulo_6224" class="st1" d="M192.5,1274.7h1053.2c2.4,0,4.3,1.9,4.3,4.3c0,0,0,0,0,0v37.8l0,0H188.3l0,0V1279
				C188.3,1276.6,190.2,1274.7,192.5,1274.7C192.5,1274.7,192.5,1274.7,192.5,1274.7z"/>
			<path id="Trazado_3246" class="st2" d="M627.9,1299h184.9c3.7,0,6.3-1.8,5.4-5.4l-6.4-39.2c-0.7-2.4-2.9-4.1-5.4-4.1h-34.1
				l4-27.5h-35.5c0,0.2,0,0.4,0,0.6l-1.3,7.3c-0.2,1-1.1,1.8-2.1,1.8h-30c-1,0-1.9-0.7-2.1-1.8l-1.3-7.3c0-0.2,0-0.4,0-0.6h-35.5
				l4,27.5h-34.1c-2.5,0-4.7,1.7-5.4,4.1l-10.4,39.2C621.5,1297.2,624.2,1299,627.9,1299z"/>
			<g id="Grupo_10408">
				
					<linearGradient id="Trazado_3247_1_" gradientUnits="userSpaceOnUse" x1="413.1793" y1="2134.9294" x2="413.1793" y2="2135.9294" gradientTransform="matrix(200.0461 0 0 -89.6 -81937.6016 192588.6563)">
					<stop  offset="0" style="stop-color:#E6E6E6"/>
					<stop  offset="0.226" style="stop-color:#D4D4D4"/>
					<stop  offset="0.765" style="stop-color:#DEDEDE"/>
					<stop  offset="1" style="stop-color:#CCCCCC"/>
				</linearGradient>
				<path id="Trazado_3247" class="st3" d="M817.1,1292l-10.4-39.2c-0.6-2.4-2.9-4.1-5.4-4.1h-34.1l5.2-35.5c0.3-1.7-1-3.4-2.7-3.6
					c-0.2,0-0.3,0-0.5,0H665.4c-1.8,0-3.2,1.4-3.2,3.2c0,0.2,0,0.3,0,0.5l5.2,35.5h-34.1c-2.5,0-4.7,1.7-5.4,4.1l-10.4,39.2
					c-0.8,3,1,6,4,6.8c0.5,0.1,1,0.2,1.4,0.2h188.9c3.1,0,5.6-2.5,5.6-5.6C817.3,1293,817.3,1292.5,817.1,1292z M735.7,1221.7
					l-1.3,7.3c-0.2,1-1.1,1.8-2.1,1.8h-30c-1,0-1.9-0.7-2.1-1.8l-1.3-7.3c-0.2-1.2,0.6-2.3,1.7-2.5c0.1,0,0.2,0,0.4,0h32.5
					c1.2,0,2.1,1,2.1,2.1C735.7,1221.5,735.7,1221.6,735.7,1221.7z"/>
			</g>
		</g>
	</g>
	<g id="Grupo_10296" transform="translate(210 -1060.6)">
		<g id="Grupo_10295">
			<text transform="matrix(1 0 0 1 476.963 1376.3199)" class="st4 st5 st6">FICHA TÉCNICA DEL PRODUCTO XYZ</text>
			<text transform="matrix(1 0 0 1 250.346 1416.563)" class="st7 st8">Descripción física:</text>
			<text transform="matrix(1 0 0 1 250.346 1464.136)" class="st7 st8">Modelo:</text>
			<text transform="matrix(1 0 0 1 250.346 1511.709)" class="st7 st8">Marca:</text>
			<text transform="matrix(1 0 0 1 250.346 1559.422)" class="st7 st8">Serial:</text>
			<text transform="matrix(1 0 0 1 250.346 1606.994)" class="st7 st8">Código Inventario:</text>
			<text transform="matrix(1 0 0 1 250.346 1654.55)" class="st7 st8">Especificaciones Técnicas.</text>
			<text transform="matrix(1 0 0 1 269.136 1702.807)" class="st7 st8">•</text>
			<text transform="matrix(1 0 0 1 285.815 1702.807)" class="st7 st8">Altura:</text>
			<text transform="matrix(1 0 0 1 269.136 1751.205)" class="st7 st8">•</text>
			<text transform="matrix(1 0 0 1 285.815 1751.205)" class="st7 st8">Peso:</text>
			<text transform="matrix(1 0 0 1 269.136 1799.4449)" class="st7 st8">•</text>
			<text transform="matrix(1 0 0 1 285.815 1799.4449)" class="st7 st8">Color:</text>
			<text transform="matrix(1 0 0 1 269.136 1847.826)" class="st7 st8">•</text>
			<text transform="matrix(1 0 0 1 285.815 1847.826)" class="st7 st8">Material:</text>
			<text transform="matrix(1 0 0 1 269.136 1896.0649)" class="st7 st8">•</text>
			<text transform="matrix(1 0 0 1 285.815 1896.0649)" class="st7 st8">Densidad:</text>
			<text transform="matrix(1 0 0 1 269.136 1944.442)" class="st7 st8">•</text>
			<text transform="matrix(1 0 0 1 285.815 1944.442)" class="st7 st8">Diámetro:</text>
			<text transform="matrix(1 0 0 1 798.8051 2046.6379)" class="st7 st8">IMAGEN DEL PRODUCTO.</text>
			<text transform="matrix(1 0 0 1 250.346 1992.035)" class="st7 st8">Partes del producto.</text>
		</g>
		<path id="Trazado_3245" class="st9" d="M1199.6,1342.4h-962v718.5h963.1v-718.5H1199.6z M238.7,1391.1h287.4v46.6H238.7
			L238.7,1391.1z M238.7,1438.8h287.4v46.5H238.7L238.7,1438.8z M238.7,1486.4h287.4v46.5H238.7L238.7,1486.4z M238.7,1533.9h287.4
			v46.6H238.7L238.7,1533.9z M238.7,1581.7h287.4v46.5H238.7L238.7,1581.7z M638.4,2059.8H238.7v-93.1h399.7L638.4,2059.8z
			 M638.4,1965.6H238.7v-336.4h399.7L638.4,1965.6z M1199.6,1965.6v94.2H639.4v-430.6h560.2L1199.6,1965.6z M1199.6,1628.2H527.2
			v-46.5h672.4L1199.6,1628.2z M1199.6,1580.6H527.2v-46.6h672.4L1199.6,1580.6z M1199.6,1532.9H527.2v-46.5h672.4L1199.6,1532.9z
			 M1199.6,1485.3H527.2v-46.5h672.4L1199.6,1485.3z M1199.6,1437.7H527.2v-46.6h672.4L1199.6,1437.7z M1199.6,1390h-961v-46.5h961
			L1199.6,1390z"/>
	</g>
</g>
</svg>
