<svg xmlns="http://www.w3.org/2000/svg" xmlns:xlink="http://www.w3.org/1999/xlink" viewBox="0 0 131.93 155.68"><defs><style>.cls-1{fill:url(#Degradado_sin_nombre_25);}.cls-2{fill:#36afea;}</style><linearGradient id="Degradado_sin_nombre_25" x1="65.97" y1="152.77" x2="65.97" y2="2.92" gradientUnits="userSpaceOnUse"><stop offset="0" stop-color="#cbf1f6"/><stop offset="1" stop-color="#fff"/></linearGradient></defs><g id="Capa_2" data-name="Capa 2"><g id="CONTENIDO"><rect class="cls-1" x="2.94" y="2.92" width="126.05" height="149.85" rx="12.21"/><path class="cls-2" d="M120,0H26.65a2.38,2.38,0,0,0,0,4.75H120A7.23,7.23,0,0,1,127.19,12v113.2a2.37,2.37,0,1,0,4.74,0V12A12,12,0,0,0,120,0Z"/><path class="cls-2" d="M129.56,132.77a2.37,2.37,0,0,0-2.37,2.37v8.57a7.23,7.23,0,0,1-7.23,7.23H12a7.24,7.24,0,0,1-7.23-7.23V12A7.24,7.24,0,0,1,12,4.75h4.48a2.38,2.38,0,0,0,0-4.75H12A12,12,0,0,0,0,12V143.71a12,12,0,0,0,12,12H120a12,12,0,0,0,12-12v-8.57a2.37,2.37,0,0,0-2.37-2.37Z"/><path class="cls-2" d="M33,15.31a18,18,0,1,0,18,18,18,18,0,0,0-18-18Zm0,31.28A13.27,13.27,0,1,1,46.29,33.32,13.28,13.28,0,0,1,33,46.59Z"/><path class="cls-2" d="M62.1,24.49h51.72a2.38,2.38,0,1,0,0-4.75H62.1a2.38,2.38,0,0,0,0,4.75Z"/><path class="cls-2" d="M62.1,35.7H99.54a2.38,2.38,0,0,0,0-4.75H62.1a2.38,2.38,0,0,0,0,4.75Z"/><path class="cls-2" d="M62.1,46.91h45.15a2.38,2.38,0,0,0,0-4.75H62.1a2.38,2.38,0,0,0,0,4.75Z"/><path class="cls-2" d="M62.1,69h51.72a2.38,2.38,0,1,0,0-4.75H62.1a2.38,2.38,0,0,0,0,4.75Z"/><path class="cls-2" d="M62.1,80.25H99.54a2.38,2.38,0,0,0,0-4.75H62.1a2.38,2.38,0,0,0,0,4.75Z"/><path class="cls-2" d="M62.1,91.46h45.15a2.37,2.37,0,0,0,0-4.74H62.1a2.37,2.37,0,0,0,0,4.74Z"/><path class="cls-2" d="M33,104.42a18,18,0,1,0,18,18,18,18,0,0,0-18-18Zm0,31.28a13.27,13.27,0,1,1,13.26-13.27A13.28,13.28,0,0,1,33,135.7Z"/><path class="cls-2" d="M62.1,113.59h51.72a2.37,2.37,0,1,0,0-4.74H62.1a2.37,2.37,0,1,0,0,4.74Z"/><path class="cls-2" d="M62.1,124.8H99.54a2.37,2.37,0,0,0,0-4.74H62.1a2.37,2.37,0,0,0,0,4.74Z"/><path class="cls-2" d="M62.1,136h45.15a2.38,2.38,0,0,0,0-4.75H62.1a2.38,2.38,0,0,0,0,4.75Z"/><path class="cls-2" d="M29.76,74.22a2.37,2.37,0,1,0-3.36,3.35l5.85,5.86a2.4,2.4,0,0,0,1.68.69,2.37,2.37,0,0,0,1.68-.69L47.85,71.18l0,0L56,63a2.38,2.38,0,0,0-3.36-3.36l-6.21,6.21a18,18,0,1,0,4.59,12,2.38,2.38,0,1,0-4.75,0,13.27,13.27,0,1,1-3.2-8.64l-9.16,9.15Z"/></g></g></svg>