<svg xmlns="http://www.w3.org/2000/svg" xmlns:xlink="http://www.w3.org/1999/xlink" viewBox="0 0 120 120"><defs><style>.cls-1{fill:url(#Degradado_sin_nombre_25);}.cls-2{fill:url(#Degradado_sin_nombre_25-2);}.cls-3{fill:#36afea;}</style><linearGradient id="Degradado_sin_nombre_25" x1="60.03" y1="118.45" x2="60.03" y2="94.41" gradientUnits="userSpaceOnUse"><stop offset="0" stop-color="#cbf1f6"/><stop offset="1" stop-color="#fff"/></linearGradient><linearGradient id="Degradado_sin_nombre_25-2" x1="60" y1="84.89" x2="60" y2="2.31" xlink:href="#Degradado_sin_nombre_25"/></defs><g id="Capa_2" data-name="Capa 2"><g id="CONTENIDO"><polygon class="cls-1" points="99.45 94.41 19.45 94.41 2.65 109.56 2.65 118.45 117.4 118.45 117.4 110.61 99.45 94.41"/><path class="cls-2" d="M24.75,73.56H52.21L59.8,84.89l7.9-11.33H95.25a4.2,4.2,0,0,0,4.2-4.2V6.51a4.2,4.2,0,0,0-4.2-4.2H24.75a4.2,4.2,0,0,0-4.2,4.2V69.36A4.2,4.2,0,0,0,24.75,73.56Z"/><rect class="cls-3" x="58" y="100" width="4" height="4" rx="2"/><rect class="cls-3" x="66" y="100" width="4" height="4" rx="2"/><rect class="cls-3" x="50" y="100" width="4" height="4" rx="2"/><path class="cls-3" d="M96,0H24a6,6,0,0,0-6,6v6.21a2,2,0,0,0,2,2h0a2,2,0,0,0,2-2V6a2,2,0,0,1,2-2H96a2,2,0,0,1,2,2V70a2,2,0,0,1-2,2H85.87a14,14,0,0,0-8.18-11L68,56.7V53.84A16.3,16.3,0,0,0,72.47,50H78a4,4,0,0,0,4-4V41.24a7.86,7.86,0,0,0,0-10.48v-.23C82,18.6,72.72,8.44,60.8,8A22,22,0,0,0,38,30v.76A8,8,0,0,0,44,44c.17,0,.34,0,.51,0A16,16,0,0,0,52,53.84V56.7L42.31,61a14,14,0,0,0-8.18,11H24a2,2,0,0,1-2-2V20.16a2,2,0,0,0-2-2h0a2,2,0,0,0-2,2V70a6,6,0,0,0,6,6H50.93l7.4,11.11a2,2,0,0,0,3.33,0L69.07,76H96a6,6,0,0,0,6-6V6A6,6,0,0,0,96,0ZM78,46H74.82a16.36,16.36,0,0,0,.67-2c.17,0,.34,0,.51,0a7.91,7.91,0,0,0,2-.28Zm2-10a4,4,0,0,1-4,4V32A4,4,0,0,1,80,36ZM44,40a4,4,0,0,1,0-8Zm0-12a7.79,7.79,0,0,0-1.92.26,18,18,0,0,1,35.83,0A7.65,7.65,0,0,0,76,28c-.17,0-.34,0-.51.05a16,16,0,0,0-31,0C44.34,28,44.17,28,44,28Zm27.82,2h-1l-3.41-3.41a2,2,0,0,0-2.31-.38L57.53,30H48.18a12,12,0,0,1,23.64,0ZM48,40V34H58a1.94,1.94,0,0,0,.89-.21l6.71-3.36,3,3A2,2,0,0,0,70,34h2v6a11.92,11.92,0,0,1-1.62,6H62.11A2.07,2.07,0,0,0,60,47.66,2,2,0,0,0,62,50h4.62A12,12,0,0,1,48,40ZM64,55.47v2.36A4.12,4.12,0,0,1,60.39,62,4,4,0,0,1,56,58V55.47A15.29,15.29,0,0,0,64,55.47ZM68,72a2,2,0,0,0-1.66.89L60,82.4l-6.34-9.5A2,2,0,0,0,52,72H38.18a10,10,0,0,1,5.76-7.34l8.6-3.82a8,8,0,0,0,14.91,0l8.6,3.82A10,10,0,0,1,81.82,72Z"/><path class="cls-3" d="M118.66,107.91,101.9,93a4,4,0,0,0-2.66-1H20.76a4,4,0,0,0-2.66,1L1.34,107.91a4,4,0,0,0-1.34,3V116a4,4,0,0,0,4,4H83.31a2,2,0,0,0,2-2h0a2,2,0,0,0-2-2H4v-4H116v4H91.25a2,2,0,0,0-2,2h0a2,2,0,0,0,2,2H116a4,4,0,0,0,4-4v-5.1A4,4,0,0,0,118.66,107.91ZM7.26,108l13.5-12h6.41l-12,12Zm13.57,0,12-12H99.24l13.5,12Z"/></g></g></svg>