<svg xmlns="http://www.w3.org/2000/svg" xmlns:xlink="http://www.w3.org/1999/xlink" viewBox="0 0 113.13 118.45"><defs><style>.cls-1{fill:url(#Degradado_sin_nombre_25);}.cls-2{fill:url(#Degradado_sin_nombre_25-2);}.cls-3{fill:#26a79a;}</style><linearGradient id="Degradado_sin_nombre_25" x1="56.48" y1="64.33" x2="56.48" y2="2.38" gradientUnits="userSpaceOnUse"><stop offset="0" stop-color="#cbf1f6"/><stop offset="1" stop-color="#fff"/></linearGradient><linearGradient id="Degradado_sin_nombre_25-2" x1="56.57" y1="116.98" x2="56.57" y2="65.1" xlink:href="#Degradado_sin_nombre_25"/></defs><g id="Capa_2" data-name="Capa 2"><g id="CONTENIDO"><path class="cls-1" d="M16.43,46.41H26.5c1.87,13.76,12.12,11.32,12.12,11.32-4-1.89-3.44-8.24-2.92-11.32H48a9.68,9.68,0,0,0,7.21-3.22,9.69,9.69,0,0,0,9.69,9.44H76.32c.94,2.51,2.1,7.67-2.3,11.39,0,0,10.76,3.26,11.8-11.39H96.53a9.7,9.7,0,0,0,9.7-9.7V18.29a9.71,9.71,0,0,0-9.7-9.7H64.93a9.68,9.68,0,0,0-7.21,3.22A9.69,9.69,0,0,0,48,2.38H16.43a9.7,9.7,0,0,0-9.7,9.7V36.71A9.7,9.7,0,0,0,16.43,46.41Z"/><path class="cls-2" d="M94.72,90.12H92a12.52,12.52,0,1,0-.87,0H88.71c-6.63,0-12.31,6.3-14.69,11.9-2.45-5.45-8-11.9-14.58-11.9H56.75a12.52,12.52,0,1,0-.87,0H53.43c-6.52,0-12.11,6.08-14.57,11.61-2.51-5.39-8-11.61-14.44-11.61H21.73a12.52,12.52,0,1,0-.87,0H18.41C9.63,90.12,2.52,101.18,2.52,107v2.72A7.25,7.25,0,0,0,9.76,117H33.07a7.21,7.21,0,0,0,5.85-3,7.25,7.25,0,0,0,5.86,3h23.3a7.24,7.24,0,0,0,6-3.17,7.27,7.27,0,0,0,6,3.17h23.31a7.26,7.26,0,0,0,7.25-7.25V107C110.62,101.79,103.5,90.12,94.72,90.12Z"/><path class="cls-3" d="M110.74,100a1.74,1.74,0,1,0-3.08,1.6,17.45,17.45,0,0,1,2,8.18v0a5.18,5.18,0,0,1-5.18,5.18h-25a5.22,5.22,0,0,1-2.86-.86,8.66,8.66,0,0,0,1.15-4.32v0a21,21,0,0,0-1.56-8,17.71,17.71,0,0,1,27.34-5.43,1.73,1.73,0,0,0,2.26-2.63A21.18,21.18,0,0,0,99.46,90a14.47,14.47,0,1,0-15,0,21.31,21.31,0,0,0-10.21,8.19A21.28,21.28,0,0,0,64.06,90a14.46,14.46,0,1,0-15,0,21.28,21.28,0,0,0-10.2,8.19,20.9,20.9,0,0,0-2.73-3.36A21.14,21.14,0,0,0,28.67,90a14.45,14.45,0,1,0-15,0,21,21,0,0,0-7.29,4.65,1.74,1.74,0,1,0,2.43,2.48,17.7,17.7,0,0,1,24.87.15A17.2,17.2,0,0,1,37,101.79a21,21,0,0,0-1.56,8v0a8.66,8.66,0,0,0,1.15,4.32,5.22,5.22,0,0,1-2.86.86h-25a5.18,5.18,0,0,1-5.18-5.18v0a17.63,17.63,0,0,1,1.45-7,1.74,1.74,0,1,0-3.19-1.37A21,21,0,0,0,0,109.78v0a8.66,8.66,0,0,0,8.65,8.65h25a8.66,8.66,0,0,0,5.18-1.72A8.59,8.59,0,0,0,44,118.45H69.09a8.59,8.59,0,0,0,5.17-1.72,8.66,8.66,0,0,0,5.18,1.72h25a8.66,8.66,0,0,0,8.65-8.65v0a21.22,21.22,0,0,0-2.39-9.78ZM81,77.62a11,11,0,1,1,11,11,11,11,0,0,1-11-11Zm-70.79,0a11,11,0,1,1,11,11,11,11,0,0,1-11-11Zm35.4,0a11,11,0,1,1,11,11,11,11,0,0,1-11-11ZM44,115a5.18,5.18,0,0,1-5.17-5.18v0a17.7,17.7,0,1,1,35.39,0v0A5.18,5.18,0,0,1,69.09,115Z"/><path class="cls-3" d="M68.13,24.35H92.66a1.74,1.74,0,0,0,0-3.47H68.13a1.74,1.74,0,0,0,0,3.47Z"/><path class="cls-3" d="M68.13,31.29H92.66a1.74,1.74,0,0,0,0-3.47H68.13a1.74,1.74,0,0,0,0,3.47Z"/><path class="cls-3" d="M68.13,38.23H92.66a1.74,1.74,0,0,0,0-3.47H68.13a1.74,1.74,0,0,0,0,3.47Z"/><path class="cls-3" d="M17.09,48.18H25.4C25.94,52.7,27.55,56,30.2,58a11.19,11.19,0,0,0,6.87,2.14,15.8,15.8,0,0,0,3.42-.38,2,2,0,0,0-.07-3.91,3.11,3.11,0,0,1-2.27-1.44c-1-1.67-.82-4.45-.48-6.24H48.38A11.87,11.87,0,0,0,53.64,47,12,12,0,0,0,64.75,54.6H75.46c.34,1.79.55,4.57-.48,6.24a3.11,3.11,0,0,1-2.27,1.44,2,2,0,0,0-.07,3.92,16.52,16.52,0,0,0,3.42.37,11.19,11.19,0,0,0,6.87-2.14c2.65-2,4.26-5.31,4.8-9.83H96a11.9,11.9,0,0,0,11.89-11.88V18.3A11.9,11.9,0,0,0,96,6.42H64.75a11.92,11.92,0,0,0-5.26,1.23A11.9,11.9,0,0,0,48.38,0H27a1.74,1.74,0,0,0,0,3.47H48.38a8.42,8.42,0,0,1,8.42,8.41V36.3a8.42,8.42,0,0,1-8.42,8.41H36.29A1.73,1.73,0,0,0,34.63,46c-.2.65-1.81,6.44.57,10.29.06.1.13.2.2.3a6.9,6.9,0,0,1-3.1-1.3c-2.12-1.6-3.32-4.6-3.58-8.9A1.73,1.73,0,0,0,27,44.71h-9.9A8.42,8.42,0,0,1,8.68,36.3V11.88a8.42,8.42,0,0,1,8.41-8.41h2.46a1.74,1.74,0,0,0,0-3.47H17.09A11.89,11.89,0,0,0,5.21,11.88V36.3A11.89,11.89,0,0,0,17.09,48.18ZM60.27,36.3V11.88c0-.23,0-.46,0-.68a8.27,8.27,0,0,1,4.5-1.31H96a8.42,8.42,0,0,1,8.41,8.41V42.72A8.42,8.42,0,0,1,96,51.13h-9.9a1.73,1.73,0,0,0-1.73,1.63c-.26,4.3-1.46,7.3-3.58,8.91a7.14,7.14,0,0,1-3.1,1.3,3.28,3.28,0,0,0,.2-.31c2.38-3.84.77-9.64.57-10.29a1.73,1.73,0,0,0-1.66-1.24H64.75a8.47,8.47,0,0,1-8.14-6.27,11.84,11.84,0,0,0,3.66-8.56Z"/><path class="cls-3" d="M16.66,20.68c0,3.65,1.89,10.76,14.57,17.47a3.25,3.25,0,0,0,3,0c12.68-6.71,14.58-13.82,14.58-17.47,0-5.56-3.92-9.92-8.91-9.92a10.55,10.55,0,0,0-7.17,2.83,10.57,10.57,0,0,0-7.18-2.83c-5,0-8.9,4.36-8.9,9.92Zm8.9-6.45a7.08,7.08,0,0,1,5.12,2.19,2.9,2.9,0,0,0,2.06.86,2.86,2.86,0,0,0,2-.86,7.1,7.1,0,0,1,5.12-2.19c3.53,0,5.43,3.32,5.43,6.45,0,4.85-4.59,10.07-12.6,14.34-8-4.27-12.61-9.49-12.61-14.34,0-3.13,1.9-6.45,5.43-6.45Z"/></g></g></svg>