<svg xmlns="http://www.w3.org/2000/svg" xmlns:xlink="http://www.w3.org/1999/xlink" viewBox="0 0 157.49 155.68"><defs><style>.cls-1{fill:url(#Degradado_sin_nombre_25);}.cls-2{fill:url(#Degradado_sin_nombre_25-2);}.cls-3{fill:url(#Degradado_sin_nombre_25-3);}.cls-4{fill:url(#Degradado_sin_nombre_25-4);}.cls-5{fill:url(#Degradado_sin_nombre_25-5);}.cls-6{fill:#36afea;}</style><linearGradient id="Degradado_sin_nombre_25" x1="69.61" y1="102.95" x2="109.78" y2="102.95" gradientUnits="userSpaceOnUse"><stop offset="0" stop-color="#cbf1f6"/><stop offset="1" stop-color="#fff"/></linearGradient><linearGradient id="Degradado_sin_nombre_25-2" x1="1.81" y1="62.78" x2="41.99" y2="62.78" xlink:href="#Degradado_sin_nombre_25"/><linearGradient id="Degradado_sin_nombre_25-3" x1="89.7" y1="31.59" x2="89.7" y2="1.79" xlink:href="#Degradado_sin_nombre_25"/><linearGradient id="Degradado_sin_nombre_25-4" x1="89.7" y1="71.25" x2="89.7" y2="55.38" xlink:href="#Degradado_sin_nombre_25"/><linearGradient id="Degradado_sin_nombre_25-5" x1="89.7" y1="151.06" x2="89.7" y2="135.2" xlink:href="#Degradado_sin_nombre_25"/></defs><g id="Capa_2" data-name="Capa 2"><g id="CONTENIDO"><polygon class="cls-1" points="89.69 90.4 109.78 102.95 89.69 115.51 69.61 102.95 89.69 90.4"/><polygon class="cls-2" points="21.9 50.22 41.99 62.77 21.9 75.33 1.81 62.77 21.9 50.22"/><rect class="cls-3" x="69.61" y="1.79" width="40.18" height="29.79"/><rect class="cls-4" x="74.34" y="55.38" width="30.7" height="15.86"/><rect class="cls-5" x="68.37" y="135.2" width="42.66" height="15.86"/><path class="cls-6" d="M107.27,130.57H92.21V116.9l22.31-14L92.21,89V72.82h15.06V52.73H92.21V35.15h20.08V0H67.1V35.15H87.18V52.73H72.12v7.53H52a2.51,2.51,0,0,0-2.51,2.52h0A2.51,2.51,0,0,0,52,65.29H72.12v7.53H87.18V89L64.87,103l22.31,14v13.67H72.12a7.55,7.55,0,0,0-7.54,7.54v10a7.54,7.54,0,0,0,7.54,7.53h35.15a7.54,7.54,0,0,0,7.54-7.53v-10a7.55,7.55,0,0,0-7.54-7.54ZM72.12,5h35.15V30.13H72.12Zm5,52.73h25.11v10H77.14ZM89.7,93.36,105.05,103l-15.35,9.6L74.34,103Zm20.08,54.79a2.52,2.52,0,0,1-2.51,2.51H72.12a2.52,2.52,0,0,1-2.51-2.51v-10a2.52,2.52,0,0,1,2.51-2.52h35.15a2.52,2.52,0,0,1,2.51,2.52Z"/><path class="cls-6" d="M43.8,62.78,21.9,47.13,0,62.78,21.9,78.42ZM21.9,53.31l13.25,9.47L21.9,72.24,8.64,62.78Z"/><rect class="cls-6" x="77.14" y="10.04" width="25.11" height="5.02" rx="2.51"/><rect class="cls-6" x="77.14" y="20.09" width="15.07" height="5.02" rx="2.51"/><rect class="cls-6" x="97.23" y="20.09" width="5.02" height="5.02" rx="2.51"/><path class="cls-6" d="M120,20.09h22.93a7.52,7.52,0,0,0,4.56,4.56V70.88A2.51,2.51,0,0,0,150,73.39h0a2.51,2.51,0,0,0,2.51-2.51V24.65a7.51,7.51,0,1,0-9.58-9.58H119.83A2.51,2.51,0,0,0,117.35,18,2.61,2.61,0,0,0,120,20.09Zm30-5a2.51,2.51,0,1,1-2.51,2.51A2.51,2.51,0,0,1,150,15.07Z"/><path class="cls-6" d="M152.47,95.88V80.93A2.51,2.51,0,0,0,150,78.42h0a2.51,2.51,0,0,0-2.51,2.51V95.88a7.54,7.54,0,0,0-4.56,4.56h-17l3.89-3.88a2.61,2.61,0,0,0,.36-3.33,2.51,2.51,0,0,0-3.82-.32l-10,10,10,10a2.51,2.51,0,0,0,3.55,0h0a2.51,2.51,0,0,0,0-3.55l-4-4h17a7.51,7.51,0,1,0,9.58-9.58ZM150,105.46a2.51,2.51,0,1,1,2.51-2.51A2.52,2.52,0,0,1,150,105.46Z"/><path class="cls-6" d="M24.41,110V85.51a2.61,2.61,0,0,0-2.09-2.61,2.51,2.51,0,0,0-2.93,2.47V110a2.51,2.51,0,0,0,2.51,2.51h0A2.52,2.52,0,0,0,24.41,110Z"/><path class="cls-6" d="M50.56,133.08a2.52,2.52,0,0,0-3.83.33,2.61,2.61,0,0,0,.37,3.32L51,140.62H29a7.49,7.49,0,0,0-4.56-4.56v-16a2.51,2.51,0,0,0-2.51-2.51h0a2.51,2.51,0,0,0-2.51,2.51v16A7.51,7.51,0,1,0,29,145.64H51l-3.89,3.89a2.61,2.61,0,0,0-.37,3.32,2.52,2.52,0,0,0,3.83.32l10-10ZM21.9,145.64a2.51,2.51,0,1,1,2.51-2.51A2.51,2.51,0,0,1,21.9,145.64Z"/></g></g></svg>