<svg xmlns="http://www.w3.org/2000/svg" xmlns:xlink="http://www.w3.org/1999/xlink" viewBox="0 0 128.43 132.87"><defs><style>.cls-1{fill:url(#Degradado_sin_nombre_25);}.cls-2,.cls-3{fill:#36afea;}.cls-3{opacity:0.25;}</style><linearGradient id="Degradado_sin_nombre_25" x1="64.21" y1="130.2" x2="64.21" y2="2.49" gradientUnits="userSpaceOnUse"><stop offset="0" stop-color="#cbf1f6"/><stop offset="1" stop-color="#fff"/></linearGradient></defs><g id="Capa_2" data-name="Capa 2"><g id="CONTENIDO"><polygon class="cls-1" points="64.21 2.49 50.74 11.87 50.74 2.49 2.08 2.49 2.08 25.31 31.43 25.31 2.08 45.74 2.08 130.2 126.35 130.2 126.35 45.74 64.21 2.49"/><path class="cls-2" d="M48.93,3a1,1,0,0,1,1,1V24.36a1,1,0,0,1-1,1.05H4.05a1,1,0,0,1-1-1.05V4.05a1,1,0,0,1,1-1H48.93m0-3H4.05A4,4,0,0,0,0,4.05V24.36a4,4,0,0,0,4.05,4.05H48.93a4,4,0,0,0,4-4.05V4.05a4,4,0,0,0-4-4Z"/><path class="cls-2" d="M12.37,10.93a1.08,1.08,0,0,0-.86.37,1.54,1.54,0,0,0-.32,1.07v7.14a1.67,1.67,0,0,0,.36,1.17,1.18,1.18,0,0,0,.93.4,1.15,1.15,0,0,0,.92-.4,1.67,1.67,0,0,0,.36-1.17V16.13a5.94,5.94,0,0,1,.38-2.41,1.6,1.6,0,0,1,1.62-.84,1.11,1.11,0,0,1,.89.33,1.59,1.59,0,0,1,.35.86,13.56,13.56,0,0,1,.06,1.46v4a1.7,1.7,0,0,0,.36,1.18,1.17,1.17,0,0,0,.92.39,1.21,1.21,0,0,0,.94-.39,1.75,1.75,0,0,0,.35-1.18V16.19A6.26,6.26,0,0,1,19.91,14a2,2,0,0,1,.69-.79,1.7,1.7,0,0,1,.94-.29,1.18,1.18,0,0,1,.91.33,1.52,1.52,0,0,1,.37.81,9,9,0,0,1,.07,1.29v4.2a1.67,1.67,0,0,0,.36,1.17,1.18,1.18,0,0,0,.93.4,1.21,1.21,0,0,0,.94-.39,1.7,1.7,0,0,0,.36-1.18V14.64a5.42,5.42,0,0,0-.32-2.14,2.68,2.68,0,0,0-1.11-1.15,3.62,3.62,0,0,0-1.77-.4,3.39,3.39,0,0,0-1.59.37,4.33,4.33,0,0,0-1.36,1.14,2.87,2.87,0,0,0-1.11-1.13A3.29,3.29,0,0,0,16.6,11a3.63,3.63,0,0,0-1.65.37,4.37,4.37,0,0,0-1.39,1.14v-.24a1.25,1.25,0,0,0-.34-.94,1.15,1.15,0,0,0-.85-.35Z"/><path class="cls-2" d="M29.16,7.33a1.25,1.25,0,0,0-.88.34,1.11,1.11,0,0,0-.38.88,1.11,1.11,0,0,0,.37.9,1.33,1.33,0,0,0,.89.32A1.32,1.32,0,0,0,30,9.45a1.16,1.16,0,0,0,.36-.9A1.11,1.11,0,0,0,30,7.64a1.3,1.3,0,0,0-.86-.31Zm0,3.6a1.16,1.16,0,0,0-.89.38,1.59,1.59,0,0,0-.34,1.11v7.14a1.66,1.66,0,0,0,.34,1.13,1.14,1.14,0,0,0,.89.39A1.21,1.21,0,0,0,30,20.7a1.67,1.67,0,0,0,.35-1.14V12.35a1.47,1.47,0,0,0-.35-1,1.21,1.21,0,0,0-.91-.38Z"/><path class="cls-2" d="M38.48,10.93a3.85,3.85,0,0,0-1.8.41,4.46,4.46,0,0,0-1.44,1.27v-.3a1.61,1.61,0,0,0-.16-.76,1.13,1.13,0,0,0-.43-.46,1.07,1.07,0,0,0-.59-.16,1.09,1.09,0,0,0-.85.35,1.57,1.57,0,0,0-.31,1.07v7.21a1.61,1.61,0,0,0,.35,1.13,1.12,1.12,0,0,0,.88.39A1.19,1.19,0,0,0,35,20.7a1.59,1.59,0,0,0,.35-1.14V16.44a7.84,7.84,0,0,1,.19-2.09,2.29,2.29,0,0,1,.8-1.09,2,2,0,0,1,1.22-.4,1.38,1.38,0,0,1,1.36.66,4.08,4.08,0,0,1,.35,1.88v4.16a1.66,1.66,0,0,0,.34,1.13,1.18,1.18,0,0,0,.91.39,1.15,1.15,0,0,0,.89-.38,1.67,1.67,0,0,0,.34-1.14V14.92a10,10,0,0,0-.07-1.35,2.74,2.74,0,0,0-.32-1,2.74,2.74,0,0,0-1.16-1.22,3.67,3.67,0,0,0-1.76-.43Z"/><polygon class="cls-3" points="103.76 77.3 103.76 55.71 24.66 55.71 24.66 77.3 50.24 77.3 50.24 103.73 77.67 103.73 77.67 130.16 104.35 130.16 104.35 77.3 103.76 77.3"/><path class="cls-2" d="M127.52,42.52,65.38.36a2.07,2.07,0,0,0-2.33,0L53,7.19v5L64.21,4.59l60.06,40.76v83.36h-18V84.19a2.08,2.08,0,0,0-4.16,0v44.52H79.61V104.16a2.08,2.08,0,0,0-2.08-2.08H53V77.53a2.08,2.08,0,0,0-2.08-2.08H26.35v-18h75.73V75.31a2.08,2.08,0,0,0,4.16,0V57.42h2.36a2.08,2.08,0,0,0,2.08-2.08V46.46a2.08,2.08,0,0,0-2.08-2.08H19.83a2.08,2.08,0,0,0-2.08,2.08v8.88a2.08,2.08,0,0,0,2.08,2.08h2.36v71.29h-18V45.35l25-16.94H21.71L.91,42.52A2.08,2.08,0,0,0,0,44.24v86.55a2.08,2.08,0,0,0,2.08,2.08H126.35a2.08,2.08,0,0,0,2.08-2.08V44.24A2.08,2.08,0,0,0,127.52,42.52ZM35.23,79.61h4.71v9.15H35.23ZM21.91,53.26V48.54h84.61v4.72Zm4.44,26.35h4.72V90.84a2.08,2.08,0,0,0,2.08,2.08H42a2.08,2.08,0,0,0,2.08-2.08V79.61h4.72v22.47H26.35Zm13.59,26.63v9.15H35.23v-9.15Zm8.88,22.47H26.35V106.24h4.72v11.23a2.08,2.08,0,0,0,2.08,2.08H42a2.08,2.08,0,0,0,2.08-2.08V106.24h4.72Zm13-22.47h4.71v9.15H61.86Zm13.59,22.47H53V106.24H57.7v11.23a2.08,2.08,0,0,0,2.08,2.08h8.87a2.08,2.08,0,0,0,2.08-2.08V106.24h4.72Z"/></g></g></svg>