<svg xmlns="http://www.w3.org/2000/svg" xmlns:xlink="http://www.w3.org/1999/xlink" viewBox="0 0 102.43 102.41"><defs><style>.cls-1{fill:url(#Degradado_sin_nombre_25);}.cls-2{fill:#049be5;}</style><linearGradient id="Degradado_sin_nombre_25" x1="51.22" y1="100.53" x2="51.22" y2="1.12" gradientUnits="userSpaceOnUse"><stop offset="0" stop-color="#cbf1f6"/><stop offset="1" stop-color="#fff"/></linearGradient></defs><g id="Capa_2" data-name="Capa 2"><g id="CONTENIDO"><path class="cls-1" d="M1.72,27.52v67.4H44.38a8,8,0,0,0,7.74,5.61c4.21,0,5.4-4.61,5.4-4.61h43.2V27.52h-6.4v-7H74.52s-2.23-19.36-25-19.36c-19,0-21.34,19.36-21.34,19.36H7.92v7Z"/><path class="cls-2" d="M42.68,56.33H17.07V39.26h8.54V35.85H13.66v23.9h29Z"/><rect class="cls-2" x="13.66" y="63.16" width="3.41" height="3.41"/><rect class="cls-2" x="20.49" y="63.16" width="23.9" height="3.41"/><rect class="cls-2" x="13.66" y="69.99" width="3.41" height="3.41"/><rect class="cls-2" x="20.49" y="69.99" width="23.9" height="3.41"/><rect class="cls-2" x="13.66" y="76.82" width="3.41" height="3.41"/><rect class="cls-2" x="20.49" y="76.82" width="23.9" height="3.41"/><path class="cls-2" d="M88.77,64.87H56.33V81.94H88.77ZM85.36,78.52H59.75V68.28H85.36Z"/><rect class="cls-2" x="64.87" y="58.04" width="23.9" height="3.41"/><rect class="cls-2" x="64.87" y="51.21" width="23.9" height="3.41"/><rect class="cls-2" x="73.41" y="44.38" width="15.36" height="3.41"/><rect class="cls-2" x="76.82" y="37.55" width="11.95" height="3.41"/><path class="cls-2" d="M56.33,22.19H46.09V42.67H56.33ZM52.92,39.26H49.51V25.6h3.41Z"/><path class="cls-2" d="M51.21,20.48a5.12,5.12,0,1,0-5.12-5.12,5.12,5.12,0,0,0,5.12,5.12Zm0-6.83a1.71,1.71,0,1,1-1.7,1.71,1.71,1.71,0,0,1,1.7-1.71Z"/><path class="cls-2" d="M102.43,61.51V25.6H95.6V18.78H75.87a25.57,25.57,0,0,0-49.31,0H6.83V25.6H0V97.3H43.26a1.81,1.81,0,0,1,1.67,1,6.83,6.83,0,0,0,12.56,0,1.81,1.81,0,0,1,1.68-1h43.26V68.23a1.66,1.66,0,0,0-1.66-1.66h-.1A1.66,1.66,0,0,0,99,68.23V93.89H59.17a5.18,5.18,0,0,0-4.82,3,3.41,3.41,0,0,1-6.28,0,5.19,5.19,0,0,0-4.81-3H3.41V29H6.83V90.47H17.16a1.62,1.62,0,0,0,1.62-1.62v-.17a1.62,1.62,0,0,0-1.62-1.62H10.24V22.19H25.86A25.37,25.37,0,0,0,42.64,49.73l8.57,15.34,8.58-15.34A25.37,25.37,0,0,0,76.57,22.19H92.18V87.06H52.92V68.28H49.51V87.06H23.81a1.62,1.62,0,0,0-1.62,1.62v.17a1.62,1.62,0,0,0,1.62,1.62H95.6V29H99V61.51a1.65,1.65,0,0,0,1.66,1.65h.1A1.65,1.65,0,0,0,102.43,61.51ZM58.09,46.7l-.63.21L51.21,58.07,45,46.91l-.64-.21a22.19,22.19,0,1,1,13.76,0Z"/></g></g></svg>