<svg xmlns="http://www.w3.org/2000/svg" xmlns:xlink="http://www.w3.org/1999/xlink" viewBox="0 0 160.67 155.16"><defs><style>.cls-1{fill:url(#Degradado_sin_nombre_25);}.cls-2{fill:#36afea;}</style><linearGradient id="Degradado_sin_nombre_25" x1="80.4" y1="152.8" x2="80.4" y2="2.54" gradientUnits="userSpaceOnUse"><stop offset="0" stop-color="#cbf1f6"/><stop offset="1" stop-color="#fff"/></linearGradient></defs><g id="Capa_2" data-name="Capa 2"><g id="CONTENIDO"><path class="cls-1" d="M158,125.71s0-14.88-29.29-14.88c0,0-1.6-6.64-.78-10.64,0,0,12.19-15.28,10.84-34.43s-21.34-17-21.34-17l-13,2.9-4,4.55s-5.53-.69-5.53,11.11a46.86,46.86,0,0,0-17.41-3.86s-1.74-3.32-1.74-10.27c0,0,8.84-6.92,8.84-14.68,0,0,5.67.09,2.76-11.61,0,0,4.58-24.18-22.18-24.18,0,0-12.25-1.55-14,5,0,0-11.87-4.18-7.2,19.15,0,0-5.46,6.56,0,10.83,0,0,1.86,10.84,10.62,15.46,0,0,.84,8-1.68,11,0,0-28,1.05-28,15v20.5H2.61v18.57l6.77,1v27.56a6.1,6.1,0,0,0,6.1,6.09h142.7V127.29A8.22,8.22,0,0,0,158,125.71Z"/><path class="cls-2" d="M160.59,128.33a17.22,17.22,0,0,0-10.26-15.66c-5.09-2.23-14.26-3.62-19.28-4.25a.69.69,0,0,1-.6-.68l0-6.82c.49-.37,1-.75,1.45-1.17a19.67,19.67,0,0,0,6.62-13,4,4,0,0,0,1.63-2.35l.08-.33A40.84,40.84,0,0,0,141.31,77a2.36,2.36,0,0,0-4.71-.3,36.52,36.52,0,0,1-.94,6.16,2.36,2.36,0,0,0-1.79,2.25,15,15,0,0,1-5.09,11.1,19.27,19.27,0,0,1-2.08,1.57,16.82,16.82,0,0,1-18.6.08A18,18,0,0,1,106,96.29a15.19,15.19,0,0,1-5.19-11.22A2.37,2.37,0,0,0,99,82.83a35.49,35.49,0,0,1-1.11-8.77c0-6.69,0-12.22,0-12.22a3.91,3.91,0,0,1,3.88-3.91,4.65,4.65,0,0,0,4.37-3.12,3.84,3.84,0,0,1,3.62-2.58l14.84-.07h.06a12,12,0,0,1,12,12v1.63A2.36,2.36,0,0,0,139,68.13h0a2.35,2.35,0,0,0,2.35-2.36V64.13a16.78,16.78,0,0,0-16.75-16.69h-.08l-14.84.07a8.56,8.56,0,0,0-8,5.7,8.61,8.61,0,0,0-8.52,8.65v1.68c-2.66-.7-5.6-1.27-8.29-1.71h0c-2.26-.38-4.34-.66-5.91-.86h0a.68.68,0,0,1-.6-.68l0-6.81c.49-.37,1-.76,1.46-1.17A19.78,19.78,0,0,0,86.31,39.8a5.79,5.79,0,0,0,4.86-5.73l0-3.79a5.71,5.71,0,0,0-1.86-4.22l0-9.38A16.76,16.76,0,0,0,72.43,0L57.58.06a8.59,8.59,0,0,0-8,5.7A8.63,8.63,0,0,0,41,14.42l0,11.85a5.71,5.71,0,0,0-1.82,4.23v3.79A5.79,5.79,0,0,0,44.17,40a19.77,19.77,0,0,0,6.66,12.45c.48.41,1,.79,1.46,1.16l0,6.81a.69.69,0,0,1-.6.69c-5,.67-14.18,2.14-19.24,4.41A17.21,17.21,0,0,0,22.36,81.24l.06,16H5.69A5.69,5.69,0,0,0,0,102.93v12.66a5.69,5.69,0,0,0,5.69,5.68H7.37v7.47a2.36,2.36,0,0,0,4.72,0v-7.47h64a17.15,17.15,0,0,0-1.66,7.42L74.56,149a6.13,6.13,0,0,0,.17,1.42H15.18a3.1,3.1,0,0,1-3.09-3.09v-7.58a2.36,2.36,0,1,0-4.72,0v7.58a7.83,7.83,0,0,0,7.81,7.81H154.53a6.41,6.41,0,0,0,6.14-6.5ZM109.14,103.7a21.36,21.36,0,0,0,16.57-.07l0,4.13a5.31,5.31,0,0,0,.7,2.62,23,23,0,0,1-18,.08,5.47,5.47,0,0,0,.68-2.63ZM87.77,68.91a4.51,4.51,0,0,0,.73-1.61c1.62.34,3.21.72,4.65,1.14,0,1.69,0,3.61,0,5.63a40.46,40.46,0,0,0,1.39,10.44,4,4,0,0,0,1.65,2.3,20.11,20.11,0,0,0,4.2,10.43H73.68l-2.24-13.4,1.93-3.39a7.15,7.15,0,0,0,8-2.64Zm-8.59-3.15c1.31.17,2.88.39,4.56.67l-6.22,8.62a2.43,2.43,0,0,1-1.66,1A2.36,2.36,0,0,1,74,75.53l-4.56-3.62ZM67.6,81.05l-4.39,0-1.83-3.14,4-3.22,4,3.19Zm1.29,16.19H62.07l1.8-11.46H67ZM65.36,68.91l-9.13-5.66A5.42,5.42,0,0,0,57,60.38l0-4.13a21.86,21.86,0,0,0,8.27,1.64h0a21.91,21.91,0,0,0,8.25-1.7l0,4.12a5.38,5.38,0,0,0,.84,2.86ZM49.62,10.48A4.64,4.64,0,0,0,54,7.37,3.86,3.86,0,0,1,57.6,4.78l14.85-.06h0a12.05,12.05,0,0,1,12,12l0,8.51a8.76,8.76,0,0,0-3.47,1.67h-.2l0-6.83a7.76,7.76,0,0,0-7.75-7.72H73a10.77,10.77,0,0,0-3.32.53,15.2,15.2,0,0,1-9.15,0,11.05,11.05,0,0,0-3.33-.49h-.06a7.76,7.76,0,0,0-7.72,7.78l0,5.68a17.52,17.52,0,0,0-3.68-.68l0-10.78a3.91,3.91,0,0,1,3.88-3.92Zm-.91,27.14a2.37,2.37,0,0,0-2.36-2.3H45A1.07,1.07,0,0,1,44,34.27l0-3.79a1,1,0,0,1,.24-.66c2,.06,4.35.48,4.94,1.05a3,3,0,0,0,5.06-2.13l0-8.58a3,3,0,0,1,3-3h.06a6.09,6.09,0,0,1,1.91.28,19.83,19.83,0,0,0,12,0,6.25,6.25,0,0,1,1.91-.3h.08a3,3,0,0,1,3,3l0,8.57A2.63,2.63,0,0,0,78,31.09c.49.21,4.31,1.23,5.91-.36a4.37,4.37,0,0,1,2.36-1,1,1,0,0,1,.2.61l0,3.79a1.05,1.05,0,0,1-1,1.06H84.1a2.37,2.37,0,0,0-2.35,2.32,15.18,15.18,0,0,1-5.09,11.26,18.41,18.41,0,0,1-2,1.51,17.13,17.13,0,0,1-9.39,2.92,17.4,17.4,0,0,1-11.41-4.33,15.22,15.22,0,0,1-5.18-11.22Zm2.81,28.26,9.78,6.06-4.54,3.65a2.44,2.44,0,0,1-3.52-.46L47,66.59c1.74-.3,3.32-.54,4.55-.71Zm-17.1,3.93a42.15,42.15,0,0,1,7.79-2.31A4.51,4.51,0,0,0,43,69.1l6.48,8.83a7.21,7.21,0,0,0,8,2.58l2,3.38L57.3,97.24H27.14l-.06-16a12.46,12.46,0,0,1,7.34-11.41ZM5.69,116.56a1,1,0,0,1-1-1V102.93a1,1,0,0,1,1-1h98.72l0,5.89a.69.69,0,0,1-.6.68h0c-5,.68-14.18,2.14-19.24,4.42a17.22,17.22,0,0,0-5.18,3.61Zm148.83,33.88H80.72A1.44,1.44,0,0,1,79.28,149l-.09-20.33a12.45,12.45,0,0,1,7.35-11.41c4.38-2,12.9-3.35,17.11-3.94a27.66,27.66,0,0,0,27.63-.11c4.22.55,12.75,1.85,17.15,3.78a12.49,12.49,0,0,1,7.44,11.36l.08,20.33a1.77,1.77,0,0,1-1.43,1.76Z"/></g></g></svg>