<svg xmlns="http://www.w3.org/2000/svg" xmlns:xlink="http://www.w3.org/1999/xlink" viewBox="0 0 104.49 104.26"><defs><style>.cls-1{fill:url(#Degradado_sin_nombre_21);}.cls-2{fill:url(#Degradado_sin_nombre_21-2);}.cls-3{fill:url(#Degradado_sin_nombre_21-3);}.cls-4{fill:url(#Degradado_sin_nombre_21-4);}.cls-5{fill:url(#Degradado_sin_nombre_21-5);}.cls-6{fill:#049be5;}</style><linearGradient id="Degradado_sin_nombre_21" x1="14.09" y1="101.59" x2="14.09" y2="89.49" gradientUnits="userSpaceOnUse"><stop offset="0" stop-color="#c3e7f9"/><stop offset="1" stop-color="#fff"/></linearGradient><linearGradient id="Degradado_sin_nombre_21-2" x1="40.2" y1="101.59" x2="40.2" y2="83.89" xlink:href="#Degradado_sin_nombre_21"/><linearGradient id="Degradado_sin_nombre_21-3" x1="66.27" y1="101.59" x2="66.27" y2="76.54" xlink:href="#Degradado_sin_nombre_21"/><linearGradient id="Degradado_sin_nombre_21-4" x1="92.33" y1="101.59" x2="92.33" y2="61.66" xlink:href="#Degradado_sin_nombre_21"/><linearGradient id="Degradado_sin_nombre_21-5" x1="76.69" y1="43.7" x2="76.69" y2="8.35" xlink:href="#Degradado_sin_nombre_21"/></defs><g id="Capa_2" data-name="Capa 2"><g id="CONTENIDO"><rect class="cls-1" x="7.19" y="89.49" width="13.8" height="12.1"/><rect class="cls-2" x="33.3" y="83.89" width="13.8" height="17.7"/><rect class="cls-3" x="59.37" y="76.54" width="13.8" height="25.05"/><rect class="cls-4" x="85.43" y="61.66" width="13.8" height="39.93"/><path class="cls-5" d="M64.56,43.7H88.83V25.54h3.5V17.61H85.08l2-4.31s1.46-2-1.74-3.81S80.21,11,80.21,11l-3.49,5.42-3.6-5.85S71.12,7,68,9s-1.74,4.66-1.74,4.66l1.79,4h-7v7.93h3.51Z"/><path class="cls-6" d="M21.09,86.88H7.19a1.74,1.74,0,0,0-1.74,1.74v13.9a1.74,1.74,0,0,0,1.74,1.74h13.9a1.74,1.74,0,0,0,1.74-1.74V88.62a1.74,1.74,0,0,0-1.74-1.74Zm-1.74,13.9H8.92V90.36H19.35Z"/><path class="cls-6" d="M47.15,81.67H33.25a1.74,1.74,0,0,0-1.74,1.74v19.11a1.74,1.74,0,0,0,1.74,1.74h13.9a1.74,1.74,0,0,0,1.74-1.74V83.41a1.74,1.74,0,0,0-1.74-1.74Zm-1.74,19.11H35V85.14H45.41Z"/><path class="cls-6" d="M73.22,74.72H59.32a1.74,1.74,0,0,0-1.74,1.74v26.06a1.74,1.74,0,0,0,1.74,1.74h13.9A1.73,1.73,0,0,0,75,102.52V76.46a1.73,1.73,0,0,0-1.73-1.74Zm-1.74,26.06H61.05V78.19H71.48Z"/><path class="cls-6" d="M92.33,15.64H88.19l.21-.42A5.34,5.34,0,0,0,79,10.08l-2.29,3.83-2.3-3.83a5.34,5.34,0,0,0-9.36,5.14l.21.42H61.05a1.73,1.73,0,0,0-1.73,1.74v8.68a1.73,1.73,0,0,0,1.73,1.74h1.74V43.44a1.74,1.74,0,0,0,1.74,1.74H88.86a1.74,1.74,0,0,0,1.73-1.74V27.8h1.74a1.74,1.74,0,0,0,1.74-1.74V17.38a1.74,1.74,0,0,0-1.74-1.74ZM71.48,41.7H66.27V27.8h5.21Zm0-17.37H62.79V19.11h8.69Zm-2.29-8.69-1-2a1.87,1.87,0,0,1,3.27-1.8l2.26,3.77ZM78.43,41.7H75V27.8h3.48Zm0-17.37H75V19.11h3.48ZM82,11.87a1.87,1.87,0,0,1,3.27,1.8l-1,2H79.76Zm5.1,29.83H81.9V27.8h5.22Zm3.47-17.37H81.9V19.11h8.69Z"/><path class="cls-6" d="M57,8.19A28,28,0,0,0,52.58,14l3,1.74a24.59,24.59,0,0,1,3.86-5Z"/><path class="cls-6" d="M76.69,52.13a24.2,24.2,0,0,1-6.27-.82l-.89,3.36a27.86,27.86,0,0,0,7.16.93h0Z"/><path class="cls-6" d="M76.69,0h-.08l.08,3.48a23.75,23.75,0,0,1,6.22.8L83.8.92A28,28,0,0,0,76.69,0Z"/><path class="cls-6" d="M59.52,45l-2.46,2.46a28.05,28.05,0,0,0,5.76,4.41l1.74-3a24.26,24.26,0,0,1-5-3.86Z"/><path class="cls-6" d="M49.81,20.66a27.62,27.62,0,0,0-.92,7.05v.14l3.48-.05a23.85,23.85,0,0,1,.81-6.24Z"/><path class="cls-6" d="M53.2,34.15l-3.36.9a28.12,28.12,0,0,0,2.8,6.7l3-1.75a23.82,23.82,0,0,1-2.44-5.85Z"/><path class="cls-6" d="M88.87,48.87A24.43,24.43,0,0,1,83,51.3l.9,3.36a27.52,27.52,0,0,0,6.7-2.79Z"/><path class="cls-6" d="M97.77,40a24.6,24.6,0,0,1-3.87,5l2.46,2.46a28,28,0,0,0,4.42-5.75Z"/><path class="cls-6" d="M69.42,1a28.12,28.12,0,0,0-6.7,2.8l1.75,3a24.06,24.06,0,0,1,5.86-2.44Z"/><path class="cls-6" d="M100.72,13.81l-3,1.75a24.41,24.41,0,0,1,2.45,5.85l3.35-.91a27.25,27.25,0,0,0-2.8-6.69Z"/><path class="cls-6" d="M101,27.8a24.81,24.81,0,0,1-.82,6.3l3.35.89a27.66,27.66,0,0,0,.94-7.19v-.1Z"/><path class="cls-6" d="M90.51,3.68l-1.72,3a24.22,24.22,0,0,1,5,3.85l2.45-2.47a27.41,27.41,0,0,0-5.77-4.39Z"/><path class="cls-6" d="M52.65,53.89l-8.73-1.45a1.72,1.72,0,0,0-2,1.41v0a1.71,1.71,0,0,0,1.41,2l4.72.79L37.89,64.29H21.09a1.71,1.71,0,0,0-.88.24L.86,75.82a1.72,1.72,0,0,0-.62,2.37h0a1.73,1.73,0,0,0,2.37.63l19-11h16.9a1.72,1.72,0,0,0,1-.35L49.94,59.6l-.74,4.45a1.72,1.72,0,0,0,1.41,2h0a1.71,1.71,0,0,0,2-1.41l1.46-8.73a1.73,1.73,0,0,0-1.43-2Z"/><path class="cls-6" d="M97.54,95v5.82H87.12V62.55H97.54V88a1.54,1.54,0,0,0,1.53,1.53h.42A1.53,1.53,0,0,0,101,88V60.82a1.74,1.74,0,0,0-1.74-1.74H85.38a1.74,1.74,0,0,0-1.74,1.74v41.7a1.74,1.74,0,0,0,1.74,1.74h13.9a1.74,1.74,0,0,0,1.74-1.74V95a1.54,1.54,0,0,0-1.54-1.54h-.4A1.54,1.54,0,0,0,97.54,95Z"/></g></g></svg>