<svg xmlns="http://www.w3.org/2000/svg" xmlns:xlink="http://www.w3.org/1999/xlink" viewBox="0 0 102.41 102.41"><defs><style>.cls-1{fill:url(#Degradado_sin_nombre_25);}.cls-2{fill:#049be5;}</style><linearGradient id="Degradado_sin_nombre_25" x1="50.91" y1="100.53" x2="50.91" y2="1.78" gradientUnits="userSpaceOnUse"><stop offset="0" stop-color="#cbf1f6"/><stop offset="1" stop-color="#fff"/></linearGradient></defs><g id="Capa_2" data-name="Capa 2"><g id="CONTENIDO"><path class="cls-1" d="M1.67,34.52V89.36S.09,94.72,6.61,94.42s29.73,0,29.73,0a9.34,9.34,0,0,0,8.76,6.09c6.73,0,6.11-5.81,6.11-5.81l34.68-1.19L88.13,43l2.2,1.57L96.93,38l-2-3.87,2-3.38,3.4-1V19.82l-4-1.3-.8-3.16,1.6-3.84-6.6-6.2-3.6,1.6-3.2-1.6L82.59,1.78H72.68L71.33,5.72l-2,1.4-5-1.8-6.6,6.8,1.73,3.24-.93,2.76-4,1.7v5s-9.18-1.44-9.78,4.95c0,0-1.69-7.7-13.35-4.95V11.52s.55-3.8-4.05-3.8l-22.6.2s-3.23,0-3.23,4.4V24.78s.23,3.74,6.43,3.74v5.8Z"/><rect class="cls-2" x="23.13" y="19.82" width="3.3" height="3.3"/><path class="cls-2" d="M31.89,57.36a8.26,8.26,0,1,0-10.92,0,13.22,13.22,0,0,0-7.76,12V76H39.64v-6.6A13.21,13.21,0,0,0,31.89,57.36ZM26.43,46.25a5,5,0,1,1-5,5A5,5,0,0,1,26.43,46.25Zm9.91,26.43H16.52v-3.3a9.91,9.91,0,1,1,19.82,0Z"/><rect class="cls-2" x="29.73" y="36.34" width="9.91" height="3.3"/><rect class="cls-2" x="13.21" y="79.29" width="19.82" height="3.3"/><rect class="cls-2" x="36.34" y="79.29" width="3.3" height="3.3"/><rect class="cls-2" x="6.61" y="13.21" width="19.82" height="3.3"/><rect class="cls-2" x="6.61" y="19.82" width="13.21" height="3.3"/><path class="cls-2" d="M49.55,76H76V59.46H49.55Zm3.31-13.21H72.68v9.91H52.86Z"/><path class="cls-2" d="M77.63,16.52a8.26,8.26,0,1,0,8.26,8.26A8.26,8.26,0,0,0,77.63,16.52Zm0,13.21a5,5,0,1,1,5-4.95A5,5,0,0,1,77.63,29.73Z"/><rect class="cls-2" x="56.16" y="52.86" width="19.82" height="3.3"/><path class="cls-2" d="M77.63,9.91A14.87,14.87,0,1,0,92.5,24.78,14.88,14.88,0,0,0,77.63,9.91Zm0,26.43A11.57,11.57,0,1,1,89.2,24.78,11.58,11.58,0,0,1,77.63,36.34Z"/><rect class="cls-2" x="72.68" y="79.29" width="3.3" height="3.3"/><rect class="cls-2" x="33.04" y="29.73" width="6.61" height="3.3"/><rect class="cls-2" x="49.55" y="52.86" width="3.3" height="3.3"/><rect class="cls-2" x="49.55" y="46.25" width="9.91" height="3.3"/><rect class="cls-2" x="49.55" y="79.29" width="19.82" height="3.3"/><path class="cls-2" d="M102.41,31V18.54l-4.63-1.18c-.19-.53-.41-1.05-.66-1.58l2.45-4.11L90.74,2.85,86.63,5.29c-.52-.24-1-.46-1.58-.66L83.87,0H71.39L70.22,4.63c-.53.2-1.06.42-1.58.66L64.53,2.85,55.7,11.67l2.45,4.11c-.24.53-.47,1.06-.66,1.58l-4.63,1.18v4.59H51.21a8.23,8.23,0,0,0-6.61,3.35A8.25,8.25,0,0,0,38,23.13H33V11.56a5,5,0,0,0-5-4.95H5a5,5,0,0,0-5,5V24.78a5,5,0,0,0,5,4.95H6.61V33H0V90.85a5,5,0,0,0,5,5h29.6A2.67,2.67,0,0,1,37,97.4a8.25,8.25,0,0,0,15.18,0,2.67,2.67,0,0,1,2.45-1.6H66.91a1.36,1.36,0,0,0,1.36-1.36v-.57a1.36,1.36,0,0,0-1.36-1.37H52.43a3,3,0,0,0-3,2.52h0a5,5,0,0,1-9.72.21,1.37,1.37,0,0,0,0-.16,2.85,2.85,0,0,0-2.83-2.58H5A1.65,1.65,0,0,1,3.3,90.85V36.34H6.61V49.45A1.51,1.51,0,0,0,8.11,51h.3a1.51,1.51,0,0,0,1.5-1.51V29.73h4.27l5.44,5.44a3.9,3.9,0,0,0,5.83-.3,4.55,4.55,0,0,0,1-2.91V29.73h1.65a4.94,4.94,0,0,0,4.65-3.3H38a5,5,0,0,1,5,4.95V85.89h-33V56.26a1.5,1.5,0,0,0-1.5-1.5h-.3a1.5,1.5,0,0,0-1.5,1.5V89.2h76V49.55h1.28l1.18-4.62.84-.36V90.85a1.65,1.65,0,0,1-1.65,1.65H73.44a1.36,1.36,0,0,0-1.36,1.37v.57a1.36,1.36,0,0,0,1.36,1.36h10.8a5,5,0,0,0,5-5V45.79l1.54.92,8.83-8.83-2.45-4.11a16.51,16.51,0,0,0,.66-1.58ZM29.73,24.78a1.65,1.65,0,0,1-1.65,1.65H23.13v5.92a.69.69,0,0,1-1.17.49l-6.41-6.41H5A1.65,1.65,0,0,1,3.3,24.78V11.56A1.65,1.65,0,0,1,5,9.91H28.08a1.65,1.65,0,0,1,1.65,1.65ZM79.29,85.89h-33V31.38a5,5,0,0,1,5-4.95h1.65V31l4.63,1.17a16.51,16.51,0,0,0,.66,1.58L55.7,37.88l8.83,8.83,4.11-2.44c.52.24,1,.46,1.58.66l1.18,4.62h7.89ZM95.42,37.37l-5.2,5.19L86.76,40.5l-.81.42a18.3,18.3,0,0,1-2.78,1.17l-.87.27-1,3.89H74l-1-3.89-.88-.28a17.28,17.28,0,0,1-2.78-1.16l-.81-.42-3.46,2.06-5.2-5.19,2.06-3.46-.42-.82a19.3,19.3,0,0,1-1.16-2.78l-.28-.87-3.89-1V21.11l3.89-1,.28-.87a17.37,17.37,0,0,1,1.16-2.79l.42-.81-2.06-3.46L65.05,7l3.46,2.05.81-.42A19.3,19.3,0,0,1,72.1,7.47L73,7.19,74,3.3h7.35l1,3.89.88.28A19.79,19.79,0,0,1,86,8.63l.81.42L90.22,7l5.2,5.19-2.06,3.46.42.81a19.41,19.41,0,0,1,1.16,2.79l.28.87,3.89,1v7.35l-3.89,1-.28.87a18.23,18.23,0,0,1-1.16,2.78l-.42.82Z"/></g></g></svg>