<svg xmlns="http://www.w3.org/2000/svg" xmlns:xlink="http://www.w3.org/1999/xlink" viewBox="0 0 120 120"><defs><style>.cls-1{fill:url(#Degradado_sin_nombre_25);}.cls-2{fill:#26a79a;}</style><linearGradient id="Degradado_sin_nombre_25" x1="60.18" y1="118.28" x2="60.18" y2="1.43" gradientUnits="userSpaceOnUse"><stop offset="0" stop-color="#cbf1f6"/><stop offset="1" stop-color="#fff"/></linearGradient></defs><g id="Capa_2" data-name="Capa 2"><g id="CONTENIDO"><path class="cls-1" d="M80.71,118.28h31.73l-8.7-15.15h-2.85s.82-5-5.25-11.1h15.9s6.3.25,6.3-10.2h-9.21l2.16-6.75h3.15l-.45-6.9,5.25-6.45-7.65-2.55V16.43a6.3,6.3,0,0,0-6.75-5.85H25.43L17.49,7.43l-4-6-3.79,6-7.95,2.7L6.24,16l-.3,7.8,3.15.15v51.6L11,81.23H1.74S0,91.88,9.69,91.88H25.43s-8.69,4.5-4.94,10.2h30.9c8.25,0,13.28,6.45,24.08,6.45Z"/><path class="cls-2" d="M116.37,79.8h-4.93a6.32,6.32,0,0,0,.66-2.16,3.45,3.45,0,0,0,2.66-.62,3.41,3.41,0,0,0,1.36-3.36l-.87-5,3.7-3.57A3.45,3.45,0,0,0,117,59.16l-4.88-.7V15.94a6.45,6.45,0,0,0-6.45-6.45h-79A3.42,3.42,0,0,0,24,7.25l-5.12-.74L16.58,1.92a3.46,3.46,0,0,0-6.2,0L8.09,6.51,3,7.25a3.44,3.44,0,0,0-1.92,5.88l3.7,3.57-.87,5a3.43,3.43,0,0,0,1.36,3.37,3.48,3.48,0,0,0,2,.67,3.66,3.66,0,0,0,.57-.05v4.21a1.76,1.76,0,0,0,3.52,0V24.09L13.48,23l1.4.74v50.8a1.76,1.76,0,0,0,1.76,1.76H97.55a3.5,3.5,0,0,0,2.78,1.4,3.54,3.54,0,0,0,1.61-.39l4.58-2.39,2.11,1.1v.86a2.93,2.93,0,0,1-2.93,2.93H14.3a2.93,2.93,0,0,1-2.93-2.93V37.44a1.76,1.76,0,0,0-3.52,0V76.87a6.4,6.4,0,0,0,.71,2.93H3.63A3.64,3.64,0,0,0,0,83.44v1.4a8.8,8.8,0,0,0,8.79,8.79H19.94a10.2,10.2,0,0,0-2.48,6.67,3.48,3.48,0,0,0,3.47,3.48H37.5a1.76,1.76,0,1,0,0-3.51H21a6.64,6.64,0,0,1,6.6-6.64H45.34c0,.33-.05.65-.05,1a3.06,3.06,0,0,0,.85,2.12,3,3,0,0,0,2.1.92c9.7.26,17.26,1.23,19.27,2.47a36.87,36.87,0,0,1,3,2.22,1.76,1.76,0,0,0,2.17-2.76,39,39,0,0,0-3.38-2.45c-3.49-2.15-14.14-2.79-20.53-3a5,5,0,0,1,5-4.51H79.58c6.76,0,11.3,1.44,14.29,3.6l.14.1A12.89,12.89,0,0,1,99.12,102l-24,4.5H74a22.84,22.84,0,0,1-11.18-2.9A26.4,26.4,0,0,0,50,100.27H45a1.76,1.76,0,1,0,0,3.51h5a23,23,0,0,1,11.17,2.91,27,27,0,0,0,6.24,2.5A26.65,26.65,0,0,0,74,110h.23l4.92,9a1.75,1.75,0,0,0,1.54.92h32.41a1.76,1.76,0,0,0,1.51-2.66L105.49,102a1.77,1.77,0,0,0-1.83-.83l-1.09.21a17.17,17.17,0,0,0-3.28-7.74h11.92A8.8,8.8,0,0,0,120,84.84v-1.4a3.64,3.64,0,0,0-3.63-3.64ZM11.87,19.87,8.78,21.48h0l-1.41.74.86-5a3.46,3.46,0,0,0-1-3.06L3.6,10.71l5-.72a3.48,3.48,0,0,0,2.6-1.88l2.26-4.53,2.25,4.53A3.5,3.5,0,0,0,18.34,10l5,.72L19.73,14.2a3.46,3.46,0,0,0-1,3.06l.86,5L17.5,21.13l-.07,0-2.35-1.22a3.36,3.36,0,0,0-1.6-.4,3.4,3.4,0,0,0-1.61.4Zm6.53,5.66a3.45,3.45,0,0,0,4.68-3.78L22.78,20H90a1.76,1.76,0,1,0,0-3.52H22.39l3.51-3.39L26,13H105.7a2.93,2.93,0,0,1,2.93,2.93V52.63a3.41,3.41,0,0,0-2.11-.72,3.48,3.48,0,0,0-1.4.3V18.28a1.76,1.76,0,0,0-1.76-1.76h-5.8a1.76,1.76,0,0,0,0,3.52h4V57.49l-.47.94L96,59.16a3.45,3.45,0,0,0-1.91,5.89l3.7,3.57-.72,4.15H18.4Zm88.12,45.86a3.47,3.47,0,0,0-1.6.39l-4.51,2.35.86-4.95a3.44,3.44,0,0,0-1-3.06l-3.62-3.5,5-.72A3.45,3.45,0,0,0,104.27,60l2.25-4.53L108.78,60l0,.06a1.59,1.59,0,0,0,.13.22,3.49,3.49,0,0,0,2.44,1.6l5,.72-3.61,3.5a3.41,3.41,0,0,0-1,3.06l.86,4.95-1.41-.73h0l-3.09-1.61a3.54,3.54,0,0,0-1.61-.39ZM110,116.48H81.78L78,109.56l25.09-4.71Zm6.44-31.64a5.28,5.28,0,0,1-5.27,5.28H95.54c-3.91-2.65-9.26-4-16-4H53.77a8.47,8.47,0,0,0-7.19,4H8.79a5.28,5.28,0,0,1-5.27-5.28v-1.4a.11.11,0,0,1,.11-.12H116.37a.11.11,0,0,1,.11.12Z"/><path class="cls-2" d="M45.94,29.29H27.19a1.76,1.76,0,1,0,0,3.51H45.94a1.76,1.76,0,1,0,0-3.51Z"/><path class="cls-2" d="M45.94,36.09H27.19a1.76,1.76,0,0,0,0,3.52H45.94a1.76,1.76,0,1,0,0-3.52Z"/><path class="cls-2" d="M45.94,42.9H27.19a1.76,1.76,0,1,0,0,3.51H45.94a1.76,1.76,0,1,0,0-3.51Z"/><path class="cls-2" d="M45.94,49.7H27.19a1.76,1.76,0,0,0,0,3.52H45.94a1.76,1.76,0,1,0,0-3.52Z"/><path class="cls-2" d="M45.94,56.51H27.19a1.76,1.76,0,1,0,0,3.51H45.94a1.76,1.76,0,1,0,0-3.51Z"/><path class="cls-2" d="M92.37,47.78a5.83,5.83,0,0,0,1.26-3.25,5.86,5.86,0,0,0-1.26-3.25,4.79,4.79,0,0,1-.62-1.11,5.77,5.77,0,0,1,0-1.35,5.79,5.79,0,0,0-.52-3.37,5.92,5.92,0,0,0-2.68-2.16,5,5,0,0,1-1.14-.68,5,5,0,0,1-.67-1.13,5.92,5.92,0,0,0-2.16-2.68,5.79,5.79,0,0,0-3.37-.52,5.77,5.77,0,0,1-1.35,0,4.53,4.53,0,0,1-1.11-.63,5.93,5.93,0,0,0-3.25-1.25,5.9,5.9,0,0,0-3.25,1.25,4.53,4.53,0,0,1-1.11.63,5.84,5.84,0,0,1-1.36,0,5.8,5.8,0,0,0-3.37.52,5.89,5.89,0,0,0-2.15,2.68,5,5,0,0,1-.68,1.13,4.64,4.64,0,0,1-1.13.68,5.87,5.87,0,0,0-2.68,2.16,5.87,5.87,0,0,0-.53,3.37,5.34,5.34,0,0,1,0,1.35,5.31,5.31,0,0,1-.63,1.11,5.93,5.93,0,0,0-1.25,3.25,5.9,5.9,0,0,0,1.25,3.25,5.58,5.58,0,0,1,.63,1.11,5.4,5.4,0,0,1,0,1.36,5.89,5.89,0,0,0,.53,3.37,5.84,5.84,0,0,0,2.68,2.15,5,5,0,0,1,1.13.68,5,5,0,0,1,.68,1.13,5.84,5.84,0,0,0,2.15,2.68,5.89,5.89,0,0,0,3.37.53,5.4,5.4,0,0,1,1.36,0,5.31,5.31,0,0,1,1.11.63,5.91,5.91,0,0,0,3.25,1.26,5.91,5.91,0,0,0,3.25-1.26,5.31,5.31,0,0,1,1.11-.63,5.34,5.34,0,0,1,1.35,0,4.76,4.76,0,0,0,5.53-3.21,5,5,0,0,1,.67-1.13,5.33,5.33,0,0,1,1.14-.68,5.89,5.89,0,0,0,2.68-2.15,5.8,5.8,0,0,0,.52-3.37,5.84,5.84,0,0,1,0-1.36,5,5,0,0,1,.62-1.11Zm-2.93-1.94A7.37,7.37,0,0,0,88.35,48a8,8,0,0,0-.14,2.45,4.14,4.14,0,0,1,0,1.42,4.08,4.08,0,0,1-1.22.77,7.36,7.36,0,0,0-2,1.33,7.5,7.5,0,0,0-1.33,2,4.07,4.07,0,0,1-.78,1.22,4,4,0,0,1-1.41.06,6,6,0,0,0-4.6,1.22,3.91,3.91,0,0,1-1.31.68,3.73,3.73,0,0,1-1.31-.68A7.6,7.6,0,0,0,72,57.42a5.52,5.52,0,0,0-1.49-.18c-.33,0-.66,0-1,0a4.09,4.09,0,0,1-1.42-.06A4.08,4.08,0,0,1,67.37,56,7.5,7.5,0,0,0,66,54a7.36,7.36,0,0,0-2-1.33,4.08,4.08,0,0,1-1.22-.77,4.36,4.36,0,0,1-.06-1.42A7.65,7.65,0,0,0,62.58,48a7.6,7.6,0,0,0-1.08-2.15,3.73,3.73,0,0,1-.68-1.31,3.91,3.91,0,0,1,.68-1.31,7.54,7.54,0,0,0,1.08-2.14,7.72,7.72,0,0,0,.14-2.46,4.29,4.29,0,0,1,.06-1.41A4.07,4.07,0,0,1,64,36.43a7.36,7.36,0,0,0,2-1.33,7.36,7.36,0,0,0,1.33-2,4.08,4.08,0,0,1,.77-1.22,4.14,4.14,0,0,1,1.42-.05A8,8,0,0,0,72,31.65a7.37,7.37,0,0,0,2.15-1.09,3.73,3.73,0,0,1,1.31-.68,3.91,3.91,0,0,1,1.31.68,7.31,7.31,0,0,0,2.14,1.09,8,8,0,0,0,2.46.14,4.08,4.08,0,0,1,1.41.05,4.07,4.07,0,0,1,.78,1.22,7.36,7.36,0,0,0,1.33,2,7.36,7.36,0,0,0,2,1.33,4.07,4.07,0,0,1,1.22.78,4.08,4.08,0,0,1,0,1.41,8,8,0,0,0,.14,2.46,7.31,7.31,0,0,0,1.09,2.14,3.91,3.91,0,0,1,.68,1.31,3.73,3.73,0,0,1-.68,1.31Z"/><path class="cls-2" d="M72,39.29a1.76,1.76,0,1,1-1.76-1.76A1.76,1.76,0,0,1,72,39.29Z"/><path class="cls-2" d="M82.47,49.77A1.76,1.76,0,1,1,80.71,48a1.76,1.76,0,0,1,1.76,1.76Z"/><path class="cls-2" d="M79.55,38,68.9,48.61a1.76,1.76,0,0,0,1.25,3,1.75,1.75,0,0,0,1.24-.51L82,40.45A1.76,1.76,0,1,0,79.55,38Z"/></g></g></svg>