<svg xmlns="http://www.w3.org/2000/svg" xmlns:xlink="http://www.w3.org/1999/xlink" viewBox="0 0 673.44 63.42"><defs><style>.cls-1{fill:#c69c6d;}.cls-2{fill:#fff;}.cls-3,.cls-4{fill-rule:evenodd;}.cls-3{opacity:0.1;}.cls-4{fill:url(#Degradado_sin_nombre_29);}</style><linearGradient id="Degradado_sin_nombre_29" x1="335.07" y1="52.93" x2="335.07" gradientUnits="userSpaceOnUse"><stop offset="0" stop-color="#e6e6e6"/><stop offset="0.23" stop-color="#d4d4d4"/><stop offset="0.76" stop-color="#dedede"/><stop offset="1" stop-color="#ccc"/></linearGradient></defs><g id="Capa_2" data-name="Capa 2"><g id="CONTENIDO"><path class="cls-1" d="M28.5,7.91H644.94a28.5,28.5,0,0,1,28.5,28.5v27a0,0,0,0,1,0,0H0a0,0,0,0,1,0,0v-27A28.5,28.5,0,0,1,28.5,7.91Z"/><path class="cls-2" d="M26.81,38.55H645.51a4.27,4.27,0,0,1,4.27,4.27V63.42a0,0,0,0,1,0,0H22.54a0,0,0,0,1,0,0V42.83A4.27,4.27,0,0,1,26.81,38.55Z"/><path class="cls-3" d="M282.23,52.93H391.45c2.16,0,3.74-1.07,3.18-3.17l-3.8-23.17a3.28,3.28,0,0,0-3.18-2.45H367.5l2.36-16.23h-21a1.22,1.22,0,0,1,0,.33l-.74,4.34a1.27,1.27,0,0,1-1.25,1H329.16a1.25,1.25,0,0,1-1.24-1l-.75-4.34a1.22,1.22,0,0,1,0-.33h-21l2.36,16.23H288.39a3.28,3.28,0,0,0-3.18,2.45L279,49.76C278.49,51.86,280.07,52.93,282.23,52.93Z"/><path class="cls-4" d="M394,48.79l-6.16-23.18a3.29,3.29,0,0,0-3.19-2.45H364.54l3.06-21A1.89,1.89,0,0,0,365.73,0H304.41a1.89,1.89,0,0,0-1.88,2.16l3.06,21H285.44a3.3,3.3,0,0,0-3.19,2.45l-6.16,23.18a3.29,3.29,0,0,0,3.19,4.14H390.86A3.29,3.29,0,0,0,394,48.79ZM345.92,7.26l-.75,4.34a1.26,1.26,0,0,1-1.24,1H326.2a1.26,1.26,0,0,1-1.24-1l-.75-4.34a1.26,1.26,0,0,1,1.25-1.47h19.22A1.26,1.26,0,0,1,345.92,7.26Z"/></g></g></svg>