<svg xmlns="http://www.w3.org/2000/svg" viewBox="0 0 577.3 286.07"><defs><style>.cls-1{fill:none;stroke:#a4dbf5;stroke-linecap:round;stroke-linejoin:round;stroke-width:3px;}.cls-2{fill:#a4dbf5;}.cls-3{fill:#00223d;}.cls-4{fill:#51b9ae;}.cls-5{fill:#fff;}.cls-6{fill:#4384cd;}.cls-7{fill:#4dd0e0;}</style></defs><g id="Capa_2" data-name="Capa 2"><g id="CONTENIDO"><line class="cls-1" x1="120.7" y1="76.03" x2="212.07" y2="76.03"/><path class="cls-2" d="M208.5,82.44c-2,1-3.58,0-3.58-2.21v-8.4c0-2.2,1.61-3.19,3.58-2.21l9.24,4.62c2,1,2,2.6,0,3.58Z"/><line class="cls-1" x1="349" y1="76.03" x2="440.36" y2="76.03"/><path class="cls-2" d="M436.79,82.44c-2,1-3.57,0-3.57-2.21v-8.4c0-2.2,1.61-3.19,3.57-2.21L446,74.24c2,1,2,2.6,0,3.58Z"/><path class="cls-3" d="M454.87,125.64V114.22h2.61v11.42Z"/><path class="cls-3" d="M469.09,125.64h-2.58v-5.1a2.34,2.34,0,0,0-.36-1.42,1.37,1.37,0,0,0-1.15-.47,1.78,1.78,0,0,0-1.56.67,3.78,3.78,0,0,0-.49,2.21v4.11h-2.57v-8.73h2l.34,1.11h.15a2.59,2.59,0,0,1,1.18-1,4.26,4.26,0,0,1,1.72-.33,3.43,3.43,0,0,1,2.49.83,3.15,3.15,0,0,1,.86,2.38Z"/><path class="cls-3" d="M477,118.7h-2.23v6.94h-2.57V118.7h-1.42v-1.15l1.42-.64v-.64a2.73,2.73,0,0,1,.79-2.18,3.84,3.84,0,0,1,2.54-.69,6.94,6.94,0,0,1,2.37.37l-.66,1.75a5.18,5.18,0,0,0-1.43-.23,1,1,0,0,0-.8.3,1.2,1.2,0,0,0-.24.77v.55H477Z"/><path class="cls-3" d="M487,121.26a4.51,4.51,0,0,1-1.21,3.34,4.61,4.61,0,0,1-3.38,1.2,5.12,5.12,0,0,1-2.4-.55,3.84,3.84,0,0,1-1.59-1.58,4.9,4.9,0,0,1-.56-2.41,4.44,4.44,0,0,1,1.21-3.33,4.62,4.62,0,0,1,3.39-1.19,5.11,5.11,0,0,1,2.39.55,3.9,3.9,0,0,1,1.6,1.57A5,5,0,0,1,487,121.26Zm-6.52,0a3.5,3.5,0,0,0,.46,2,1.71,1.71,0,0,0,1.5.66,1.66,1.66,0,0,0,1.48-.66,4.47,4.47,0,0,0,0-3.91,1.72,1.72,0,0,0-1.5-.64,1.68,1.68,0,0,0-1.48.64A3.34,3.34,0,0,0,480.47,121.26Z"/><path class="cls-3" d="M494.38,116.74a5.09,5.09,0,0,1,.87.07l-.19,2.24a3.34,3.34,0,0,0-.76-.08,2.88,2.88,0,0,0-1.92.59,2,2,0,0,0-.69,1.64v4.44h-2.57v-8.73h1.95l.38,1.47h.12a3.39,3.39,0,0,1,1.19-1.19A3.07,3.07,0,0,1,494.38,116.74Z"/><path class="cls-3" d="M505.4,125.64h-2.57v-5.1a2.42,2.42,0,0,0-.34-1.42,1.26,1.26,0,0,0-1.08-.47,1.59,1.59,0,0,0-1.43.67,4.13,4.13,0,0,0-.45,2.21v4.11H497v-8.73h2l.34,1.11h.15a2.53,2.53,0,0,1,1.09-.94,3.92,3.92,0,0,1,1.65-.34A3,3,0,0,1,505,118h.23a2.55,2.55,0,0,1,1.12-.94,4,4,0,0,1,1.67-.34,3.45,3.45,0,0,1,2.42.77,3.17,3.17,0,0,1,.82,2.44v5.69H508.7v-5.1a2.42,2.42,0,0,0-.34-1.42,1.25,1.25,0,0,0-1.07-.47,1.68,1.68,0,0,0-1.42.62,3.37,3.37,0,0,0-.47,2Z"/><path class="cls-3" d="M519.91,125.64l-.5-1.19h-.06a3.83,3.83,0,0,1-1.34,1.06,4.75,4.75,0,0,1-1.79.29,3,3,0,0,1-2.14-.72,2.65,2.65,0,0,1-.78-2,2.26,2.26,0,0,1,1.05-2,6.49,6.49,0,0,1,3.17-.73l1.63,0v-.38c0-.88-.49-1.33-1.47-1.33a7,7,0,0,0-2.65.64l-.85-1.61a8.07,8.07,0,0,1,3.61-.79,4.78,4.78,0,0,1,2.91.76,2.75,2.75,0,0,1,1,2.33v5.82Zm-.76-4-1,0a3.35,3.35,0,0,0-1.67.37,1.15,1.15,0,0,0-.55,1c0,.67.41,1,1.25,1a2.08,2.08,0,0,0,1.43-.48,1.64,1.64,0,0,0,.53-1.27Z"/><path class="cls-3" d="M528.19,125.8q-4.41,0-4.41-4.48a4.55,4.55,0,0,1,1.2-3.4,4.71,4.71,0,0,1,3.43-1.18,7,7,0,0,1,2.94.6l-.76,1.84c-.41-.15-.78-.27-1.13-.37a3.79,3.79,0,0,0-1.05-.14c-1.34,0-2,.88-2,2.64s.66,2.56,2,2.56a5,5,0,0,0,1.38-.18,5.45,5.45,0,0,0,1.26-.58v2a4.23,4.23,0,0,1-1.26.51A7.84,7.84,0,0,1,528.19,125.8Z"/><path class="cls-3" d="M533.13,114.65c0-.78.46-1.16,1.4-1.16s1.4.38,1.4,1.16a1.09,1.09,0,0,1-.35.86,1.55,1.55,0,0,1-1.05.31C533.59,115.82,533.13,115.43,533.13,114.65Zm2.68,11h-2.57v-8.73h2.57Z"/><path class="cls-3" d="M547.08,121.26a4.51,4.51,0,0,1-1.22,3.34,4.59,4.59,0,0,1-3.38,1.2,5.11,5.11,0,0,1-2.39-.55,3.81,3.81,0,0,1-1.6-1.58,5,5,0,0,1-.55-2.41,4.47,4.47,0,0,1,1.2-3.33,4.65,4.65,0,0,1,3.39-1.19,5.12,5.12,0,0,1,2.4.55,3.82,3.82,0,0,1,1.59,1.57A5,5,0,0,1,547.08,121.26Zm-6.52,0a3.42,3.42,0,0,0,.46,2,2,2,0,0,0,3,0,4.43,4.43,0,0,0,0-3.91,2.05,2.05,0,0,0-3,0A3.43,3.43,0,0,0,540.56,121.26Zm.54-5.31v-.21a22.91,22.91,0,0,0,2-2.36H546v.17c-.29.27-.79.67-1.49,1.21s-1.26.93-1.66,1.19Z"/><path class="cls-3" d="M557.91,125.64h-2.58v-5.1a2.34,2.34,0,0,0-.36-1.42,1.36,1.36,0,0,0-1.15-.47,1.78,1.78,0,0,0-1.56.67,3.87,3.87,0,0,0-.48,2.21v4.11H549.2v-8.73h2l.34,1.11h.15a2.59,2.59,0,0,1,1.18-1,4.29,4.29,0,0,1,1.72-.33,3.46,3.46,0,0,1,2.5.83,3.19,3.19,0,0,1,.85,2.38Z"/><path class="cls-3" d="M459.84,147.8a3.2,3.2,0,0,1-2.6-1.12h-.14c.09.73.14,1.15.14,1.27v3.54h-2.58V138.91h2.1l.36,1.13h.12a3.05,3.05,0,0,1,2.67-1.3,3.14,3.14,0,0,1,2.61,1.2,5.23,5.23,0,0,1,1,3.32,6.24,6.24,0,0,1-.44,2.43,3.5,3.5,0,0,1-1.26,1.57A3.44,3.44,0,0,1,459.84,147.8Zm-.76-7.15a1.69,1.69,0,0,0-1.39.54,3,3,0,0,0-.45,1.8v.25a3.49,3.49,0,0,0,.45,2,1.64,1.64,0,0,0,1.43.61c1.15,0,1.73-.88,1.73-2.64a3.6,3.6,0,0,0-.43-1.94A1.48,1.48,0,0,0,459.08,140.65Z"/><path class="cls-3" d="M470.86,138.74a5.09,5.09,0,0,1,.87.07l-.2,2.24a3.28,3.28,0,0,0-.76-.08,2.88,2.88,0,0,0-1.92.59,2,2,0,0,0-.68,1.64v4.44h-2.58v-8.73h2l.38,1.47h.13a3.45,3.45,0,0,1,1.18-1.19A3.1,3.1,0,0,1,470.86,138.74Z"/><path class="cls-3" d="M482,143.26a4.51,4.51,0,0,1-1.22,3.34,4.59,4.59,0,0,1-3.38,1.2,5.11,5.11,0,0,1-2.39-.55,3.81,3.81,0,0,1-1.6-1.58,5,5,0,0,1-.56-2.41,4.47,4.47,0,0,1,1.21-3.33,4.64,4.64,0,0,1,3.39-1.19,5.12,5.12,0,0,1,2.4.55,3.82,3.82,0,0,1,1.59,1.57A5,5,0,0,1,482,143.26Zm-6.52,0a3.42,3.42,0,0,0,.46,2,1.68,1.68,0,0,0,1.49.66,1.66,1.66,0,0,0,1.48-.66,3.4,3.4,0,0,0,.46-2,3.46,3.46,0,0,0-.46-1.95,2.05,2.05,0,0,0-3,0A3.43,3.43,0,0,0,475.49,143.26Z"/><path class="cls-3" d="M488,147.8q-4.4,0-4.4-4.48a4.55,4.55,0,0,1,1.2-3.4,4.71,4.71,0,0,1,3.43-1.18,7,7,0,0,1,2.94.6l-.76,1.84c-.41-.15-.79-.27-1.13-.37a3.79,3.79,0,0,0-1.05-.14q-2,0-2,2.64c0,1.7.67,2.56,2,2.56a5,5,0,0,0,1.37-.18,5.33,5.33,0,0,0,1.27-.58v2a4.45,4.45,0,0,1-1.26.51A8,8,0,0,1,488,147.8Z"/><path class="cls-3" d="M497.28,147.8a5.09,5.09,0,0,1-3.56-1.17,4.22,4.22,0,0,1-1.28-3.29,4.63,4.63,0,0,1,1.19-3.4,5.07,5.07,0,0,1,6.38-.14,3.78,3.78,0,0,1,1.12,2.91v1.16h-6.08a2.17,2.17,0,0,0,.65,1.58,2.38,2.38,0,0,0,1.7.57,7.58,7.58,0,0,0,1.61-.16,8.4,8.4,0,0,0,1.59-.52v1.84a6.66,6.66,0,0,1-1.45.47A9.88,9.88,0,0,1,497.28,147.8Zm-.36-7.36a1.69,1.69,0,0,0-1.28.48,2.09,2.09,0,0,0-.53,1.36h3.61a1.93,1.93,0,0,0-.5-1.36A1.77,1.77,0,0,0,496.92,140.44Z"/><path class="cls-3" d="M509.8,145.05a2.36,2.36,0,0,1-1,2,5.35,5.35,0,0,1-3,.7,9.81,9.81,0,0,1-1.76-.13,7.15,7.15,0,0,1-1.36-.38v-2a10.27,10.27,0,0,0,1.62.53,7,7,0,0,0,1.58.21c.93,0,1.4-.25,1.4-.75a.59.59,0,0,0-.19-.46,2.46,2.46,0,0,0-.64-.4c-.3-.15-.71-.32-1.21-.52a7.66,7.66,0,0,1-1.6-.78,2.19,2.19,0,0,1-.74-.82,2.51,2.51,0,0,1-.23-1.15,2,2,0,0,1,1-1.8,5.07,5.07,0,0,1,2.76-.64,8.37,8.37,0,0,1,3.32.69l-.78,1.72c-.47-.19-.91-.34-1.32-.46a4.46,4.46,0,0,0-1.26-.18q-1.14,0-1.14.57a.65.65,0,0,0,.37.55,9.84,9.84,0,0,0,1.61.7,7.86,7.86,0,0,1,1.61.77,2.28,2.28,0,0,1,.76.83A2.32,2.32,0,0,1,509.8,145.05Z"/><path class="cls-3" d="M517.79,147.64l-.49-1.19h-.07a3.75,3.75,0,0,1-1.34,1.06,4.71,4.71,0,0,1-1.79.29,3,3,0,0,1-2.14-.72,2.65,2.65,0,0,1-.78-2.05,2.26,2.26,0,0,1,1.05-2.05,6.52,6.52,0,0,1,3.17-.73l1.64-.05v-.38c0-.88-.49-1.33-1.47-1.33a7,7,0,0,0-2.66.64l-.85-1.61a8.1,8.1,0,0,1,3.61-.79,4.78,4.78,0,0,1,2.91.76,2.75,2.75,0,0,1,1,2.33v5.82Zm-.75-4-1,0a3.38,3.38,0,0,0-1.67.37,1.15,1.15,0,0,0-.55,1.05c0,.67.42,1,1.25,1a2.06,2.06,0,0,0,1.43-.48,1.61,1.61,0,0,0,.54-1.27Z"/><path class="cls-3" d="M525.22,147.8a3.16,3.16,0,0,1-2.61-1.2,6.31,6.31,0,0,1,0-6.66,3.22,3.22,0,0,1,2.66-1.2A3.18,3.18,0,0,1,528,140h.08a8.94,8.94,0,0,1-.19-1.74v-2.79h2.58v12.15h-2l-.5-1.13h-.11A3,3,0,0,1,525.22,147.8Zm.91-1.9a1.8,1.8,0,0,0,1.44-.53,2.94,2.94,0,0,0,.51-1.81v-.25a3.39,3.39,0,0,0-.47-2,1.79,1.79,0,0,0-1.53-.61,1.54,1.54,0,0,0-1.33.68,3.36,3.36,0,0,0-.48,2,3.24,3.24,0,0,0,.48,1.94A1.61,1.61,0,0,0,526.13,145.9Z"/><path class="cls-3" d="M539.16,147.64l-.5-1.19h-.07a3.81,3.81,0,0,1-1.33,1.06,4.77,4.77,0,0,1-1.8.29,3,3,0,0,1-2.13-.72,2.65,2.65,0,0,1-.78-2.05A2.26,2.26,0,0,1,533.6,143a6.47,6.47,0,0,1,3.16-.73l1.64-.05v-.38c0-.88-.49-1.33-1.47-1.33a7,7,0,0,0-2.66.64l-.85-1.61a8.13,8.13,0,0,1,3.61-.79,4.74,4.74,0,0,1,2.91.76,2.72,2.72,0,0,1,1,2.33v5.82Zm-.76-4-1,0a3.41,3.41,0,0,0-1.67.37,1.16,1.16,0,0,0-.54,1.05c0,.67.41,1,1.24,1a2,2,0,0,0,1.43-.48,1.61,1.61,0,0,0,.54-1.27Z"/><rect class="cls-4" y="50.74" width="120.7" height="50.59" rx="4"/><path class="cls-5" d="M28.9,80.07v2.4H17.35V67.07H28.6v2.4H20.21v4h7.44v2.35H20.21v4.25Z"/><path class="cls-5" d="M42.06,71.89a5.12,5.12,0,0,1,1.34,3.85v6.73H40.65V76.09a3.31,3.31,0,0,0-.72-2.32A2.71,2.71,0,0,0,37.86,73a3.18,3.18,0,0,0-2.4.91,3.62,3.62,0,0,0-.88,2.63v5.94H31.83V70.72h2.62v1.52A4.18,4.18,0,0,1,36.16,71a6.18,6.18,0,0,1,2.34-.42A4.89,4.89,0,0,1,42.06,71.89Z"/><path class="cls-5" d="M54,81.83a3.19,3.19,0,0,1-1.18.59,5,5,0,0,1-1.46.2,4.16,4.16,0,0,1-3-1,3.91,3.91,0,0,1-1.06-3V73H45.34v-2.2h1.93V68.12H50v2.69h3.15V73H50V78.6a1.87,1.87,0,0,0,.42,1.31,1.57,1.57,0,0,0,1.21.45,2.43,2.43,0,0,0,1.54-.49Z"/><path class="cls-5" d="M63,70.59v2.62a3,3,0,0,0-.63-.07,3.34,3.34,0,0,0-2.51.93,3.76,3.76,0,0,0-.9,2.7v5.7H56.23V70.72h2.62v1.72C59.64,71.2,61,70.59,63,70.59Z"/><path class="cls-5" d="M73.75,71.83a4.8,4.8,0,0,1,1.38,3.75v6.89h-2.6V81a3.32,3.32,0,0,1-1.44,1.18,5.71,5.71,0,0,1-2.26.4,5.54,5.54,0,0,1-2.31-.45A3.6,3.6,0,0,1,65,80.92a3.18,3.18,0,0,1-.53-1.82,3.13,3.13,0,0,1,1.17-2.54,5.85,5.85,0,0,1,3.71-1h3v-.17a2.41,2.41,0,0,0-.74-1.89,3.19,3.19,0,0,0-2.19-.66,6.5,6.5,0,0,0-2,.3,4.94,4.94,0,0,0-1.61.86l-1.08-2A6.57,6.57,0,0,1,67,71a9.82,9.82,0,0,1,2.75-.37A5.73,5.73,0,0,1,73.75,71.83Zm-2.51,8.32a2.63,2.63,0,0,0,1.14-1.36V77.43H69.54c-1.59,0-2.38.52-2.38,1.56a1.41,1.41,0,0,0,.59,1.19,2.76,2.76,0,0,0,1.65.44A3.6,3.6,0,0,0,71.24,80.15Z"/><path class="cls-5" d="M90.26,66.14V82.47H87.62V81a4.15,4.15,0,0,1-1.68,1.25,5.69,5.69,0,0,1-2.21.42,6.18,6.18,0,0,1-3-.75,5.28,5.28,0,0,1-2.12-2.12,6.3,6.3,0,0,1-.77-3.16,6.22,6.22,0,0,1,.77-3.14,5.31,5.31,0,0,1,2.12-2.11,6.18,6.18,0,0,1,3-.75,5.65,5.65,0,0,1,2.13.39,4.27,4.27,0,0,1,1.65,1.19v-6ZM85.84,79.82a3.24,3.24,0,0,0,1.25-1.29,4.3,4.3,0,0,0,0-3.87,3.24,3.24,0,0,0-1.25-1.29,3.54,3.54,0,0,0-1.78-.45,3.58,3.58,0,0,0-1.79.45A3.3,3.3,0,0,0,81,74.66a4.3,4.3,0,0,0,0,3.87,3.3,3.3,0,0,0,1.25,1.29,3.58,3.58,0,0,0,1.79.45A3.54,3.54,0,0,0,85.84,79.82Z"/><path class="cls-5" d="M102.33,71.83a4.83,4.83,0,0,1,1.37,3.75v6.89h-2.59V81a3.32,3.32,0,0,1-1.44,1.18,5.71,5.71,0,0,1-2.26.4,5.54,5.54,0,0,1-2.31-.45,3.6,3.6,0,0,1-1.53-1.25A3.19,3.19,0,0,1,93,79.1a3.11,3.11,0,0,1,1.18-2.54,5.83,5.83,0,0,1,3.71-1h3v-.17a2.41,2.41,0,0,0-.73-1.89A3.22,3.22,0,0,0,98,72.88a6.5,6.5,0,0,0-2,.3,5,5,0,0,0-1.62.86l-1.08-2A6.71,6.71,0,0,1,95.61,71a9.82,9.82,0,0,1,2.75-.37A5.73,5.73,0,0,1,102.33,71.83Zm-2.51,8.32A2.61,2.61,0,0,0,101,78.79V77.43H98.11q-2.37,0-2.37,1.56a1.41,1.41,0,0,0,.59,1.19,2.76,2.76,0,0,0,1.65.44A3.62,3.62,0,0,0,99.82,80.15Z"/><rect class="cls-4" x="228.3" y="50.74" width="120.7" height="50.59" rx="4"/><path class="cls-5" d="M255.21,67.73a5.09,5.09,0,0,1,2.28,1.89,5.79,5.79,0,0,1,0,5.84,5.05,5.05,0,0,1-2.28,1.9,8.52,8.52,0,0,1-3.49.66h-3.47v4.45h-2.86V67.07h6.33A8.52,8.52,0,0,1,255.21,67.73Zm-.78,7.08a3.13,3.13,0,0,0,0-4.53,4.39,4.39,0,0,0-2.84-.79h-3.34V75.6h3.34A4.39,4.39,0,0,0,254.43,74.81Z"/><path class="cls-5" d="M267.56,70.59v2.62a3,3,0,0,0-.64-.07,3.31,3.31,0,0,0-2.5.93,3.72,3.72,0,0,0-.91,2.7v5.7h-2.75V70.72h2.62v1.72C264.17,71.2,265.57,70.59,267.56,70.59Z"/><path class="cls-5" d="M271.85,81.85a5.6,5.6,0,0,1-2.23-2.14,6,6,0,0,1-.8-3.12,6,6,0,0,1,.8-3.1,5.58,5.58,0,0,1,2.23-2.13,7.14,7.14,0,0,1,6.45,0,5.58,5.58,0,0,1,2.23,2.13,6,6,0,0,1,.8,3.1,6,6,0,0,1-.8,3.12,5.6,5.6,0,0,1-2.23,2.14,7.14,7.14,0,0,1-6.45,0Zm5.72-2.59a4.08,4.08,0,0,0,0-5.33,3.37,3.37,0,0,0-2.51-1,3.32,3.32,0,0,0-2.49,1,4.11,4.11,0,0,0,0,5.33,3.32,3.32,0,0,0,2.49,1A3.37,3.37,0,0,0,277.57,79.26Z"/><path class="cls-5" d="M286.09,81.85a5.65,5.65,0,0,1-2.27-2.14,6,6,0,0,1-.81-3.12,6,6,0,0,1,.81-3.1,5.6,5.6,0,0,1,2.26-2.13,6.76,6.76,0,0,1,3.28-.77,6.33,6.33,0,0,1,3.05.7,4.6,4.6,0,0,1,2,2l-2.11,1.23A3.36,3.36,0,0,0,291,73.33a3.68,3.68,0,0,0-4.21.59,4.06,4.06,0,0,0,0,5.35,3.5,3.5,0,0,0,2.56,1,3.46,3.46,0,0,0,1.66-.41,3.36,3.36,0,0,0,1.27-1.22l2.11,1.23a4.78,4.78,0,0,1-2,2,6.28,6.28,0,0,1-3,.71A6.78,6.78,0,0,1,286.09,81.85Z"/><path class="cls-5" d="M307.58,77.47h-9.22a3.21,3.21,0,0,0,1.27,2.06,4.12,4.12,0,0,0,2.54.76A4.3,4.3,0,0,0,305.36,79l1.47,1.7a4.93,4.93,0,0,1-2,1.43,7.38,7.38,0,0,1-2.73.48,7.18,7.18,0,0,1-3.41-.77,5.52,5.52,0,0,1-2.27-2.14,6,6,0,0,1-.81-3.12,6.17,6.17,0,0,1,.78-3.09,5.58,5.58,0,0,1,2.17-2.14,6.25,6.25,0,0,1,3.12-.77,6.11,6.11,0,0,1,3.07.76,5.3,5.3,0,0,1,2.12,2.13,6.55,6.55,0,0,1,.75,3.18C307.62,76.85,307.61,77.12,307.58,77.47Zm-8.13-3.9a3.26,3.26,0,0,0-1.11,2.08H305a3.21,3.21,0,0,0-3.33-2.86A3.31,3.31,0,0,0,299.45,73.57Z"/><path class="cls-5" d="M311.1,82.25a7.05,7.05,0,0,1-2.18-1L310,79.21a6.79,6.79,0,0,0,1.9.85,8,8,0,0,0,2.19.32c1.64,0,2.46-.43,2.46-1.3a.86.86,0,0,0-.62-.86,11.28,11.28,0,0,0-2-.46,17,17,0,0,1-2.36-.51,3.62,3.62,0,0,1-1.59-1,2.82,2.82,0,0,1-.67-2,3.14,3.14,0,0,1,1.4-2.67,6.33,6.33,0,0,1,3.77-1,11,11,0,0,1,2.42.27,6.84,6.84,0,0,1,2,.74l-1,2.09a6.49,6.49,0,0,0-3.37-.88,3.79,3.79,0,0,0-1.84.36,1.1,1.1,0,0,0-.62,1,.94.94,0,0,0,.67.93,10.11,10.11,0,0,0,2.08.52,16.45,16.45,0,0,1,2.31.51,3.55,3.55,0,0,1,1.55,1,2.7,2.7,0,0,1,.65,1.93,3.07,3.07,0,0,1-1.43,2.64,6.76,6.76,0,0,1-3.9,1A10.48,10.48,0,0,1,311.1,82.25Z"/><path class="cls-5" d="M323.66,81.85a5.6,5.6,0,0,1-2.23-2.14,6,6,0,0,1-.8-3.12,6,6,0,0,1,.8-3.1,5.58,5.58,0,0,1,2.23-2.13,7.14,7.14,0,0,1,6.45,0,5.58,5.58,0,0,1,2.23,2.13,6,6,0,0,1,.8,3.1,6,6,0,0,1-.8,3.12,5.6,5.6,0,0,1-2.23,2.14,7.14,7.14,0,0,1-6.45,0Zm5.72-2.59a4.08,4.08,0,0,0,0-5.33,3.37,3.37,0,0,0-2.51-1,3.32,3.32,0,0,0-2.49,1,4.11,4.11,0,0,0,0,5.33,3.32,3.32,0,0,0,2.49,1A3.37,3.37,0,0,0,329.38,79.26Z"/><rect class="cls-6" x="169.7" y="189.54" width="237.9" height="50.59" rx="4"/><path class="cls-5" d="M202.92,217.7h-7.7l-1.52,3.57h-2.95l6.93-15.4h2.82l6.95,15.4h-3Zm-.95-2.24-2.9-6.73-2.89,6.73Z"/><path class="cls-5" d="M209.14,204.94h2.75v16.33h-2.75Z"/><path class="cls-5" d="M233.85,210.67a5.26,5.26,0,0,1,1.3,3.87v6.73H232.4v-6.38a3.4,3.4,0,0,0-.69-2.32,2.44,2.44,0,0,0-2-.78,2.87,2.87,0,0,0-2.23.91,3.77,3.77,0,0,0-.83,2.61v6H224v-6.38a3.45,3.45,0,0,0-.68-2.32,2.47,2.47,0,0,0-2-.78,2.87,2.87,0,0,0-2.23.9,3.74,3.74,0,0,0-.83,2.62v6H215.5V209.52h2.62V211a4.17,4.17,0,0,1,1.65-1.21,5.57,5.57,0,0,1,2.2-.42,5.29,5.29,0,0,1,2.34.49,3.83,3.83,0,0,1,1.62,1.47,4.92,4.92,0,0,1,1.87-1.45,6.12,6.12,0,0,1,2.53-.51A4.82,4.82,0,0,1,233.85,210.67Z"/><path class="cls-5" d="M247.13,210.63a4.83,4.83,0,0,1,1.37,3.75v6.89h-2.6v-1.43a3.12,3.12,0,0,1-1.44,1.17,5.45,5.45,0,0,1-2.25.41,5.54,5.54,0,0,1-2.31-.45,3.6,3.6,0,0,1-1.53-1.25,3.19,3.19,0,0,1-.54-1.82,3.11,3.11,0,0,1,1.18-2.54,5.81,5.81,0,0,1,3.7-1h3v-.17a2.41,2.41,0,0,0-.74-1.89,3.19,3.19,0,0,0-2.19-.66,6.44,6.44,0,0,0-1.94.3,5,5,0,0,0-1.62.86l-1.08-2a6.76,6.76,0,0,1,2.22-1.08,9.93,9.93,0,0,1,2.75-.37A5.75,5.75,0,0,1,247.13,210.63ZM244.62,219a2.61,2.61,0,0,0,1.13-1.36v-1.36h-2.84q-2.37,0-2.37,1.56a1.39,1.39,0,0,0,.59,1.19,2.76,2.76,0,0,0,1.65.44A3.62,3.62,0,0,0,244.62,219Z"/><path class="cls-5" d="M254.24,220.65a5.62,5.62,0,0,1-2.26-2.14,6,6,0,0,1-.82-3.12,5.89,5.89,0,0,1,.82-3.1,5.63,5.63,0,0,1,2.25-2.13,6.8,6.8,0,0,1,3.29-.77,6.36,6.36,0,0,1,3.05.7,4.6,4.6,0,0,1,2,2l-2.12,1.23a3.34,3.34,0,0,0-1.26-1.22,3.49,3.49,0,0,0-1.66-.41,3.45,3.45,0,0,0-2.55,1,3.58,3.58,0,0,0-1,2.67,3.62,3.62,0,0,0,1,2.68,3.7,3.7,0,0,0,4.22.59,3.34,3.34,0,0,0,1.26-1.22l2.12,1.23a4.8,4.8,0,0,1-2,2,6.27,6.27,0,0,1-3,.71A6.82,6.82,0,0,1,254.24,220.65Z"/><path class="cls-5" d="M275.74,216.27h-9.22a3.2,3.2,0,0,0,1.26,2.06,4.12,4.12,0,0,0,2.54.76,4.28,4.28,0,0,0,3.19-1.28l1.48,1.7a5,5,0,0,1-2,1.43,7.38,7.38,0,0,1-2.73.48,7.18,7.18,0,0,1-3.41-.77,5.55,5.55,0,0,1-2.28-2.14,6.5,6.5,0,0,1,0-6.21,5.51,5.51,0,0,1,2.17-2.14,6.22,6.22,0,0,1,3.12-.77,6.13,6.13,0,0,1,3.07.76,5.34,5.34,0,0,1,2.11,2.13,6.45,6.45,0,0,1,.76,3.18C275.78,215.65,275.77,215.92,275.74,216.27Zm-8.13-3.9a3.26,3.26,0,0,0-1.11,2.08h6.66a3.23,3.23,0,0,0-1.08-2.07,3.26,3.26,0,0,0-2.24-.79A3.31,3.31,0,0,0,267.61,212.37Z"/><path class="cls-5" d="M288.65,210.69a5.12,5.12,0,0,1,1.34,3.85v6.73h-2.75v-6.38a3.31,3.31,0,0,0-.72-2.32,2.71,2.71,0,0,0-2.07-.78,3.18,3.18,0,0,0-2.4.91,3.62,3.62,0,0,0-.88,2.63v5.94h-2.75V209.52H281V211a4.18,4.18,0,0,1,1.71-1.23,6.18,6.18,0,0,1,2.34-.42A4.89,4.89,0,0,1,288.65,210.69Z"/><path class="cls-5" d="M302,210.63a4.83,4.83,0,0,1,1.37,3.75v6.89h-2.59v-1.43a3.23,3.23,0,0,1-1.44,1.17,6.29,6.29,0,0,1-4.57,0,3.6,3.6,0,0,1-1.53-1.25,3.19,3.19,0,0,1-.54-1.82,3.14,3.14,0,0,1,1.18-2.54,5.83,5.83,0,0,1,3.71-1h3v-.17a2.41,2.41,0,0,0-.73-1.89,3.19,3.19,0,0,0-2.19-.66,6.5,6.5,0,0,0-1.95.3,5,5,0,0,0-1.62.86l-1.07-2a6.57,6.57,0,0,1,2.22-1.08,9.82,9.82,0,0,1,2.75-.37A5.73,5.73,0,0,1,302,210.63ZM299.44,219a2.57,2.57,0,0,0,1.13-1.36v-1.36h-2.83c-1.59,0-2.38.52-2.38,1.56A1.41,1.41,0,0,0,296,219a2.76,2.76,0,0,0,1.65.44A3.62,3.62,0,0,0,299.44,219Z"/><path class="cls-5" d="M325.19,210.67a5.22,5.22,0,0,1,1.3,3.87v6.73h-2.75v-6.38a3.45,3.45,0,0,0-.68-2.32,2.47,2.47,0,0,0-2-.78,2.85,2.85,0,0,0-2.22.91,3.72,3.72,0,0,0-.84,2.61v6h-2.75v-6.38a3.45,3.45,0,0,0-.68-2.32,2.47,2.47,0,0,0-2-.78,2.87,2.87,0,0,0-2.23.9,3.74,3.74,0,0,0-.83,2.62v6h-2.75V209.52h2.62V211a4.17,4.17,0,0,1,1.65-1.21,5.57,5.57,0,0,1,2.2-.42,5.29,5.29,0,0,1,2.34.49,3.72,3.72,0,0,1,1.62,1.47,5,5,0,0,1,1.87-1.45,6.15,6.15,0,0,1,2.53-.51A4.8,4.8,0,0,1,325.19,210.67Z"/><path class="cls-5" d="M330.14,207.11a1.53,1.53,0,0,1-.5-1.18,1.51,1.51,0,0,1,.5-1.17,1.77,1.77,0,0,1,1.26-.48,1.83,1.83,0,0,1,1.25.45,1.47,1.47,0,0,1,.51,1.14,1.67,1.67,0,0,1-.5,1.22,1.7,1.7,0,0,1-1.26.49A1.76,1.76,0,0,1,330.14,207.11Zm-.13,2.41h2.75v11.75H330Z"/><path class="cls-5" d="M347.37,216.27h-9.22a3.2,3.2,0,0,0,1.26,2.06,4.15,4.15,0,0,0,2.55.76,4.3,4.3,0,0,0,3.19-1.28l1.47,1.7a5,5,0,0,1-2,1.43,7.38,7.38,0,0,1-2.73.48,7.18,7.18,0,0,1-3.41-.77,5.61,5.61,0,0,1-2.28-2.14,6.5,6.5,0,0,1,0-6.21,5.51,5.51,0,0,1,2.17-2.14,6.22,6.22,0,0,1,3.12-.77,6.13,6.13,0,0,1,3.07.76,5.28,5.28,0,0,1,2.11,2.13,6.45,6.45,0,0,1,.76,3.18C347.41,215.65,347.4,215.92,347.37,216.27Zm-8.13-3.9a3.26,3.26,0,0,0-1.11,2.08h6.66a3.18,3.18,0,0,0-1.08-2.07,3.25,3.25,0,0,0-2.24-.79A3.31,3.31,0,0,0,339.24,212.37Z"/><path class="cls-5" d="M360.28,210.69a5.08,5.08,0,0,1,1.34,3.85v6.73h-2.75v-6.38a3.31,3.31,0,0,0-.72-2.32,2.71,2.71,0,0,0-2.07-.78,3.18,3.18,0,0,0-2.4.91,3.62,3.62,0,0,0-.88,2.63v5.94h-2.75V209.52h2.62V211a4.25,4.25,0,0,1,1.71-1.23,6.18,6.18,0,0,1,2.34-.42A4.88,4.88,0,0,1,360.28,210.69Z"/><path class="cls-5" d="M372.18,220.63a3.22,3.22,0,0,1-1.17.59,5.07,5.07,0,0,1-1.47.2,4.16,4.16,0,0,1-3-1,3.91,3.91,0,0,1-1.06-2.95v-5.65h-1.93v-2.2h1.93v-2.69h2.75v2.69h3.15v2.2h-3.15v5.59a1.83,1.83,0,0,0,.42,1.3,1.54,1.54,0,0,0,1.21.46,2.43,2.43,0,0,0,1.54-.49Z"/><path class="cls-5" d="M376.12,220.65a5.6,5.6,0,0,1-2.23-2.14,6,6,0,0,1-.81-3.12,6,6,0,0,1,.81-3.1,5.58,5.58,0,0,1,2.23-2.13,7.14,7.14,0,0,1,6.45,0,5.64,5.64,0,0,1,2.23,2.13,6.07,6.07,0,0,1,.8,3.1,6.14,6.14,0,0,1-.8,3.12,5.67,5.67,0,0,1-2.23,2.14,7.14,7.14,0,0,1-6.45,0Zm5.72-2.59a4.08,4.08,0,0,0,0-5.33,3.38,3.38,0,0,0-2.51-1,3.32,3.32,0,0,0-2.49,1,4.11,4.11,0,0,0,0,5.33,3.32,3.32,0,0,0,2.49,1A3.38,3.38,0,0,0,381.84,218.06Z"/><rect class="cls-4" x="456.6" y="50.74" width="120.7" height="50.59" rx="4"/><path class="cls-5" d="M486.16,82.18a7.21,7.21,0,0,1-2.63-1.34l1-2.22a7.82,7.82,0,0,0,2.32,1.22,8.61,8.61,0,0,0,2.76.47,4.77,4.77,0,0,0,2.57-.55,1.66,1.66,0,0,0,.84-1.45,1.43,1.43,0,0,0-.47-1.09,3.47,3.47,0,0,0-1.2-.67c-.48-.16-1.14-.34-2-.55a23.41,23.41,0,0,1-2.85-.84,4.58,4.58,0,0,1-1.87-1.31,3.5,3.5,0,0,1-.78-2.4,4.1,4.1,0,0,1,.69-2.32,4.73,4.73,0,0,1,2.09-1.67,8.47,8.47,0,0,1,3.42-.61,11.33,11.33,0,0,1,2.78.35,7.52,7.52,0,0,1,2.35,1l-.9,2.22a9.51,9.51,0,0,0-2.11-.9,8.2,8.2,0,0,0-2.14-.31,4.38,4.38,0,0,0-2.52.58,1.75,1.75,0,0,0-.82,1.51,1.39,1.39,0,0,0,.47,1.08,3.46,3.46,0,0,0,1.2.66c.48.16,1.14.35,2,.55a21.62,21.62,0,0,1,2.82.83,4.74,4.74,0,0,1,1.88,1.31,3.42,3.42,0,0,1,.78,2.37,4.07,4.07,0,0,1-.69,2.31A4.77,4.77,0,0,1,493,82.07a8.51,8.51,0,0,1-3.43.62A11.65,11.65,0,0,1,486.16,82.18Z"/><path class="cls-5" d="M506.86,71.83a4.8,4.8,0,0,1,1.38,3.75v6.89h-2.6V81a3.32,3.32,0,0,1-1.44,1.18,5.68,5.68,0,0,1-2.26.4,5.54,5.54,0,0,1-2.31-.45,3.6,3.6,0,0,1-1.53-1.25,3.26,3.26,0,0,1-.53-1.82,3.13,3.13,0,0,1,1.17-2.54,5.85,5.85,0,0,1,3.71-1h3v-.17a2.41,2.41,0,0,0-.74-1.89,3.19,3.19,0,0,0-2.19-.66,6.5,6.5,0,0,0-1.95.3A5,5,0,0,0,499,74l-1.08-2A6.57,6.57,0,0,1,500.14,71a9.88,9.88,0,0,1,2.75-.37A5.73,5.73,0,0,1,506.86,71.83Zm-2.51,8.32a2.59,2.59,0,0,0,1.14-1.36V77.43h-2.84c-1.59,0-2.38.52-2.38,1.56a1.4,1.4,0,0,0,.6,1.19,2.72,2.72,0,0,0,1.65.44A3.56,3.56,0,0,0,504.35,80.15Z"/><path class="cls-5" d="M511.76,66.14h2.75V82.47h-2.75Z"/><path class="cls-5" d="M518.25,68.31a1.54,1.54,0,0,1-.51-1.18,1.52,1.52,0,0,1,.51-1.17,1.73,1.73,0,0,1,1.25-.48,1.76,1.76,0,0,1,1.25.46,1.43,1.43,0,0,1,.51,1.13,1.67,1.67,0,0,1-.5,1.22,1.7,1.7,0,0,1-1.26.49A1.72,1.72,0,0,1,518.25,68.31Zm-.14,2.41h2.75V82.47h-2.75Z"/><path class="cls-5" d="M536,66.14V82.47h-2.64V81a4.18,4.18,0,0,1-1.69,1.25,5.62,5.62,0,0,1-2.21.42,6.14,6.14,0,0,1-3-.75,5.3,5.3,0,0,1-2.13-2.12,6.4,6.4,0,0,1-.77-3.16,6.32,6.32,0,0,1,.77-3.14,5.34,5.34,0,0,1,2.13-2.11,6.14,6.14,0,0,1,3-.75,5.7,5.7,0,0,1,2.14.39,4.42,4.42,0,0,1,1.65,1.19v-6Zm-4.42,13.68a3.3,3.3,0,0,0,1.25-1.29,4.3,4.3,0,0,0,0-3.87,3.3,3.3,0,0,0-1.25-1.29,3.58,3.58,0,0,0-1.79-.45,3.54,3.54,0,0,0-1.78.45,3.24,3.24,0,0,0-1.25,1.29,4.3,4.3,0,0,0,0,3.87A3.24,3.24,0,0,0,528,79.82a3.54,3.54,0,0,0,1.78.45A3.58,3.58,0,0,0,531.56,79.82Z"/><path class="cls-5" d="M548,71.83a4.8,4.8,0,0,1,1.38,3.75v6.89h-2.6V81a3.2,3.2,0,0,1-1.44,1.18,5.62,5.62,0,0,1-2.25.4,5.54,5.54,0,0,1-2.31-.45,3.6,3.6,0,0,1-1.53-1.25,3.19,3.19,0,0,1-.54-1.82,3.11,3.11,0,0,1,1.18-2.54,5.81,5.81,0,0,1,3.7-1h3v-.17a2.41,2.41,0,0,0-.74-1.89,3.19,3.19,0,0,0-2.19-.66,6.39,6.39,0,0,0-1.94.3,5,5,0,0,0-1.62.86l-1.08-2A6.76,6.76,0,0,1,541.32,71a9.88,9.88,0,0,1,2.75-.37A5.71,5.71,0,0,1,548,71.83Zm-2.5,8.32a2.61,2.61,0,0,0,1.13-1.36V77.43h-2.84q-2.37,0-2.37,1.56a1.39,1.39,0,0,0,.59,1.19,2.74,2.74,0,0,0,1.65.44A3.62,3.62,0,0,0,545.54,80.15Z"/><line class="cls-1" x1="288.65" y1="116.1" x2="288.65" y2="165.87"/><path class="cls-2" d="M295.06,120.72c1,2,0,3.58-2.21,3.58h-8.4c-2.2,0-3.19-1.61-2.21-3.58l4.62-9.24c1-2,2.6-2,3.58,0Z"/><path class="cls-2" d="M282.24,169.44c-1-2,0-3.57,2.21-3.57h8.4c2.2,0,3.19,1.61,2.21,3.57l-4.62,9.25c-1,2-2.6,2-3.58,0Z"/><path class="cls-3" d="M6.77,125.64l-3-9H3.73c.1,1.82.16,3,.16,3.65v5.31H1.55V114.22H5.11L8,123h.05l3.1-8.73h3.55v11.42H12.3v-5.4c0-.26,0-.55,0-.89s0-1.22.11-2.65h-.07l-3.18,8.94Z"/><path class="cls-3" d="M23.62,125.64l-.49-1.19h-.07a3.75,3.75,0,0,1-1.34,1.06,4.71,4.71,0,0,1-1.79.29,3,3,0,0,1-2.14-.72,2.65,2.65,0,0,1-.78-2,2.26,2.26,0,0,1,1-2,6.52,6.52,0,0,1,3.17-.73l1.64,0v-.38c0-.88-.49-1.33-1.47-1.33a7,7,0,0,0-2.66.64l-.85-1.61a8.1,8.1,0,0,1,3.61-.79,4.78,4.78,0,0,1,2.91.76,2.75,2.75,0,0,1,1,2.33v5.82Zm-.75-4-1,0a3.38,3.38,0,0,0-1.67.37,1.15,1.15,0,0,0-.55,1c0,.67.42,1,1.25,1a2.06,2.06,0,0,0,1.43-.48,1.61,1.61,0,0,0,.54-1.27Z"/><path class="cls-3" d="M36.77,125.64H34.2v-5.1a2.34,2.34,0,0,0-.36-1.42,1.38,1.38,0,0,0-1.16-.47,1.78,1.78,0,0,0-1.56.67,3.87,3.87,0,0,0-.48,2.21v4.11H28.07v-8.73h2l.35,1.12h.14a2.63,2.63,0,0,1,1.19-1,4.22,4.22,0,0,1,1.72-.33,3.45,3.45,0,0,1,2.49.83,3.15,3.15,0,0,1,.85,2.38Z"/><path class="cls-3" d="M46.1,125.64l-.34-1.11h-.14a2.69,2.69,0,0,1-1.17.94,4.3,4.3,0,0,1-1.73.33,3.47,3.47,0,0,1-2.51-.83,3.16,3.16,0,0,1-.84-2.37v-5.69h2.57V122a2.27,2.27,0,0,0,.37,1.42,1.36,1.36,0,0,0,1.15.47,1.78,1.78,0,0,0,1.56-.67A3.87,3.87,0,0,0,45.5,121v-4.11h2.58v8.73Z"/><path class="cls-3" d="M56.76,125.64l-.49-1.19H56.2a3.83,3.83,0,0,1-1.34,1.06,4.71,4.71,0,0,1-1.79.29,3,3,0,0,1-2.14-.72,2.65,2.65,0,0,1-.78-2,2.26,2.26,0,0,1,1.05-2,6.52,6.52,0,0,1,3.17-.73l1.63,0v-.38c0-.88-.49-1.33-1.46-1.33a7,7,0,0,0-2.66.64L51,117.52a8.1,8.1,0,0,1,3.61-.79,4.78,4.78,0,0,1,2.91.76,2.75,2.75,0,0,1,1,2.33v5.82Zm-.76-4-1,0a3.35,3.35,0,0,0-1.67.37,1.15,1.15,0,0,0-.55,1c0,.67.42,1,1.25,1a2.08,2.08,0,0,0,1.43-.48,1.6,1.6,0,0,0,.53-1.27Z"/><path class="cls-3" d="M63.78,125.64H61.21V113.49h2.57Z"/><path class="cls-3" d="M25.71,136.22v7.39a3.89,3.89,0,0,1-1.28,3.08,5.14,5.14,0,0,1-3.5,1.11,4.88,4.88,0,0,1-3.44-1.12,4,4,0,0,1-1.22-3.1v-7.36H17.7v7.46a2.81,2.81,0,0,0,.84,2.19,3.59,3.59,0,0,0,2.48.77,3.47,3.47,0,0,0,2.41-.77,2.84,2.84,0,0,0,.84-2.21v-7.44Z"/><path class="cls-3" d="M34.72,145.31a2.08,2.08,0,0,1-1,1.84,4.73,4.73,0,0,1-2.7.65,6.27,6.27,0,0,1-2.87-.54v-1.2a7.3,7.3,0,0,0,1.43.49,6.42,6.42,0,0,0,1.47.18,3.62,3.62,0,0,0,1.69-.32,1.07,1.07,0,0,0,.59-1,1,1,0,0,0-.47-.86,8.19,8.19,0,0,0-1.82-.84,10.32,10.32,0,0,1-1.84-.77,2.49,2.49,0,0,1-.81-.76,2,2,0,0,1,.66-2.66,4.56,4.56,0,0,1,2.52-.6,7.81,7.81,0,0,1,2.92.56l-.5,1a7.26,7.26,0,0,0-2.52-.53,3.08,3.08,0,0,0-1.5.29.89.89,0,0,0-.51.8.93.93,0,0,0,.19.59,2,2,0,0,0,.61.46,16.45,16.45,0,0,0,1.62.63,6,6,0,0,1,2.22,1.12A1.86,1.86,0,0,1,34.72,145.31Z"/><path class="cls-3" d="M38.31,139.08v5.56a2.13,2.13,0,0,0,.52,1.56,2.21,2.21,0,0,0,1.61.52,2.74,2.74,0,0,0,2.12-.74,3.49,3.49,0,0,0,.67-2.4v-4.5h1.4v8.57H43.48l-.21-1.15H43.2a2.83,2.83,0,0,1-1.2,1,4.29,4.29,0,0,1-1.74.33,3.68,3.68,0,0,1-2.52-.74,3,3,0,0,1-.84-2.37v-5.61Z"/><path class="cls-3" d="M53.29,147.65,53,146.43h-.07a3.88,3.88,0,0,1-1.38,1.09,4.52,4.52,0,0,1-1.72.28,3.28,3.28,0,0,1-2.15-.65,2.31,2.31,0,0,1-.78-1.87q0-2.59,4.48-2.72l1.57-.05V142a2.08,2.08,0,0,0-.47-1.49A2,2,0,0,0,51,140a6.43,6.43,0,0,0-2.61.66l-.43-1a6.73,6.73,0,0,1,1.49-.54,7.07,7.07,0,0,1,1.64-.2,3.75,3.75,0,0,1,2.45.68,2.73,2.73,0,0,1,.79,2.18v5.85Zm-3.17-.92a3,3,0,0,0,2.06-.66,2.37,2.37,0,0,0,.74-1.86v-.77l-1.4.05a5.59,5.59,0,0,0-2.41.48,1.42,1.42,0,0,0-.73,1.32,1.27,1.27,0,0,0,.46,1.07A2,2,0,0,0,50.12,146.73Z"/><path class="cls-3" d="M61.42,138.93a6.23,6.23,0,0,1,1.11.09l-.2,1.2a5.64,5.64,0,0,0-1-.11,2.58,2.58,0,0,0-1.92.84,2.93,2.93,0,0,0-.79,2.1v4.6h-1.4v-8.57h1.15l.16,1.59h.07a3.84,3.84,0,0,1,1.24-1.29A3,3,0,0,1,61.42,138.93Z"/><path class="cls-3" d="M64.14,136.76a.82.82,0,0,1,.24-.65.84.84,0,0,1,.59-.21.86.86,0,0,1,.58.21.84.84,0,0,1,.24.65.85.85,0,0,1-.24.66.86.86,0,0,1-.58.21.84.84,0,0,1-.59-.21A.85.85,0,0,1,64.14,136.76Zm1.52,10.89h-1.4v-8.57h1.4Z"/><path class="cls-3" d="M76.61,143.36a4.52,4.52,0,0,1-1.14,3.27,4.19,4.19,0,0,1-3.15,1.17,4.43,4.43,0,0,1-2.2-.54,3.61,3.61,0,0,1-1.48-1.54,5.07,5.07,0,0,1-.53-2.36,4.49,4.49,0,0,1,1.13-3.26,4.17,4.17,0,0,1,3.14-1.17,4.08,4.08,0,0,1,3.08,1.19A4.47,4.47,0,0,1,76.61,143.36Zm-7,0a3.88,3.88,0,0,0,.71,2.5,3,3,0,0,0,4.17,0,3.78,3.78,0,0,0,.72-2.5,3.73,3.73,0,0,0-.72-2.48,3,3,0,0,0-4.18,0A3.86,3.86,0,0,0,69.56,143.36Z"/><path class="cls-3" d="M78.86,146.82a1.09,1.09,0,0,1,.26-.8,1,1,0,0,1,.73-.26,1.1,1.1,0,0,1,.77.26,1.09,1.09,0,0,1,.27.8,1,1,0,0,1-.28.78,1,1,0,0,1-.76.27,1.07,1.07,0,0,1-.71-.24A1,1,0,0,1,78.86,146.82Z"/><path class="cls-7" d="M4.93,141.8A2.56,2.56,0,0,1,5.55,140a2.44,2.44,0,0,1,1.8-.63,2.39,2.39,0,0,1,1.79.64,3,3,0,0,1,0,3.67,2.39,2.39,0,0,1-1.78.65,2.38,2.38,0,0,1-1.79-.65A2.54,2.54,0,0,1,4.93,141.8Z"/><path class="cls-3" d="M9.1,174.24l-.89-2.72H3.71l-.89,2.72H0l4.35-11.47h3.2l4.37,11.47Zm-1.52-4.75c-.82-2.46-1.29-3.86-1.39-4.18s-.18-.58-.23-.77q-.27,1-1.59,5Z"/><path class="cls-3" d="M20,174.24l-.35-1.12h-.13a2.65,2.65,0,0,1-1.18.94,4.27,4.27,0,0,1-1.73.34,3.44,3.44,0,0,1-2.5-.83,3.17,3.17,0,0,1-.84-2.37v-5.7h2.57v5.11a2.29,2.29,0,0,0,.36,1.41,1.36,1.36,0,0,0,1.16.48,1.8,1.8,0,0,0,1.56-.67,3.91,3.91,0,0,0,.48-2.22V165.5h2.57v8.74Z"/><path class="cls-3" d="M28.59,172.5a5.73,5.73,0,0,0,1.62-.28V174a6.29,6.29,0,0,1-2.36.4,3,3,0,0,1-2.25-.73,3,3,0,0,1-.7-2.17v-4.21H23.67v-1l1.41-.8.75-1.84h1.64v1.85h2.64v1.79H27.47v4.21a.88.88,0,0,0,.31.75A1.21,1.21,0,0,0,28.59,172.5Z"/><path class="cls-3" d="M40.69,169.86a4.47,4.47,0,0,1-1.22,3.33,4.6,4.6,0,0,1-3.38,1.21,5.06,5.06,0,0,1-2.4-.56,3.73,3.73,0,0,1-1.59-1.58,5,5,0,0,1-.56-2.4,4.47,4.47,0,0,1,1.21-3.33,4.62,4.62,0,0,1,3.39-1.19,5,5,0,0,1,2.4.55,3.76,3.76,0,0,1,1.59,1.57A5,5,0,0,1,40.69,169.86Zm-6.52,0a3.44,3.44,0,0,0,.46,2,1.68,1.68,0,0,0,1.49.66,1.66,1.66,0,0,0,1.48-.66,3.48,3.48,0,0,0,.46-2,3.42,3.42,0,0,0-.46-2,2,2,0,0,0-3,0A3.43,3.43,0,0,0,34.17,169.86Z"/><path class="cls-3" d="M51.26,174.24H48.68v-5.1a2.4,2.4,0,0,0-.34-1.42,1.23,1.23,0,0,0-1.07-.47,1.6,1.6,0,0,0-1.44.67,4.1,4.1,0,0,0-.45,2.21v4.11H42.81V165.5h2l.34,1.12h.15a2.58,2.58,0,0,1,1.09-.94,3.77,3.77,0,0,1,1.65-.34,3.05,3.05,0,0,1,2.87,1.28h.22a2.55,2.55,0,0,1,1.12-.94,3.89,3.89,0,0,1,1.67-.34,3.44,3.44,0,0,1,2.42.76,3.18,3.18,0,0,1,.82,2.44v5.7H54.55v-5.1a2.4,2.4,0,0,0-.34-1.42,1.21,1.21,0,0,0-1.07-.47,1.69,1.69,0,0,0-1.42.62,3.38,3.38,0,0,0-.46,2Z"/><path class="cls-3" d="M65.76,174.24l-.5-1.19H65.2a3.68,3.68,0,0,1-1.34,1,4.54,4.54,0,0,1-1.79.3,3,3,0,0,1-2.14-.72,2.65,2.65,0,0,1-.78-2.05,2.25,2.25,0,0,1,1.05-2,6.52,6.52,0,0,1,3.17-.73l1.63,0v-.38c0-.89-.49-1.33-1.46-1.33a7.14,7.14,0,0,0-2.66.63L60,166.11a8.23,8.23,0,0,1,3.61-.78,4.78,4.78,0,0,1,2.91.76,2.75,2.75,0,0,1,1,2.33v5.82ZM65,170.19l-1,0a3.34,3.34,0,0,0-1.67.38,1.15,1.15,0,0,0-.55,1.05c0,.67.42,1,1.25,1a2.12,2.12,0,0,0,1.43-.47,1.64,1.64,0,0,0,.53-1.27Zm-2.86-5.65v-.21a22.43,22.43,0,0,0,2-2.35H67v.17q-.44.4-1.5,1.2c-.7.54-1.25.93-1.65,1.19Z"/><path class="cls-3" d="M74.18,172.5a5.73,5.73,0,0,0,1.62-.28V174a6.29,6.29,0,0,1-2.36.4,3,3,0,0,1-2.25-.73,3,3,0,0,1-.7-2.17v-4.21H69.25v-1l1.42-.8.74-1.84h1.65v1.85H75.7v1.79H73.06v4.21a.88.88,0,0,0,.31.75A1.21,1.21,0,0,0,74.18,172.5Z"/><path class="cls-3" d="M77.6,163.25c0-.78.46-1.17,1.4-1.17s1.4.39,1.4,1.17a1.1,1.1,0,0,1-.35.86,1.55,1.55,0,0,1-1,.31C78.06,164.42,77.6,164,77.6,163.25Zm2.68,11H77.71V165.5h2.57Z"/><path class="cls-3" d="M86.81,174.4c-2.94,0-4.41-1.5-4.41-4.48a4.53,4.53,0,0,1,1.2-3.4A4.67,4.67,0,0,1,87,165.34a7.11,7.11,0,0,1,2.94.59l-.76,1.85c-.41-.15-.78-.28-1.13-.37a3.81,3.81,0,0,0-1-.15c-1.34,0-2,.88-2,2.64s.66,2.57,2,2.57a4.84,4.84,0,0,0,2.64-.76v2a4.2,4.2,0,0,1-1.26.5A7.12,7.12,0,0,1,86.81,174.4Z"/><path class="cls-3" d="M97.85,174.24l-.5-1.19h-.07a3.6,3.6,0,0,1-1.34,1,4.48,4.48,0,0,1-1.79.3,3,3,0,0,1-2.14-.72,2.65,2.65,0,0,1-.78-2.05,2.25,2.25,0,0,1,1-2,6.52,6.52,0,0,1,3.17-.73l1.64,0v-.38c0-.89-.49-1.33-1.47-1.33a7.19,7.19,0,0,0-2.66.63l-.85-1.61a8.27,8.27,0,0,1,3.61-.78,4.74,4.74,0,0,1,2.91.76,2.72,2.72,0,0,1,1,2.33v5.82Zm-.76-4.05-1,0a3.37,3.37,0,0,0-1.67.38,1.17,1.17,0,0,0-.55,1.05c0,.67.42,1,1.25,1a2.11,2.11,0,0,0,1.43-.47,1.61,1.61,0,0,0,.54-1.27Z"/><path class="cls-3" d="M26.24,190.42a5.55,5.55,0,0,1-1.66,4.33,6.94,6.94,0,0,1-4.77,1.49H16.39V184.82h3.78a6.3,6.3,0,0,1,4.47,1.48A5.31,5.31,0,0,1,26.24,190.42Zm-1.52.05a4.43,4.43,0,0,0-1.21-3.37,5.13,5.13,0,0,0-3.6-1.13H17.83v9.12h1.74a5.59,5.59,0,0,0,3.86-1.16A4.43,4.43,0,0,0,24.72,190.47Z"/><path class="cls-3" d="M32.68,196.4a4.42,4.42,0,0,1-3.23-1.16A4.28,4.28,0,0,1,28.26,192a4.76,4.76,0,0,1,1.1-3.29,3.79,3.79,0,0,1,3-1.22,3.65,3.65,0,0,1,2.75,1.06,3.91,3.91,0,0,1,1,2.8v.82H29.71a3.23,3.23,0,0,0,.82,2.28,3,3,0,0,0,2.2.79,8,8,0,0,0,3-.58v1.15a7.91,7.91,0,0,1-1.4.43A8.2,8.2,0,0,1,32.68,196.4Zm-.38-7.79a2.4,2.4,0,0,0-1.78.67,2.94,2.94,0,0,0-.77,1.86h4.83a2.73,2.73,0,0,0-.59-1.88A2.19,2.19,0,0,0,32.3,188.61Z"/><path class="cls-3" d="M50.93,192a4.49,4.49,0,0,1-1.14,3.27,4.15,4.15,0,0,1-3.14,1.18,4.4,4.4,0,0,1-2.2-.54A3.65,3.65,0,0,1,43,194.31a5,5,0,0,1-.52-2.36,4.48,4.48,0,0,1,1.13-3.26,4.16,4.16,0,0,1,3.14-1.17,4.05,4.05,0,0,1,3.08,1.2A4.49,4.49,0,0,1,50.93,192Zm-7,0a3.84,3.84,0,0,0,.71,2.5,2.51,2.51,0,0,0,2.08.86,2.57,2.57,0,0,0,2.09-.85,3.87,3.87,0,0,0,.71-2.51,3.82,3.82,0,0,0-.71-2.48,2.62,2.62,0,0,0-2.11-.84,2.54,2.54,0,0,0-2.07.83A3.79,3.79,0,0,0,43.89,192Z"/><path class="cls-3" d="M56.37,195.33a5.55,5.55,0,0,0,.72-.05c.23,0,.41-.07.55-.11v1a2.58,2.58,0,0,1-.67.17,4.81,4.81,0,0,1-.8.07c-1.79,0-2.68-.87-2.68-2.62v-5.09H52.16v-.63l1.33-.54.59-1.82h.81v2h2.68v1H54.89v5a1.65,1.65,0,0,0,.39,1.18A1.44,1.44,0,0,0,56.37,195.33Z"/><path class="cls-3" d="M63.7,187.52a6.18,6.18,0,0,1,1.11.1l-.2,1.2a5,5,0,0,0-1-.12,2.52,2.52,0,0,0-1.92.85,2.94,2.94,0,0,0-.8,2.1v4.59h-1.4v-8.56h1.16l.16,1.59h.07A3.75,3.75,0,0,1,62.11,188,3,3,0,0,1,63.7,187.52Z"/><path class="cls-3" d="M74.51,192a4.53,4.53,0,0,1-1.13,3.27,4.16,4.16,0,0,1-3.15,1.18,4.4,4.4,0,0,1-2.2-.54,3.71,3.71,0,0,1-1.49-1.55A5,5,0,0,1,66,192a4.52,4.52,0,0,1,1.13-3.26,4.16,4.16,0,0,1,3.14-1.17,4.05,4.05,0,0,1,3.08,1.2A4.49,4.49,0,0,1,74.51,192Zm-7,0a3.84,3.84,0,0,0,.71,2.5,2.52,2.52,0,0,0,2.08.86,2.55,2.55,0,0,0,2.09-.85,3.81,3.81,0,0,0,.71-2.51,3.76,3.76,0,0,0-.71-2.48,2.6,2.6,0,0,0-2.1-.84,2.55,2.55,0,0,0-2.08.83A3.79,3.79,0,0,0,67.47,192Z"/><path class="cls-3" d="M82.93,193.91a2.09,2.09,0,0,1-1,1.84,4.81,4.81,0,0,1-2.7.65,6.27,6.27,0,0,1-2.87-.54v-1.2a7.3,7.3,0,0,0,1.43.49,6.42,6.42,0,0,0,1.47.18A3.49,3.49,0,0,0,81,195a1,1,0,0,0,.59-1,1,1,0,0,0-.47-.86,7.36,7.36,0,0,0-1.82-.84,10.19,10.19,0,0,1-1.84-.78,2.46,2.46,0,0,1-.81-.75,1.92,1.92,0,0,1-.26-1,1.86,1.86,0,0,1,.92-1.65,4.56,4.56,0,0,1,2.52-.61,7.82,7.82,0,0,1,2.92.57l-.5,1a7.26,7.26,0,0,0-2.52-.53,3.08,3.08,0,0,0-1.5.29.92.92,0,0,0-.32,1.38,1.83,1.83,0,0,0,.61.46,13.68,13.68,0,0,0,1.62.64,6.2,6.2,0,0,1,2.22,1.11A1.89,1.89,0,0,1,82.93,193.91Z"/><path class="cls-3" d="M22.15,215.91a2.08,2.08,0,0,1-1,1.84,4.8,4.8,0,0,1-2.69.65,6.24,6.24,0,0,1-2.87-.54v-1.2a7.08,7.08,0,0,0,1.43.49,6.42,6.42,0,0,0,1.47.18,3.54,3.54,0,0,0,1.69-.33,1.07,1.07,0,0,0,.12-1.84,7.29,7.29,0,0,0-1.83-.84,9.71,9.71,0,0,1-1.83-.78,2.46,2.46,0,0,1-.81-.75,1.84,1.84,0,0,1-.27-1,1.88,1.88,0,0,1,.92-1.65,4.56,4.56,0,0,1,2.52-.61,7.78,7.78,0,0,1,2.92.57l-.5,1a7.17,7.17,0,0,0-2.52-.53,3.14,3.14,0,0,0-1.5.29.88.88,0,0,0-.51.8.94.94,0,0,0,.19.58,1.78,1.78,0,0,0,.62.46,13.68,13.68,0,0,0,1.62.64,6.39,6.39,0,0,1,2.22,1.11A1.93,1.93,0,0,1,22.15,215.91Z"/><path class="cls-3" d="M24.3,207.36a.81.81,0,0,1,.24-.65.87.87,0,0,1,.59-.21.84.84,0,0,1,.58.21,1,1,0,0,1,0,1.3.81.81,0,0,1-.58.22.79.79,0,0,1-.83-.87Zm1.52,10.88h-1.4v-8.56h1.4Z"/><path class="cls-3" d="M34.75,215.91a2.09,2.09,0,0,1-1,1.84,4.81,4.81,0,0,1-2.7.65,6.22,6.22,0,0,1-2.86-.54v-1.2a7.08,7.08,0,0,0,1.43.49,6.42,6.42,0,0,0,1.47.18,3.54,3.54,0,0,0,1.69-.33,1.07,1.07,0,0,0,.12-1.84,7.29,7.29,0,0,0-1.83-.84,9.71,9.71,0,0,1-1.83-.78,2.28,2.28,0,0,1-.81-.75,1.84,1.84,0,0,1-.27-1,1.88,1.88,0,0,1,.92-1.65,4.56,4.56,0,0,1,2.52-.61,7.78,7.78,0,0,1,2.92.57l-.5,1a7.21,7.21,0,0,0-2.52-.53,3.14,3.14,0,0,0-1.5.29.88.88,0,0,0-.51.8.94.94,0,0,0,.19.58,1.78,1.78,0,0,0,.62.46,13.68,13.68,0,0,0,1.62.64,6.39,6.39,0,0,1,2.22,1.11A1.92,1.92,0,0,1,34.75,215.91Z"/><path class="cls-3" d="M40,217.33a5.39,5.39,0,0,0,.71-.05,4.76,4.76,0,0,0,.55-.11v1a2.37,2.37,0,0,1-.67.17,4.7,4.7,0,0,1-.79.07c-1.79,0-2.69-.87-2.69-2.62v-5.09H35.81v-.63l1.32-.54.59-1.82h.81v2h2.69v1H38.53v5a1.65,1.65,0,0,0,.4,1.18A1.42,1.42,0,0,0,40,217.33Z"/><path class="cls-3" d="M47,218.4a4.45,4.45,0,0,1-3.24-1.16A4.27,4.27,0,0,1,42.62,214a4.71,4.71,0,0,1,1.1-3.29,3.79,3.79,0,0,1,3-1.22,3.64,3.64,0,0,1,2.75,1.06,3.87,3.87,0,0,1,1,2.8v.82H44.07a3.19,3.19,0,0,0,.82,2.28,2.93,2.93,0,0,0,2.2.79,8.07,8.07,0,0,0,2.95-.58v1.15a8,8,0,0,1-1.41.43A8.09,8.09,0,0,1,47,218.4Zm-.38-7.79a2.37,2.37,0,0,0-1.78.67,3,3,0,0,0-.78,1.86h4.83a2.68,2.68,0,0,0-.59-1.88A2.15,2.15,0,0,0,46.66,210.61Z"/><path class="cls-3" d="M64.6,218.24v-5.57a2.16,2.16,0,0,0-.47-1.53,1.9,1.9,0,0,0-1.47-.51,2.48,2.48,0,0,0-1.93.69,3.16,3.16,0,0,0-.62,2.14v4.78h-1.4v-5.57a2.21,2.21,0,0,0-.47-1.53,1.94,1.94,0,0,0-1.48-.51,2.37,2.37,0,0,0-1.93.73,3.75,3.75,0,0,0-.61,2.39v4.49h-1.4v-8.56H54l.23,1.17h.07a2.64,2.64,0,0,1,1.11-1,3.57,3.57,0,0,1,1.62-.36A2.78,2.78,0,0,1,59.82,211h.07a2.86,2.86,0,0,1,1.2-1.07,4,4,0,0,1,1.79-.39,3.26,3.26,0,0,1,2.34.75,3.18,3.18,0,0,1,.78,2.39v5.58Z"/><path class="cls-3" d="M74.57,218.24,74.29,217h-.06a3.77,3.77,0,0,1-1.38,1.09,4.51,4.51,0,0,1-1.72.29,3.23,3.23,0,0,1-2.15-.66,2.29,2.29,0,0,1-.78-1.86q0-2.59,4.48-2.72l1.56,0v-.53a2.08,2.08,0,0,0-.46-1.49,2,2,0,0,0-1.5-.48,6.51,6.51,0,0,0-2.62.66l-.43-1a7.6,7.6,0,0,1,1.5-.54,7,7,0,0,1,1.63-.19,3.71,3.71,0,0,1,2.45.68,2.69,2.69,0,0,1,.8,2.18v5.84Zm-3.16-.91a2.93,2.93,0,0,0,2-.67,2.34,2.34,0,0,0,.75-1.85V214l-1.4.06a5.27,5.27,0,0,0-2.41.48,1.42,1.42,0,0,0-.74,1.32,1.3,1.3,0,0,0,.46,1.07A2,2,0,0,0,71.41,217.33Z"/><path class="cls-3" d="M84.46,215.91a2.09,2.09,0,0,1-1,1.84,4.81,4.81,0,0,1-2.7.65,6.27,6.27,0,0,1-2.87-.54v-1.2a7.08,7.08,0,0,0,1.43.49,6.42,6.42,0,0,0,1.47.18,3.54,3.54,0,0,0,1.69-.33,1.07,1.07,0,0,0,.12-1.84,7.29,7.29,0,0,0-1.83-.84,9.71,9.71,0,0,1-1.83-.78,2.46,2.46,0,0,1-.81-.75,1.84,1.84,0,0,1-.27-1,1.88,1.88,0,0,1,.92-1.65,4.62,4.62,0,0,1,2.53-.61,7.77,7.77,0,0,1,2.91.57l-.49,1a7.26,7.26,0,0,0-2.53-.53,3.14,3.14,0,0,0-1.5.29.89.89,0,0,0-.5.8.88.88,0,0,0,.19.58,1.73,1.73,0,0,0,.61.46,13.68,13.68,0,0,0,1.62.64,6.29,6.29,0,0,1,2.22,1.11A1.89,1.89,0,0,1,84.46,215.91Z"/><path class="cls-3" d="M99.2,214a4.49,4.49,0,0,1-1.14,3.27,4.15,4.15,0,0,1-3.14,1.18,4.4,4.4,0,0,1-2.2-.54,3.65,3.65,0,0,1-1.49-1.55,5,5,0,0,1-.52-2.36,4.48,4.48,0,0,1,1.13-3.26A4.16,4.16,0,0,1,95,209.52a4.05,4.05,0,0,1,3.08,1.2A4.49,4.49,0,0,1,99.2,214Zm-7,0a3.78,3.78,0,0,0,.71,2.5,2.51,2.51,0,0,0,2.08.86,2.57,2.57,0,0,0,2.09-.85,3.87,3.87,0,0,0,.71-2.51,3.82,3.82,0,0,0-.71-2.48,2.62,2.62,0,0,0-2.11-.84,2.54,2.54,0,0,0-2.07.83A3.79,3.79,0,0,0,92.16,214Z"/><path class="cls-3" d="M28,240.24v-5.57a2.16,2.16,0,0,0-.48-1.53,1.89,1.89,0,0,0-1.46-.51,2.49,2.49,0,0,0-1.94.69,3.16,3.16,0,0,0-.62,2.14v4.78h-1.4v-5.57a2.21,2.21,0,0,0-.47-1.53,1.94,1.94,0,0,0-1.48-.51,2.37,2.37,0,0,0-1.93.73,3.75,3.75,0,0,0-.61,2.39v4.49h-1.4v-8.56h1.14l.23,1.17h.07a2.64,2.64,0,0,1,1.11-1,3.57,3.57,0,0,1,1.62-.36A2.78,2.78,0,0,1,23.18,233h.07a3,3,0,0,1,1.2-1.07,4,4,0,0,1,1.79-.39,3.3,3.3,0,0,1,2.35.75,3.18,3.18,0,0,1,.78,2.39v5.58Z"/><path class="cls-3" d="M40.23,236a4.49,4.49,0,0,1-1.14,3.27,4.16,4.16,0,0,1-3.15,1.18,4.43,4.43,0,0,1-2.2-.54,3.69,3.69,0,0,1-1.48-1.55,5,5,0,0,1-.52-2.36,4.48,4.48,0,0,1,1.13-3.26A4.15,4.15,0,0,1,36,231.52a4.07,4.07,0,0,1,3.09,1.2A4.49,4.49,0,0,1,40.23,236Zm-7,0a3.84,3.84,0,0,0,.7,2.5,2.54,2.54,0,0,0,2.09.86,2.58,2.58,0,0,0,2.09-.85,3.87,3.87,0,0,0,.71-2.51,3.82,3.82,0,0,0-.71-2.48,2.62,2.62,0,0,0-2.11-.84,2.52,2.52,0,0,0-2.07.83A3.79,3.79,0,0,0,33.19,236Zm1.62-5.6A16.52,16.52,0,0,0,36.42,228h1.7v.17A13.61,13.61,0,0,1,37,229.4a12.73,12.73,0,0,1-1.28,1.15h-.93Z"/><path class="cls-3" d="M49,239.09H48.9A3.39,3.39,0,0,1,46,240.4a3.54,3.54,0,0,1-2.82-1.15,4.76,4.76,0,0,1-1-3.27,4.87,4.87,0,0,1,1-3.28,3.93,3.93,0,0,1,5.7.09H49l-.06-.62,0-.6v-3.48h1.4v12.15H49.16Zm-2.81.22a2.66,2.66,0,0,0,2.08-.72,3.45,3.45,0,0,0,.65-2.33V236a4.08,4.08,0,0,0-.65-2.59,2.6,2.6,0,0,0-2.09-.78,2.22,2.22,0,0,0-1.89.89,4.18,4.18,0,0,0-.65,2.5,4,4,0,0,0,.65,2.48A2.28,2.28,0,0,0,46.17,239.31Z"/><path class="cls-3" d="M54.58,231.68v5.55a2.17,2.17,0,0,0,.52,1.57,2.21,2.21,0,0,0,1.61.51,2.74,2.74,0,0,0,2.12-.73,3.49,3.49,0,0,0,.67-2.4v-4.5h1.4v8.56H59.75l-.21-1.15h-.07a2.69,2.69,0,0,1-1.2,1,4.16,4.16,0,0,1-1.74.34,3.73,3.73,0,0,1-2.52-.74,3,3,0,0,1-.84-2.38v-5.6Z"/><path class="cls-3" d="M65.27,240.24h-1.4V228.09h1.4Z"/><path class="cls-3" d="M76.22,236a4.49,4.49,0,0,1-1.14,3.27,4.16,4.16,0,0,1-3.15,1.18,4.43,4.43,0,0,1-2.2-.54,3.69,3.69,0,0,1-1.48-1.55,5,5,0,0,1-.53-2.36,4.52,4.52,0,0,1,1.13-3.26A4.17,4.17,0,0,1,72,231.52a4.07,4.07,0,0,1,3.09,1.2A4.49,4.49,0,0,1,76.22,236Zm-7,0a3.84,3.84,0,0,0,.7,2.5,3,3,0,0,0,4.17,0,3.81,3.81,0,0,0,.72-2.51,3.76,3.76,0,0,0-.72-2.48,2.59,2.59,0,0,0-2.1-.84,2.52,2.52,0,0,0-2.07.83A3.79,3.79,0,0,0,69.18,236Z"/><path class="cls-3" d="M84.64,237.91a2.1,2.1,0,0,1-1,1.84,4.8,4.8,0,0,1-2.69.65,6.24,6.24,0,0,1-2.87-.54v-1.2a7.08,7.08,0,0,0,1.43.49,6.42,6.42,0,0,0,1.47.18A3.54,3.54,0,0,0,82.7,239a1.07,1.07,0,0,0,.12-1.84,7.29,7.29,0,0,0-1.83-.84,9.71,9.71,0,0,1-1.83-.78,2.28,2.28,0,0,1-.81-.75,1.84,1.84,0,0,1-.27-1,1.88,1.88,0,0,1,.92-1.65,4.56,4.56,0,0,1,2.52-.61,7.78,7.78,0,0,1,2.92.57l-.5,1a7.17,7.17,0,0,0-2.52-.53,3.14,3.14,0,0,0-1.5.29.88.88,0,0,0-.51.8.94.94,0,0,0,.19.58,1.78,1.78,0,0,0,.62.46,13.68,13.68,0,0,0,1.62.64,6.39,6.39,0,0,1,2.22,1.11A1.93,1.93,0,0,1,84.64,237.91Z"/><path class="cls-3" d="M86.71,239.41a1.12,1.12,0,0,1,.26-.79,1,1,0,0,1,.74-.27,1,1,0,0,1,.76.27,1.08,1.08,0,0,1,.27.79,1.06,1.06,0,0,1-.28.79,1,1,0,0,1-.75.27,1,1,0,0,1-.72-.25A1,1,0,0,1,86.71,239.41Z"/><path class="cls-7" d="M4.93,190.4a2.54,2.54,0,0,1,.62-1.84,2.4,2.4,0,0,1,1.8-.64,2.43,2.43,0,0,1,1.79.64,2.52,2.52,0,0,1,.63,1.84,2.47,2.47,0,0,1-.64,1.83,2.35,2.35,0,0,1-1.78.65,2.34,2.34,0,0,1-1.79-.65A2.51,2.51,0,0,1,4.93,190.4Z"/><path class="cls-3" d="M133.76,4.16a3.1,3.1,0,0,1-1.27,2.67,6.14,6.14,0,0,1-3.66.94h-1.45v4.49H126V.84h3.19Q133.76.84,133.76,4.16Zm-6.38,2.47h1.29a5,5,0,0,0,2.76-.58,2,2,0,0,0,.85-1.82,1.92,1.92,0,0,0-.8-1.69A4.47,4.47,0,0,0,129,2h-1.6Z"/><path class="cls-3" d="M140,12.41a4.42,4.42,0,0,1-3.23-1.15,4.28,4.28,0,0,1-1.19-3.21,4.74,4.74,0,0,1,1.1-3.29,3.79,3.79,0,0,1,3-1.22,3.62,3.62,0,0,1,2.75,1.06,3.87,3.87,0,0,1,1,2.79v.82h-6.37a3.24,3.24,0,0,0,.82,2.29,3,3,0,0,0,2.2.78A7.83,7.83,0,0,0,143,10.7v1.16a7.91,7.91,0,0,1-1.4.43A9.16,9.16,0,0,1,140,12.41Zm-.38-7.78a2.4,2.4,0,0,0-1.78.67,3,3,0,0,0-.78,1.86h4.84a2.72,2.72,0,0,0-.59-1.88A2.16,2.16,0,0,0,139.66,4.63Z"/><path class="cls-3" d="M150,3.54a6.23,6.23,0,0,1,1.11.09L151,4.84a5,5,0,0,0-1-.12,2.55,2.55,0,0,0-1.92.84,3,3,0,0,0-.79,2.1v4.6h-1.4V3.7H147l.16,1.58h.07A3.84,3.84,0,0,1,148.45,4,2.94,2.94,0,0,1,150,3.54Z"/><path class="cls-3" d="M164.66,12.26V6.69a2.23,2.23,0,0,0-.47-1.54,1.93,1.93,0,0,0-1.47-.51,2.44,2.44,0,0,0-1.93.7,3.09,3.09,0,0,0-.63,2.14v4.78h-1.4V6.69a2.18,2.18,0,0,0-.47-1.54,1.91,1.91,0,0,0-1.47-.51,2.37,2.37,0,0,0-1.93.73,3.74,3.74,0,0,0-.61,2.4v4.49h-1.4V3.7H154l.22,1.17h.07a2.75,2.75,0,0,1,1.12-1A3.69,3.69,0,0,1,157,3.54,2.79,2.79,0,0,1,159.88,5h.06a2.89,2.89,0,0,1,1.2-1.06,4,4,0,0,1,1.79-.39,3.27,3.27,0,0,1,2.35.75,3.16,3.16,0,0,1,.78,2.38v5.59Z"/><path class="cls-3" d="M168.83,1.38a.83.83,0,0,1,.23-.66.86.86,0,0,1,.59-.2.84.84,0,0,1,.58.21.78.78,0,0,1,.25.65.81.81,0,0,1-.25.65.84.84,0,0,1-.58.21.87.87,0,0,1-.59-.21A.83.83,0,0,1,168.83,1.38Zm1.51,10.88h-1.4V3.7h1.4Z"/><path class="cls-3" d="M176.3,11.34a4.21,4.21,0,0,0,.72-.05,5.43,5.43,0,0,0,.54-.1v1a2.78,2.78,0,0,1-.67.17,5.91,5.91,0,0,1-.79.06c-1.79,0-2.69-.87-2.69-2.61V4.7h-1.32V4.08l1.32-.54.6-1.83h.8v2h2.69v1h-2.69v5a1.68,1.68,0,0,0,.4,1.19A1.43,1.43,0,0,0,176.3,11.34Z"/><path class="cls-3" d="M183.32,12.41a4.44,4.44,0,0,1-3.24-1.15,4.27,4.27,0,0,1-1.18-3.21A4.69,4.69,0,0,1,180,4.76,3.79,3.79,0,0,1,183,3.54,3.6,3.6,0,0,1,185.7,4.6a3.83,3.83,0,0,1,1,2.79v.82h-6.37a3.24,3.24,0,0,0,.82,2.29,3,3,0,0,0,2.2.78,7.87,7.87,0,0,0,2.95-.58v1.16a8.17,8.17,0,0,1-1.4.43A9.24,9.24,0,0,1,183.32,12.41Zm-.38-7.78a2.37,2.37,0,0,0-1.78.67,3,3,0,0,0-.78,1.86h4.83a2.67,2.67,0,0,0-.59-1.88A2.12,2.12,0,0,0,182.94,4.63Z"/><path class="cls-3" d="M195,12.26h-1.4V.1H195Z"/><path class="cls-3" d="M203.64,12.26,203.36,11h-.06a3.77,3.77,0,0,1-1.38,1.09,4.52,4.52,0,0,1-1.72.28,3.23,3.23,0,0,1-2.15-.65,2.31,2.31,0,0,1-.78-1.87c0-1.73,1.49-2.63,4.48-2.72l1.56,0V6.59a2.05,2.05,0,0,0-.46-1.48,2,2,0,0,0-1.5-.48,6.48,6.48,0,0,0-2.62.65l-.43-1a7.26,7.26,0,0,1,3.13-.74,3.71,3.71,0,0,1,2.45.68,2.7,2.7,0,0,1,.8,2.18v5.85Zm-3.16-.92a3,3,0,0,0,2.05-.66,2.35,2.35,0,0,0,.75-1.86V8.05l-1.4,0a5.55,5.55,0,0,0-2.41.48,1.44,1.44,0,0,0-.74,1.33,1.31,1.31,0,0,0,.46,1.07A2.06,2.06,0,0,0,200.48,11.34Z"/><path class="cls-3" d="M215,11.34a4.09,4.09,0,0,0,.71-.05c.23,0,.42-.07.55-.1v1a2.78,2.78,0,0,1-.67.17,5.93,5.93,0,0,1-.8.06c-1.78,0-2.68-.87-2.68-2.61V4.7h-1.32V4.08l1.32-.54.59-1.83h.81v2h2.69v1h-2.69v5a1.68,1.68,0,0,0,.4,1.19A1.42,1.42,0,0,0,215,11.34Z"/><path class="cls-3" d="M222.37,3.54a6,6,0,0,1,1.1.09l-.19,1.21a5,5,0,0,0-1-.12,2.55,2.55,0,0,0-1.92.84,3,3,0,0,0-.8,2.1v4.6h-1.4V3.7h1.16l.16,1.58h.06A3.94,3.94,0,0,1,220.77,4,3,3,0,0,1,222.37,3.54Z"/><path class="cls-3" d="M230.89,12.26,230.61,11h-.07a3.77,3.77,0,0,1-1.38,1.09,4.52,4.52,0,0,1-1.72.28,3.23,3.23,0,0,1-2.15-.65,2.31,2.31,0,0,1-.78-1.87c0-1.73,1.49-2.63,4.48-2.72l1.57,0V6.59a2.05,2.05,0,0,0-.47-1.48,2,2,0,0,0-1.5-.48,6.4,6.4,0,0,0-2.61.65l-.43-1A6.73,6.73,0,0,1,227,3.75a7.07,7.07,0,0,1,1.64-.2,3.75,3.75,0,0,1,2.45.68,2.73,2.73,0,0,1,.79,2.18v5.85Zm-3.17-.92a3,3,0,0,0,2.06-.66,2.37,2.37,0,0,0,.74-1.86V8.05l-1.4,0a5.5,5.5,0,0,0-2.4.48A1.42,1.42,0,0,0,226,9.91a1.28,1.28,0,0,0,.46,1.07A2,2,0,0,0,227.72,11.34Z"/><path class="cls-3" d="M241.13,12.26V6.72a2.12,2.12,0,0,0-.51-1.56A2.17,2.17,0,0,0,239,4.64a2.76,2.76,0,0,0-2.13.73,3.46,3.46,0,0,0-.67,2.4v4.49h-1.4V3.7H236l.22,1.17h.07a2.82,2.82,0,0,1,1.21-1,4.18,4.18,0,0,1,1.73-.35,3.67,3.67,0,0,1,2.51.75,3,3,0,0,1,.84,2.38v5.59Z"/><path class="cls-3" d="M251.37,9.92a2.11,2.11,0,0,1-1,1.85,4.81,4.81,0,0,1-2.7.64,6.44,6.44,0,0,1-2.87-.53V10.67a7.53,7.53,0,0,0,1.43.49,6.43,6.43,0,0,0,1.48.18,3.48,3.48,0,0,0,1.68-.32,1.06,1.06,0,0,0,.59-1,1,1,0,0,0-.46-.85,7.67,7.67,0,0,0-1.83-.84,11,11,0,0,1-1.84-.78,2.39,2.39,0,0,1-.81-.76,1.88,1.88,0,0,1-.26-1,1.91,1.91,0,0,1,.92-1.66,4.56,4.56,0,0,1,2.52-.6,8,8,0,0,1,2.92.56l-.5,1.06a7,7,0,0,0-2.52-.53,3.15,3.15,0,0,0-1.5.28.89.89,0,0,0-.51.8,1,1,0,0,0,.19.59,2,2,0,0,0,.61.46,16.45,16.45,0,0,0,1.62.63,6,6,0,0,1,2.22,1.12A1.86,1.86,0,0,1,251.37,9.92Z"/><path class="cls-3" d="M257.82,4.7h-2.36v7.56h-1.4V4.7h-1.65V4.12l1.65-.47V3.17c0-2.1,1-3.15,3-3.15a6.65,6.65,0,0,1,1.72.27l-.36,1A5,5,0,0,0,257,1.09a1.43,1.43,0,0,0-1.18.48,2.61,2.61,0,0,0-.38,1.57V3.7h2.36Z"/><path class="cls-3" d="M267.48,8a4.52,4.52,0,0,1-1.14,3.27,4.17,4.17,0,0,1-3.14,1.17,4.5,4.5,0,0,1-2.2-.53,3.71,3.71,0,0,1-1.49-1.55A5,5,0,0,1,259,8a4.5,4.5,0,0,1,1.13-3.26,4.16,4.16,0,0,1,3.14-1.17,4.08,4.08,0,0,1,3.08,1.19A4.51,4.51,0,0,1,267.48,8Zm-7,0a3.86,3.86,0,0,0,.71,2.5,2.54,2.54,0,0,0,2.08.86,2.57,2.57,0,0,0,2.09-.86A3.84,3.84,0,0,0,266,8a3.78,3.78,0,0,0-.71-2.48,2.6,2.6,0,0,0-2.11-.85,2.55,2.55,0,0,0-2.07.84A3.76,3.76,0,0,0,260.44,8Z"/><path class="cls-3" d="M274.15,3.54a6.23,6.23,0,0,1,1.11.09l-.2,1.21a5,5,0,0,0-1-.12,2.56,2.56,0,0,0-1.92.84,3,3,0,0,0-.79,2.1v4.6h-1.4V3.7h1.15l.16,1.58h.07A3.84,3.84,0,0,1,272.56,4,2.94,2.94,0,0,1,274.15,3.54Z"/><path class="cls-3" d="M288.77,12.26V6.69a2.23,2.23,0,0,0-.47-1.54,1.93,1.93,0,0,0-1.47-.51,2.45,2.45,0,0,0-1.93.7,3.09,3.09,0,0,0-.63,2.14v4.78h-1.39V6.69a2.19,2.19,0,0,0-.48-1.54,1.9,1.9,0,0,0-1.47-.51,2.37,2.37,0,0,0-1.93.73,3.74,3.74,0,0,0-.61,2.4v4.49H277V3.7h1.14l.22,1.17h.07a2.75,2.75,0,0,1,1.12-1,3.69,3.69,0,0,1,1.61-.35A2.79,2.79,0,0,1,284,5h.07a2.8,2.8,0,0,1,1.19-1.06A4,4,0,0,1,287,3.54a3.27,3.27,0,0,1,2.35.75,3.16,3.16,0,0,1,.78,2.38v5.59Z"/><path class="cls-3" d="M298.74,12.26,298.46,11h-.07A3.83,3.83,0,0,1,297,12.13a4.55,4.55,0,0,1-1.72.28,3.24,3.24,0,0,1-2.16-.65,2.31,2.31,0,0,1-.78-1.87c0-1.73,1.5-2.63,4.48-2.72l1.57,0V6.59a2.05,2.05,0,0,0-.47-1.48,2,2,0,0,0-1.49-.48,6.44,6.44,0,0,0-2.62.65l-.43-1a7,7,0,0,1,1.5-.54,6.93,6.93,0,0,1,1.63-.2,3.73,3.73,0,0,1,2.45.68,2.73,2.73,0,0,1,.8,2.18v5.85Zm-3.16-.92a3,3,0,0,0,2.05-.66,2.35,2.35,0,0,0,.75-1.86V8.05l-1.4,0a5.52,5.52,0,0,0-2.41.48,1.44,1.44,0,0,0-.74,1.33,1.28,1.28,0,0,0,.46,1.07A2.06,2.06,0,0,0,295.58,11.34Z"/><path class="cls-3" d="M306.36,12.41a4.12,4.12,0,0,1-3.11-1.14A4.45,4.45,0,0,1,302.15,8a4.64,4.64,0,0,1,1.11-3.32,4.21,4.21,0,0,1,3.19-1.17,6.66,6.66,0,0,1,1.33.13,4.79,4.79,0,0,1,1.05.31l-.43,1.11a6.83,6.83,0,0,0-1-.29,5.14,5.14,0,0,0-1-.11q-2.82,0-2.82,3.33a3.73,3.73,0,0,0,.69,2.42,2.45,2.45,0,0,0,2,.84,6.6,6.6,0,0,0,2.37-.46V12A5.35,5.35,0,0,1,306.36,12.41Z"/><path class="cls-3" d="M310.77,1.38A.87.87,0,0,1,311,.72a.86.86,0,0,1,.59-.2.89.89,0,0,1,.59.21.81.81,0,0,1,.24.65.84.84,0,0,1-.24.65.89.89,0,0,1-.59.21A.87.87,0,0,1,311,2,.87.87,0,0,1,310.77,1.38Zm1.52,10.88h-1.4V3.7h1.4Z"/><path class="cls-3" d="M323.23,8a4.52,4.52,0,0,1-1.14,3.27A4.16,4.16,0,0,1,319,12.41a4.5,4.5,0,0,1-2.2-.53,3.71,3.71,0,0,1-1.49-1.55A5,5,0,0,1,314.74,8a4.5,4.5,0,0,1,1.13-3.26A4.16,4.16,0,0,1,319,3.54a4.08,4.08,0,0,1,3.08,1.19A4.51,4.51,0,0,1,323.23,8Zm-7,0a3.86,3.86,0,0,0,.71,2.5,3,3,0,0,0,4.17,0,3.84,3.84,0,0,0,.71-2.5,3.78,3.78,0,0,0-.71-2.48,2.59,2.59,0,0,0-2.1-.85,2.56,2.56,0,0,0-2.08.84A3.76,3.76,0,0,0,316.19,8Zm1.62-5.6q.4-.5.87-1.17a11.7,11.7,0,0,0,.74-1.2h1.7V.16A10.29,10.29,0,0,1,320,1.41a11.63,11.63,0,0,1-1.27,1.15h-.94Z"/><path class="cls-3" d="M332,12.26V6.72a2.12,2.12,0,0,0-.51-1.56,2.17,2.17,0,0,0-1.61-.52,2.76,2.76,0,0,0-2.13.73,3.46,3.46,0,0,0-.67,2.4v4.49h-1.4V3.7h1.14l.22,1.17h.07a2.82,2.82,0,0,1,1.21-1,4.18,4.18,0,0,1,1.73-.35,3.67,3.67,0,0,1,2.51.75,3,3,0,0,1,.84,2.38v5.59Z"/><path class="cls-3" d="M347.07,11.11H347a3.37,3.37,0,0,1-2.9,1.3,3.56,3.56,0,0,1-2.82-1.14,4.83,4.83,0,0,1-1-3.27,4.9,4.9,0,0,1,1-3.29,3.54,3.54,0,0,1,2.82-1.17A3.49,3.49,0,0,1,347,4.8h.11L347,4.19l0-.6V.1h1.4V12.26h-1.14Zm-2.8.22a2.68,2.68,0,0,0,2.08-.72A3.48,3.48,0,0,0,347,8.27V8a4.11,4.11,0,0,0-.65-2.6,2.58,2.58,0,0,0-2.09-.77,2.18,2.18,0,0,0-1.88.88A4.14,4.14,0,0,0,341.71,8a4,4,0,0,0,.65,2.47A2.26,2.26,0,0,0,344.27,11.33Z"/><path class="cls-3" d="M355.27,12.41A4.44,4.44,0,0,1,352,11.26a4.27,4.27,0,0,1-1.18-3.21A4.69,4.69,0,0,1,352,4.76a3.79,3.79,0,0,1,2.95-1.22,3.6,3.6,0,0,1,2.75,1.06,3.83,3.83,0,0,1,1,2.79v.82H352.3a3.24,3.24,0,0,0,.82,2.29,3,3,0,0,0,2.2.78,7.87,7.87,0,0,0,2.95-.58v1.16a8,8,0,0,1-1.41.43A9,9,0,0,1,355.27,12.41Zm-.38-7.78a2.37,2.37,0,0,0-1.78.67,3,3,0,0,0-.78,1.86h4.83a2.67,2.67,0,0,0-.59-1.88A2.12,2.12,0,0,0,354.89,4.63Z"/><path class="cls-3" d="M371.83,11.11h-.07a3.4,3.4,0,0,1-2.91,1.3A3.58,3.58,0,0,1,366,11.27,4.83,4.83,0,0,1,365,8a4.85,4.85,0,0,1,1-3.29,4,4,0,0,1,5.7.09h.11l-.06-.61,0-.6V.1h1.4V12.26H372Zm-2.8.22a2.66,2.66,0,0,0,2.08-.72,3.48,3.48,0,0,0,.65-2.34V8a4,4,0,0,0-.66-2.6A2.56,2.56,0,0,0,369,4.63a2.18,2.18,0,0,0-1.88.88A4.14,4.14,0,0,0,366.48,8a3.92,3.92,0,0,0,.65,2.47A2.24,2.24,0,0,0,369,11.33Z"/><path class="cls-3" d="M381.81,12.26,381.53,11h-.07a3.77,3.77,0,0,1-1.38,1.09,4.47,4.47,0,0,1-1.71.28,3.24,3.24,0,0,1-2.16-.65,2.31,2.31,0,0,1-.78-1.87c0-1.73,1.5-2.63,4.48-2.72l1.57,0V6.59A2.05,2.05,0,0,0,381,5.11a2,2,0,0,0-1.5-.48,6.4,6.4,0,0,0-2.61.65l-.43-1a6.82,6.82,0,0,1,1.5-.54,6.93,6.93,0,0,1,1.63-.2,3.73,3.73,0,0,1,2.45.68,2.73,2.73,0,0,1,.8,2.18v5.85Zm-3.16-.92a3,3,0,0,0,2.05-.66,2.35,2.35,0,0,0,.75-1.86V8.05l-1.4,0a5.52,5.52,0,0,0-2.41.48,1.44,1.44,0,0,0-.74,1.33,1.28,1.28,0,0,0,.46,1.07A2,2,0,0,0,378.65,11.34Z"/><path class="cls-3" d="M388.72,11.34a4.17,4.17,0,0,0,.71-.05c.23,0,.42-.07.55-.1v1a2.78,2.78,0,0,1-.67.17,5.93,5.93,0,0,1-.8.06c-1.78,0-2.68-.87-2.68-2.61V4.7h-1.32V4.08l1.32-.54.59-1.83h.81v2h2.68v1h-2.68v5a1.63,1.63,0,0,0,.4,1.19A1.42,1.42,0,0,0,388.72,11.34Z"/><path class="cls-3" d="M399.81,8a4.52,4.52,0,0,1-1.14,3.27,4.19,4.19,0,0,1-3.15,1.17,4.53,4.53,0,0,1-2.2-.53,3.69,3.69,0,0,1-1.48-1.55A5,5,0,0,1,391.31,8a4.5,4.5,0,0,1,1.13-3.26,4.17,4.17,0,0,1,3.14-1.17,4.07,4.07,0,0,1,3.08,1.19A4.47,4.47,0,0,1,399.81,8Zm-7.05,0a3.86,3.86,0,0,0,.71,2.5,3,3,0,0,0,4.17,0,3.78,3.78,0,0,0,.72-2.5,3.73,3.73,0,0,0-.72-2.48,3,3,0,0,0-4.18,0A3.81,3.81,0,0,0,392.76,8Z"/><path class="cls-3" d="M408.22,9.92a2.11,2.11,0,0,1-1,1.85,4.81,4.81,0,0,1-2.7.64,6.37,6.37,0,0,1-2.86-.53V10.67a7.08,7.08,0,0,0,1.43.49,6.42,6.42,0,0,0,1.47.18,3.55,3.55,0,0,0,1.69-.32,1.07,1.07,0,0,0,.59-1,1,1,0,0,0-.47-.85,7.29,7.29,0,0,0-1.83-.84,10.43,10.43,0,0,1-1.83-.78,2.21,2.21,0,0,1-.81-.76,1.8,1.8,0,0,1-.27-1,1.91,1.91,0,0,1,.92-1.66,4.56,4.56,0,0,1,2.52-.6A8,8,0,0,1,408,4.1l-.5,1.06A7,7,0,0,0,405,4.63a3.15,3.15,0,0,0-1.5.28.89.89,0,0,0-.51.8,1,1,0,0,0,.19.59,1.91,1.91,0,0,0,.62.46,17,17,0,0,0,1.61.63,6.18,6.18,0,0,1,2.23,1.12A1.88,1.88,0,0,1,408.22,9.92Z"/><path class="cls-3" d="M418.89,12.41a4.43,4.43,0,0,1-3.23-1.15,4.28,4.28,0,0,1-1.19-3.21,4.7,4.7,0,0,1,1.11-3.29,3.77,3.77,0,0,1,2.95-1.22,3.6,3.6,0,0,1,2.75,1.06,3.83,3.83,0,0,1,1,2.79v.82h-6.37a3.24,3.24,0,0,0,.83,2.29,3,3,0,0,0,2.19.78,7.92,7.92,0,0,0,3-.58v1.16a8.26,8.26,0,0,1-1.41.43A9.08,9.08,0,0,1,418.89,12.41Zm-.38-7.78a2.36,2.36,0,0,0-1.77.67A3,3,0,0,0,416,7.16h4.83a2.72,2.72,0,0,0-.59-1.88A2.13,2.13,0,0,0,418.51,4.63Z"/><path class="cls-3" d="M431,12.26V6.72a2.13,2.13,0,0,0-.52-1.56,2.17,2.17,0,0,0-1.61-.52,2.76,2.76,0,0,0-2.13.73,3.46,3.46,0,0,0-.67,2.4v4.49h-1.4V3.7h1.14l.23,1.17h.06a2.82,2.82,0,0,1,1.21-1,4.21,4.21,0,0,1,1.73-.35,3.67,3.67,0,0,1,2.51.75,3,3,0,0,1,.85,2.38v5.59Z"/><path class="cls-3" d="M125.62,23.38a.75.75,0,0,1,.82-.86.89.89,0,0,1,.59.21.81.81,0,0,1,.24.65A.84.84,0,0,1,127,24a.89.89,0,0,1-.59.21.77.77,0,0,1-.82-.86Zm1.52,10.88h-1.4V25.7h1.4Z"/><path class="cls-3" d="M136.43,34.26V28.72a2.12,2.12,0,0,0-.51-1.56,2.19,2.19,0,0,0-1.62-.52,2.75,2.75,0,0,0-2.12.73,3.46,3.46,0,0,0-.68,2.4v4.49h-1.4V25.7h1.14l.23,1.17h.07a2.85,2.85,0,0,1,1.2-1,4.24,4.24,0,0,1,1.73-.35,3.7,3.7,0,0,1,2.52.75,3,3,0,0,1,.84,2.38v5.59Z"/><path class="cls-3" d="M144.87,26.7h-2.35v7.56h-1.4V26.7h-1.65v-.58l1.65-.47v-.48q0-3.15,3-3.15a6.65,6.65,0,0,1,1.72.27l-.36,1a5.06,5.06,0,0,0-1.39-.24,1.39,1.39,0,0,0-1.17.48,2.61,2.61,0,0,0-.38,1.57v.56h2.35Z"/><path class="cls-3" d="M154.54,30a4.52,4.52,0,0,1-1.14,3.27,4.19,4.19,0,0,1-3.15,1.17,4.53,4.53,0,0,1-2.2-.53,3.69,3.69,0,0,1-1.48-1.55,5,5,0,0,1-.52-2.36,4.46,4.46,0,0,1,1.13-3.26,4.15,4.15,0,0,1,3.13-1.17,4.11,4.11,0,0,1,3.09,1.19A4.51,4.51,0,0,1,154.54,30Zm-7,0a3.86,3.86,0,0,0,.7,2.5,3,3,0,0,0,4.18,0,3.84,3.84,0,0,0,.71-2.5,3.78,3.78,0,0,0-.71-2.48,2.6,2.6,0,0,0-2.11-.85,2.52,2.52,0,0,0-2.07.84A3.76,3.76,0,0,0,147.5,30Z"/><path class="cls-3" d="M161.21,25.54a6.23,6.23,0,0,1,1.11.09l-.2,1.21a5,5,0,0,0-1-.12,2.55,2.55,0,0,0-1.92.84,3,3,0,0,0-.8,2.1v4.6H157V25.7h1.16l.16,1.58h.07A3.75,3.75,0,0,1,159.62,26,2.94,2.94,0,0,1,161.21,25.54Z"/><path class="cls-3" d="M175.83,34.26V28.69a2.19,2.19,0,0,0-.48-1.54,1.89,1.89,0,0,0-1.46-.51,2.44,2.44,0,0,0-1.93.7,3.09,3.09,0,0,0-.63,2.14v4.78h-1.4V28.69a2.23,2.23,0,0,0-.47-1.54,1.94,1.94,0,0,0-1.48-.51,2.35,2.35,0,0,0-1.92.73,3.73,3.73,0,0,0-.62,2.4v4.49H164V25.7h1.14l.23,1.17h.07a2.68,2.68,0,0,1,1.12-1,3.66,3.66,0,0,1,1.61-.35c1.45,0,2.39.48,2.83,1.45h.07a2.89,2.89,0,0,1,1.2-1.06,4,4,0,0,1,1.79-.39,3.28,3.28,0,0,1,2.35.75,3.16,3.16,0,0,1,.78,2.38v5.59Z"/><path class="cls-3" d="M185.8,34.26,185.52,33h-.07a3.77,3.77,0,0,1-1.38,1.09,4.5,4.5,0,0,1-1.71.28,3.24,3.24,0,0,1-2.16-.65,2.31,2.31,0,0,1-.78-1.87c0-1.73,1.49-2.63,4.48-2.72l1.57,0v-.54a2.05,2.05,0,0,0-.47-1.48,2,2,0,0,0-1.5-.48,6.4,6.4,0,0,0-2.61.65l-.43-1a6.73,6.73,0,0,1,1.49-.54,7.07,7.07,0,0,1,1.64-.2,3.73,3.73,0,0,1,2.45.68,2.73,2.73,0,0,1,.79,2.18v5.85Zm-3.17-.92a3,3,0,0,0,2.06-.66,2.34,2.34,0,0,0,.74-1.86v-.77l-1.4.05a5.5,5.5,0,0,0-2.4.48,1.42,1.42,0,0,0-.74,1.33,1.28,1.28,0,0,0,.46,1.07A2,2,0,0,0,182.63,33.34Z"/><path class="cls-3" d="M193.41,34.41a4.13,4.13,0,0,1-3.11-1.14A4.49,4.49,0,0,1,189.2,30a4.65,4.65,0,0,1,1.12-3.32,4.21,4.21,0,0,1,3.19-1.17,6.73,6.73,0,0,1,1.33.13,4.68,4.68,0,0,1,1,.31l-.43,1.11a6.69,6.69,0,0,0-1-.29,5.24,5.24,0,0,0-1-.11q-2.82,0-2.82,3.33a3.73,3.73,0,0,0,.69,2.42,2.49,2.49,0,0,0,2,.84,6.6,6.6,0,0,0,2.37-.46V34A5.37,5.37,0,0,1,193.41,34.41Z"/><path class="cls-3" d="M197.82,23.38a.83.83,0,0,1,.24-.66.94.94,0,0,1,1.17,0,.78.78,0,0,1,.25.65.81.81,0,0,1-.25.65.83.83,0,0,1-1.41-.65Zm1.52,10.88h-1.4V25.7h1.4Z"/><path class="cls-3" d="M210.29,30a4.52,4.52,0,0,1-1.14,3.27A4.19,4.19,0,0,1,206,34.41a4.54,4.54,0,0,1-2.21-.53,3.69,3.69,0,0,1-1.48-1.55A5,5,0,0,1,201.8,30a4.46,4.46,0,0,1,1.13-3.26,4.15,4.15,0,0,1,3.13-1.17,4.09,4.09,0,0,1,3.09,1.19A4.51,4.51,0,0,1,210.29,30Zm-7,0a3.8,3.8,0,0,0,.71,2.5,2.54,2.54,0,0,0,2.08.86,2.57,2.57,0,0,0,2.09-.86,3.84,3.84,0,0,0,.71-2.5,3.78,3.78,0,0,0-.71-2.48,2.6,2.6,0,0,0-2.11-.85,2.54,2.54,0,0,0-2.07.84A3.76,3.76,0,0,0,203.25,30Zm1.62-5.6q.4-.5.87-1.17a13.79,13.79,0,0,0,.74-1.2h1.7v.16a11.24,11.24,0,0,1-1.1,1.25,11.6,11.6,0,0,1-1.28,1.15h-.93Z"/><path class="cls-3" d="M219.07,34.26V28.72a2.12,2.12,0,0,0-.51-1.56,2.19,2.19,0,0,0-1.62-.52,2.75,2.75,0,0,0-2.12.73,3.46,3.46,0,0,0-.68,2.4v4.49h-1.4V25.7h1.14l.23,1.17h.07a2.79,2.79,0,0,1,1.2-1,4.24,4.24,0,0,1,1.73-.35,3.7,3.7,0,0,1,2.52.75,3,3,0,0,1,.84,2.38v5.59Z"/><path class="cls-3" d="M232.13,34.41a4.32,4.32,0,0,1-1.64-.3,3.19,3.19,0,0,1-1.26-1h-.1a10.19,10.19,0,0,1,.1,1.42V38.1h-1.4V25.7H229l.2,1.17h.06a3.2,3.2,0,0,1,1.26-1,4.07,4.07,0,0,1,1.64-.31A3.54,3.54,0,0,1,235,26.7,4.86,4.86,0,0,1,236,30a4.87,4.87,0,0,1-1,3.28A3.58,3.58,0,0,1,232.13,34.41Zm-.2-7.77a2.57,2.57,0,0,0-2.05.73,3.52,3.52,0,0,0-.65,2.31V30a4.06,4.06,0,0,0,.65,2.58,2.58,2.58,0,0,0,2.09.78,2.21,2.21,0,0,0,1.87-.9,4,4,0,0,0,.68-2.48,3.88,3.88,0,0,0-.68-2.45A2.3,2.3,0,0,0,231.93,26.64Z"/><path class="cls-3" d="M244.1,34.26,243.82,33h-.06a3.77,3.77,0,0,1-1.38,1.09,4.52,4.52,0,0,1-1.72.28,3.23,3.23,0,0,1-2.15-.65,2.31,2.31,0,0,1-.78-1.87c0-1.73,1.49-2.63,4.48-2.72l1.56,0v-.54a1.69,1.69,0,0,0-2-2,6.48,6.48,0,0,0-2.62.65l-.43-1a7.26,7.26,0,0,1,3.13-.74,3.71,3.71,0,0,1,2.45.68,2.73,2.73,0,0,1,.8,2.18v5.85Zm-3.16-.92a3,3,0,0,0,2.05-.66,2.35,2.35,0,0,0,.75-1.86v-.77l-1.4.05a5.55,5.55,0,0,0-2.41.48,1.44,1.44,0,0,0-.74,1.33,1.31,1.31,0,0,0,.46,1.07A2.06,2.06,0,0,0,240.94,33.34Z"/><path class="cls-3" d="M252.24,25.54a6.23,6.23,0,0,1,1.11.09l-.2,1.21a5,5,0,0,0-1-.12,2.55,2.55,0,0,0-1.92.84,3,3,0,0,0-.8,2.1v4.6H248V25.7h1.16l.16,1.58h.07A3.75,3.75,0,0,1,250.65,26,2.94,2.94,0,0,1,252.24,25.54Z"/><path class="cls-3" d="M260.76,34.26,260.48,33h-.07A3.83,3.83,0,0,1,259,34.13a4.52,4.52,0,0,1-1.72.28,3.24,3.24,0,0,1-2.16-.65,2.31,2.31,0,0,1-.78-1.87c0-1.73,1.5-2.63,4.48-2.72l1.57,0v-.54a1.7,1.7,0,0,0-2-2,6.44,6.44,0,0,0-2.62.65l-.43-1a7.26,7.26,0,0,1,3.13-.74,3.73,3.73,0,0,1,2.45.68,2.73,2.73,0,0,1,.8,2.18v5.85Zm-3.16-.92a3,3,0,0,0,2-.66,2.35,2.35,0,0,0,.75-1.86v-.77l-1.4.05a5.52,5.52,0,0,0-2.41.48,1.44,1.44,0,0,0-.74,1.33,1.28,1.28,0,0,0,.46,1.07A2.06,2.06,0,0,0,257.6,33.34Z"/><path class="cls-3" d="M270.57,34.26h-1.4V22.1h1.4Z"/><path class="cls-3" d="M279.22,34.26,278.94,33h-.06a3.77,3.77,0,0,1-1.38,1.09,4.52,4.52,0,0,1-1.72.28,3.23,3.23,0,0,1-2.15-.65,2.31,2.31,0,0,1-.78-1.87c0-1.73,1.49-2.63,4.48-2.72l1.56,0v-.54a1.69,1.69,0,0,0-2-2,6.48,6.48,0,0,0-2.62.65l-.43-1a7.26,7.26,0,0,1,3.13-.74,3.71,3.71,0,0,1,2.45.68,2.73,2.73,0,0,1,.8,2.18v5.85Zm-3.16-.92a3,3,0,0,0,2.05-.66,2.35,2.35,0,0,0,.75-1.86v-.77l-1.4.05a5.55,5.55,0,0,0-2.41.48,1.44,1.44,0,0,0-.74,1.33,1.31,1.31,0,0,0,.46,1.07A2.06,2.06,0,0,0,276.06,33.34Z"/><path class="cls-3" d="M290.62,33.34a4.17,4.17,0,0,0,.71-.05c.23,0,.42-.07.55-.1v1a2.78,2.78,0,0,1-.67.17,5.93,5.93,0,0,1-.8.06c-1.78,0-2.68-.87-2.68-2.61V26.7h-1.32v-.62l1.32-.54.59-1.83h.81v2h2.68v1h-2.68v5a1.63,1.63,0,0,0,.4,1.19A1.42,1.42,0,0,0,290.62,33.34Z"/><path class="cls-3" d="M301.71,30a4.52,4.52,0,0,1-1.14,3.27,4.19,4.19,0,0,1-3.15,1.17,4.53,4.53,0,0,1-2.2-.53,3.69,3.69,0,0,1-1.48-1.55,5,5,0,0,1-.53-2.36,4.46,4.46,0,0,1,1.14-3.26,4.69,4.69,0,0,1,6.22,0A4.51,4.51,0,0,1,301.71,30Zm-7,0a3.86,3.86,0,0,0,.7,2.5,3,3,0,0,0,4.17,0,3.78,3.78,0,0,0,.72-2.5,3.73,3.73,0,0,0-.72-2.48,2.56,2.56,0,0,0-2.1-.85,2.52,2.52,0,0,0-2.07.84A3.76,3.76,0,0,0,294.67,30Z"/><path class="cls-3" d="M316,34.26V28.69a2.19,2.19,0,0,0-.48-1.54,1.89,1.89,0,0,0-1.46-.51,2.46,2.46,0,0,0-1.94.7,3.14,3.14,0,0,0-.62,2.14v4.78h-1.4V28.69a2.23,2.23,0,0,0-.47-1.54,1.94,1.94,0,0,0-1.48-.51,2.37,2.37,0,0,0-1.93.73,3.8,3.8,0,0,0-.61,2.4v4.49h-1.4V25.7h1.14l.23,1.17h.07a2.66,2.66,0,0,1,1.11-1,3.7,3.7,0,0,1,1.62-.35A2.78,2.78,0,0,1,311.16,27h.07a2.89,2.89,0,0,1,1.2-1.06,4,4,0,0,1,1.79-.39,3.3,3.3,0,0,1,2.35.75,3.16,3.16,0,0,1,.78,2.38v5.59Z"/><path class="cls-3" d="M325.91,34.26,325.64,33h-.07a3.77,3.77,0,0,1-1.38,1.09,4.52,4.52,0,0,1-1.72.28,3.23,3.23,0,0,1-2.15-.65,2.31,2.31,0,0,1-.78-1.87c0-1.73,1.49-2.63,4.48-2.72l1.57,0v-.54a2.05,2.05,0,0,0-.47-1.48,2,2,0,0,0-1.5-.48,6.4,6.4,0,0,0-2.61.65l-.43-1a6.73,6.73,0,0,1,1.49-.54,7.07,7.07,0,0,1,1.64-.2,3.75,3.75,0,0,1,2.45.68,2.73,2.73,0,0,1,.79,2.18v5.85Zm-3.16-.92a3,3,0,0,0,2.06-.66,2.37,2.37,0,0,0,.74-1.86v-.77l-1.4.05a5.59,5.59,0,0,0-2.41.48,1.43,1.43,0,0,0-.73,1.33,1.28,1.28,0,0,0,.46,1.07A2,2,0,0,0,322.75,33.34Z"/><path class="cls-3" d="M340.62,33.11h-.08a3.38,3.38,0,0,1-2.9,1.3,3.56,3.56,0,0,1-2.82-1.14,4.78,4.78,0,0,1-1-3.27,4.9,4.9,0,0,1,1-3.29,3.53,3.53,0,0,1,2.82-1.17,3.47,3.47,0,0,1,2.88,1.26h.11l-.06-.61,0-.6V22.1h1.4V34.26H340.8Zm-2.81.22a2.66,2.66,0,0,0,2.08-.72,3.48,3.48,0,0,0,.65-2.34V30a4.11,4.11,0,0,0-.65-2.6,2.59,2.59,0,0,0-2.09-.77,2.21,2.21,0,0,0-1.89.88,4.21,4.21,0,0,0-.65,2.51,4,4,0,0,0,.65,2.47A2.26,2.26,0,0,0,337.81,33.33Z"/><path class="cls-3" d="M348.81,34.41a4.43,4.43,0,0,1-3.23-1.15,4.28,4.28,0,0,1-1.19-3.21,4.74,4.74,0,0,1,1.1-3.29,3.81,3.81,0,0,1,3-1.22,3.6,3.6,0,0,1,2.75,1.06,3.83,3.83,0,0,1,1,2.79v.82h-6.37a3.24,3.24,0,0,0,.83,2.29,3,3,0,0,0,2.19.78,7.92,7.92,0,0,0,3-.58v1.16a8.26,8.26,0,0,1-1.41.43A9.08,9.08,0,0,1,348.81,34.41Zm-.38-7.78a2.36,2.36,0,0,0-1.77.67,3,3,0,0,0-.78,1.86h4.83a2.72,2.72,0,0,0-.59-1.88A2.14,2.14,0,0,0,348.43,26.63Z"/><path class="cls-3" d="M365.38,33.11h-.08a3.37,3.37,0,0,1-2.9,1.3,3.56,3.56,0,0,1-2.82-1.14,4.83,4.83,0,0,1-1-3.27,4.9,4.9,0,0,1,1-3.29,3.54,3.54,0,0,1,2.82-1.17,3.49,3.49,0,0,1,2.89,1.26h.11l-.06-.61,0-.6V22.1h1.4V34.26h-1.14Zm-2.8.22a2.68,2.68,0,0,0,2.08-.72,3.48,3.48,0,0,0,.64-2.34V30a4.11,4.11,0,0,0-.65-2.6,2.58,2.58,0,0,0-2.09-.77,2.18,2.18,0,0,0-1.88.88A4.14,4.14,0,0,0,360,30a4,4,0,0,0,.65,2.47A2.26,2.26,0,0,0,362.58,33.33Z"/><path class="cls-3" d="M373.58,34.41a4.44,4.44,0,0,1-3.24-1.15,4.27,4.27,0,0,1-1.18-3.21,4.69,4.69,0,0,1,1.1-3.29,3.79,3.79,0,0,1,2.95-1.22A3.6,3.6,0,0,1,376,26.6a3.83,3.83,0,0,1,1,2.79v.82h-6.37a3.24,3.24,0,0,0,.82,2.29,3,3,0,0,0,2.2.78,7.87,7.87,0,0,0,2.95-.58v1.16a8,8,0,0,1-1.41.43A9,9,0,0,1,373.58,34.41Zm-.38-7.78a2.37,2.37,0,0,0-1.78.67,3,3,0,0,0-.78,1.86h4.83a2.67,2.67,0,0,0-.59-1.88A2.12,2.12,0,0,0,373.2,26.63Z"/><path class="cls-3" d="M383.06,34.41A4.12,4.12,0,0,1,380,33.27a4.45,4.45,0,0,1-1.1-3.24A4.64,4.64,0,0,1,380,26.71a4.21,4.21,0,0,1,3.19-1.17,6.66,6.66,0,0,1,1.33.13,4.79,4.79,0,0,1,1,.31l-.43,1.11a6.83,6.83,0,0,0-1-.29,5.14,5.14,0,0,0-1-.11q-2.82,0-2.82,3.33a3.73,3.73,0,0,0,.69,2.42,2.45,2.45,0,0,0,2,.84,6.6,6.6,0,0,0,2.37-.46V34A5.32,5.32,0,0,1,383.06,34.41Z"/><path class="cls-3" d="M387.47,23.38a.75.75,0,0,1,.82-.86.89.89,0,0,1,.59.21.81.81,0,0,1,.24.65.84.84,0,0,1-.24.65.89.89,0,0,1-.59.21.77.77,0,0,1-.82-.86ZM389,34.26h-1.4V25.7H389Z"/><path class="cls-3" d="M397.92,31.92a2.11,2.11,0,0,1-1,1.85,4.84,4.84,0,0,1-2.7.64,6.41,6.41,0,0,1-2.87-.53V32.67a7.08,7.08,0,0,0,1.43.49,6.42,6.42,0,0,0,1.47.18A3.55,3.55,0,0,0,396,33a1.07,1.07,0,0,0,.59-1,1,1,0,0,0-.47-.85,7.29,7.29,0,0,0-1.83-.84,10.43,10.43,0,0,1-1.83-.78,2.39,2.39,0,0,1-.81-.76,1.8,1.8,0,0,1-.27-1,1.91,1.91,0,0,1,.92-1.66,4.62,4.62,0,0,1,2.53-.6,8,8,0,0,1,2.91.56l-.49,1.06a7,7,0,0,0-2.53-.53,3.15,3.15,0,0,0-1.5.28.93.93,0,0,0-.31,1.39,1.86,1.86,0,0,0,.61.46,16.45,16.45,0,0,0,1.62.63,6.2,6.2,0,0,1,2.22,1.12A1.86,1.86,0,0,1,397.92,31.92Z"/><path class="cls-3" d="M400.08,23.38a.75.75,0,0,1,.82-.86.89.89,0,0,1,.59.21.81.81,0,0,1,.24.65.84.84,0,0,1-.24.65.89.89,0,0,1-.59.21.77.77,0,0,1-.82-.86Zm1.52,10.88h-1.41V25.7h1.41Z"/><path class="cls-3" d="M412.54,30a4.52,4.52,0,0,1-1.14,3.27,4.16,4.16,0,0,1-3.14,1.17,4.5,4.5,0,0,1-2.2-.53,3.71,3.71,0,0,1-1.49-1.55,5,5,0,0,1-.52-2.36,4.5,4.5,0,0,1,1.13-3.26,4.16,4.16,0,0,1,3.14-1.17,4.08,4.08,0,0,1,3.08,1.19A4.51,4.51,0,0,1,412.54,30Zm-7,0a3.86,3.86,0,0,0,.71,2.5,3,3,0,0,0,4.17,0,3.84,3.84,0,0,0,.71-2.5,3.78,3.78,0,0,0-.71-2.48,2.6,2.6,0,0,0-2.11-.85,2.55,2.55,0,0,0-2.07.84A3.76,3.76,0,0,0,405.5,30Z"/><path class="cls-3" d="M421.32,34.26V28.72a2.12,2.12,0,0,0-.51-1.56,2.17,2.17,0,0,0-1.61-.52,2.76,2.76,0,0,0-2.13.73,3.46,3.46,0,0,0-.67,2.4v4.49H415V25.7h1.14l.22,1.17h.07a2.82,2.82,0,0,1,1.21-1,4.18,4.18,0,0,1,1.73-.35,3.67,3.67,0,0,1,2.51.75,3,3,0,0,1,.84,2.38v5.59Z"/><path class="cls-3" d="M429.5,34.41a4.43,4.43,0,0,1-3.23-1.15,4.28,4.28,0,0,1-1.19-3.21,4.7,4.7,0,0,1,1.11-3.29,3.77,3.77,0,0,1,2.95-1.22,3.6,3.6,0,0,1,2.75,1.06,3.83,3.83,0,0,1,1,2.79v.82h-6.36a3.2,3.2,0,0,0,.82,2.29,3,3,0,0,0,2.19.78,7.92,7.92,0,0,0,3-.58v1.16a8.26,8.26,0,0,1-1.41.43A9.08,9.08,0,0,1,429.5,34.41Zm-.38-7.78a2.36,2.36,0,0,0-1.77.67,3,3,0,0,0-.78,1.86h4.83a2.67,2.67,0,0,0-.59-1.88A2.13,2.13,0,0,0,429.12,26.63Z"/><path class="cls-3" d="M441.25,31.92a2.11,2.11,0,0,1-1,1.85,4.81,4.81,0,0,1-2.7.64,6.37,6.37,0,0,1-2.86-.53V32.67a7.21,7.21,0,0,0,1.42.49,6.43,6.43,0,0,0,1.48.18,3.48,3.48,0,0,0,1.68-.32,1.06,1.06,0,0,0,.59-1,1,1,0,0,0-.46-.85,7.67,7.67,0,0,0-1.83-.84,11,11,0,0,1-1.84-.78,2.26,2.26,0,0,1-.8-.76,1.8,1.8,0,0,1-.27-1,1.91,1.91,0,0,1,.92-1.66,4.56,4.56,0,0,1,2.52-.6,8,8,0,0,1,2.92.56l-.5,1.06a7,7,0,0,0-2.52-.53,3.15,3.15,0,0,0-1.5.28.89.89,0,0,0-.51.8,1,1,0,0,0,.19.59,2,2,0,0,0,.61.46,16.45,16.45,0,0,0,1.62.63,6.18,6.18,0,0,1,2.23,1.12A1.88,1.88,0,0,1,441.25,31.92Z"/><path class="cls-3" d="M443.33,33.43a1.1,1.1,0,0,1,.25-.79,1,1,0,0,1,.74-.27.94.94,0,0,1,1,1.06,1,1,0,0,1-.28.78,1,1,0,0,1-.76.27,1.07,1.07,0,0,1-.71-.24A1,1,0,0,1,443.33,33.43Z"/><path class="cls-3" d="M183.83,263.84V252.42h1.43v10.22h5.44v1.2Z"/><path class="cls-3" d="M198.27,263.84l-.28-1.22h-.07a3.83,3.83,0,0,1-1.37,1.09,4.51,4.51,0,0,1-1.72.29,3.24,3.24,0,0,1-2.16-.66,2.31,2.31,0,0,1-.78-1.87c0-1.73,1.5-2.63,4.48-2.72l1.57,0v-.53a1.7,1.7,0,0,0-2-2,6.6,6.6,0,0,0-2.62.65l-.43-1a7.06,7.06,0,0,1,3.13-.73,3.68,3.68,0,0,1,2.45.68,2.72,2.72,0,0,1,.8,2.18v5.84Zm-3.16-.91a3,3,0,0,0,2-.67,2.35,2.35,0,0,0,.75-1.86v-.77l-1.4.05a5.52,5.52,0,0,0-2.41.48,1.44,1.44,0,0,0-.74,1.33,1.28,1.28,0,0,0,.46,1.07A2.06,2.06,0,0,0,195.11,262.93Z"/><path class="cls-3" d="M206.56,253a.83.83,0,0,1,.24-.66.88.88,0,0,1,.59-.2.86.86,0,0,1,.58.21,1,1,0,0,1,0,1.3.86.86,0,0,1-.58.21.84.84,0,0,1-.59-.21A.82.82,0,0,1,206.56,253Zm1.52,10.88h-1.4v-8.56h1.4Z"/><path class="cls-3" d="M217.37,263.84V258.3a2.12,2.12,0,0,0-.51-1.56,2.17,2.17,0,0,0-1.61-.52,2.76,2.76,0,0,0-2.13.73,3.46,3.46,0,0,0-.67,2.4v4.49h-1.4v-8.56h1.14l.22,1.17h.07a2.82,2.82,0,0,1,1.21-1,4.21,4.21,0,0,1,1.73-.35,3.67,3.67,0,0,1,2.51.75,3,3,0,0,1,.84,2.38v5.59Z"/><path class="cls-3" d="M225.82,256.28h-2.36v7.56h-1.4v-7.56h-1.65v-.58l1.65-.47v-.48c0-2.1,1-3.15,3-3.15a6.65,6.65,0,0,1,1.72.27l-.36,1a5,5,0,0,0-1.38-.24,1.4,1.4,0,0,0-1.18.49,2.55,2.55,0,0,0-.38,1.56v.56h2.36Z"/><path class="cls-3" d="M235.48,259.55a4.49,4.49,0,0,1-1.14,3.27A4.18,4.18,0,0,1,231.2,264a4.4,4.4,0,0,1-2.2-.54,3.71,3.71,0,0,1-1.49-1.55,5,5,0,0,1-.52-2.36,4.5,4.5,0,0,1,1.13-3.26,4.16,4.16,0,0,1,3.14-1.17,4.05,4.05,0,0,1,3.08,1.2A4.47,4.47,0,0,1,235.48,259.55Zm-7,0a3.86,3.86,0,0,0,.71,2.5,2.54,2.54,0,0,0,2.08.86,2.57,2.57,0,0,0,2.09-.86,3.84,3.84,0,0,0,.71-2.5,3.8,3.8,0,0,0-.71-2.48,2.6,2.6,0,0,0-2.11-.85,2.55,2.55,0,0,0-2.07.84A3.79,3.79,0,0,0,228.44,259.55Z"/><path class="cls-3" d="M242.15,255.12a6.23,6.23,0,0,1,1.11.09l-.2,1.21a5,5,0,0,0-1-.12,2.56,2.56,0,0,0-1.92.84,3,3,0,0,0-.79,2.11v4.59h-1.4v-8.56h1.15l.16,1.58h.07a4,4,0,0,1,1.24-1.29A2.94,2.94,0,0,1,242.15,255.12Z"/><path class="cls-3" d="M256.77,263.84v-5.57a2.25,2.25,0,0,0-.47-1.54,1.93,1.93,0,0,0-1.47-.51,2.45,2.45,0,0,0-1.93.7,3.09,3.09,0,0,0-.63,2.14v4.78h-1.39v-5.57a2.2,2.2,0,0,0-.48-1.54,1.9,1.9,0,0,0-1.47-.51A2.4,2.4,0,0,0,247,257a3.74,3.74,0,0,0-.61,2.4v4.49H245v-8.56h1.14l.22,1.17h.07a2.75,2.75,0,0,1,1.12-1,3.69,3.69,0,0,1,1.61-.35,2.79,2.79,0,0,1,2.84,1.45h.07a2.87,2.87,0,0,1,1.19-1.06,4,4,0,0,1,1.79-.39,3.27,3.27,0,0,1,2.35.75,3.16,3.16,0,0,1,.78,2.38v5.59Z"/><path class="cls-3" d="M266.74,263.84l-.28-1.22h-.07a3.83,3.83,0,0,1-1.37,1.09,4.54,4.54,0,0,1-1.72.29,3.24,3.24,0,0,1-2.16-.66,2.31,2.31,0,0,1-.78-1.87c0-1.73,1.5-2.63,4.48-2.72l1.57,0v-.53a2.06,2.06,0,0,0-.47-1.49,2,2,0,0,0-1.49-.48,6.6,6.6,0,0,0-2.62.65l-.43-1a7,7,0,0,1,1.5-.54,6.91,6.91,0,0,1,1.63-.19,3.68,3.68,0,0,1,2.45.68,2.72,2.72,0,0,1,.8,2.18v5.84Zm-3.16-.91a3,3,0,0,0,2.05-.67,2.35,2.35,0,0,0,.75-1.86v-.77l-1.4.05a5.52,5.52,0,0,0-2.41.48,1.44,1.44,0,0,0-.74,1.33,1.28,1.28,0,0,0,.46,1.07A2.06,2.06,0,0,0,263.58,262.93Z"/><path class="cls-3" d="M274.36,264a4.12,4.12,0,0,1-3.11-1.15,4.45,4.45,0,0,1-1.1-3.24,4.64,4.64,0,0,1,1.11-3.32,4.21,4.21,0,0,1,3.19-1.17,7.49,7.49,0,0,1,1.33.13,4.73,4.73,0,0,1,1.05.32l-.43,1.1a6.83,6.83,0,0,0-1-.29,5.14,5.14,0,0,0-1-.11q-2.82,0-2.82,3.33a3.73,3.73,0,0,0,.69,2.42,2.45,2.45,0,0,0,2,.84,6.6,6.6,0,0,0,2.37-.46v1.15A5.35,5.35,0,0,1,274.36,264Z"/><path class="cls-3" d="M278.77,253a.87.87,0,0,1,.23-.66.92.92,0,0,1,.59-.2.89.89,0,0,1,.59.21,1,1,0,0,1,0,1.3.89.89,0,0,1-.59.21.87.87,0,0,1-.59-.21A.86.86,0,0,1,278.77,253Zm1.52,10.88h-1.4v-8.56h1.4Z"/><path class="cls-3" d="M291.23,259.55a4.49,4.49,0,0,1-1.14,3.27A4.16,4.16,0,0,1,287,264a4.4,4.4,0,0,1-2.2-.54,3.71,3.71,0,0,1-1.49-1.55,5,5,0,0,1-.52-2.36,4.5,4.5,0,0,1,1.13-3.26,4.16,4.16,0,0,1,3.14-1.17,4.05,4.05,0,0,1,3.08,1.2A4.47,4.47,0,0,1,291.23,259.55Zm-7,0a3.86,3.86,0,0,0,.71,2.5,3,3,0,0,0,4.17,0,3.84,3.84,0,0,0,.71-2.5,3.8,3.8,0,0,0-.71-2.48,2.59,2.59,0,0,0-2.1-.85,2.56,2.56,0,0,0-2.08.84A3.79,3.79,0,0,0,284.19,259.55Zm1.62-5.6a13.72,13.72,0,0,0,.87-1.17,11.7,11.7,0,0,0,.74-1.2h1.7v.17A12.06,12.06,0,0,1,288,253a12.5,12.5,0,0,1-1.27,1.14h-.94Z"/><path class="cls-3" d="M300,263.84V258.3a2.12,2.12,0,0,0-.51-1.56,2.17,2.17,0,0,0-1.61-.52,2.76,2.76,0,0,0-2.13.73,3.46,3.46,0,0,0-.67,2.4v4.49h-1.4v-8.56h1.14l.22,1.17h.07a2.82,2.82,0,0,1,1.21-1,4.18,4.18,0,0,1,1.73-.35,3.67,3.67,0,0,1,2.51.75,3,3,0,0,1,.84,2.38v5.59Z"/><path class="cls-3" d="M314.74,261.5a2.1,2.1,0,0,1-1,1.85,4.81,4.81,0,0,1-2.7.65,6.27,6.27,0,0,1-2.87-.54v-1.21a7.32,7.32,0,0,0,1.43.5,6.42,6.42,0,0,0,1.47.18,3.51,3.51,0,0,0,1.69-.33,1.05,1.05,0,0,0,.59-1,1,1,0,0,0-.47-.85,7.36,7.36,0,0,0-1.82-.84,10.61,10.61,0,0,1-1.84-.78,2.46,2.46,0,0,1-.81-.75,2,2,0,0,1,.66-2.66,4.47,4.47,0,0,1,2.52-.61,8,8,0,0,1,2.92.56l-.5,1.06a7,7,0,0,0-2.52-.53,3,3,0,0,0-1.51.29.88.88,0,0,0-.5.79.91.91,0,0,0,.19.59,1.86,1.86,0,0,0,.61.46,12.48,12.48,0,0,0,1.62.63,6,6,0,0,1,2.22,1.12A1.87,1.87,0,0,1,314.74,261.5Z"/><path class="cls-3" d="M318.33,255.28v5.55a2.08,2.08,0,0,0,.52,1.56,2.17,2.17,0,0,0,1.61.52,2.75,2.75,0,0,0,2.12-.73,3.49,3.49,0,0,0,.67-2.4v-4.5h1.4v8.56h-1.16l-.2-1.15h-.07a2.75,2.75,0,0,1-1.2,1,4.35,4.35,0,0,1-1.74.34,3.71,3.71,0,0,1-2.53-.75,3,3,0,0,1-.83-2.37v-5.6Z"/><path class="cls-3" d="M331.52,264a4.44,4.44,0,0,1-3.23-1.16,4.28,4.28,0,0,1-1.19-3.21,4.7,4.7,0,0,1,1.11-3.29,3.77,3.77,0,0,1,3-1.22,3.6,3.6,0,0,1,2.75,1.06,3.86,3.86,0,0,1,1,2.79v.82h-6.37a3.24,3.24,0,0,0,.83,2.29,3,3,0,0,0,2.19.78,7.92,7.92,0,0,0,3-.58v1.16a8.26,8.26,0,0,1-1.41.43A9,9,0,0,1,331.52,264Zm-.38-7.79a2.36,2.36,0,0,0-1.77.67,3,3,0,0,0-.78,1.86h4.83a2.72,2.72,0,0,0-.59-1.88A2.13,2.13,0,0,0,331.14,256.21Z"/><path class="cls-3" d="M338.71,263.84h-1.4V251.68h1.4Z"/><path class="cls-3" d="M345.58,264a4.44,4.44,0,0,1-3.23-1.16,4.28,4.28,0,0,1-1.19-3.21,4.7,4.7,0,0,1,1.11-3.29,3.77,3.77,0,0,1,3-1.22,3.6,3.6,0,0,1,2.75,1.06,3.86,3.86,0,0,1,1,2.79v.82h-6.37a3.24,3.24,0,0,0,.83,2.29,3,3,0,0,0,2.19.78,7.92,7.92,0,0,0,3-.58v1.16a8.26,8.26,0,0,1-1.41.43A9,9,0,0,1,345.58,264Zm-.38-7.79a2.36,2.36,0,0,0-1.77.67,3,3,0,0,0-.78,1.86h4.83a2.72,2.72,0,0,0-.59-1.88A2.13,2.13,0,0,0,345.2,256.21Z"/><path class="cls-3" d="M361.82,261.5a2.1,2.1,0,0,1-1,1.85,4.81,4.81,0,0,1-2.7.65,6.27,6.27,0,0,1-2.87-.54v-1.21a7.32,7.32,0,0,0,1.43.5,6.42,6.42,0,0,0,1.47.18,3.51,3.51,0,0,0,1.69-.33,1.05,1.05,0,0,0,.59-1,1,1,0,0,0-.47-.85,7.36,7.36,0,0,0-1.82-.84,10.61,10.61,0,0,1-1.84-.78,2.46,2.46,0,0,1-.81-.75,2,2,0,0,1,.66-2.66,4.47,4.47,0,0,1,2.52-.61,8,8,0,0,1,2.92.56l-.5,1.06a7,7,0,0,0-2.52-.53,3,3,0,0,0-1.51.29.88.88,0,0,0-.5.79.91.91,0,0,0,.19.59,2,2,0,0,0,.61.46A12.48,12.48,0,0,0,359,259a6,6,0,0,1,2.22,1.12A1.87,1.87,0,0,1,361.82,261.5Z"/><path class="cls-3" d="M368,264a4.44,4.44,0,0,1-3.23-1.16,4.28,4.28,0,0,1-1.19-3.21,4.74,4.74,0,0,1,1.1-3.29,3.81,3.81,0,0,1,3-1.22,3.62,3.62,0,0,1,2.75,1.06,3.9,3.9,0,0,1,1,2.79v.82H365a3.2,3.2,0,0,0,.83,2.29,3,3,0,0,0,2.19.78,7.83,7.83,0,0,0,2.95-.58v1.16a7.91,7.91,0,0,1-1.4.43A9,9,0,0,1,368,264Zm-.38-7.79a2.36,2.36,0,0,0-1.77.67,3,3,0,0,0-.78,1.86h4.83a2.72,2.72,0,0,0-.59-1.88A2.14,2.14,0,0,0,367.62,256.21Z"/><path class="cls-3" d="M378,255.12a6.16,6.16,0,0,1,1.11.09l-.19,1.21a5.09,5.09,0,0,0-1-.12,2.58,2.58,0,0,0-1.92.84,3,3,0,0,0-.79,2.11v4.59h-1.4v-8.56h1.15l.16,1.58h.07a4,4,0,0,1,1.24-1.29A3,3,0,0,1,378,255.12Z"/><path class="cls-3" d="M189.3,285.84l-.27-1.22H189a3.77,3.77,0,0,1-1.38,1.09,4.51,4.51,0,0,1-1.72.29,3.23,3.23,0,0,1-2.15-.66,2.31,2.31,0,0,1-.78-1.87c0-1.73,1.49-2.63,4.48-2.72l1.57,0v-.53a2.06,2.06,0,0,0-.47-1.49,2,2,0,0,0-1.5-.48,6.56,6.56,0,0,0-2.61.65l-.43-1a6.73,6.73,0,0,1,1.49-.54,7,7,0,0,1,1.63-.19,3.66,3.66,0,0,1,2.45.68,2.69,2.69,0,0,1,.8,2.18v5.84Zm-3.16-.91a3,3,0,0,0,2.06-.67,2.37,2.37,0,0,0,.74-1.86v-.77l-1.4.05a5.59,5.59,0,0,0-2.41.48,1.43,1.43,0,0,0-.73,1.33,1.28,1.28,0,0,0,.46,1.07A2,2,0,0,0,186.14,284.93Z"/><path class="cls-3" d="M194.63,285.84h-1.4V273.68h1.4Z"/><path class="cls-3" d="M209.38,285.84v-5.57a2.25,2.25,0,0,0-.47-1.54,1.93,1.93,0,0,0-1.47-.51,2.44,2.44,0,0,0-1.93.7,3.09,3.09,0,0,0-.63,2.14v4.78h-1.4v-5.57a2.25,2.25,0,0,0-.47-1.54,1.92,1.92,0,0,0-1.48-.51,2.38,2.38,0,0,0-1.92.73,3.74,3.74,0,0,0-.61,2.4v4.49h-1.4v-8.56h1.13l.23,1.17H199a2.68,2.68,0,0,1,1.12-1,3.69,3.69,0,0,1,1.61-.35,2.79,2.79,0,0,1,2.84,1.45h.06a3,3,0,0,1,1.2-1.06,4,4,0,0,1,1.79-.39,3.28,3.28,0,0,1,2.35.75,3.16,3.16,0,0,1,.78,2.38v5.59Z"/><path class="cls-3" d="M219.35,285.84l-.28-1.22H219a3.77,3.77,0,0,1-1.38,1.09,4.49,4.49,0,0,1-1.71.29,3.24,3.24,0,0,1-2.16-.66,2.31,2.31,0,0,1-.78-1.87c0-1.73,1.49-2.63,4.48-2.72l1.57,0v-.53a2.06,2.06,0,0,0-.47-1.49,2,2,0,0,0-1.5-.48,6.56,6.56,0,0,0-2.61.65l-.43-1a6.64,6.64,0,0,1,1.5-.54,6.91,6.91,0,0,1,1.63-.19,3.68,3.68,0,0,1,2.45.68,2.71,2.71,0,0,1,.79,2.18v5.84Zm-3.17-.91a3,3,0,0,0,2.06-.67,2.34,2.34,0,0,0,.74-1.86v-.77l-1.4.05a5.5,5.5,0,0,0-2.4.48,1.42,1.42,0,0,0-.74,1.33,1.28,1.28,0,0,0,.46,1.07A2,2,0,0,0,216.18,284.93Z"/><path class="cls-3" d="M227,286a4.11,4.11,0,0,1-3.1-1.15,4.45,4.45,0,0,1-1.11-3.24,4.65,4.65,0,0,1,1.12-3.32,4.21,4.21,0,0,1,3.19-1.17,7.58,7.58,0,0,1,1.33.13,4.62,4.62,0,0,1,1,.32l-.43,1.1a6.37,6.37,0,0,0-1-.29,5.24,5.24,0,0,0-1-.11c-1.88,0-2.81,1.11-2.81,3.33a3.73,3.73,0,0,0,.68,2.42,2.49,2.49,0,0,0,2,.84,6.6,6.6,0,0,0,2.37-.46v1.15A5.36,5.36,0,0,1,227,286Z"/><path class="cls-3" d="M235.4,286a4.45,4.45,0,0,1-3.24-1.16,4.27,4.27,0,0,1-1.18-3.21,4.74,4.74,0,0,1,1.1-3.29,3.79,3.79,0,0,1,3-1.22,3.59,3.59,0,0,1,2.74,1.06,3.87,3.87,0,0,1,1,2.79v.82h-6.37a3.24,3.24,0,0,0,.82,2.29,3,3,0,0,0,2.2.78,7.87,7.87,0,0,0,3-.58v1.16a7.91,7.91,0,0,1-1.4.43A9.15,9.15,0,0,1,235.4,286Zm-.38-7.79a2.38,2.38,0,0,0-1.78.67,3,3,0,0,0-.78,1.86h4.84a2.72,2.72,0,0,0-.59-1.88A2.16,2.16,0,0,0,235,278.21Z"/><path class="cls-3" d="M247.51,285.84V280.3a2.12,2.12,0,0,0-.51-1.56,2.21,2.21,0,0,0-1.62-.52,2.75,2.75,0,0,0-2.12.73,3.46,3.46,0,0,0-.68,2.4v4.49h-1.4v-8.56h1.14l.23,1.17h.07a2.79,2.79,0,0,1,1.2-1,4.24,4.24,0,0,1,1.73-.35,3.7,3.7,0,0,1,2.52.75,3,3,0,0,1,.84,2.38v5.59Z"/><path class="cls-3" d="M257.47,285.84l-.28-1.22h-.07a3.83,3.83,0,0,1-1.37,1.09A4.51,4.51,0,0,1,254,286a3.24,3.24,0,0,1-2.16-.66,2.31,2.31,0,0,1-.78-1.87c0-1.73,1.5-2.63,4.48-2.72l1.57,0v-.53a1.7,1.7,0,0,0-2-2,6.6,6.6,0,0,0-2.62.65l-.43-1a7.06,7.06,0,0,1,3.13-.73,3.68,3.68,0,0,1,2.45.68,2.72,2.72,0,0,1,.8,2.18v5.84Zm-3.16-.91a3,3,0,0,0,2.05-.67,2.35,2.35,0,0,0,.75-1.86v-.77l-1.4.05a5.52,5.52,0,0,0-2.41.48,1.44,1.44,0,0,0-.74,1.33,1.28,1.28,0,0,0,.46,1.07A2.06,2.06,0,0,0,254.31,284.93Z"/><path class="cls-3" d="M267.68,284.69h-.07a3.4,3.4,0,0,1-2.9,1.31,3.57,3.57,0,0,1-2.82-1.15,4.78,4.78,0,0,1-1-3.27,4.85,4.85,0,0,1,1-3.29,3.52,3.52,0,0,1,2.82-1.17,3.45,3.45,0,0,1,2.88,1.27h.11l-.06-.62,0-.6v-3.49H269v12.16h-1.14Zm-2.8.22a2.66,2.66,0,0,0,2.08-.72,3.46,3.46,0,0,0,.65-2.34v-.27A4,4,0,0,0,267,279a2.59,2.59,0,0,0-2.08-.77,2.21,2.21,0,0,0-1.89.88,4.21,4.21,0,0,0-.65,2.51,3.92,3.92,0,0,0,.65,2.47A2.26,2.26,0,0,0,264.88,284.91Z"/><path class="cls-3" d="M277.66,285.84l-.28-1.22h-.06a3.86,3.86,0,0,1-1.38,1.09,4.51,4.51,0,0,1-1.72.29,3.21,3.21,0,0,1-2.15-.66,2.31,2.31,0,0,1-.78-1.87c0-1.73,1.49-2.63,4.47-2.72l1.57,0v-.53a1.7,1.7,0,0,0-2-2,6.64,6.64,0,0,0-2.62.65l-.43-1a7.06,7.06,0,0,1,3.13-.73,3.68,3.68,0,0,1,2.45.68,2.72,2.72,0,0,1,.8,2.18v5.84Zm-3.16-.91a3,3,0,0,0,2.05-.67,2.35,2.35,0,0,0,.75-1.86v-.77l-1.4.05a5.55,5.55,0,0,0-2.41.48,1.44,1.44,0,0,0-.74,1.33,1.31,1.31,0,0,0,.46,1.07A2.06,2.06,0,0,0,274.5,284.93Z"/><path class="cls-3" d="M290,286a4.45,4.45,0,0,1-3.24-1.16,4.27,4.27,0,0,1-1.18-3.21,4.69,4.69,0,0,1,1.1-3.29,3.79,3.79,0,0,1,2.95-1.22,3.6,3.6,0,0,1,2.75,1.06,3.86,3.86,0,0,1,1,2.79v.82H287a3.2,3.2,0,0,0,.82,2.29,3,3,0,0,0,2.2.78,7.87,7.87,0,0,0,3-.58v1.16a8,8,0,0,1-1.41.43A8.94,8.94,0,0,1,290,286Zm-.38-7.79a2.37,2.37,0,0,0-1.78.67,3,3,0,0,0-.78,1.86h4.83a2.67,2.67,0,0,0-.59-1.88A2.12,2.12,0,0,0,289.6,278.21Z"/><path class="cls-3" d="M302.09,285.84V280.3a2.08,2.08,0,0,0-.52-1.56,2.17,2.17,0,0,0-1.61-.52,2.74,2.74,0,0,0-2.12.73,3.46,3.46,0,0,0-.68,2.4v4.49h-1.4v-8.56h1.14l.23,1.17h.07a2.73,2.73,0,0,1,1.2-1,4.21,4.21,0,0,1,1.73-.35,3.67,3.67,0,0,1,2.51.75,3,3,0,0,1,.85,2.38v5.59Z"/><path class="cls-3" d="M316.53,285.84l-.27-1.22h-.07a3.77,3.77,0,0,1-1.38,1.09,4.51,4.51,0,0,1-1.72.29,3.23,3.23,0,0,1-2.15-.66,2.31,2.31,0,0,1-.78-1.87c0-1.73,1.49-2.63,4.48-2.72l1.57,0v-.53a2.06,2.06,0,0,0-.47-1.49,2,2,0,0,0-1.5-.48,6.56,6.56,0,0,0-2.61.65l-.43-1a6.73,6.73,0,0,1,1.49-.54,7.06,7.06,0,0,1,1.64-.19,3.69,3.69,0,0,1,2.45.68,2.71,2.71,0,0,1,.79,2.18v5.84Zm-3.16-.91a3,3,0,0,0,2.06-.67,2.37,2.37,0,0,0,.74-1.86v-.77l-1.4.05a5.59,5.59,0,0,0-2.41.48,1.43,1.43,0,0,0-.73,1.33,1.28,1.28,0,0,0,.46,1.07A2,2,0,0,0,313.37,284.93Z"/><path class="cls-3" d="M324.67,277.12a6.23,6.23,0,0,1,1.11.09l-.2,1.21a5,5,0,0,0-1-.12,2.56,2.56,0,0,0-1.92.84,3,3,0,0,0-.79,2.11v4.59h-1.4v-8.56h1.15l.16,1.58h.07a4,4,0,0,1,1.24-1.29A2.94,2.94,0,0,1,324.67,277.12Z"/><path class="cls-3" d="M331.2,286a4.14,4.14,0,0,1-3.11-1.15,4.49,4.49,0,0,1-1.1-3.24,4.65,4.65,0,0,1,1.12-3.32,4.2,4.2,0,0,1,3.18-1.17,7.6,7.6,0,0,1,1.34.13,4.62,4.62,0,0,1,1,.32l-.43,1.1a6.69,6.69,0,0,0-1-.29,5.24,5.24,0,0,0-1-.11q-2.82,0-2.82,3.33a3.73,3.73,0,0,0,.69,2.42,2.49,2.49,0,0,0,2,.84,6.6,6.6,0,0,0,2.37-.46v1.15A5.36,5.36,0,0,1,331.2,286Z"/><path class="cls-3" d="M342.06,285.84V280.3a2.08,2.08,0,0,0-.52-1.56,2.17,2.17,0,0,0-1.61-.52,2.76,2.76,0,0,0-2.13.74,3.49,3.49,0,0,0-.67,2.4v4.48h-1.4V273.68h1.4v3.68a6.68,6.68,0,0,1-.07,1.1h.09a2.79,2.79,0,0,1,1.18-1,4,4,0,0,1,1.74-.35,3.79,3.79,0,0,1,2.54.74,3,3,0,0,1,.85,2.37v5.59Z"/><path class="cls-3" d="M346.22,275a.83.83,0,0,1,.23-.66.92.92,0,0,1,.59-.2.84.84,0,0,1,.58.21,1,1,0,0,1,0,1.3.84.84,0,0,1-.58.21.87.87,0,0,1-.59-.21A.82.82,0,0,1,346.22,275Zm1.51,10.88h-1.4v-8.56h1.4Z"/><path class="cls-3" d="M352.73,285.84l-3.51-8.56h1.5l2,5.07a22.37,22.37,0,0,1,.79,2.32h.07a16,16,0,0,1,.59-1.72c.33-.86,1.06-2.76,2.21-5.67h1.5l-3.51,8.56Z"/><path class="cls-3" d="M367.34,281.55a4.49,4.49,0,0,1-1.14,3.27,4.2,4.2,0,0,1-3.15,1.18,4.4,4.4,0,0,1-2.2-.54,3.71,3.71,0,0,1-1.49-1.55,5.16,5.16,0,0,1-.52-2.36,4.5,4.5,0,0,1,1.13-3.26,4.17,4.17,0,0,1,3.14-1.17,4.05,4.05,0,0,1,3.08,1.2A4.47,4.47,0,0,1,367.34,281.55Zm-7,0a3.86,3.86,0,0,0,.71,2.5,3,3,0,0,0,4.17,0,3.78,3.78,0,0,0,.71-2.5,3.74,3.74,0,0,0-.71-2.48,3,3,0,0,0-4.18,0A3.85,3.85,0,0,0,360.29,281.55Z"/><path class="cls-3" d="M375.75,283.5a2.1,2.1,0,0,1-1,1.85,4.81,4.81,0,0,1-2.7.65,6.29,6.29,0,0,1-2.87-.54v-1.21a7.56,7.56,0,0,0,1.43.5,6.43,6.43,0,0,0,1.48.18,3.47,3.47,0,0,0,1.68-.33,1.07,1.07,0,0,0,.13-1.84,7.67,7.67,0,0,0-1.83-.84,11,11,0,0,1-1.84-.78,2.46,2.46,0,0,1-.81-.75,2,2,0,0,1-.26-1,1.88,1.88,0,0,1,.92-1.65,4.47,4.47,0,0,1,2.52-.61,8,8,0,0,1,2.92.56l-.5,1.06a7,7,0,0,0-2.52-.53,3,3,0,0,0-1.5.29.87.87,0,0,0-.51.79,1,1,0,0,0,.19.59,2,2,0,0,0,.61.46A12.48,12.48,0,0,0,373,281a6,6,0,0,1,2.22,1.12A1.87,1.87,0,0,1,375.75,283.5Z"/><path class="cls-3" d="M377.83,285a1.1,1.1,0,0,1,.25-.79,1,1,0,0,1,.74-.27.94.94,0,0,1,1,1.06,1,1,0,0,1-.28.78,1,1,0,0,1-.76.28,1.08,1.08,0,0,1-.71-.25A1,1,0,0,1,377.83,285Z"/></g></g></svg>