<svg xmlns="http://www.w3.org/2000/svg" width="568.961" height="424.418" viewBox="0 0 568.961 424.418">
  <g id="Grupo_10284" data-name="Grupo 10284" transform="translate(751.612 591.799)">
    <g id="Grupo_10283" data-name="Grupo 10283">
      <text id="FICHA_TÉCNICA_DEL_PRODUCTO_XYZ" data-name="FICHA TÉCNICA DEL PRODUCTO XYZ" transform="translate(-467.132 -571.785)" fill="#1a1a1a" font-size="14.847" font-family="Montserrat-Bold, Montserrat" font-weight="700"><tspan x="-143.068" y="0">FICHA TÉCNICA DEL PRODUCTO XYZ</tspan></text>
      <text id="Descripción_física:_" data-name="Descripción física: " transform="translate(-744.071 -548.012)" font-size="11.135" font-family="OpenSans, Open Sans"><tspan x="0" y="0">Descripción física: </tspan></text>
      <text id="Modelo:" transform="translate(-744.071 -519.908)" font-size="11.135" font-family="OpenSans, Open Sans"><tspan x="0" y="0">Modelo:</tspan></text>
      <text id="Marca" transform="translate(-744.071 -491.805)" font-size="11.135" font-family="OpenSans, Open Sans"><tspan x="0" y="0">Marca</tspan></text>
      <text id="Serial:" transform="translate(-744.071 -463.619)" font-size="11.135" font-family="OpenSans, Open Sans"><tspan x="0" y="0">Serial:</tspan></text>
      <text id="Código_Inventario:" data-name="Código Inventario:" transform="translate(-744.071 -435.517)" font-size="11.135" font-family="OpenSans, Open Sans"><tspan x="0" y="0">Código Inventario:</tspan></text>
      <text id="Especificaciones_Técnicas._" data-name="Especificaciones Técnicas. " transform="translate(-744.071 -407.424)" font-size="11.135" font-family="OpenSans, Open Sans"><tspan x="0" y="0">Especificaciones Técnicas. </tspan></text>
      <text id="_" data-name="•" transform="translate(-732.971 -378.917)" font-size="11.135" font-family="OpenSans, Open Sans"><tspan x="0" y="0">•</tspan></text>
      <text id="Altura:" transform="translate(-723.118 -378.917)" font-size="11.135" font-family="OpenSans, Open Sans"><tspan x="0" y="0">Altura:</tspan></text>
      <text id="_2" data-name="•" transform="translate(-732.971 -350.326)" font-size="11.135" font-family="OpenSans, Open Sans"><tspan x="0" y="0">•</tspan></text>
      <text id="Peso:" transform="translate(-723.118 -350.326)" font-size="11.135" font-family="OpenSans, Open Sans"><tspan x="0" y="0">Peso:</tspan></text>
      <text id="_3" data-name="•" transform="translate(-732.971 -321.829)" font-size="11.135" font-family="OpenSans, Open Sans"><tspan x="0" y="0">•</tspan></text>
      <text id="Color:" transform="translate(-723.118 -321.829)" font-size="11.135" font-family="OpenSans, Open Sans"><tspan x="0" y="0">Color:</tspan></text>
      <text id="_4" data-name="•" transform="translate(-732.971 -293.249)" font-size="11.135" font-family="OpenSans, Open Sans"><tspan x="0" y="0">•</tspan></text>
      <text id="Material:" transform="translate(-723.118 -293.249)" font-size="11.135" font-family="OpenSans, Open Sans"><tspan x="0" y="0">Material:</tspan></text>
      <text id="_5" data-name="•" transform="translate(-732.971 -264.752)" font-size="11.135" font-family="OpenSans, Open Sans"><tspan x="0" y="0">•</tspan></text>
      <text id="Densidad:_" data-name="Densidad: " transform="translate(-723.118 -264.752)" font-size="11.135" font-family="OpenSans, Open Sans"><tspan x="0" y="0">Densidad: </tspan></text>
      <text id="_6" data-name="•" transform="translate(-732.971 -236.174)" font-size="11.135" font-family="OpenSans, Open Sans"><tspan x="0" y="0">•</tspan></text>
      <text id="Diámetro:" transform="translate(-723.118 -236.174)" font-size="11.135" font-family="OpenSans, Open Sans"><tspan x="0" y="0">Diámetro:</tspan></text>
      <text id="IMAGEN_DEL_PRODUCTO." data-name="IMAGEN DEL PRODUCTO." transform="translate(-420.076 -175.804)" font-size="11.135" font-family="OpenSans, Open Sans"><tspan x="0" y="0">IMAGEN DEL PRODUCTO.</tspan></text>
      <text id="Partes_del_producto." data-name="Partes del producto." transform="translate(-744.071 -208.058)" font-size="11.135" font-family="OpenSans, Open Sans"><tspan x="0" y="0">Partes del producto.</tspan></text>
    </g>
    <path id="Trazado_3218" data-name="Trazado 3218" d="M-183.294-591.8H-751.612v424.418h568.961V-591.8ZM-750.97-563.058h169.8v27.546h-169.8Zm0,28.183h169.8v27.466h-169.8Zm0,28.1h169.8v27.466h-169.8Zm0,28.1h169.8v27.547h-169.8Zm0,28.184h169.8v27.467h-169.8Zm236.11,282.467H-750.97V-223.03h236.11Zm0-55.649H-750.97V-422.381h236.11Zm331.566,0v55.649H-514.217V-422.381h330.923Zm0-199.351H-580.53v-27.467h397.236Zm0-28.1H-580.53v-27.547h397.236Zm0-28.184H-580.53v-27.466h397.236Zm0-28.1H-580.53v-27.466h397.236Zm0-28.1H-580.53v-27.546h397.236Zm0-28.183H-750.97v-27.467h567.676Z" fill="#1a1a1a" fill-rule="evenodd"/>
  </g>
</svg>
