<svg xmlns="http://www.w3.org/2000/svg" xmlns:xlink="http://www.w3.org/1999/xlink" viewBox="0 0 1140.1 1058.49"><defs><style>.cls-1{fill:#c69c6d;}.cls-2{fill:#fff;}.cls-2,.cls-4,.cls-5,.cls-6{fill-rule:evenodd;}.cls-3,.cls-4{fill:#1a1a1a;}.cls-5{opacity:0.1;}.cls-6{fill:url(#Degradado_sin_nombre_29);}</style><linearGradient id="Degradado_sin_nombre_29" x1="567.3" y1="89.6" x2="567.3" gradientUnits="userSpaceOnUse"><stop offset="0" stop-color="#e6e6e6"/><stop offset="0.23" stop-color="#d4d4d4"/><stop offset="0.76" stop-color="#dedede"/><stop offset="1" stop-color="#ccc"/></linearGradient></defs><g id="Capa_2" data-name="Capa 2"><g id="CONTENIDO"><path class="cls-1" d="M1111.6,13.4H28.6A28.5,28.5,0,0,0,.1,41.9L0,1058.49H1140.1V41.9A28.5,28.5,0,0,0,1111.6,13.4Z"/><path class="cls-2" d="M1095.77,65.26H42.53a4.28,4.28,0,0,0-4.28,4.28v989h1061.8V69.54A4.28,4.28,0,0,0,1095.77,65.26Z"/><path class="cls-3" d="M333.12,152.55v4.65h8.15v3.27h-8.15v6.41h-4.07v-17.6h13.3v3.27Z"/><path class="cls-3" d="M345.11,149.28h4.07v17.6h-4.07Z"/><path class="cls-3" d="M352.25,158.08c0-5.3,4.07-9.1,9.55-9.1A9.09,9.09,0,0,1,369,152.1l-2.62,2.41a5.64,5.64,0,0,0-4.42-2.06,5.63,5.63,0,1,0,0,11.26,5.58,5.58,0,0,0,4.42-2.09L369,164a9.06,9.06,0,0,1-7.26,3.14C356.32,167.18,352.25,163.38,352.25,158.08Z"/><path class="cls-3" d="M387.91,149.28v17.6h-4.07v-7.22h-8v7.22h-4.07v-17.6h4.07v6.94h8v-6.94Z"/><path class="cls-3" d="M403.67,163.11H395.5L394,166.88h-4.18l7.85-17.6h4l7.86,17.6h-4.27Zm-1.28-3.1-2.79-6.73L396.81,160Z"/><path class="cls-3" d="M422.1,152.6h-5.63v-3.32H431.8v3.32h-5.63v14.28H422.1Z"/><path class="cls-3" d="M447.6,163.61v3.27H434v-17.6h13.3v3.27H438v3.82h8.17v3.17H438v4.07Zm-6.18-15.76h-3.06l3.39-3.62H446Z"/><path class="cls-3" d="M449.69,158.08c0-5.3,4.07-9.1,9.55-9.1a9.09,9.09,0,0,1,7.24,3.12l-2.61,2.41a5.68,5.68,0,0,0-4.43-2.06,5.63,5.63,0,1,0,0,11.26,5.61,5.61,0,0,0,4.43-2.09l2.61,2.42a9.06,9.06,0,0,1-7.26,3.14C453.76,167.18,449.69,163.38,449.69,158.08Z"/><path class="cls-3" d="M485.35,149.28v17.6H482l-8.77-10.69v10.69h-4v-17.6h3.37L481.33,160V149.28Z"/><path class="cls-3" d="M489.53,149.28h4.07v17.6h-4.07Z"/><path class="cls-3" d="M496.67,158.08c0-5.3,4.07-9.1,9.54-9.1a9.08,9.08,0,0,1,7.24,3.12l-2.61,2.41a5.64,5.64,0,0,0-4.42-2.06,5.63,5.63,0,1,0,0,11.26,5.58,5.58,0,0,0,4.42-2.09l2.61,2.42a9,9,0,0,1-7.26,3.14C500.74,167.18,496.67,163.38,496.67,158.08Z"/><path class="cls-3" d="M527.43,163.11h-8.17l-1.56,3.77h-4.17l7.84-17.6h4l7.87,17.6H529Zm-1.28-3.1-2.79-6.73L520.57,160Z"/><path class="cls-3" d="M542.21,149.28h8c5.75,0,9.7,3.47,9.7,8.8s-3.95,8.8-9.7,8.8h-8ZM550,163.53c3.49,0,5.78-2.08,5.78-5.45s-2.29-5.45-5.78-5.45h-3.72v10.9Z"/><path class="cls-3" d="M576.59,163.61v3.27H563v-17.6h13.29v3.27H567v3.82h8.17v3.17H567v4.07Z"/><path class="cls-3" d="M579.83,149.28h4.07v14.28h8.82v3.32H579.83Z"/><path class="cls-3" d="M617.38,155.67c0,3.92-2.94,6.35-7.64,6.35h-3.55v4.86h-4.07v-17.6h7.62C614.44,149.28,617.38,151.72,617.38,155.67Zm-4.12,0c0-1.94-1.26-3.07-3.75-3.07h-3.32v6.11h3.32C612,158.71,613.26,157.58,613.26,155.67Z"/><path class="cls-3" d="M631.48,166.88,628.09,162h-3.75v4.91h-4.07v-17.6h7.61c4.7,0,7.64,2.44,7.64,6.39a5.71,5.71,0,0,1-3.61,5.55l3.94,5.66Zm-3.82-14.28h-3.32v6.13h3.32c2.49,0,3.74-1.15,3.74-3.06S630.15,152.6,627.66,152.6Z"/><path class="cls-3" d="M637.64,158.08c0-5.23,4.07-9.1,9.62-9.1s9.63,3.85,9.63,9.1-4.1,9.1-9.63,9.1S637.64,163.31,637.64,158.08Zm15.13,0a5.51,5.51,0,1,0-5.51,5.63A5.37,5.37,0,0,0,652.77,158.08Z"/><path class="cls-3" d="M660,149.28h8c5.75,0,9.7,3.47,9.7,8.8s-3.95,8.8-9.7,8.8h-8Zm7.79,14.25c3.49,0,5.78-2.08,5.78-5.45s-2.29-5.45-5.78-5.45H664v10.9Z"/><path class="cls-3" d="M680.56,159.14v-9.86h4.08V159c0,3.35,1.45,4.73,3.92,4.73s3.92-1.38,3.92-4.73v-9.7h4v9.86c0,5.17-3,8-8,8S680.56,164.31,680.56,159.14Z"/><path class="cls-3" d="M699.41,158.08c0-5.3,4.08-9.1,9.55-9.1a9.09,9.09,0,0,1,7.24,3.12l-2.61,2.41a5.66,5.66,0,0,0-4.42-2.06,5.63,5.63,0,1,0,0,11.26,5.59,5.59,0,0,0,4.42-2.09L716.2,164a9.06,9.06,0,0,1-7.26,3.14C703.49,167.18,699.41,163.38,699.41,158.08Z"/><path class="cls-3" d="M722.41,152.6h-5.63v-3.32h15.33v3.32h-5.63v14.28h-4.07Z"/><path class="cls-3" d="M732.94,158.08c0-5.23,4.07-9.1,9.63-9.1s9.62,3.85,9.62,9.1-4.09,9.1-9.62,9.1S732.94,163.31,732.94,158.08Zm15.13,0a5.51,5.51,0,1,0-5.5,5.63A5.37,5.37,0,0,0,748.07,158.08Z"/><path class="cls-3" d="M773.46,166.88l-4.25-6.11L765,166.88h-4.68l6.51-8.95-6.18-8.65h4.62l4.05,5.71,4-5.71h4.4l-6.13,8.5,6.56,9.1Z"/><path class="cls-3" d="M788,160.64v6.24h-4.07v-6.29l-6.81-11.31h4.32l4.7,7.82,4.7-7.82h4Z"/><path class="cls-3" d="M810.8,163.56v3.32H795.42v-2.64l9.65-11.64h-9.45v-3.32h14.81v2.64l-9.63,11.64Z"/><path d="M113.94,200.26a6.54,6.54,0,0,1-2,5.1,8.14,8.14,0,0,1-5.62,1.76h-4V193.66h4.46a7.45,7.45,0,0,1,5.26,1.74A6.31,6.31,0,0,1,113.94,200.26Zm-1.79.06a5.18,5.18,0,0,0-1.42-4,6,6,0,0,0-4.24-1.34H104v10.76h2.06a6.56,6.56,0,0,0,4.54-1.38A5.24,5.24,0,0,0,112.15,200.32Z"/><path d="M121.49,207.3a5.21,5.21,0,0,1-3.81-1.36,5,5,0,0,1-1.4-3.78,5.6,5.6,0,0,1,1.3-3.88,4.49,4.49,0,0,1,3.48-1.43,4.26,4.26,0,0,1,3.24,1.24,4.56,4.56,0,0,1,1.2,3.29v1H118a3.87,3.87,0,0,0,1,2.7,3.52,3.52,0,0,0,2.59.92,9.49,9.49,0,0,0,3.48-.68v1.36a9.35,9.35,0,0,1-1.66.5A10.07,10.07,0,0,1,121.49,207.3Zm-.45-9.17a2.8,2.8,0,0,0-2.09.79,3.56,3.56,0,0,0-.92,2.19h5.7a3.18,3.18,0,0,0-.7-2.22A2.53,2.53,0,0,0,121,198.13Z"/><path d="M135.31,204.37a2.45,2.45,0,0,1-1.13,2.17,5.67,5.67,0,0,1-3.18.76,7.46,7.46,0,0,1-3.38-.63v-1.42a8.42,8.42,0,0,0,1.69.58A7.57,7.57,0,0,0,131,206a4.29,4.29,0,0,0,2-.38,1.25,1.25,0,0,0,.69-1.16,1.22,1.22,0,0,0-.55-1,8.86,8.86,0,0,0-2.15-1,12.33,12.33,0,0,1-2.16-.92,2.77,2.77,0,0,1-1-.89,2.33,2.33,0,0,1,.77-3.13,5.36,5.36,0,0,1,3-.71,9.29,9.29,0,0,1,3.43.66l-.58,1.24a8.4,8.4,0,0,0-3-.62,3.63,3.63,0,0,0-1.77.34,1,1,0,0,0-.6.94,1.08,1.08,0,0,0,.23.69,2,2,0,0,0,.72.54,16.11,16.11,0,0,0,1.9.74,7.3,7.3,0,0,1,2.62,1.32A2.21,2.21,0,0,1,135.31,204.37Z"/><path d="M142.33,207.3a4.82,4.82,0,0,1-3.66-1.35,5.24,5.24,0,0,1-1.3-3.81,5.43,5.43,0,0,1,1.32-3.91,4.91,4.91,0,0,1,3.75-1.38A8.43,8.43,0,0,1,144,197a5.91,5.91,0,0,1,1.23.37l-.51,1.3a7.59,7.59,0,0,0-1.19-.34,5.61,5.61,0,0,0-1.14-.13c-2.22,0-3.32,1.31-3.32,3.92a4.4,4.4,0,0,0,.81,2.85,2.9,2.9,0,0,0,2.4,1,7.88,7.88,0,0,0,2.79-.54v1.35A6.37,6.37,0,0,1,142.33,207.3Z"/><path d="M152.61,196.85a6.43,6.43,0,0,1,1.3.11l-.23,1.41a6.06,6.06,0,0,0-1.19-.13,3,3,0,0,0-2.26,1,3.49,3.49,0,0,0-.94,2.48v5.41h-1.65V197H149l.19,1.87h.08a4.64,4.64,0,0,1,1.46-1.52A3.45,3.45,0,0,1,152.61,196.85Z"/><path d="M155.81,194.3a1,1,0,0,1,.28-.77,1,1,0,0,1,.69-.25,1,1,0,0,1,.69.25,1,1,0,0,1,.29.77,1,1,0,0,1-.29.77,1,1,0,0,1-.69.25,1,1,0,0,1-.69-.25A1,1,0,0,1,155.81,194.3Zm1.79,12.82H156V197h1.65Z"/><path d="M166.21,207.3a5.13,5.13,0,0,1-2-.36,3.66,3.66,0,0,1-1.47-1.12h-.12a12.52,12.52,0,0,1,.12,1.68v4.15h-1.65V197h1.34l.23,1.38h.08a3.71,3.71,0,0,1,1.48-1.19,4.73,4.73,0,0,1,1.94-.37,4.15,4.15,0,0,1,3.34,1.37,6.84,6.84,0,0,1,0,7.71A4.2,4.2,0,0,1,166.21,207.3Zm-.24-9.16a3.06,3.06,0,0,0-2.42.86,4.18,4.18,0,0,0-.76,2.72v.35a4.77,4.77,0,0,0,.76,3A3,3,0,0,0,166,206a2.63,2.63,0,0,0,2.21-1.05,4.78,4.78,0,0,0,.8-2.92,4.59,4.59,0,0,0-.8-2.9A2.73,2.73,0,0,0,166,198.14Z"/><path d="M178,207.3A4.82,4.82,0,0,1,174.3,206a5.24,5.24,0,0,1-1.3-3.81,5.43,5.43,0,0,1,1.32-3.91,4.94,4.94,0,0,1,3.75-1.38,8.35,8.35,0,0,1,1.57.15,5.91,5.91,0,0,1,1.23.37l-.5,1.3a8.05,8.05,0,0,0-1.2-.34,5.61,5.61,0,0,0-1.14-.13q-3.32,0-3.32,3.92a4.4,4.4,0,0,0,.81,2.85,2.9,2.9,0,0,0,2.4,1,7.84,7.84,0,0,0,2.79-.54v1.35A6.33,6.33,0,0,1,178,207.3Z"/><path d="M183.14,194.3a1,1,0,0,1,.28-.77,1,1,0,0,1,.69-.25,1.06,1.06,0,0,1,.69.25,1,1,0,0,1,.28.77,1,1,0,0,1-.28.77,1.06,1.06,0,0,1-.69.25,1,1,0,0,1-.69-.25A1,1,0,0,1,183.14,194.3Zm1.79,12.82h-1.65V197h1.65Z"/><path d="M197.86,202.07a5.29,5.29,0,0,1-1.34,3.85,4.92,4.92,0,0,1-3.7,1.38,5.27,5.27,0,0,1-2.6-.63,4.39,4.39,0,0,1-1.75-1.82,6,6,0,0,1-.61-2.78,5.3,5.3,0,0,1,1.33-3.85,4.94,4.94,0,0,1,3.7-1.37,4.79,4.79,0,0,1,3.63,1.41A5.24,5.24,0,0,1,197.86,202.07Zm-8.29,0a4.56,4.56,0,0,0,.83,2.94,3.5,3.5,0,0,0,4.92,0,5.55,5.55,0,0,0,0-5.87,3.08,3.08,0,0,0-2.48-1,3,3,0,0,0-2.45,1A4.48,4.48,0,0,0,189.57,202.07Zm1.91-6.6c.31-.38.66-.84,1-1.38a14.49,14.49,0,0,0,.87-1.41h2v.19a14,14,0,0,1-1.3,1.47,14.6,14.6,0,0,1-1.5,1.36h-1.1Z"/><path d="M208.29,207.12v-6.53a2.49,2.49,0,0,0-.61-1.84,2.58,2.58,0,0,0-1.89-.61,3.29,3.29,0,0,0-2.51.86,4.09,4.09,0,0,0-.79,2.83v5.29h-1.65V197h1.34l.27,1.38h.08a3.2,3.2,0,0,1,1.42-1.15,4.82,4.82,0,0,1,2-.41,4.35,4.35,0,0,1,3,.88,3.57,3.57,0,0,1,1,2.81v6.58Z"/><path d="M223.56,198.22h-2.77v8.9h-1.65v-8.9h-1.95v-.69l1.95-.55v-.57c0-2.48,1.17-3.71,3.51-3.71a7.54,7.54,0,0,1,2,.32l-.43,1.22a5.85,5.85,0,0,0-1.63-.28,1.65,1.65,0,0,0-1.38.57,3,3,0,0,0-.45,1.85V197h2.77Z"/><path d="M225.5,195.47c.32-.38.66-.84,1-1.38a14.49,14.49,0,0,0,.87-1.41h2v.19a13.17,13.17,0,0,1-1.31,1.47,12.77,12.77,0,0,1-1.5,1.36h-1.1Zm1.72,11.65h-1.65V197h1.65Z"/><path d="M237.78,204.37a2.45,2.45,0,0,1-1.13,2.17,5.62,5.62,0,0,1-3.18.76,7.46,7.46,0,0,1-3.38-.63v-1.42a8.42,8.42,0,0,0,1.69.58,7.63,7.63,0,0,0,1.73.21,4.26,4.26,0,0,0,2-.38,1.25,1.25,0,0,0,.69-1.16,1.22,1.22,0,0,0-.55-1,8.67,8.67,0,0,0-2.15-1,12.33,12.33,0,0,1-2.16-.92,2.73,2.73,0,0,1-1-.89,2.15,2.15,0,0,1-.32-1.18,2.21,2.21,0,0,1,1.09-1.95,5.31,5.31,0,0,1,3-.71,9.34,9.34,0,0,1,3.44.66l-.59,1.24a8.32,8.32,0,0,0-3-.62,3.63,3.63,0,0,0-1.77.34,1,1,0,0,0-.6.94,1.08,1.08,0,0,0,.23.69,2.17,2.17,0,0,0,.72.54,15.75,15.75,0,0,0,1.91.74,7.32,7.32,0,0,1,2.61,1.32A2.21,2.21,0,0,1,237.78,204.37Z"/><path d="M240.31,194.3a1,1,0,0,1,.28-.77,1,1,0,0,1,.69-.25,1,1,0,0,1,.69.25,1,1,0,0,1,.29.77,1,1,0,0,1-.29.77,1,1,0,0,1-.69.25,1,1,0,0,1-.69-.25A1,1,0,0,1,240.31,194.3Zm1.79,12.82h-1.65V197h1.65Z"/><path d="M250,207.3a4.82,4.82,0,0,1-3.66-1.35,5.24,5.24,0,0,1-1.3-3.81,5.43,5.43,0,0,1,1.32-3.91,4.91,4.91,0,0,1,3.75-1.38,8.43,8.43,0,0,1,1.57.15,5.91,5.91,0,0,1,1.23.37l-.51,1.3a7.59,7.59,0,0,0-1.19-.34,5.61,5.61,0,0,0-1.14-.13c-2.22,0-3.32,1.31-3.32,3.92a4.4,4.4,0,0,0,.81,2.85,2.9,2.9,0,0,0,2.4,1,7.88,7.88,0,0,0,2.79-.54v1.35A6.37,6.37,0,0,1,250,207.3Z"/><path d="M262,207.12l-.33-1.44h-.08A4.59,4.59,0,0,1,260,207a5.4,5.4,0,0,1-2,.33,3.8,3.8,0,0,1-2.54-.77,2.7,2.7,0,0,1-.92-2.2q0-3.06,5.27-3.2l1.85-.06v-.62a2.43,2.43,0,0,0-.55-1.76,2.36,2.36,0,0,0-1.76-.56,7.52,7.52,0,0,0-3.08.77l-.51-1.17a8.49,8.49,0,0,1,3.69-.86,4.32,4.32,0,0,1,2.88.8,3.17,3.17,0,0,1,.94,2.56v6.89ZM258.27,206a3.5,3.5,0,0,0,2.42-.78,2.76,2.76,0,0,0,.88-2.19v-.91l-1.65.06a6.24,6.24,0,0,0-2.83.57,1.67,1.67,0,0,0-.87,1.56,1.52,1.52,0,0,0,.54,1.26A2.34,2.34,0,0,0,258.27,206Z"/><path d="M266.36,198c0-.83.39-1.25,1.17-1.25a1.1,1.1,0,0,1,1.23,1.25,1.13,1.13,0,0,1-1.23,1.24,1.28,1.28,0,0,1-.84-.29A1.22,1.22,0,0,1,266.36,198Zm0,8.12a1.26,1.26,0,0,1,.31-.93,1.14,1.14,0,0,1,.86-.32,1.25,1.25,0,1,1,0,2.5,1.28,1.28,0,0,1-.84-.29A1.24,1.24,0,0,1,266.36,206.14Z"/><path d="M108.77,254.69l-4.93-11.93h-.07c.09,1,.13,2.07.13,3.37v8.56h-1.56V241.23h2.55l4.6,11.1h.08l4.64-11.1h2.52v13.46H115V246c0-1,0-2.07.14-3.24h-.08l-5,11.91Z"/><path d="M129.89,249.64a5.32,5.32,0,0,1-1.34,3.85,5,5,0,0,1-3.71,1.39,5.23,5.23,0,0,1-2.59-.64,4.27,4.27,0,0,1-1.75-1.82,6,6,0,0,1-.62-2.78,5.3,5.3,0,0,1,1.33-3.84,4.9,4.9,0,0,1,3.7-1.38,4.79,4.79,0,0,1,3.63,1.41A5.28,5.28,0,0,1,129.89,249.64Zm-8.3,0a4.48,4.48,0,0,0,.84,2.94,3,3,0,0,0,2.45,1,3,3,0,0,0,2.46-1,4.51,4.51,0,0,0,.84-3,4.4,4.4,0,0,0-.84-2.92,3,3,0,0,0-2.48-1,3,3,0,0,0-2.44,1A4.5,4.5,0,0,0,121.59,249.64Z"/><path d="M140.19,253.34h-.09a4,4,0,0,1-3.41,1.54,4.2,4.2,0,0,1-3.33-1.36,5.65,5.65,0,0,1-1.19-3.85,5.71,5.71,0,0,1,1.2-3.87,4.14,4.14,0,0,1,3.32-1.38,4.07,4.07,0,0,1,3.39,1.49h.13l-.07-.73,0-.71v-4.1h1.65v14.32h-1.34Zm-3.3.26a3.11,3.11,0,0,0,2.45-.86,4,4,0,0,0,.76-2.74v-.33a4.73,4.73,0,0,0-.77-3.06,3,3,0,0,0-2.46-.91,2.62,2.62,0,0,0-2.22,1,4.93,4.93,0,0,0-.77,2.95,4.71,4.71,0,0,0,.77,2.92A2.66,2.66,0,0,0,136.89,253.6Z"/><path d="M149.85,254.88a5.22,5.22,0,0,1-3.81-1.37,5,5,0,0,1-1.39-3.78,5.59,5.59,0,0,1,1.29-3.88,4.49,4.49,0,0,1,3.48-1.43,4.23,4.23,0,0,1,3.24,1.25,4.53,4.53,0,0,1,1.2,3.29v1h-7.51a3.85,3.85,0,0,0,1,2.7,3.53,3.53,0,0,0,2.59.92,9.49,9.49,0,0,0,3.48-.68v1.36a9.35,9.35,0,0,1-1.66.5A10,10,0,0,1,149.85,254.88Zm-.45-9.18a2.8,2.8,0,0,0-2.09.79,3.56,3.56,0,0,0-.92,2.19h5.7a3.15,3.15,0,0,0-.7-2.21A2.51,2.51,0,0,0,149.4,245.7Z"/><path d="M158.3,254.69h-1.65V240.37h1.65Z"/><path d="M171.24,249.64a5.28,5.28,0,0,1-1.35,3.85,4.92,4.92,0,0,1-3.7,1.39,5.27,5.27,0,0,1-2.6-.64,4.31,4.31,0,0,1-1.74-1.82,6,6,0,0,1-.62-2.78,5.26,5.26,0,0,1,1.33-3.84,4.9,4.9,0,0,1,3.7-1.38,4.79,4.79,0,0,1,3.63,1.41A5.28,5.28,0,0,1,171.24,249.64Zm-8.3,0a4.54,4.54,0,0,0,.83,2.94,3.49,3.49,0,0,0,4.92,0,4.51,4.51,0,0,0,.84-3,4.4,4.4,0,0,0-.84-2.92,3.56,3.56,0,0,0-4.93,0A4.5,4.5,0,0,0,162.94,249.64Z"/><path d="M173.89,245.59c0-.83.39-1.24,1.17-1.24a1.08,1.08,0,0,1,1.22,1.24,1.27,1.27,0,0,1-.32.92,1.39,1.39,0,0,1-1.74,0A1.2,1.2,0,0,1,173.89,245.59Zm0,8.13a1.31,1.31,0,0,1,.3-.94,1.15,1.15,0,0,1,.87-.32,1.22,1.22,0,0,1,.9.32,1.23,1.23,0,0,1,.32.94,1.29,1.29,0,0,1-.32.92,1.39,1.39,0,0,1-1.74,0A1.22,1.22,0,0,1,173.89,253.72Z"/><path d="M108.77,302.26l-4.93-11.92h-.07c.09.94.13,2.06.13,3.36v8.56h-1.56V288.81h2.55l4.6,11.1h.08l4.64-11.1h2.52v13.45H115v-8.67c0-1,0-2.07.14-3.24h-.08l-5,11.91Z"/><path d="M127.19,302.26l-.33-1.43h-.08a4.46,4.46,0,0,1-1.63,1.28,5.16,5.16,0,0,1-2,.34,3.87,3.87,0,0,1-2.54-.77,2.74,2.74,0,0,1-.92-2.21q0-3,5.28-3.2l1.85,0v-.63a2.46,2.46,0,0,0-.55-1.75,2.38,2.38,0,0,0-1.77-.57,7.76,7.76,0,0,0-3.08.77l-.5-1.16a7.8,7.8,0,0,1,1.76-.64,8.4,8.4,0,0,1,1.92-.23,4.41,4.41,0,0,1,2.89.8,3.2,3.2,0,0,1,.94,2.57v6.88Zm-3.73-1.07a3.48,3.48,0,0,0,2.42-.79,2.76,2.76,0,0,0,.88-2.19v-.91l-1.65.07a6.45,6.45,0,0,0-2.84.56,1.69,1.69,0,0,0-.87,1.56,1.5,1.5,0,0,0,.54,1.26A2.39,2.39,0,0,0,123.46,301.19Z"/><path d="M136.75,292a7.37,7.37,0,0,1,1.31.11l-.23,1.42a6.23,6.23,0,0,0-1.19-.14,3,3,0,0,0-2.26,1,3.43,3.43,0,0,0-.94,2.47v5.41h-1.65V292.18h1.36l.19,1.86h.08a4.5,4.5,0,0,1,1.46-1.51A3.43,3.43,0,0,1,136.75,292Z"/><path d="M144.45,302.45a4.86,4.86,0,0,1-3.67-1.35,5.3,5.3,0,0,1-1.29-3.82,5.48,5.48,0,0,1,1.31-3.91,5,5,0,0,1,3.76-1.38,7.68,7.68,0,0,1,1.57.16,5.36,5.36,0,0,1,1.23.37l-.51,1.29a8.88,8.88,0,0,0-1.19-.33,5.61,5.61,0,0,0-1.14-.13c-2.22,0-3.32,1.3-3.32,3.92a4.4,4.4,0,0,0,.81,2.85,2.92,2.92,0,0,0,2.4,1,7.93,7.93,0,0,0,2.79-.54v1.35A6.36,6.36,0,0,1,144.45,302.45Z"/><path d="M156.46,302.26l-.33-1.43h-.08a4.44,4.44,0,0,1-1.62,1.28,5.22,5.22,0,0,1-2,.34,3.82,3.82,0,0,1-2.53-.77,2.71,2.71,0,0,1-.92-2.21q0-3,5.27-3.2l1.85,0v-.63a2.42,2.42,0,0,0-.55-1.75,2.37,2.37,0,0,0-1.76-.57,7.69,7.69,0,0,0-3.08.77l-.51-1.16a8,8,0,0,1,1.76-.64,8.42,8.42,0,0,1,1.93-.23,4.38,4.38,0,0,1,2.88.8,3.2,3.2,0,0,1,.94,2.57v6.88Zm-3.73-1.07a3.46,3.46,0,0,0,2.42-.79,2.76,2.76,0,0,0,.88-2.19v-.91l-1.65.07a6.4,6.4,0,0,0-2.83.56,1.69,1.69,0,0,0-.87,1.56,1.5,1.5,0,0,0,.54,1.26A2.34,2.34,0,0,0,152.73,301.19Z"/><path d="M160.84,293.16c0-.83.39-1.24,1.17-1.24a1.09,1.09,0,0,1,1.23,1.24,1.26,1.26,0,0,1-2.07.95A1.2,1.2,0,0,1,160.84,293.16Zm0,8.13a1.34,1.34,0,0,1,.3-.94A1.17,1.17,0,0,1,162,300a1.22,1.22,0,0,1,.9.31,1.27,1.27,0,0,1,.33.94,1.23,1.23,0,0,1-.33.92,1.25,1.25,0,0,1-.9.32,1.28,1.28,0,0,1-.84-.29A1.2,1.2,0,0,1,160.84,301.29Z"/><path d="M110.54,346.4a3.22,3.22,0,0,1-1.39,2.77,6.42,6.42,0,0,1-3.78,1,10,10,0,0,1-4-.62V348a11.11,11.11,0,0,0,1.95.56,11.44,11.44,0,0,0,2.08.2,4.53,4.53,0,0,0,2.55-.59,1.91,1.91,0,0,0,.85-1.66,2,2,0,0,0-.3-1.14,2.82,2.82,0,0,0-1-.83,15.59,15.59,0,0,0-2.17-.85,7.06,7.06,0,0,1-2.89-1.59,3.38,3.38,0,0,1-.87-2.41,2.91,2.91,0,0,1,1.26-2.47,5.49,5.49,0,0,1,3.34-.92,10.52,10.52,0,0,1,4,.73l-.52,1.37a9.57,9.57,0,0,0-3.5-.7,3.59,3.59,0,0,0-2.1.53,1.72,1.72,0,0,0-.75,1.48,2.11,2.11,0,0,0,.28,1.15,2.43,2.43,0,0,0,.94.82,11.87,11.87,0,0,0,2,.82,8.07,8.07,0,0,1,3.14,1.62A3.08,3.08,0,0,1,110.54,346.4Z"/><path d="M117.84,350.16A5.21,5.21,0,0,1,114,348.8a5,5,0,0,1-1.39-3.78,5.59,5.59,0,0,1,1.29-3.88,4.47,4.47,0,0,1,3.49-1.43,4.29,4.29,0,0,1,3.24,1.24,4.58,4.58,0,0,1,1.19,3.29v1h-7.5a3.8,3.8,0,0,0,1,2.7,3.49,3.49,0,0,0,2.58.92,9.23,9.23,0,0,0,3.48-.69v1.37a9.26,9.26,0,0,1-1.65.5A10.18,10.18,0,0,1,117.84,350.16ZM117.4,341a2.79,2.79,0,0,0-2.09.8,3.45,3.45,0,0,0-.92,2.19h5.69a3.16,3.16,0,0,0-.7-2.22A2.53,2.53,0,0,0,117.4,341Z"/><path d="M129.61,339.71a6.43,6.43,0,0,1,1.3.11l-.23,1.41a6.14,6.14,0,0,0-1.19-.13,3,3,0,0,0-2.26,1,3.44,3.44,0,0,0-.94,2.47V350h-1.65V339.89H126l.19,1.87h.08a4.54,4.54,0,0,1,1.46-1.52A3.45,3.45,0,0,1,129.61,339.71Z"/><path d="M132.81,337.16a.92.92,0,0,1,1-1,1,1,0,0,1,.69.25,1,1,0,0,1,.29.77,1,1,0,0,1-.29.76,1,1,0,0,1-.69.26,1,1,0,0,1-.69-.26A1,1,0,0,1,132.81,337.16ZM134.6,350H133V339.89h1.65Z"/><path d="M144.83,350l-.32-1.44h-.08a4.55,4.55,0,0,1-1.63,1.28,5.16,5.16,0,0,1-2,.34,3.85,3.85,0,0,1-2.54-.77,2.73,2.73,0,0,1-.92-2.2q0-3.06,5.28-3.21l1.85-.05v-.63a2.42,2.42,0,0,0-.56-1.75,2.34,2.34,0,0,0-1.76-.57,7.59,7.59,0,0,0-3.08.78l-.51-1.17a8.61,8.61,0,0,1,1.77-.64,8.4,8.4,0,0,1,1.92-.23,4.41,4.41,0,0,1,2.89.8,3.23,3.23,0,0,1,.94,2.57V350Zm-3.72-1.08a3.54,3.54,0,0,0,2.42-.78,2.8,2.8,0,0,0,.88-2.19V345l-1.65.06a6.26,6.26,0,0,0-2.84.57,1.67,1.67,0,0,0-.87,1.56,1.52,1.52,0,0,0,.54,1.26A2.37,2.37,0,0,0,141.11,348.9Z"/><path d="M151.08,350h-1.65V335.66h1.65Z"/><path d="M154.38,340.87c0-.82.39-1.24,1.18-1.24a1.09,1.09,0,0,1,1.22,1.24,1.14,1.14,0,0,1-1.22,1.25,1.24,1.24,0,0,1-.84-.29A1.19,1.19,0,0,1,154.38,340.87Zm0,8.13a1.26,1.26,0,0,1,.31-.93,1.15,1.15,0,0,1,.87-.32,1.21,1.21,0,0,1,.89.32,1.46,1.46,0,0,1,0,1.85,1.38,1.38,0,0,1-1.73,0A1.17,1.17,0,0,1,154.38,349Z"/><path d="M108.56,385.3a4.93,4.93,0,0,0-3.78,1.48,5.67,5.67,0,0,0-1.38,4,5.78,5.78,0,0,0,1.33,4.08,5,5,0,0,0,3.81,1.44,13.8,13.8,0,0,0,3.47-.5v1.37a11.42,11.42,0,0,1-3.72.52,6.61,6.61,0,0,1-5-1.8,7.08,7.08,0,0,1-1.74-5.13,7.58,7.58,0,0,1,.84-3.64,5.74,5.74,0,0,1,2.42-2.41,7.75,7.75,0,0,1,3.73-.85,9.71,9.71,0,0,1,4,.77l-.72,1.35A8.19,8.19,0,0,0,108.56,385.3Z"/><path d="M124.29,392.5a5.29,5.29,0,0,1-1.34,3.85,4.92,4.92,0,0,1-3.7,1.38,5.27,5.27,0,0,1-2.6-.63,4.33,4.33,0,0,1-1.75-1.82,6,6,0,0,1-.61-2.78,5.3,5.3,0,0,1,1.33-3.85,4.93,4.93,0,0,1,3.69-1.37,4.8,4.8,0,0,1,3.64,1.41A5.28,5.28,0,0,1,124.29,392.5Zm-8.29,0a4.5,4.5,0,0,0,.83,2.94,3.5,3.5,0,0,0,4.91,0,4.53,4.53,0,0,0,.84-2.95,4.45,4.45,0,0,0-.84-2.93,3.05,3.05,0,0,0-2.47-1,3,3,0,0,0-2.45,1A4.5,4.5,0,0,0,116,392.5Zm1.9-6.6c.32-.38.66-.84,1-1.38a14.49,14.49,0,0,0,.87-1.41h2v.19a14,14,0,0,1-1.3,1.47,14.6,14.6,0,0,1-1.5,1.36H117.9Z"/><path d="M134.6,396.2h-.09a4,4,0,0,1-3.42,1.53,4.19,4.19,0,0,1-3.32-1.35,5.6,5.6,0,0,1-1.19-3.85,5.76,5.76,0,0,1,1.19-3.87,4.16,4.16,0,0,1,3.32-1.38,4.07,4.07,0,0,1,3.4,1.49h.13l-.07-.73,0-.71v-4.1h1.65v14.32h-1.34Zm-3.3.25a3.14,3.14,0,0,0,2.45-.85,4.11,4.11,0,0,0,.76-2.75v-.32a4.79,4.79,0,0,0-.77-3.06,3.06,3.06,0,0,0-2.46-.91,2.57,2.57,0,0,0-2.22,1,4.86,4.86,0,0,0-.77,2.95,4.71,4.71,0,0,0,.76,2.92A2.66,2.66,0,0,0,131.3,396.45Z"/><path d="M139.52,384.73a1,1,0,0,1,.27-.77,1,1,0,0,1,.7-.24,1.07,1.07,0,0,1,.69.24,1,1,0,0,1,.28.77,1,1,0,0,1-.28.77,1,1,0,0,1-.69.25,1,1,0,0,1-.7-.25A1,1,0,0,1,139.52,384.73Zm1.78,12.82h-1.64V387.46h1.64Z"/><path d="M153.76,387.46v1l-2,.22a3.27,3.27,0,0,1,.5.84,3.13,3.13,0,0,1,.21,1.17,2.89,2.89,0,0,1-1.09,2.37,4.64,4.64,0,0,1-3,.88,5.25,5.25,0,0,1-.91-.07c-.71.34-1.06.78-1.06,1.3a.66.66,0,0,0,.37.61,2.92,2.92,0,0,0,1.26.2H150a4.57,4.57,0,0,1,2.72.69,2.33,2.33,0,0,1,1,2,2.84,2.84,0,0,1-1.45,2.56,8.35,8.35,0,0,1-4.24.88,6.14,6.14,0,0,1-3.29-.74,2.33,2.33,0,0,1-1.16-2.08,2.22,2.22,0,0,1,.64-1.59,3.29,3.29,0,0,1,1.79-.91,1.64,1.64,0,0,1-.7-.55,1.35,1.35,0,0,1-.29-.85,1.57,1.57,0,0,1,.32-1,3.46,3.46,0,0,1,1-.8,2.86,2.86,0,0,1-1.37-1.09,3,3,0,0,1-.53-1.77,3.1,3.1,0,0,1,1.07-2.55,4.61,4.61,0,0,1,3-.9,6.08,6.08,0,0,1,1.54.18Zm-8.69,11.78a1.36,1.36,0,0,0,.75,1.25,4.39,4.39,0,0,0,2.13.42,6.29,6.29,0,0,0,3.08-.58,1.75,1.75,0,0,0,1-1.56,1.19,1.19,0,0,0-.55-1.13,4.55,4.55,0,0,0-2.06-.32h-2a2.7,2.7,0,0,0-1.75.5A1.7,1.7,0,0,0,145.07,399.24Zm.9-8.55a2,2,0,0,0,.64,1.6,2.67,2.67,0,0,0,1.8.55c1.61,0,2.42-.73,2.42-2.18s-.82-2.27-2.45-2.27a2.54,2.54,0,0,0-1.79.58A2.22,2.22,0,0,0,146,390.69Z"/><path d="M165.39,392.5a5.34,5.34,0,0,1-1.34,3.85,4.93,4.93,0,0,1-3.71,1.38,5.26,5.26,0,0,1-2.59-.63,4.33,4.33,0,0,1-1.75-1.82,6,6,0,0,1-.61-2.78,5.3,5.3,0,0,1,1.33-3.85,4.91,4.91,0,0,1,3.69-1.37,4.8,4.8,0,0,1,3.64,1.41A5.28,5.28,0,0,1,165.39,392.5Zm-8.29,0a4.5,4.5,0,0,0,.83,2.94,3,3,0,0,0,2.45,1,3,3,0,0,0,2.46-1,4.53,4.53,0,0,0,.84-2.95,4.45,4.45,0,0,0-.84-2.93,3.06,3.06,0,0,0-2.48-1,3,3,0,0,0-2.44,1A4.5,4.5,0,0,0,157.1,392.5Z"/><path d="M173.47,384.73a1,1,0,0,1,.28-.77,1,1,0,0,1,.7-.24,1,1,0,0,1,.68.24,1,1,0,0,1,.29.77.93.93,0,0,1-1,1,1,1,0,0,1-.7-.25A1,1,0,0,1,173.47,384.73Zm1.79,12.82h-1.65V387.46h1.65Z"/><path d="M186.21,397.55V391a2.49,2.49,0,0,0-.61-1.84,2.58,2.58,0,0,0-1.89-.6,3.28,3.28,0,0,0-2.51.85,4.09,4.09,0,0,0-.79,2.83v5.29h-1.65V387.46h1.34l.27,1.38h.08a3.33,3.33,0,0,1,1.42-1.15,4.83,4.83,0,0,1,2-.41,4.34,4.34,0,0,1,3,.88,3.57,3.57,0,0,1,1,2.81v6.58Z"/><path d="M193.63,397.55l-4.13-10.09h1.77l2.34,6c.53,1.4.84,2.31.94,2.73h.08a17.71,17.71,0,0,1,.69-2c.39-1,1.25-3.25,2.61-6.69h1.76l-4.13,10.09Z"/><path d="M206,397.73a5.21,5.21,0,0,1-3.81-1.36,5,5,0,0,1-1.39-3.78,5.59,5.59,0,0,1,1.29-3.88,4.5,4.5,0,0,1,3.49-1.43,4.29,4.29,0,0,1,3.24,1.24,4.6,4.6,0,0,1,1.19,3.29v1h-7.5a3.78,3.78,0,0,0,1,2.7,3.49,3.49,0,0,0,2.58.92,9.41,9.41,0,0,0,3.48-.68v1.36a9.26,9.26,0,0,1-1.65.5A10.18,10.18,0,0,1,206,397.73Zm-.44-9.17a2.8,2.8,0,0,0-2.1.79,3.49,3.49,0,0,0-.91,2.19h5.69a3.15,3.15,0,0,0-.7-2.21A2.5,2.5,0,0,0,205.58,388.56Z"/><path d="M220.27,397.55V391a2.53,2.53,0,0,0-.6-1.84,2.62,2.62,0,0,0-1.9-.6,3.28,3.28,0,0,0-2.51.85,4.09,4.09,0,0,0-.79,2.83v5.29h-1.65V387.46h1.34l.27,1.38h.08a3.33,3.33,0,0,1,1.42-1.15,4.83,4.83,0,0,1,2-.41,4.33,4.33,0,0,1,3,.88,3.57,3.57,0,0,1,1,2.81v6.58Z"/><path d="M228.83,396.47a5.73,5.73,0,0,0,.84-.06c.27,0,.49-.08.65-.12v1.17a3.14,3.14,0,0,1-.79.19,5.5,5.5,0,0,1-.94.08c-2.11,0-3.16-1-3.16-3.08v-6h-1.56v-.74l1.56-.63.7-2.16h1v2.34h3.16v1.19h-3.16v5.94a1.89,1.89,0,0,0,.47,1.39A1.66,1.66,0,0,0,228.83,396.47Z"/><path d="M239.21,397.55l-.33-1.44h-.08a4.48,4.48,0,0,1-1.62,1.29,5.37,5.37,0,0,1-2,.33,3.8,3.8,0,0,1-2.54-.77,2.73,2.73,0,0,1-.92-2.2c0-2,1.76-3.1,5.28-3.2l1.84-.06v-.62a2.43,2.43,0,0,0-.55-1.76,2.38,2.38,0,0,0-1.76-.56,7.56,7.56,0,0,0-3.08.77l-.51-1.17a8.05,8.05,0,0,1,1.77-.63,7.88,7.88,0,0,1,1.92-.23,4.35,4.35,0,0,1,2.89.8,3.2,3.2,0,0,1,.93,2.56v6.89Zm-3.72-1.08a3.54,3.54,0,0,0,2.42-.78,2.8,2.8,0,0,0,.88-2.19v-.91l-1.65.06a6.4,6.4,0,0,0-2.84.57,1.67,1.67,0,0,0-.87,1.56A1.52,1.52,0,0,0,234,396,2.37,2.37,0,0,0,235.49,396.47Z"/><path d="M248.78,387.28a6.43,6.43,0,0,1,1.3.11l-.23,1.42a5.45,5.45,0,0,0-1.19-.14,3,3,0,0,0-2.26,1,3.49,3.49,0,0,0-.94,2.48v5.41h-1.65V387.46h1.36l.19,1.87h.08a4.64,4.64,0,0,1,1.46-1.52A3.54,3.54,0,0,1,248.78,387.28Z"/><path d="M252,384.73a1,1,0,0,1,.28-.77,1,1,0,0,1,.69-.24,1,1,0,0,1,.69.24,1,1,0,0,1,.29.77.93.93,0,0,1-1,1,.92.92,0,0,1-1-1Zm1.79,12.82h-1.65V387.46h1.65Z"/><path d="M266.71,392.5a5.34,5.34,0,0,1-1.34,3.85,4.94,4.94,0,0,1-3.71,1.38,5.23,5.23,0,0,1-2.59-.63,4.27,4.27,0,0,1-1.75-1.82,6,6,0,0,1-.62-2.78,5.34,5.34,0,0,1,1.33-3.85,4.94,4.94,0,0,1,3.7-1.37,4.79,4.79,0,0,1,3.63,1.41A5.25,5.25,0,0,1,266.71,392.5Zm-8.3,0a4.5,4.5,0,0,0,.84,2.94,3,3,0,0,0,2.45,1,3,3,0,0,0,2.46-1,4.53,4.53,0,0,0,.84-2.95,4.45,4.45,0,0,0-.84-2.93,3.08,3.08,0,0,0-2.48-1,3,3,0,0,0-2.44,1A4.5,4.5,0,0,0,258.41,392.5Z"/><path d="M269.36,388.45c0-.83.39-1.25,1.17-1.25a1.1,1.1,0,0,1,1.23,1.25,1.23,1.23,0,0,1-.33.92,1.25,1.25,0,0,1-.9.32,1.28,1.28,0,0,1-.84-.29A1.2,1.2,0,0,1,269.36,388.45Zm0,8.12a1.3,1.3,0,0,1,.3-.93,1.18,1.18,0,0,1,.87-.32,1.25,1.25,0,1,1,0,2.5,1.28,1.28,0,0,1-.84-.29A1.24,1.24,0,0,1,269.36,396.57Z"/><path d="M110.44,445.1h-8.1V431.65h8.1V433H104v4.33h6v1.38h-6v5h6.41Z"/><path d="M120.42,442.35a2.46,2.46,0,0,1-1.13,2.17,5.66,5.66,0,0,1-3.18.77,7.28,7.28,0,0,1-3.38-.64v-1.41a8.75,8.75,0,0,0,1.68.58,7.65,7.65,0,0,0,1.74.21,4.21,4.21,0,0,0,2-.38,1.27,1.27,0,0,0,.15-2.18,9.06,9.06,0,0,0-2.15-1,12.31,12.31,0,0,1-2.17-.91,2.93,2.93,0,0,1-.95-.89,2.18,2.18,0,0,1-.31-1.19,2.21,2.21,0,0,1,1.08-1.94,5.3,5.3,0,0,1,3-.72,9.16,9.16,0,0,1,3.44.67l-.59,1.24a8.35,8.35,0,0,0-3-.63,3.75,3.75,0,0,0-1.77.34,1.05,1.05,0,0,0-.59.94,1.08,1.08,0,0,0,.22.69,2.33,2.33,0,0,0,.72.55,16.49,16.49,0,0,0,1.91.74,7.48,7.48,0,0,1,2.62,1.32A2.22,2.22,0,0,1,120.42,442.35Z"/><path d="M128.15,445.29a5,5,0,0,1-1.94-.36,3.72,3.72,0,0,1-1.48-1.12h-.12a12.38,12.38,0,0,1,.12,1.67v4.15h-1.65V435h1.34l.23,1.38h.08a3.82,3.82,0,0,1,1.48-1.2,4.9,4.9,0,0,1,1.94-.37,4.17,4.17,0,0,1,3.34,1.37,6.84,6.84,0,0,1,0,7.71A4.16,4.16,0,0,1,128.15,445.29Zm-.24-9.16a3,3,0,0,0-2.41.86,4.13,4.13,0,0,0-.77,2.72v.34a4.75,4.75,0,0,0,.77,3A3,3,0,0,0,128,444a2.6,2.6,0,0,0,2.21-1.06A4.76,4.76,0,0,0,131,440a4.58,4.58,0,0,0-.8-2.89A2.71,2.71,0,0,0,127.91,436.13Z"/><path d="M140.15,445.29a5.21,5.21,0,0,1-3.81-1.36,5.05,5.05,0,0,1-1.39-3.79,5.58,5.58,0,0,1,1.29-3.87,4.47,4.47,0,0,1,3.49-1.44,4.26,4.26,0,0,1,3.23,1.25,4.55,4.55,0,0,1,1.2,3.29v1h-7.51a3.84,3.84,0,0,0,1,2.69,3.49,3.49,0,0,0,2.59.92,9.29,9.29,0,0,0,3.48-.68v1.37a9.26,9.26,0,0,1-1.65.5A10.18,10.18,0,0,1,140.15,445.29Zm-.44-9.18a2.84,2.84,0,0,0-2.1.79,3.56,3.56,0,0,0-.92,2.19h5.7a3.15,3.15,0,0,0-.7-2.21A2.53,2.53,0,0,0,139.71,436.11Z"/><path d="M151.3,445.29a4.82,4.82,0,0,1-3.66-1.35,5.26,5.26,0,0,1-1.3-3.81,5.45,5.45,0,0,1,1.32-3.92,4.94,4.94,0,0,1,3.75-1.38A8.36,8.36,0,0,1,153,435a5.36,5.36,0,0,1,1.23.37l-.5,1.3a8.05,8.05,0,0,0-1.2-.34,5.61,5.61,0,0,0-1.14-.13c-2.21,0-3.32,1.3-3.32,3.92a4.4,4.4,0,0,0,.81,2.85,2.92,2.92,0,0,0,2.4,1,7.84,7.84,0,0,0,2.79-.54v1.35A6.33,6.33,0,0,1,151.3,445.29Z"/><path d="M156.48,432.28a1,1,0,0,1,.28-.77,1,1,0,0,1,.69-.24,1,1,0,0,1,.69.25,1,1,0,0,1,.28.76,1,1,0,0,1-.28.77,1,1,0,0,1-.69.26.93.93,0,0,1-1-1Zm1.79,12.82h-1.65V435h1.65Z"/><path d="M166.71,436.2h-2.77v8.9h-1.65v-8.9h-1.95v-.69l1.95-.55v-.56q0-3.72,3.51-3.72a8,8,0,0,1,2,.32l-.43,1.23a5.91,5.91,0,0,0-1.63-.29,1.66,1.66,0,0,0-1.38.58,3,3,0,0,0-.45,1.84V435h2.77Zm1.85-3.92a1,1,0,0,1,.28-.77,1,1,0,0,1,.69-.24,1,1,0,0,1,.69.25,1,1,0,0,1,.29.76,1,1,0,0,1-.29.77,1,1,0,0,1-.69.26,1,1,0,0,1-.69-.26A1,1,0,0,1,168.56,432.28Zm1.79,12.82H168.7V435h1.65Z"/><path d="M178.24,445.29a4.82,4.82,0,0,1-3.66-1.35,5.26,5.26,0,0,1-1.3-3.81,5.45,5.45,0,0,1,1.32-3.92,4.94,4.94,0,0,1,3.75-1.38,8.36,8.36,0,0,1,1.57.16,5.36,5.36,0,0,1,1.23.37l-.5,1.3a8.05,8.05,0,0,0-1.2-.34,5.61,5.61,0,0,0-1.14-.13c-2.21,0-3.32,1.3-3.32,3.92a4.4,4.4,0,0,0,.81,2.85,2.92,2.92,0,0,0,2.4,1,7.84,7.84,0,0,0,2.79-.54v1.35A6.33,6.33,0,0,1,178.24,445.29Z"/><path d="M190.25,445.1l-.32-1.43h-.08a4.55,4.55,0,0,1-1.63,1.28,5.16,5.16,0,0,1-2,.34,3.85,3.85,0,0,1-2.54-.77,2.73,2.73,0,0,1-.92-2.2q0-3.06,5.28-3.21l1.85-.05v-.63a2.42,2.42,0,0,0-.56-1.75,2.34,2.34,0,0,0-1.76-.57,7.59,7.59,0,0,0-3.08.78l-.51-1.17a8.06,8.06,0,0,1,1.77-.64,8.4,8.4,0,0,1,1.92-.23,4.41,4.41,0,0,1,2.89.8,3.23,3.23,0,0,1,.94,2.57v6.88ZM186.53,444a3.54,3.54,0,0,0,2.42-.78,2.82,2.82,0,0,0,.88-2.19v-.92l-1.65.07a6.42,6.42,0,0,0-2.84.56,1.69,1.69,0,0,0-.87,1.56,1.53,1.53,0,0,0,.54,1.27A2.43,2.43,0,0,0,186.53,444Z"/><path d="M199.21,445.29a4.86,4.86,0,0,1-3.67-1.35,5.29,5.29,0,0,1-1.29-3.81,5.49,5.49,0,0,1,1.31-3.92,4.94,4.94,0,0,1,3.75-1.38,8.28,8.28,0,0,1,1.57.16,5.3,5.3,0,0,1,1.24.37l-.51,1.3a7.59,7.59,0,0,0-1.19-.34,5.61,5.61,0,0,0-1.14-.13c-2.22,0-3.32,1.3-3.32,3.92a4.4,4.4,0,0,0,.81,2.85,2.92,2.92,0,0,0,2.4,1,7.93,7.93,0,0,0,2.79-.54v1.35A6.36,6.36,0,0,1,199.21,445.29Z"/><path d="M204.38,432.28a1,1,0,0,1,.28-.77,1,1,0,0,1,.7-.24,1,1,0,0,1,.68.25,1,1,0,0,1,.29.76,1,1,0,0,1-.29.77,1,1,0,0,1-.68.26.93.93,0,0,1-1-1Zm1.79,12.82h-1.65V435h1.65Z"/><path d="M219.11,440.05a5.3,5.3,0,0,1-1.34,3.85,4.91,4.91,0,0,1-3.71,1.39,5.13,5.13,0,0,1-2.59-.64,4.27,4.27,0,0,1-1.75-1.82,6,6,0,0,1-.62-2.78,5.33,5.33,0,0,1,1.33-3.84,4.9,4.9,0,0,1,3.7-1.38,4.78,4.78,0,0,1,3.63,1.41A5.28,5.28,0,0,1,219.11,440.05Zm-8.3,0a4.53,4.53,0,0,0,.84,2.95,3,3,0,0,0,2.45,1,3,3,0,0,0,2.46-1,4.49,4.49,0,0,0,.84-2.95,4.44,4.44,0,0,0-.84-2.92,3,3,0,0,0-2.48-1,3,3,0,0,0-2.44,1A4.45,4.45,0,0,0,210.81,440.05Z"/><path d="M229.45,445.1v-6.52a2.52,2.52,0,0,0-.6-1.84,2.58,2.58,0,0,0-1.9-.61,3.26,3.26,0,0,0-2.5.86,4.08,4.08,0,0,0-.8,2.82v5.29H222V435h1.34l.27,1.38h.08a3.35,3.35,0,0,1,1.42-1.16,5,5,0,0,1,2-.41,4.38,4.38,0,0,1,3,.88,3.6,3.6,0,0,1,1,2.81v6.58Z"/><path d="M239.09,445.29a5.21,5.21,0,0,1-3.81-1.36,5.05,5.05,0,0,1-1.39-3.79,5.58,5.58,0,0,1,1.29-3.87,4.47,4.47,0,0,1,3.49-1.44,4.26,4.26,0,0,1,3.23,1.25,4.55,4.55,0,0,1,1.2,3.29v1h-7.51a3.84,3.84,0,0,0,1,2.69,3.49,3.49,0,0,0,2.59.92,9.29,9.29,0,0,0,3.48-.68v1.37a9.26,9.26,0,0,1-1.65.5A10.18,10.18,0,0,1,239.09,445.29Zm-.44-9.18a2.84,2.84,0,0,0-2.1.79,3.56,3.56,0,0,0-.92,2.19h5.7a3.15,3.15,0,0,0-.7-2.21A2.53,2.53,0,0,0,238.65,436.11Z"/><path d="M252.91,442.35a2.44,2.44,0,0,1-1.13,2.17,5.62,5.62,0,0,1-3.18.77,7.31,7.31,0,0,1-3.38-.64v-1.41a9.09,9.09,0,0,0,1.69.58,7.57,7.57,0,0,0,1.73.21,4.29,4.29,0,0,0,2-.38,1.26,1.26,0,0,0,.69-1.17,1.24,1.24,0,0,0-.55-1,8.86,8.86,0,0,0-2.15-1,12.47,12.47,0,0,1-2.16-.91,2.74,2.74,0,0,1-1-.89,2.3,2.3,0,0,1,.77-3.13,5.3,5.3,0,0,1,3-.72,9.16,9.16,0,0,1,3.44.67l-.59,1.24a8.35,8.35,0,0,0-3-.63,3.75,3.75,0,0,0-1.77.34,1,1,0,0,0-.6.94,1.08,1.08,0,0,0,.23.69,2.33,2.33,0,0,0,.72.55,16.11,16.11,0,0,0,1.9.74,7.3,7.3,0,0,1,2.62,1.32A2.19,2.19,0,0,1,252.91,442.35Z"/><path d="M264.42,444a6,6,0,0,0,.85-.06,4.43,4.43,0,0,0,.64-.13V445a3.07,3.07,0,0,1-.79.2,6.75,6.75,0,0,1-.94.08c-2.1,0-3.16-1-3.16-3.08v-6h-1.56v-.73l1.56-.64.7-2.15h.95V435h3.16v1.18h-3.16v5.94a1.94,1.94,0,0,0,.47,1.4A1.67,1.67,0,0,0,264.42,444Z"/><path d="M272.69,445.29a5.21,5.21,0,0,1-3.81-1.36,5.06,5.06,0,0,1-1.4-3.79,5.54,5.54,0,0,1,1.3-3.87,4.44,4.44,0,0,1,3.48-1.44,4.26,4.26,0,0,1,3.24,1.25,4.58,4.58,0,0,1,1.19,3.29v1h-7.5a3.8,3.8,0,0,0,1,2.69,3.46,3.46,0,0,0,2.59.92,9.29,9.29,0,0,0,3.48-.68v1.37a9.61,9.61,0,0,1-1.66.5A10.14,10.14,0,0,1,272.69,445.29Zm-.45-9.18a2.84,2.84,0,0,0-2.09.79,3.5,3.5,0,0,0-.92,2.19h5.69a3.2,3.2,0,0,0-.69-2.21A2.57,2.57,0,0,0,272.24,436.11ZM271,433.45c.32-.38.66-.84,1-1.38s.65-1,.87-1.41h2v.2a12.91,12.91,0,0,1-1.3,1.47,13.5,13.5,0,0,1-1.5,1.35H271Z"/><path d="M283.92,445.29a4.82,4.82,0,0,1-3.66-1.35,5.26,5.26,0,0,1-1.3-3.81,5.45,5.45,0,0,1,1.32-3.92,4.91,4.91,0,0,1,3.75-1.38,8.45,8.45,0,0,1,1.57.16,5.36,5.36,0,0,1,1.23.37l-.51,1.3a7.59,7.59,0,0,0-1.19-.34,5.61,5.61,0,0,0-1.14-.13c-2.22,0-3.32,1.3-3.32,3.92a4.4,4.4,0,0,0,.81,2.85,2.92,2.92,0,0,0,2.4,1,7.84,7.84,0,0,0,2.79-.54v1.35A6.36,6.36,0,0,1,283.92,445.29Z"/><path d="M296.69,445.1v-6.52a2.52,2.52,0,0,0-.61-1.84,2.57,2.57,0,0,0-1.9-.61,3.26,3.26,0,0,0-2.5.86,4.08,4.08,0,0,0-.8,2.82v5.29h-1.65V435h1.35l.26,1.38h.08a3.35,3.35,0,0,1,1.42-1.16,5,5,0,0,1,2-.41,4.38,4.38,0,0,1,3,.88,3.6,3.6,0,0,1,1,2.81v6.58Z"/><path d="M301.58,432.28a1,1,0,0,1,.28-.77,1,1,0,0,1,.7-.24,1,1,0,0,1,.68.25.92.92,0,0,1,.29.76.94.94,0,0,1-.29.77,1,1,0,0,1-.68.26.93.93,0,0,1-1-1Zm1.79,12.82h-1.65V435h1.65Z"/><path d="M311.26,445.29a4.85,4.85,0,0,1-3.66-1.35,5.29,5.29,0,0,1-1.29-3.81,5.45,5.45,0,0,1,1.31-3.92,4.94,4.94,0,0,1,3.75-1.38,8.28,8.28,0,0,1,1.57.16,5.3,5.3,0,0,1,1.24.37l-.51,1.3a7.91,7.91,0,0,0-1.19-.34,5.62,5.62,0,0,0-1.15-.13c-2.21,0-3.31,1.3-3.31,3.92a4.4,4.4,0,0,0,.8,2.85,2.92,2.92,0,0,0,2.4,1,7.94,7.94,0,0,0,2.8-.54v1.35A6.37,6.37,0,0,1,311.26,445.29Z"/><path d="M323.28,445.1l-.33-1.43h-.08a4.44,4.44,0,0,1-1.62,1.28,5.22,5.22,0,0,1-2,.34,3.87,3.87,0,0,1-2.54-.77,2.73,2.73,0,0,1-.91-2.2c0-2,1.75-3.11,5.27-3.21l1.85-.05v-.63a2.42,2.42,0,0,0-.55-1.75,2.38,2.38,0,0,0-1.77-.57,7.63,7.63,0,0,0-3.08.78l-.5-1.17a7.8,7.8,0,0,1,1.76-.64,8.4,8.4,0,0,1,1.92-.23,4.41,4.41,0,0,1,2.89.8,3.2,3.2,0,0,1,.94,2.57v6.88ZM319.55,444a3.52,3.52,0,0,0,2.42-.78,2.79,2.79,0,0,0,.88-2.19v-.92l-1.65.07a6.45,6.45,0,0,0-2.84.56,1.69,1.69,0,0,0-.87,1.56,1.51,1.51,0,0,0,.55,1.27A2.4,2.4,0,0,0,319.55,444Z"/><path d="M334.9,442.35a2.46,2.46,0,0,1-1.13,2.17,5.66,5.66,0,0,1-3.18.77,7.31,7.31,0,0,1-3.38-.64v-1.41a8.85,8.85,0,0,0,1.69.58,7.57,7.57,0,0,0,1.73.21,4.29,4.29,0,0,0,2-.38,1.26,1.26,0,0,0,.69-1.17,1.24,1.24,0,0,0-.55-1,8.86,8.86,0,0,0-2.15-1,12.47,12.47,0,0,1-2.16-.91,2.87,2.87,0,0,1-1-.89,2.27,2.27,0,0,1-.31-1.19,2.21,2.21,0,0,1,1.08-1.94,5.36,5.36,0,0,1,3-.72,9.11,9.11,0,0,1,3.43.67l-.58,1.24a8.44,8.44,0,0,0-3-.63,3.72,3.72,0,0,0-1.77.34,1,1,0,0,0-.6.94,1.08,1.08,0,0,0,.23.69,2.11,2.11,0,0,0,.72.55,16.11,16.11,0,0,0,1.9.74,7.3,7.3,0,0,1,2.62,1.32A2.19,2.19,0,0,1,334.9,442.35Z"/><path d="M337.33,444.13a1.34,1.34,0,0,1,.3-.94,1.14,1.14,0,0,1,.87-.31,1.25,1.25,0,0,1,.9.31,1.3,1.3,0,0,1,.32.94,1.13,1.13,0,0,1-1.22,1.24,1.24,1.24,0,0,1-.84-.29A1.2,1.2,0,0,1,337.33,444.13Z"/><path d="M120.77,486.48a2.33,2.33,0,0,1,.56-1.7,2.58,2.58,0,0,1,3.25,0,2.28,2.28,0,0,1,.58,1.71,2.35,2.35,0,0,1-.57,1.69,2.18,2.18,0,0,1-1.63.59,2.14,2.14,0,0,1-1.63-.6A2.4,2.4,0,0,1,120.77,486.48Z"/><path d="M146.94,493.36l-1.8-4.28h-5.83l-1.79,4.28h-1.7l5.74-13.51H143l5.71,13.51Zm-2.33-5.69-1.69-4.17c-.22-.52-.44-1.17-.68-1.94a15.28,15.28,0,0,1-.62,1.94l-1.71,4.17Z"/><path d="M152.05,493.36H150.4V479h1.65Z"/><path d="M159.11,492.28a5.73,5.73,0,0,0,.84-.06c.27,0,.49-.08.65-.12v1.17a3.07,3.07,0,0,1-.79.2,6.75,6.75,0,0,1-.94.08q-3.17,0-3.16-3.09v-6h-1.56v-.74l1.56-.63.69-2.15h1v2.33h3.16v1.19h-3.16v5.94a1.91,1.91,0,0,0,.47,1.4A1.69,1.69,0,0,0,159.11,492.28Z"/><path d="M164.34,483.27v6.55a2.53,2.53,0,0,0,.61,1.84,2.61,2.61,0,0,0,1.9.61,3.23,3.23,0,0,0,2.5-.87,4.17,4.17,0,0,0,.79-2.82v-5.31h1.65v10.09h-1.36l-.24-1.35h-.09a3.19,3.19,0,0,1-1.41,1.14,5.1,5.1,0,0,1-2.05.4,4.4,4.4,0,0,1-3-.88,3.54,3.54,0,0,1-1-2.8v-6.6Z"/><path d="M180.25,483.09a7.17,7.17,0,0,1,1.3.11l-.22,1.42a6.24,6.24,0,0,0-1.2-.14,3,3,0,0,0-2.26,1,3.51,3.51,0,0,0-.94,2.48v5.41h-1.65V483.27h1.37l.18,1.87h.08a4.76,4.76,0,0,1,1.47-1.52A3.48,3.48,0,0,1,180.25,483.09Z"/><path d="M190.29,493.36l-.33-1.43h-.08a4.44,4.44,0,0,1-1.62,1.28,5.41,5.41,0,0,1-2,.34,3.77,3.77,0,0,1-2.53-.78,2.69,2.69,0,0,1-.92-2.2q0-3,5.27-3.2l1.85-.06v-.62a2.44,2.44,0,0,0-.55-1.76,2.41,2.41,0,0,0-1.76-.56,7.69,7.69,0,0,0-3.08.77L184,484a8.49,8.49,0,0,1,3.69-.86,4.38,4.38,0,0,1,2.88.8,3.18,3.18,0,0,1,.94,2.57v6.88Zm-3.73-1.08a3.5,3.5,0,0,0,2.42-.78,2.76,2.76,0,0,0,.88-2.19v-.91l-1.65.07a6.4,6.4,0,0,0-2.83.56,1.69,1.69,0,0,0-.87,1.56,1.52,1.52,0,0,0,.54,1.26A2.34,2.34,0,0,0,186.56,492.28Z"/><path d="M194.67,484.26c0-.83.39-1.24,1.17-1.24a1.09,1.09,0,0,1,1.23,1.24,1.23,1.23,0,0,1-.33.92,1.25,1.25,0,0,1-.9.32,1.28,1.28,0,0,1-.84-.29A1.2,1.2,0,0,1,194.67,484.26Zm0,8.13a1.31,1.31,0,0,1,.3-.94,1.18,1.18,0,0,1,.87-.32,1.22,1.22,0,0,1,.9.32,1.24,1.24,0,0,1,.33.94,1.13,1.13,0,0,1-1.23,1.24,1.28,1.28,0,0,1-.84-.29A1.2,1.2,0,0,1,194.67,492.39Z"/><path d="M120.77,534.88a2.33,2.33,0,0,1,.56-1.7,2.58,2.58,0,0,1,3.25,0,2.28,2.28,0,0,1,.58,1.71,2.31,2.31,0,0,1-.57,1.68,2.51,2.51,0,0,1-3.26,0A2.42,2.42,0,0,1,120.77,534.88Z"/><path d="M147,532.22a3.66,3.66,0,0,1-1.5,3.15,7.24,7.24,0,0,1-4.31,1.1H139.5v5.29h-1.69V528.3h3.77Q147,528.3,147,532.22Zm-7.52,2.9H141a6,6,0,0,0,3.25-.67,2.4,2.4,0,0,0,1-2.15,2.27,2.27,0,0,0-.95-2,5.21,5.21,0,0,0-2.94-.65H139.5Z"/><path d="M154.4,541.94a5.21,5.21,0,0,1-3.81-1.36,5,5,0,0,1-1.4-3.78,5.55,5.55,0,0,1,1.3-3.88,4.47,4.47,0,0,1,3.48-1.43,4.26,4.26,0,0,1,3.24,1.25A4.57,4.57,0,0,1,158.4,536v1h-7.5a3.76,3.76,0,0,0,1,2.7,3.5,3.5,0,0,0,2.59.92,9.4,9.4,0,0,0,3.47-.68v1.36a9.26,9.26,0,0,1-1.65.5A10.14,10.14,0,0,1,154.4,541.94Zm-.45-9.17a2.78,2.78,0,0,0-2.09.79,3.5,3.5,0,0,0-.92,2.19h5.69a3.2,3.2,0,0,0-.69-2.21A2.53,2.53,0,0,0,154,532.77Z"/><path d="M168.22,539a2.46,2.46,0,0,1-1.14,2.17,5.61,5.61,0,0,1-3.17.76,7.4,7.4,0,0,1-3.38-.63v-1.42a8.12,8.12,0,0,0,1.68.58,7.65,7.65,0,0,0,1.74.21,4.09,4.09,0,0,0,2-.38,1.23,1.23,0,0,0,.7-1.16,1.25,1.25,0,0,0-.55-1,9.06,9.06,0,0,0-2.15-1,12.16,12.16,0,0,1-2.17-.92,2.91,2.91,0,0,1-.95-.88,2.2,2.2,0,0,1-.31-1.19,2.23,2.23,0,0,1,1.08-1.95,5.39,5.39,0,0,1,3-.71,9.34,9.34,0,0,1,3.44.66l-.59,1.24a8.54,8.54,0,0,0-3-.62,3.63,3.63,0,0,0-1.77.34,1.05,1.05,0,0,0-.59.94,1.08,1.08,0,0,0,.22.69,2.17,2.17,0,0,0,.72.54,18,18,0,0,0,1.91.75,7.33,7.33,0,0,1,2.62,1.31A2.25,2.25,0,0,1,168.22,539Z"/><path d="M180.28,536.71a5.32,5.32,0,0,1-1.34,3.85,4.94,4.94,0,0,1-3.71,1.38,5.23,5.23,0,0,1-2.59-.63,4.27,4.27,0,0,1-1.75-1.82,6,6,0,0,1-.62-2.78,5.3,5.3,0,0,1,1.34-3.85,4.91,4.91,0,0,1,3.69-1.37,4.76,4.76,0,0,1,3.63,1.41A5.28,5.28,0,0,1,180.28,536.71Zm-8.3,0a4.48,4.48,0,0,0,.84,2.94,3,3,0,0,0,2.45,1,3,3,0,0,0,2.46-1,4.53,4.53,0,0,0,.84-2.95,4.45,4.45,0,0,0-.84-2.93,3.06,3.06,0,0,0-2.48-1,3,3,0,0,0-2.44,1A4.5,4.5,0,0,0,172,536.71Z"/><path d="M182.93,532.66c0-.83.39-1.25,1.18-1.25a1.09,1.09,0,0,1,1.22,1.25,1.26,1.26,0,0,1-2.06,1A1.17,1.17,0,0,1,182.93,532.66Zm0,8.12a1.26,1.26,0,0,1,.31-.93,1.15,1.15,0,0,1,.87-.32,1.12,1.12,0,0,1,1.22,1.25,1.14,1.14,0,0,1-1.22,1.25,1.24,1.24,0,0,1-.84-.29A1.19,1.19,0,0,1,182.93,540.78Z"/><path d="M120.77,583.12a2.33,2.33,0,0,1,.56-1.7,2.58,2.58,0,0,1,3.25,0,2.28,2.28,0,0,1,.58,1.71,2.35,2.35,0,0,1-.57,1.69,2.18,2.18,0,0,1-1.63.59,2.14,2.14,0,0,1-1.63-.6A2.42,2.42,0,0,1,120.77,583.12Z"/><path d="M144,577.75a4.93,4.93,0,0,0-3.78,1.48,5.67,5.67,0,0,0-1.38,4,5.78,5.78,0,0,0,1.33,4.08,4.94,4.94,0,0,0,3.81,1.44,13.8,13.8,0,0,0,3.47-.5v1.37a11.49,11.49,0,0,1-3.73.52,6.58,6.58,0,0,1-4.95-1.8,7.08,7.08,0,0,1-1.74-5.13,7.58,7.58,0,0,1,.84-3.64,5.8,5.8,0,0,1,2.42-2.41,7.75,7.75,0,0,1,3.73-.85,9.71,9.71,0,0,1,4,.77l-.72,1.35A8.19,8.19,0,0,0,144,577.75Z"/><path d="M159.76,585a5.32,5.32,0,0,1-1.34,3.85,4.93,4.93,0,0,1-3.71,1.38,5.26,5.26,0,0,1-2.59-.63,4.33,4.33,0,0,1-1.75-1.82,6,6,0,0,1-.61-2.78,5.3,5.3,0,0,1,1.33-3.85,4.91,4.91,0,0,1,3.69-1.37,4.8,4.8,0,0,1,3.64,1.41A5.32,5.32,0,0,1,159.76,585Zm-8.3,0a4.48,4.48,0,0,0,.84,2.94,3,3,0,0,0,2.45,1,3,3,0,0,0,2.46-1,4.53,4.53,0,0,0,.84-2.95,4.45,4.45,0,0,0-.84-2.93,3.06,3.06,0,0,0-2.48-1,3,3,0,0,0-2.44,1A4.5,4.5,0,0,0,151.46,585Z"/><path d="M164.3,590h-1.65V575.68h1.65Z"/><path d="M177.24,585a5.32,5.32,0,0,1-1.34,3.85,4.93,4.93,0,0,1-3.71,1.38,5.26,5.26,0,0,1-2.59-.63,4.33,4.33,0,0,1-1.75-1.82,6,6,0,0,1-.61-2.78,5.3,5.3,0,0,1,1.33-3.85,4.91,4.91,0,0,1,3.69-1.37,4.8,4.8,0,0,1,3.64,1.41A5.32,5.32,0,0,1,177.24,585Zm-8.3,0a4.48,4.48,0,0,0,.84,2.94,3,3,0,0,0,2.45,1,3,3,0,0,0,2.46-1,4.53,4.53,0,0,0,.84-2.95,4.45,4.45,0,0,0-.84-2.93,3.06,3.06,0,0,0-2.48-1,3,3,0,0,0-2.44,1A4.5,4.5,0,0,0,168.94,585Z"/><path d="M185.1,579.73a6.43,6.43,0,0,1,1.3.11l-.23,1.42a5.45,5.45,0,0,0-1.19-.14,3,3,0,0,0-2.26,1,3.49,3.49,0,0,0-.94,2.48V590h-1.65V579.91h1.36l.19,1.87h.08a4.64,4.64,0,0,1,1.46-1.52A3.54,3.54,0,0,1,185.1,579.73Z"/><path d="M188.2,580.9c0-.83.39-1.25,1.17-1.25a1.1,1.1,0,0,1,1.23,1.25,1.23,1.23,0,0,1-.33.92,1.25,1.25,0,0,1-.9.32,1.28,1.28,0,0,1-.84-.29A1.2,1.2,0,0,1,188.2,580.9Zm0,8.12a1.3,1.3,0,0,1,.3-.93,1.18,1.18,0,0,1,.87-.32,1.25,1.25,0,1,1,0,2.5,1.28,1.28,0,0,1-.84-.29A1.23,1.23,0,0,1,188.2,589Z"/><path d="M120.77,631.5a2.33,2.33,0,0,1,.56-1.7,2.58,2.58,0,0,1,3.25,0,2.28,2.28,0,0,1,.58,1.71,2.35,2.35,0,0,1-.57,1.69,2.18,2.18,0,0,1-1.63.59,2.14,2.14,0,0,1-1.63-.6A2.42,2.42,0,0,1,120.77,631.5Z"/><path d="M144.24,638.38l-4.93-11.93h-.08a33,33,0,0,1,.14,3.37v8.56h-1.56V624.93h2.55L145,636H145l4.64-11.09h2.52v13.45h-1.69v-8.67c0-1,.05-2.07.14-3.24h-.08l-5,11.91Z"/><path d="M162.65,638.38l-.32-1.43h-.08a4.55,4.55,0,0,1-1.63,1.28,5.36,5.36,0,0,1-2,.34,3.8,3.8,0,0,1-2.54-.78,2.72,2.72,0,0,1-.92-2.2q0-3,5.28-3.2l1.85-.06v-.62a2.49,2.49,0,0,0-.55-1.76,2.42,2.42,0,0,0-1.77-.56,7.72,7.72,0,0,0-3.08.77l-.51-1.17a8.05,8.05,0,0,1,1.77-.63,7.88,7.88,0,0,1,1.92-.23,4.35,4.35,0,0,1,2.89.8,3.22,3.22,0,0,1,.94,2.57v6.88Zm-3.72-1.08a3.52,3.52,0,0,0,2.42-.78,2.8,2.8,0,0,0,.88-2.19v-.91l-1.65.06a6.58,6.58,0,0,0-2.84.57,1.69,1.69,0,0,0-.87,1.56,1.52,1.52,0,0,0,.54,1.26A2.37,2.37,0,0,0,158.93,637.3Z"/><path d="M170.77,637.3a5.87,5.87,0,0,0,.85-.06c.27,0,.48-.08.64-.12v1.17a3.56,3.56,0,0,1-.79.2,6.62,6.62,0,0,1-.94.08c-2.1,0-3.16-1-3.16-3.09v-6h-1.56v-.74l1.56-.63.7-2.15h1v2.33h3.16v1.19H169v5.94a2,2,0,0,0,.47,1.4A1.7,1.7,0,0,0,170.77,637.3Z"/><path d="M179.06,638.57a5.22,5.22,0,0,1-3.81-1.37,5,5,0,0,1-1.4-3.78,5.55,5.55,0,0,1,1.3-3.87,4.45,4.45,0,0,1,3.48-1.44,4.23,4.23,0,0,1,3.24,1.25,4.52,4.52,0,0,1,1.19,3.29v1h-7.5a3.85,3.85,0,0,0,1,2.7,3.52,3.52,0,0,0,2.59.92,9.49,9.49,0,0,0,3.48-.68v1.36a9.35,9.35,0,0,1-1.66.5A10,10,0,0,1,179.06,638.57Zm-.45-9.18a2.8,2.8,0,0,0-2.09.79,3.56,3.56,0,0,0-.92,2.19h5.7a3.2,3.2,0,0,0-.7-2.21A2.52,2.52,0,0,0,178.61,629.39Z"/><path d="M190.83,628.11a7.33,7.33,0,0,1,1.3.11l-.23,1.42a6.23,6.23,0,0,0-1.19-.14,3,3,0,0,0-2.26,1,3.47,3.47,0,0,0-.94,2.48v5.41h-1.65V628.29h1.36l.19,1.87h.08a4.63,4.63,0,0,1,1.46-1.52A3.51,3.51,0,0,1,190.83,628.11Z"/><path d="M194,625.56a1,1,0,0,1,.28-.77,1,1,0,0,1,.7-.24,1,1,0,0,1,.68.25.92.92,0,0,1,.29.76,1,1,0,0,1-.29.77,1,1,0,0,1-.68.25,1,1,0,0,1-.7-.25A1,1,0,0,1,194,625.56Zm1.79,12.82h-1.65V628.29h1.65Z"/><path d="M206.05,638.38l-.33-1.43h-.08a4.44,4.44,0,0,1-1.62,1.28,5.41,5.41,0,0,1-2,.34,3.77,3.77,0,0,1-2.53-.78,2.69,2.69,0,0,1-.92-2.2q0-3,5.27-3.2l1.85-.06v-.62a2.44,2.44,0,0,0-.55-1.76,2.41,2.41,0,0,0-1.76-.56,7.69,7.69,0,0,0-3.08.77l-.51-1.17a8.49,8.49,0,0,1,3.69-.86,4.32,4.32,0,0,1,2.88.8,3.18,3.18,0,0,1,.94,2.57v6.88Zm-3.73-1.08a3.5,3.5,0,0,0,2.42-.78,2.76,2.76,0,0,0,.88-2.19v-.91l-1.65.06a6.49,6.49,0,0,0-2.83.57,1.69,1.69,0,0,0-.87,1.56,1.52,1.52,0,0,0,.54,1.26A2.34,2.34,0,0,0,202.32,637.3Z"/><path d="M212.3,638.38h-1.65V624.06h1.65Z"/><path d="M215.56,629.28c0-.83.39-1.24,1.17-1.24a1.09,1.09,0,0,1,1.22,1.24,1.23,1.23,0,0,1-.33.92,1.21,1.21,0,0,1-.89.32,1.24,1.24,0,0,1-.84-.29A1.2,1.2,0,0,1,215.56,629.28Zm0,8.13a1.31,1.31,0,0,1,.3-.94,1.15,1.15,0,0,1,.87-.32,1.25,1.25,0,0,1,.9.32,1.27,1.27,0,0,1,.32.94,1.25,1.25,0,0,1-.33.92,1.21,1.21,0,0,1-.89.32,1.24,1.24,0,0,1-.84-.29A1.2,1.2,0,0,1,215.56,637.41Z"/><path d="M120.77,679.74a2.33,2.33,0,0,1,.56-1.7,2.58,2.58,0,0,1,3.25,0,2.28,2.28,0,0,1,.58,1.71,2.35,2.35,0,0,1-.57,1.69A2.18,2.18,0,0,1,123,682a2.14,2.14,0,0,1-1.63-.6A2.42,2.42,0,0,1,120.77,679.74Z"/><path d="M149.41,679.76a6.54,6.54,0,0,1-1.95,5.1,8.16,8.16,0,0,1-5.62,1.76h-4V673.16h4.45a7.46,7.46,0,0,1,5.27,1.74A6.31,6.31,0,0,1,149.41,679.76Zm-1.79.06a5.14,5.14,0,0,0-1.43-4,6,6,0,0,0-4.23-1.33H139.5v10.75h2.06a6.56,6.56,0,0,0,4.54-1.38A5.22,5.22,0,0,0,147.62,679.82Z"/><path d="M157,686.81a5.22,5.22,0,0,1-3.81-1.37,5,5,0,0,1-1.4-3.78,5.6,5.6,0,0,1,1.3-3.88,4.48,4.48,0,0,1,3.48-1.43,4.23,4.23,0,0,1,3.24,1.25,4.52,4.52,0,0,1,1.19,3.29v1h-7.5a3.85,3.85,0,0,0,1,2.7,3.52,3.52,0,0,0,2.59.92,9.49,9.49,0,0,0,3.48-.68v1.36a9.61,9.61,0,0,1-1.66.5A10,10,0,0,1,157,686.81Zm-.45-9.18a2.8,2.8,0,0,0-2.09.79,3.5,3.5,0,0,0-.92,2.19h5.7a3.2,3.2,0,0,0-.7-2.21A2.52,2.52,0,0,0,156.51,677.63Z"/><path d="M171.21,686.62V680.1a2.5,2.5,0,0,0-.61-1.85,2.59,2.59,0,0,0-1.9-.6,3.27,3.27,0,0,0-2.5.85,4.09,4.09,0,0,0-.79,2.83v5.29h-1.65V676.53h1.34l.27,1.38h.08a3.27,3.27,0,0,1,1.42-1.15,4.94,4.94,0,0,1,2-.41,4.33,4.33,0,0,1,3,.88,3.54,3.54,0,0,1,1,2.81v6.58Z"/><path d="M183.27,683.87a2.47,2.47,0,0,1-1.13,2.17,5.66,5.66,0,0,1-3.18.77,7.44,7.44,0,0,1-3.38-.64v-1.42a8.21,8.21,0,0,0,1.69.58,7.5,7.5,0,0,0,1.73.21,4.16,4.16,0,0,0,2-.38,1.24,1.24,0,0,0,.69-1.16,1.22,1.22,0,0,0-.55-1,8.86,8.86,0,0,0-2.15-1,11.6,11.6,0,0,1-2.16-.92,2.85,2.85,0,0,1-1-.88,2.29,2.29,0,0,1-.31-1.19,2.23,2.23,0,0,1,1.08-2,5.44,5.44,0,0,1,3-.71A9.31,9.31,0,0,1,183,677l-.58,1.24a8.63,8.63,0,0,0-3-.62,3.58,3.58,0,0,0-1.77.34,1,1,0,0,0-.6.94,1.14,1.14,0,0,0,.22.69,2.17,2.17,0,0,0,.72.54,19,19,0,0,0,1.91.75,7.24,7.24,0,0,1,2.62,1.31A2.25,2.25,0,0,1,183.27,683.87Z"/><path d="M185.8,673.8a1,1,0,0,1,.27-.77,1,1,0,0,1,.7-.24,1,1,0,0,1,.68.25.92.92,0,0,1,.29.76,1,1,0,0,1-.29.77,1,1,0,0,1-.68.25,1,1,0,0,1-.7-.25A1,1,0,0,1,185.8,673.8Zm1.78,12.82h-1.65V676.53h1.65Z"/><path d="M198.53,685.27h-.08a4,4,0,0,1-3.42,1.54,4.2,4.2,0,0,1-3.33-1.36,5.65,5.65,0,0,1-1.18-3.85,5.71,5.71,0,0,1,1.19-3.87,4.65,4.65,0,0,1,6.72.11h.12l-.07-.73,0-.71v-4.1h1.64v14.32h-1.34Zm-3.29.25a3.14,3.14,0,0,0,2.45-.85,4.08,4.08,0,0,0,.76-2.74v-.33a4.79,4.79,0,0,0-.77-3.06,3.06,3.06,0,0,0-2.46-.91,2.59,2.59,0,0,0-2.22,1,4.86,4.86,0,0,0-.77,3,4.71,4.71,0,0,0,.76,2.92A2.66,2.66,0,0,0,195.24,685.52Z"/><path d="M210.29,686.62l-.33-1.44h-.08a4.48,4.48,0,0,1-1.62,1.29,5.39,5.39,0,0,1-2,.34,3.8,3.8,0,0,1-2.54-.78,2.69,2.69,0,0,1-.92-2.2c0-2,1.76-3.1,5.27-3.2l1.85-.06V680a2.44,2.44,0,0,0-.55-1.76,2.4,2.4,0,0,0-1.76-.56,7.69,7.69,0,0,0-3.08.77l-.51-1.17a8.49,8.49,0,0,1,3.69-.86,4.32,4.32,0,0,1,2.88.8,3.18,3.18,0,0,1,.94,2.57v6.88Zm-3.73-1.08a3.5,3.5,0,0,0,2.42-.78,2.76,2.76,0,0,0,.88-2.19v-.91l-1.65.06a6.52,6.52,0,0,0-2.83.57,1.67,1.67,0,0,0-.87,1.56,1.52,1.52,0,0,0,.54,1.26A2.34,2.34,0,0,0,206.56,685.54Z"/><path d="M222.3,685.27h-.09a4,4,0,0,1-3.42,1.54,4.2,4.2,0,0,1-3.32-1.36,5.65,5.65,0,0,1-1.19-3.85,5.71,5.71,0,0,1,1.2-3.87,4.14,4.14,0,0,1,3.31-1.38,4.08,4.08,0,0,1,3.4,1.49h.13l-.07-.73,0-.71v-4.1h1.65v14.32h-1.34Zm-3.3.25a3.11,3.11,0,0,0,2.45-.85,4,4,0,0,0,.76-2.74v-.33a4.73,4.73,0,0,0-.77-3.06,3,3,0,0,0-2.46-.91,2.62,2.62,0,0,0-2.22,1,4.93,4.93,0,0,0-.77,3,4.71,4.71,0,0,0,.77,2.92A2.66,2.66,0,0,0,219,685.52Z"/><path d="M227.12,677.52c0-.83.39-1.25,1.17-1.25a1.1,1.1,0,0,1,1.23,1.25,1.23,1.23,0,0,1-.33.92,1.25,1.25,0,0,1-.9.32,1.23,1.23,0,0,1-.83-.29A1.17,1.17,0,0,1,227.12,677.52Zm0,8.12a1.26,1.26,0,0,1,.31-.93,1.14,1.14,0,0,1,.86-.32,1.25,1.25,0,1,1,0,2.5,1.23,1.23,0,0,1-.83-.29A1.19,1.19,0,0,1,227.12,685.64Z"/><path d="M120.77,728.11a2.32,2.32,0,0,1,.56-1.69,2.15,2.15,0,0,1,1.63-.58,2.19,2.19,0,0,1,1.62.57,2.28,2.28,0,0,1,.58,1.7,2.34,2.34,0,0,1-.57,1.69,2.53,2.53,0,0,1-3.26,0A2.38,2.38,0,0,1,120.77,728.11Z"/><path d="M149.41,728.14a6.5,6.5,0,0,1-1.95,5.09,8.11,8.11,0,0,1-5.62,1.77h-4V721.54h4.45a7.46,7.46,0,0,1,5.27,1.74A6.31,6.31,0,0,1,149.41,728.14Zm-1.79.06a5.14,5.14,0,0,0-1.43-4,6,6,0,0,0-4.23-1.34H139.5v10.75h2.06a6.56,6.56,0,0,0,4.54-1.37A5.24,5.24,0,0,0,147.62,728.2Z"/><path d="M152.22,722.18a1,1,0,0,1,.28-.77,1,1,0,0,1,.69-.25,1,1,0,0,1,.69.25,1,1,0,0,1,.29.77,1,1,0,0,1-.29.76,1,1,0,0,1-.69.26,1,1,0,0,1-.69-.26A1,1,0,0,1,152.22,722.18ZM154,735h-1.65V724.91H154Z"/><path d="M164.24,735l-.32-1.44h-.08a4.7,4.7,0,0,1-1.63,1.29,5.37,5.37,0,0,1-2,.33,3.85,3.85,0,0,1-2.54-.77,2.73,2.73,0,0,1-.92-2.2q0-3.06,5.28-3.2l1.85-.06v-.63a2.46,2.46,0,0,0-.55-1.75,2.38,2.38,0,0,0-1.77-.56,7.56,7.56,0,0,0-3.08.77l-.51-1.17a8.61,8.61,0,0,1,1.77-.64,8.4,8.4,0,0,1,1.92-.23,4.41,4.41,0,0,1,2.89.8,3.23,3.23,0,0,1,.94,2.57V735Zm-3.72-1.08a3.54,3.54,0,0,0,2.42-.78,2.8,2.8,0,0,0,.88-2.19V730l-1.65.06a6.29,6.29,0,0,0-2.84.57,1.67,1.67,0,0,0-.87,1.56,1.52,1.52,0,0,0,.54,1.26A2.37,2.37,0,0,0,160.52,733.92Zm-.39-10.57c.32-.39.66-.85,1-1.39a14.49,14.49,0,0,0,.87-1.4h2v.19a14.28,14.28,0,0,1-1.31,1.47,12.77,12.77,0,0,1-1.5,1.36h-1.1Z"/><path d="M182.73,735v-6.57a2.57,2.57,0,0,0-.56-1.8,2.22,2.22,0,0,0-1.73-.61,2.91,2.91,0,0,0-2.27.82,3.65,3.65,0,0,0-.74,2.52V735h-1.65v-6.57a2.57,2.57,0,0,0-.56-1.8,2.23,2.23,0,0,0-1.74-.61,2.81,2.81,0,0,0-2.27.86,4.43,4.43,0,0,0-.72,2.83V735h-1.65V724.91h1.35l.26,1.38h.08a3.23,3.23,0,0,1,1.32-1.15,4.24,4.24,0,0,1,1.9-.41c1.71,0,2.82.57,3.34,1.71h.08a3.37,3.37,0,0,1,1.41-1.25,4.64,4.64,0,0,1,2.11-.46,3.92,3.92,0,0,1,2.77.87,3.78,3.78,0,0,1,.92,2.82V735Z"/><path d="M192.37,735.18a5.21,5.21,0,0,1-3.81-1.36,5,5,0,0,1-1.39-3.78,5.59,5.59,0,0,1,1.29-3.88,4.47,4.47,0,0,1,3.49-1.43,4.29,4.29,0,0,1,3.24,1.24,4.58,4.58,0,0,1,1.19,3.29v1h-7.5a3.8,3.8,0,0,0,1,2.7,3.49,3.49,0,0,0,2.58.92,9.41,9.41,0,0,0,3.48-.68v1.36a9.26,9.26,0,0,1-1.65.5A10.18,10.18,0,0,1,192.37,735.18Zm-.44-9.17a2.78,2.78,0,0,0-2.09.79,3.45,3.45,0,0,0-.92,2.19h5.69a3.18,3.18,0,0,0-.7-2.22A2.53,2.53,0,0,0,191.93,726Z"/><path d="M202.69,733.92a5.73,5.73,0,0,0,.84-.06c.27,0,.49-.08.65-.12v1.17a3.65,3.65,0,0,1-.79.19,5.5,5.5,0,0,1-.94.08q-3.16,0-3.16-3.08v-6h-1.56v-.74l1.56-.63.7-2.16h.95v2.34h3.16v1.19h-3.16V732a1.94,1.94,0,0,0,.47,1.4A1.67,1.67,0,0,0,202.69,733.92Z"/><path d="M211.34,724.73a6.54,6.54,0,0,1,1.31.11l-.23,1.41a6.16,6.16,0,0,0-1.2-.13,3,3,0,0,0-2.26,1,3.49,3.49,0,0,0-.94,2.48V735h-1.64V724.91h1.36l.19,1.87H208a4.66,4.66,0,0,1,1.47-1.52A3.42,3.42,0,0,1,211.34,724.73Z"/><path d="M224.08,729.94a5.3,5.3,0,0,1-1.34,3.86,4.93,4.93,0,0,1-3.71,1.38,5.26,5.26,0,0,1-2.59-.63,4.36,4.36,0,0,1-1.75-1.83,5.94,5.94,0,0,1-.61-2.78,5.29,5.29,0,0,1,1.33-3.84,4.89,4.89,0,0,1,3.69-1.37,4.79,4.79,0,0,1,3.64,1.4A5.32,5.32,0,0,1,224.08,729.94Zm-8.29,0a4.51,4.51,0,0,0,.83,2.95,3.49,3.49,0,0,0,4.91,0,4.49,4.49,0,0,0,.84-2.95,4.44,4.44,0,0,0-.84-2.92,3.07,3.07,0,0,0-2.48-1,3,3,0,0,0-2.44,1A4.45,4.45,0,0,0,215.79,729.94Z"/><path d="M226.74,725.89c0-.82.39-1.24,1.17-1.24a1.09,1.09,0,0,1,1.22,1.24,1.22,1.22,0,0,1-.33.92,1.19,1.19,0,0,1-.89.33,1.24,1.24,0,0,1-.84-.29A1.23,1.23,0,0,1,226.74,725.89Zm0,8.13a1.3,1.3,0,0,1,.3-.93,1.15,1.15,0,0,1,.87-.32,1.12,1.12,0,0,1,1.22,1.25,1.22,1.22,0,0,1-.33.92,1.38,1.38,0,0,1-1.73,0A1.2,1.2,0,0,1,226.74,734Z"/><path d="M650.8,837.19V823.74h1.69v13.45Z"/><path d="M663,837.19,658,825.26h-.08c.09,1,.14,2.07.14,3.37v8.56h-1.56V823.74h2.54l4.6,11.1h.08l4.64-11.1h2.53v13.45h-1.69v-8.67c0-1,0-2.07.14-3.24h-.08l-5,11.91Z"/><path d="M684,837.19l-1.81-4.28h-5.82l-1.79,4.28h-1.71l5.75-13.51h1.42l5.71,13.51Zm-2.33-5.69L680,827.34a20.3,20.3,0,0,1-.68-2,15.91,15.91,0,0,1-.62,2L677,831.5Z"/><path d="M694.14,830.14h4.94v6.55a17,17,0,0,1-2.35.51,18.6,18.6,0,0,1-2.76.18,7,7,0,0,1-5.14-1.82,6.87,6.87,0,0,1-1.84-5.1,7.29,7.29,0,0,1,.91-3.67,5.89,5.89,0,0,1,2.62-2.41,9,9,0,0,1,4-.84,11.87,11.87,0,0,1,4.34.79l-.66,1.39a10.23,10.23,0,0,0-3.78-.78,5.67,5.67,0,0,0-4.15,1.47,5.41,5.41,0,0,0-1.49,4.05,5.54,5.54,0,0,0,1.44,4.14,5.77,5.77,0,0,0,4.22,1.41,13.21,13.21,0,0,0,2.95-.33v-4.14h-3.25Z"/><path d="M710.7,837.19h-8.1V823.74h8.1v1.39h-6.41v4.33h6v1.38h-6v4.95h6.41Z"/><path d="M725.25,837.19h-1.93l-7.94-11.29h-.08c.11,1.32.16,2.54.16,3.64v7.65H713.9V823.74h1.91L723.73,835h.08q0-.24-.09-1.59c-.05-.9-.06-1.54-.05-1.93v-7.72h1.58Z"/><path d="M746.13,830.34a6.47,6.47,0,0,1-2,5.09,8.12,8.12,0,0,1-5.62,1.76h-4V823.74H739a7.46,7.46,0,0,1,5.27,1.74A6.31,6.31,0,0,1,746.13,830.34Zm-1.79,0a5.2,5.2,0,0,0-1.43-4,6,6,0,0,0-4.24-1.33h-2.45v10.75h2.06a6.57,6.57,0,0,0,4.54-1.38A5.21,5.21,0,0,0,744.34,830.39Z"/><path d="M757.42,837.19h-8.09V823.74h8.09v1.39H751v4.33h6v1.38h-6v4.95h6.41Z"/><path d="M760.62,837.19V823.74h1.69v12h6.41v1.41Z"/><path d="M785.72,827.66a3.66,3.66,0,0,1-1.5,3.14,7.26,7.26,0,0,1-4.31,1.1H778.2v5.29h-1.69V823.74h3.77C783.91,823.74,785.72,825,785.72,827.66Zm-7.52,2.9h1.52a6.09,6.09,0,0,0,3.25-.67,2.42,2.42,0,0,0,1-2.16,2.27,2.27,0,0,0-1-2,5.29,5.29,0,0,0-2.94-.65H778.2Z"/><path d="M790.43,831.6v5.59h-1.69V823.74h4a6.67,6.67,0,0,1,3.95.94,3.35,3.35,0,0,1,1.28,2.86q0,2.67-2.93,3.61l4,6h-2l-3.52-5.59Zm0-1.35h2.32a4.29,4.29,0,0,0,2.62-.65,2.36,2.36,0,0,0,.84-2,2.18,2.18,0,0,0-.85-1.92,4.85,4.85,0,0,0-2.73-.59h-2.2Z"/><path d="M813.89,830.45a7.06,7.06,0,0,1-1.76,5.08,6.47,6.47,0,0,1-4.9,1.85,6.56,6.56,0,0,1-5-1.82,7.12,7.12,0,0,1-1.74-5.13,7,7,0,0,1,1.75-5.1,6.6,6.6,0,0,1,5-1.81,6.42,6.42,0,0,1,4.88,1.85A7,7,0,0,1,813.89,830.45Zm-11.57,0a6.08,6.08,0,0,0,1.25,4.14,4.66,4.66,0,0,0,3.66,1.42,4.57,4.57,0,0,0,3.64-1.41,6.16,6.16,0,0,0,1.23-4.15,6.07,6.07,0,0,0-1.22-4.12,4.56,4.56,0,0,0-3.63-1.41,4.65,4.65,0,0,0-3.68,1.42A6,6,0,0,0,802.32,830.45Z"/><path d="M828.77,830.34a6.5,6.5,0,0,1-1.95,5.09,8.14,8.14,0,0,1-5.62,1.76h-4V823.74h4.45a7.46,7.46,0,0,1,5.27,1.74A6.31,6.31,0,0,1,828.77,830.34Zm-1.79,0a5.16,5.16,0,0,0-1.43-4,6,6,0,0,0-4.23-1.33h-2.46v10.75h2.06a6.56,6.56,0,0,0,4.54-1.38A5.21,5.21,0,0,0,827,830.39Z"/><path d="M843,823.74v8.7a4.56,4.56,0,0,1-1.5,3.62,6,6,0,0,1-4.12,1.32,5.77,5.77,0,0,1-4.06-1.33,4.7,4.7,0,0,1-1.44-3.64v-8.67h1.69v8.78a3.31,3.31,0,0,0,1,2.58,4.24,4.24,0,0,0,2.92.91,4.1,4.1,0,0,0,2.84-.91,3.35,3.35,0,0,0,1-2.6v-8.76Z"/><path d="M853,824.94a4.93,4.93,0,0,0-3.78,1.48,5.67,5.67,0,0,0-1.38,4,5.79,5.79,0,0,0,1.33,4.09A5,5,0,0,0,853,836a13.86,13.86,0,0,0,3.47-.51v1.37a11.4,11.4,0,0,1-3.72.53,6.57,6.57,0,0,1-5-1.81,7.07,7.07,0,0,1-1.74-5.12,7.59,7.59,0,0,1,.84-3.65,5.8,5.8,0,0,1,2.42-2.41,7.87,7.87,0,0,1,3.73-.85,9.55,9.55,0,0,1,4,.78l-.72,1.34A8.19,8.19,0,0,0,853,824.94Z"/><path d="M864.09,837.19H862.4V825.13h-4.6v-1.39h10.89v1.39h-4.6Z"/><path d="M883.57,830.45a7.1,7.1,0,0,1-1.76,5.08,7.54,7.54,0,0,1-9.86,0,8.39,8.39,0,0,1,0-10.23,6.63,6.63,0,0,1,5-1.81,6.43,6.43,0,0,1,4.89,1.85A7.05,7.05,0,0,1,883.57,830.45Zm-11.58,0a6,6,0,0,0,1.26,4.14A4.65,4.65,0,0,0,876.9,836a4.59,4.59,0,0,0,3.65-1.41,7.59,7.59,0,0,0,0-8.27,4.57,4.57,0,0,0-3.64-1.41,4.63,4.63,0,0,0-3.67,1.42A6,6,0,0,0,872,830.45Z"/><path d="M886.36,836.22a1.29,1.29,0,0,1,.31-.94,1.14,1.14,0,0,1,.87-.31,1.25,1.25,0,0,1,.9.31,1.29,1.29,0,0,1,.32.94,1.26,1.26,0,0,1-2.06.95A1.17,1.17,0,0,1,886.36,836.22Z"/><path d="M111.56,773.06a3.66,3.66,0,0,1-1.51,3.14,7.24,7.24,0,0,1-4.31,1.1H104v5.29h-1.69V769.13h3.77Q111.56,769.13,111.56,773.06ZM104,776h1.52a6,6,0,0,0,3.25-.67,2.4,2.4,0,0,0,1-2.15,2.27,2.27,0,0,0-1-2,5.21,5.21,0,0,0-2.94-.65H104Z"/><path d="M121,782.59l-.32-1.44h-.08a4.59,4.59,0,0,1-1.63,1.29,5.37,5.37,0,0,1-2,.33,3.8,3.8,0,0,1-2.54-.77,2.72,2.72,0,0,1-.92-2.2c0-2,1.76-3.1,5.28-3.2l1.85-.06v-.62a2.49,2.49,0,0,0-.55-1.76,2.42,2.42,0,0,0-1.77-.56,7.72,7.72,0,0,0-3.08.77l-.51-1.17a8.05,8.05,0,0,1,1.77-.63,7.88,7.88,0,0,1,1.92-.23,4.35,4.35,0,0,1,2.89.8,3.22,3.22,0,0,1,.94,2.57v6.88Zm-3.72-1.08a3.54,3.54,0,0,0,2.42-.78,2.8,2.8,0,0,0,.88-2.19v-.91l-1.65.06a6.58,6.58,0,0,0-2.84.57,1.67,1.67,0,0,0-.87,1.56,1.52,1.52,0,0,0,.54,1.26A2.37,2.37,0,0,0,117.3,781.51Z"/><path d="M130.59,772.32a6.54,6.54,0,0,1,1.31.11l-.23,1.42a5.54,5.54,0,0,0-1.2-.14,3,3,0,0,0-2.26,1,3.49,3.49,0,0,0-.94,2.48v5.41h-1.64V772.5H127l.18,1.87h.08a4.66,4.66,0,0,1,1.47-1.52A3.48,3.48,0,0,1,130.59,772.32Z"/><path d="M137.45,781.51a5.73,5.73,0,0,0,.84-.06,6.57,6.57,0,0,0,.65-.12v1.17a3.56,3.56,0,0,1-.79.2,6.62,6.62,0,0,1-.94.07c-2.11,0-3.16-1-3.16-3.08v-6h-1.56V773l1.56-.63.7-2.16h.95v2.34h3.16v1.19H135.7v5.94a2,2,0,0,0,.47,1.4A1.7,1.7,0,0,0,137.45,781.51Z"/><path d="M145.74,782.77a5.21,5.21,0,0,1-3.81-1.36,5,5,0,0,1-1.4-3.78,5.55,5.55,0,0,1,1.3-3.88,4.47,4.47,0,0,1,3.48-1.43,4.26,4.26,0,0,1,3.24,1.25,4.57,4.57,0,0,1,1.19,3.29v1h-7.5a3.81,3.81,0,0,0,1,2.7,3.5,3.5,0,0,0,2.59.92,9.4,9.4,0,0,0,3.47-.68v1.36a9.26,9.26,0,0,1-1.65.5A10.14,10.14,0,0,1,145.74,782.77Zm-.45-9.17a2.8,2.8,0,0,0-2.09.79,3.5,3.5,0,0,0-.92,2.19H148a3.2,3.2,0,0,0-.69-2.21A2.53,2.53,0,0,0,145.29,773.6Z"/><path d="M159.56,779.84a2.47,2.47,0,0,1-1.13,2.17,5.67,5.67,0,0,1-3.18.76,7.43,7.43,0,0,1-3.38-.63v-1.42a8.12,8.12,0,0,0,1.68.58,7.65,7.65,0,0,0,1.74.21,4.09,4.09,0,0,0,2-.38A1.23,1.23,0,0,0,158,780a1.25,1.25,0,0,0-.55-1,9.06,9.06,0,0,0-2.15-1,12.16,12.16,0,0,1-2.17-.92,2.91,2.91,0,0,1-.95-.88,2.2,2.2,0,0,1-.31-1.19,2.23,2.23,0,0,1,1.08-2,5.39,5.39,0,0,1,3-.71,9.34,9.34,0,0,1,3.44.66l-.59,1.24a8.54,8.54,0,0,0-3-.62,3.63,3.63,0,0,0-1.77.34,1.05,1.05,0,0,0-.59.94,1.08,1.08,0,0,0,.22.69,2.17,2.17,0,0,0,.72.54,18,18,0,0,0,1.91.75,7.33,7.33,0,0,1,2.62,1.31A2.25,2.25,0,0,1,159.56,779.84Z"/><path d="M175,781.24h-.09a4,4,0,0,1-3.42,1.53,4.19,4.19,0,0,1-3.32-1.35,5.65,5.65,0,0,1-1.19-3.85,5.76,5.76,0,0,1,1.19-3.87,4.17,4.17,0,0,1,3.32-1.38,4.09,4.09,0,0,1,3.4,1.49H175l-.07-.73,0-.71v-4.1h1.65v14.32h-1.34Zm-3.3.25a3.12,3.12,0,0,0,2.45-.85,4,4,0,0,0,.76-2.74v-.33a4.79,4.79,0,0,0-.77-3.06,3,3,0,0,0-2.46-.91,2.59,2.59,0,0,0-2.22,1,4.93,4.93,0,0,0-.77,3,4.71,4.71,0,0,0,.77,2.92A2.64,2.64,0,0,0,171.66,781.49Z"/><path d="M184.62,782.77a5.21,5.21,0,0,1-3.81-1.36,5,5,0,0,1-1.4-3.78,5.55,5.55,0,0,1,1.3-3.88,4.47,4.47,0,0,1,3.48-1.43,4.23,4.23,0,0,1,3.24,1.25,4.52,4.52,0,0,1,1.19,3.29v1h-7.5a3.81,3.81,0,0,0,1,2.7,3.52,3.52,0,0,0,2.59.92,9.49,9.49,0,0,0,3.48-.68v1.36a9.61,9.61,0,0,1-1.66.5A10.14,10.14,0,0,1,184.62,782.77Zm-.45-9.17a2.8,2.8,0,0,0-2.09.79,3.5,3.5,0,0,0-.92,2.19h5.69a3.2,3.2,0,0,0-.69-2.21A2.52,2.52,0,0,0,184.17,773.6Z"/><path d="M193.06,782.59h-1.64V768.27h1.64Z"/><path d="M207,782.77a5,5,0,0,1-1.94-.36,3.54,3.54,0,0,1-1.48-1.12h-.12a12.52,12.52,0,0,1,.12,1.68v4.15h-1.65V772.5h1.34l.23,1.38h.08a3.71,3.71,0,0,1,1.48-1.19,4.73,4.73,0,0,1,1.94-.37,4.17,4.17,0,0,1,3.34,1.37,6.84,6.84,0,0,1,0,7.71A4.15,4.15,0,0,1,207,782.77Zm-.24-9.15a3,3,0,0,0-2.41.85,4.14,4.14,0,0,0-.77,2.73v.34a4.7,4.7,0,0,0,.77,3,3,3,0,0,0,2.45.91,2.62,2.62,0,0,0,2.21-1,4.78,4.78,0,0,0,.8-2.92,4.61,4.61,0,0,0-.8-2.9A2.7,2.7,0,0,0,206.76,773.62Z"/><path d="M219.37,772.32a6.43,6.43,0,0,1,1.3.11l-.23,1.42a5.52,5.52,0,0,0-1.19-.14,3,3,0,0,0-2.26,1,3.45,3.45,0,0,0-.94,2.48v5.41H214.4V772.5h1.36l.19,1.87H216a4.54,4.54,0,0,1,1.46-1.52A3.54,3.54,0,0,1,219.37,772.32Z"/><path d="M232.11,777.54a5.32,5.32,0,0,1-1.34,3.85,4.94,4.94,0,0,1-3.71,1.38,5.23,5.23,0,0,1-2.59-.63,4.27,4.27,0,0,1-1.75-1.82,6,6,0,0,1-.62-2.78,5.34,5.34,0,0,1,1.33-3.85,4.94,4.94,0,0,1,3.7-1.37,4.79,4.79,0,0,1,3.63,1.41A5.28,5.28,0,0,1,232.11,777.54Zm-8.3,0a4.48,4.48,0,0,0,.84,2.94,3,3,0,0,0,2.45,1,3,3,0,0,0,2.46-1,4.53,4.53,0,0,0,.84-3,4.45,4.45,0,0,0-.84-2.93,3.08,3.08,0,0,0-2.48-1,3,3,0,0,0-2.44,1A4.5,4.5,0,0,0,223.81,777.54Z"/><path d="M242.41,781.24h-.09a4,4,0,0,1-3.42,1.53,4.19,4.19,0,0,1-3.32-1.35,5.65,5.65,0,0,1-1.19-3.85,5.71,5.71,0,0,1,1.2-3.87,4.14,4.14,0,0,1,3.31-1.38,4.08,4.08,0,0,1,3.4,1.49h.13l-.07-.73,0-.71v-4.1H244v14.32h-1.34Zm-3.3.25a3.11,3.11,0,0,0,2.45-.85,4,4,0,0,0,.76-2.74v-.33a4.73,4.73,0,0,0-.77-3.06,3,3,0,0,0-2.46-.91,2.62,2.62,0,0,0-2.22,1,4.93,4.93,0,0,0-.77,3,4.71,4.71,0,0,0,.77,2.92A2.66,2.66,0,0,0,239.11,781.49Z"/><path d="M249,772.5v6.55a2.49,2.49,0,0,0,.61,1.84,2.58,2.58,0,0,0,1.89.6,3.21,3.21,0,0,0,2.5-.86,4.13,4.13,0,0,0,.79-2.83v-5.3h1.65v10.09H255.1l-.24-1.35h-.09a3.25,3.25,0,0,1-1.4,1.14,5.13,5.13,0,0,1-2.05.39,4.4,4.4,0,0,1-3-.87,3.56,3.56,0,0,1-1-2.8v-6.6Z"/><path d="M264.31,782.77a4.89,4.89,0,0,1-3.66-1.34,5.31,5.31,0,0,1-1.3-3.82,5.43,5.43,0,0,1,1.32-3.91,4.94,4.94,0,0,1,3.75-1.38,8.27,8.27,0,0,1,1.57.15,5.54,5.54,0,0,1,1.23.37l-.5,1.3a7.92,7.92,0,0,0-1.19-.33,5.86,5.86,0,0,0-1.15-.14q-3.31,0-3.32,3.92a4.45,4.45,0,0,0,.81,2.86,2.92,2.92,0,0,0,2.4,1,7.94,7.94,0,0,0,2.8-.54v1.35A6.38,6.38,0,0,1,264.31,782.77Z"/><path d="M273.15,781.51a5.73,5.73,0,0,0,.84-.06c.27,0,.49-.08.65-.12v1.17a3.71,3.71,0,0,1-.79.2,6.62,6.62,0,0,1-.94.07c-2.11,0-3.16-1-3.16-3.08v-6h-1.56V773l1.56-.63.69-2.16h1v2.34h3.16v1.19H271.4v5.94a2,2,0,0,0,.46,1.4A1.73,1.73,0,0,0,273.15,781.51Z"/><path d="M286.23,777.54a5.28,5.28,0,0,1-1.34,3.85,4.92,4.92,0,0,1-3.7,1.38,5.27,5.27,0,0,1-2.6-.63,4.33,4.33,0,0,1-1.75-1.82,6,6,0,0,1-.61-2.78,5.3,5.3,0,0,1,1.33-3.85,4.94,4.94,0,0,1,3.7-1.37,4.79,4.79,0,0,1,3.63,1.41A5.32,5.32,0,0,1,286.23,777.54Zm-8.29,0a4.48,4.48,0,0,0,.83,2.94,3.5,3.5,0,0,0,4.91,0,4.53,4.53,0,0,0,.84-3,4.45,4.45,0,0,0-.84-2.93,3,3,0,0,0-2.47-1,3,3,0,0,0-2.45,1A4.5,4.5,0,0,0,277.94,777.54Z"/><path d="M288.89,781.61a1.3,1.3,0,0,1,.3-.93,1.15,1.15,0,0,1,.87-.32,1.12,1.12,0,0,1,1.22,1.25,1.22,1.22,0,0,1-.33.92,1.19,1.19,0,0,1-.89.33,1.24,1.24,0,0,1-.84-.29A1.23,1.23,0,0,1,288.89,781.61Z"/><path class="cls-4" d="M1049.63,133H87.58V851.45h963.14V133Zm-961,48.66H376.1v46.63H88.67Zm0,47.7H376.1v46.5H88.67Zm0,47.58H376.1v46.49H88.67Zm0,47.57H376.1v46.63H88.67Zm0,47.71H376.1v46.5H88.67ZM488.36,850.37H88.67V757.25H488.36Zm0-94.2H88.67V419.78H488.36Zm561.27,0v94.2H489.44V419.78h560.19Zm0-337.46H377.19v-46.5h672.44Zm0-47.58H377.19V324.5h672.44Zm0-47.71H377.19V276.93h672.44Zm0-47.57H377.19v-46.5h672.44Zm0-47.57H377.19V181.65h672.44Zm0-47.71h-961v-46.5h961Z"/><path class="cls-5" d="M477.86,89.6H662.74c3.67,0,6.34-1.82,5.4-5.36L661.7,45a5.58,5.58,0,0,0-5.39-4.14H622.2l4-27.46H590.69a2.56,2.56,0,0,1,0,.55l-1.26,7.34a2.14,2.14,0,0,1-2.1,1.77h-30a2.13,2.13,0,0,1-2.1-1.77L553.93,14a2.56,2.56,0,0,1,0-.55H518.4l4,27.46H488.29A5.58,5.58,0,0,0,482.9,45L472.47,84.24C471.52,87.78,474.19,89.6,477.86,89.6Z"/><path class="cls-6" d="M667.14,82.58,656.7,43.35a5.57,5.57,0,0,0-5.39-4.15H617.2l5.17-35.54A3.2,3.2,0,0,0,619.2,0H515.4a3.2,3.2,0,0,0-3.17,3.66L517.4,39.2H483.29a5.57,5.57,0,0,0-5.39,4.15L467.47,82.58a5.57,5.57,0,0,0,5.39,7H661.74A5.58,5.58,0,0,0,667.14,82.58ZM585.67,12.29l-1.26,7.34a2.14,2.14,0,0,1-2.1,1.77h-30a2.13,2.13,0,0,1-2.1-1.77l-1.27-7.34A2.13,2.13,0,0,1,551,9.8h32.54A2.13,2.13,0,0,1,585.67,12.29Z"/></g></g></svg>