<svg xmlns="http://www.w3.org/2000/svg" width="396.8" height="396.8" viewBox="0 0 396.8 396.8">
  <g id="Grupo_10364" data-name="Grupo 10364" transform="translate(2135.777 585.153)">
    <rect id="Rectángulo_6323" data-name="Rectángulo 6323" width="396.8" height="396.8" rx="18" transform="translate(-2135.777 -585.153)" fill="#bdc3c7"/>
    <path id="Trazado_3350" data-name="Trazado 3350" d="M-2008.3-465.1a6.768,6.768,0,0,1-6.768,6.768h-101.2a6.768,6.768,0,0,1-6.767-6.768V-566.3a6.768,6.768,0,0,1,6.767-6.768h101.2a6.768,6.768,0,0,1,6.768,6.768v101.2Z" fill="#fff"/>
    <path id="Trazado_3351" data-name="Trazado 3351" d="M-1880.008-465.1a6.768,6.768,0,0,1-6.767,6.768h-101.2a6.768,6.768,0,0,1-6.768-6.768V-566.3a6.768,6.768,0,0,1,6.768-6.768h101.2a6.768,6.768,0,0,1,6.767,6.768v101.2Z" fill="#fff"/>
    <path id="Trazado_3352" data-name="Trazado 3352" d="M-1751.713-465.1a6.768,6.768,0,0,1-6.767,6.768h-101.2a6.768,6.768,0,0,1-6.768-6.768V-566.3a6.768,6.768,0,0,1,6.768-6.768h101.2a6.768,6.768,0,0,1,6.767,6.768v101.2Z" fill="#fff"/>
    <path id="Trazado_3353" data-name="Trazado 3353" d="M-2008.3-336.152a6.767,6.767,0,0,1-6.768,6.767h-101.2a6.767,6.767,0,0,1-6.767-6.767v-101.2a6.768,6.768,0,0,1,6.767-6.768h101.2a6.768,6.768,0,0,1,6.768,6.768v101.2Z" fill="#fff"/>
    <path id="Trazado_3354" data-name="Trazado 3354" d="M-1880.008-336.152a6.767,6.767,0,0,1-6.767,6.767h-101.2a6.767,6.767,0,0,1-6.768-6.767v-101.2a6.768,6.768,0,0,1,6.768-6.768h101.2a6.768,6.768,0,0,1,6.767,6.768v101.2Z" fill="#fff"/>
    <path id="Trazado_3355" data-name="Trazado 3355" d="M-1751.713-336.152a6.767,6.767,0,0,1-6.767,6.767h-101.2a6.767,6.767,0,0,1-6.768-6.767v-101.2a6.768,6.768,0,0,1,6.768-6.768h101.2a6.768,6.768,0,0,1,6.767,6.768v101.2Z" fill="#fff"/>
    <path id="Trazado_3356" data-name="Trazado 3356" d="M-2008.3-207.2a6.768,6.768,0,0,1-6.768,6.768h-101.2a6.768,6.768,0,0,1-6.767-6.768V-308.4a6.767,6.767,0,0,1,6.767-6.767h101.2a6.767,6.767,0,0,1,6.768,6.767v101.2Z" fill="#fff"/>
    <path id="Trazado_3357" data-name="Trazado 3357" d="M-1880.008-207.2a6.768,6.768,0,0,1-6.767,6.768h-101.2a6.768,6.768,0,0,1-6.768-6.768V-308.4a6.767,6.767,0,0,1,6.768-6.767h101.2a6.767,6.767,0,0,1,6.767,6.767v101.2Z" fill="#fff"/>
    <path id="Trazado_3358" data-name="Trazado 3358" d="M-1751.713-207.2a6.768,6.768,0,0,1-6.767,6.768h-101.2a6.768,6.768,0,0,1-6.768-6.768V-308.4a6.767,6.767,0,0,1,6.768-6.767h101.2a6.767,6.767,0,0,1,6.767,6.767v101.2Z" fill="#fff"/>
    <path id="Trazado_3359" data-name="Trazado 3359" d="M-2043.539-363.3v-16.8h-4.276v-28.556h-7.037v22.789l-7.921-2.3-10.9-25.227a11.785,11.785,0,0,0-10.818-7.11h-23.515v3.189h2.373v25.29h-8.7v31.688h3.531a8.744,8.744,0,0,0,7.614,4.44,8.745,8.745,0,0,0,7.614-4.44h31.4a8.744,8.744,0,0,0,7.614,4.44,8.745,8.745,0,0,0,7.614-4.44h31.942V-363.3Zm-59.65,2.537a3.883,3.883,0,0,1-3.883-3.883,3.883,3.883,0,0,1,3.883-3.884,3.883,3.883,0,0,1,3.883,3.884,3.883,3.883,0,0,1-3.883,3.883Zm29.26-27.4-6.61-5.163,2.07-2.421-1.922-1.62-6.464,7.558,1.921,1.621,2.415-2.823,6.943,5.449v8.741h-10.445l-1.778-4.529h-6.589l-1.739-12.177-5.728.023v-23.807h16.983a8.4,8.4,0,0,1,7.719,5.084l10.343,24.064Zm17.364,27.4a3.883,3.883,0,0,1-3.883-3.883,3.883,3.883,0,0,1,3.883-3.884,3.883,3.883,0,0,1,3.883,3.884,3.883,3.883,0,0,1-3.883,3.883Z" fill="#2c3e50"/>
    <path id="Trazado_3360" data-name="Trazado 3360" d="M-2018.66-385.983v-22.581h-22.582v43.744h22.582v-21.163Zm-20.549-20.548h7.405v4.37h3.675v-4.37h7.436v18.515h-18.516v-18.515Zm18.516,39.678h-18.516v-18.516h7.405V-381h3.675v-4.371h7.436v18.516Z" fill="#2c3e50"/>
    <path id="Trazado_3361" data-name="Trazado 3361" d="M-2035.478-372.49h.38v1.808h1.164v-1.808h.381a.3.3,0,0,0,.251-.133.3.3,0,0,0,.032-.282l-.962-1.742a.3.3,0,0,0-.283-.193.3.3,0,0,0-.283.193l-.963,1.742a.3.3,0,0,0,.032.282.3.3,0,0,0,.251.133Z" fill="#2c3e50"/>
    <path id="Trazado_3362" data-name="Trazado 3362" d="M-2032.194-372.49h.381v1.808h1.163v-1.808h.381a.3.3,0,0,0,.251-.133.3.3,0,0,0,.032-.282l-.962-1.742a.3.3,0,0,0-.284-.193.3.3,0,0,0-.282.193l-.963,1.742a.3.3,0,0,0,.032.282.3.3,0,0,0,.251.133Z" fill="#2c3e50"/>
    <path id="Trazado_3363" data-name="Trazado 3363" d="M-2035.782-368.793h5.817v-1.164h-5.817v1.164Z" fill="#2c3e50"/>
    <path id="Trazado_3364" data-name="Trazado 3364" d="M-2026.762-371.363v1.684l-.819.065h.006v.813h2.44v-.813h.055l-.868-.065v-1.691a1.259,1.259,0,0,0,1.016-1.289V-374.9h-2.846v2.241a1.238,1.238,0,0,0,1.016,1.3Z" fill="#2c3e50"/>
    <path id="Trazado_3365" data-name="Trazado 3365" d="M-2035.478-393.653h.38v1.809h1.164v-1.809h.381a.3.3,0,0,0,.251-.133.3.3,0,0,0,.032-.282l-.962-1.742a.3.3,0,0,0-.283-.193.3.3,0,0,0-.283.193l-.963,1.742a.3.3,0,0,0,.032.282.3.3,0,0,0,.251.133Z" fill="#2c3e50"/>
    <path id="Trazado_3366" data-name="Trazado 3366" d="M-2032.194-393.653h.381v1.809h1.163v-1.809h.381a.3.3,0,0,0,.251-.133.3.3,0,0,0,.032-.282l-.962-1.742a.3.3,0,0,0-.284-.193.3.3,0,0,0-.282.193l-.963,1.742a.3.3,0,0,0,.032.282.3.3,0,0,0,.251.133Z" fill="#2c3e50"/>
    <path id="Trazado_3367" data-name="Trazado 3367" d="M-2035.782-389.956h5.817v-1.164h-5.817v1.164Z" fill="#2c3e50"/>
    <path id="Trazado_3368" data-name="Trazado 3368" d="M-2027.778-393.821a1.236,1.236,0,0,0,1.016,1.3v1.684l-.819.065h.006v.813h2.44v-.813h.055l-.868-.065v-1.691a1.259,1.259,0,0,0,1.016-1.288v-2.241h-2.846v2.241Z" fill="#2c3e50"/>
    <path id="Trazado_3369" data-name="Trazado 3369" d="M-2017.009-353h-97.325v-3.174h97.325V-353Z" fill="#2c3e50"/>
    <path id="Trazado_3370" data-name="Trazado 3370" d="M-2070.2-534.556l45.8,24.745-3.324,1.452-45.609-25.168-7.021,2.31,45.141,26.13-3.522,1.54-44.905-26.589-7.376,2.426,44.337,27.634-3.74,1.634-44.051-28.132-7.76,2.553,43.366,29.27-3.974,1.736-43.023-29.812-8.172,2.689.731,7.761,41.649,32.013,8.838-4.033-.014-4.911,16.063-7.135-.147,4.791,7.825-3.57.222-4.73,14.26-6.333-.348,4.614,6.98-3.184.648-8.048-46.183-23.855-6.694,2.2ZM-2109.8-512.7l-.456-4.663,11.918,8.769.365,4.853L-2109.8-512.7Zm18.589,14.081-.308-4.958,14.354,10.561.171,5.166-14.217-10.769Z" fill="#2c3e50"/>
    <path id="Trazado_3371" data-name="Trazado 3371" d="M-1949.906-237.612h.489v2.326h1.5v-2.326h.49a.391.391,0,0,0,.323-.171.388.388,0,0,0,.041-.363l-1.238-2.24a.39.39,0,0,0-.364-.249.39.39,0,0,0-.364.249l-1.238,2.24a.388.388,0,0,0,.04.363.392.392,0,0,0,.324.171Z" fill="#2c3e50"/>
    <path id="Trazado_3372" data-name="Trazado 3372" d="M-1945.682-237.612h.489v2.326h1.5v-2.326h.49a.39.39,0,0,0,.323-.171.388.388,0,0,0,.04-.363l-1.237-2.24a.391.391,0,0,0-.364-.249.39.39,0,0,0-.364.249l-1.238,2.24a.388.388,0,0,0,.041.363.389.389,0,0,0,.323.171Z" fill="#2c3e50"/>
    <path id="Trazado_3373" data-name="Trazado 3373" d="M-1950.3-232.857h7.483v-1.5h-7.483v1.5Z" fill="#2c3e50"/>
    <path id="Trazado_3374" data-name="Trazado 3374" d="M-1940-237.829a1.59,1.59,0,0,0,1.307,1.666V-234l-1.054.084h.008v1.046h3.137v-1.046h.072l-1.117-.084v-2.174a1.62,1.62,0,0,0,1.308-1.658v-2.882H-1940v2.882Z" fill="#2c3e50"/>
    <path id="Trazado_3375" data-name="Trazado 3375" d="M-1901-256.792h-16.509v-25.365h-33.62v25.365h-5.716l.005-25.736a13.244,13.244,0,0,0-3.847-9.323A13.3,13.3,0,0,0-1970-295.71l-10.45.01a3.23,3.23,0,0,0-3.218,3.216v.2a3.244,3.244,0,0,0,.945,2.286,3.249,3.249,0,0,0,2.285.943l10.46-.027a6.476,6.476,0,0,1,2.155.364,6.505,6.505,0,0,1,2.436,1.531,6.508,6.508,0,0,1,1.9,4.59v58.385l.927,0v0h3.889a8.135,8.135,0,0,0-.844,6.112,8.161,8.161,0,0,0,7.9,6.136h0a8.187,8.187,0,0,0,2.038-.259,8.112,8.112,0,0,0,5-3.754,8.111,8.111,0,0,0,.88-6.188,8.182,8.182,0,0,0-.839-2.047h29.683a8.14,8.14,0,0,0-.844,6.112,8.16,8.16,0,0,0,7.9,6.136h0a8.206,8.206,0,0,0,2.039-.259,8.11,8.11,0,0,0,5-3.754,8.112,8.112,0,0,0,.88-6.188,8.187,8.187,0,0,0-.839-2.047h4.884v-5.851H-1901v-26.733Zm-49.832,39.719a3.155,3.155,0,0,1-3.84-2.27,3.156,3.156,0,0,1,2.271-3.841,3.155,3.155,0,0,1,3.84,2.27,3.155,3.155,0,0,1-2.271,3.841Zm43.819,0a3.156,3.156,0,0,1-3.84-2.27,3.156,3.156,0,0,1,2.271-3.841,3.155,3.155,0,0,1,3.84,2.27,3.156,3.156,0,0,1-2.271,3.841Zm-6.167-37.1h9.565v23.816h-23.816v-23.816h9.524v5.622h4.727v-5.622ZM-1948.1-279.13h11.025v4.669h5.471v-4.669h11.072v21.136H-1948.1V-279.13Zm-6.6,24.953h9.525v5.622h4.726v-5.622h9.566v23.816H-1954.7v-23.816Z" fill="#2c3e50"/>
    <path id="Trazado_3376" data-name="Trazado 3376" d="M-1922.632-237.612h.489v2.326h1.5v-2.326h.49a.391.391,0,0,0,.323-.171.388.388,0,0,0,.04-.363l-1.237-2.24a.392.392,0,0,0-.365-.249.387.387,0,0,0-.363.249l-1.238,2.24a.385.385,0,0,0,.04.363.391.391,0,0,0,.323.171Z" fill="#2c3e50"/>
    <path id="Trazado_3377" data-name="Trazado 3377" d="M-1918.731-237.783a.39.39,0,0,0,.323.171h.49v2.326h1.5v-2.326h.489a.393.393,0,0,0,.324-.171.388.388,0,0,0,.04-.363l-1.238-2.24a.39.39,0,0,0-.364-.249.39.39,0,0,0-.364.249l-1.238,2.24a.391.391,0,0,0,.041.363Z" fill="#2c3e50"/>
    <path id="Trazado_3378" data-name="Trazado 3378" d="M-1923.023-232.857h7.483v-1.5h-7.483v1.5Z" fill="#2c3e50"/>
    <path id="Trazado_3379" data-name="Trazado 3379" d="M-1911.42-236.163V-234l-1.054.084h.008v1.046h3.137v-1.046h.072l-1.118-.084v-2.174a1.619,1.619,0,0,0,1.308-1.658v-2.882h-3.661v2.882a1.591,1.591,0,0,0,1.308,1.666Z" fill="#2c3e50"/>
    <path id="Trazado_3380" data-name="Trazado 3380" d="M-1942.547-266.387h.566v2.693h1.733v-2.693h.567a.45.45,0,0,0,.374-.2.452.452,0,0,0,.048-.42l-1.434-2.594a.451.451,0,0,0-.421-.287.449.449,0,0,0-.421.287l-1.433,2.594a.452.452,0,0,0,.046.42.453.453,0,0,0,.375.2Z" fill="#2c3e50"/>
    <path id="Trazado_3381" data-name="Trazado 3381" d="M-1937.658-266.387h.567v2.693h1.733v-2.693h.566a.453.453,0,0,0,.375-.2.452.452,0,0,0,.046-.42l-1.432-2.594a.454.454,0,0,0-.422-.287.451.451,0,0,0-.421.287L-1938.08-267a.452.452,0,0,0,.048.42.45.45,0,0,0,.374.2Z" fill="#2c3e50"/>
    <path id="Trazado_3382" data-name="Trazado 3382" d="M-1943-260.882h8.661v-1.733H-1943v1.733Z" fill="#2c3e50"/>
    <path id="Trazado_3383" data-name="Trazado 3383" d="M-1931.083-266.637a1.842,1.842,0,0,0,1.513,1.929v2.506l-1.22.1h.009v1.211h3.632v-1.211h.083l-1.294-.1v-2.517a1.874,1.874,0,0,0,1.514-1.918v-3.337h-4.237v3.337Z" fill="#2c3e50"/>
    <path id="Trazado_3384" data-name="Trazado 3384" d="M-1965.753-482.15h.4v1.9h1.221v-1.9h.4a.32.32,0,0,0,.264-.14.315.315,0,0,0,.033-.3l-1.009-1.828a.32.32,0,0,0-.3-.2.319.319,0,0,0-.3.2l-1.009,1.828a.318.318,0,0,0,.032.3.322.322,0,0,0,.264.14Z" fill="#2c3e50"/>
    <path id="Trazado_3385" data-name="Trazado 3385" d="M-1962.309-482.15h.4v1.9h1.221v-1.9h.4a.319.319,0,0,0,.263-.14.315.315,0,0,0,.033-.3l-1.009-1.828a.32.32,0,0,0-.3-.2.321.321,0,0,0-.3.2l-1.009,1.828a.315.315,0,0,0,.033.3.319.319,0,0,0,.263.14Z" fill="#2c3e50"/>
    <path id="Trazado_3386" data-name="Trazado 3386" d="M-1966.072-478.273h6.1v-1.221h-6.1v1.221Z" fill="#2c3e50"/>
    <path id="Trazado_3387" data-name="Trazado 3387" d="M-1956.611-480.969v1.767l-.858.068h.006v.853h2.558v-.853h.059l-.911-.068v-1.774a1.319,1.319,0,0,0,1.066-1.351v-2.351h-2.986v2.351a1.3,1.3,0,0,0,1.066,1.358Z" fill="#2c3e50"/>
    <path id="Trazado_3388" data-name="Trazado 3388" d="M-1943.174-482.15h.4v1.9h1.221v-1.9h.4a.319.319,0,0,0,.263-.14.318.318,0,0,0,.034-.3l-1.01-1.828a.32.32,0,0,0-.3-.2.317.317,0,0,0-.3.2l-1.01,1.828a.315.315,0,0,0,.033.3.319.319,0,0,0,.264.14Z" fill="#2c3e50"/>
    <path id="Trazado_3389" data-name="Trazado 3389" d="M-1939.73-482.15h.4v1.9h1.221v-1.9h.4a.319.319,0,0,0,.264-.14.318.318,0,0,0,.033-.3l-1.009-1.828a.321.321,0,0,0-.3-.2.319.319,0,0,0-.3.2l-1.01,1.828a.319.319,0,0,0,.034.3.318.318,0,0,0,.263.14Z" fill="#2c3e50"/>
    <path id="Trazado_3390" data-name="Trazado 3390" d="M-1943.493-478.273h6.1v-1.221h-6.1v1.221Z" fill="#2c3e50"/>
    <path id="Trazado_3391" data-name="Trazado 3391" d="M-1934.032-480.969v1.767l-.859.068h.006v.853h2.559v-.853h.058l-.911-.068v-1.774a1.319,1.319,0,0,0,1.066-1.351v-2.351h-2.985v2.351a1.3,1.3,0,0,0,1.066,1.358Z" fill="#2c3e50"/>
    <path id="Trazado_3392" data-name="Trazado 3392" d="M-1920.6-482.15h.4v1.9h1.221v-1.9h.4a.321.321,0,0,0,.264-.14.315.315,0,0,0,.033-.3l-1.01-1.828a.317.317,0,0,0-.3-.2.319.319,0,0,0-.3.2l-1.009,1.828a.315.315,0,0,0,.032.3.321.321,0,0,0,.264.14Z" fill="#2c3e50"/>
    <path id="Trazado_3393" data-name="Trazado 3393" d="M-1917.415-482.29a.319.319,0,0,0,.263.14h.4v1.9h1.221v-1.9h.4a.319.319,0,0,0,.263-.14.318.318,0,0,0,.033-.3l-1.009-1.828a.32.32,0,0,0-.3-.2.32.32,0,0,0-.3.2l-1.009,1.828a.318.318,0,0,0,.033.3Z" fill="#2c3e50"/>
    <path id="Trazado_3394" data-name="Trazado 3394" d="M-1920.915-478.273h6.1v-1.221h-6.1v1.221Z" fill="#2c3e50"/>
    <path id="Trazado_3395" data-name="Trazado 3395" d="M-1911.454-480.969v1.767l-.858.068h.006v.853h2.558v-.853h.059l-.911-.068v-1.774a1.318,1.318,0,0,0,1.065-1.351v-2.351h-2.985v2.351a1.3,1.3,0,0,0,1.066,1.358Z" fill="#2c3e50"/>
    <path id="Trazado_3396" data-name="Trazado 3396" d="M-1954.464-504.625h.4v1.9h1.221v-1.9h.4a.319.319,0,0,0,.263-.14.32.32,0,0,0,.034-.3l-1.01-1.827a.319.319,0,0,0-.3-.2.316.316,0,0,0-.3.2l-1.01,1.827a.318.318,0,0,0,.033.3.319.319,0,0,0,.263.14Z" fill="#2c3e50"/>
    <path id="Trazado_3397" data-name="Trazado 3397" d="M-1951.019-504.625h.4v1.9h1.221v-1.9h.4a.321.321,0,0,0,.264-.14.32.32,0,0,0,.033-.3l-1.01-1.827a.319.319,0,0,0-.3-.2.318.318,0,0,0-.3.2l-1.01,1.827a.32.32,0,0,0,.033.3.319.319,0,0,0,.264.14Z" fill="#2c3e50"/>
    <path id="Trazado_3398" data-name="Trazado 3398" d="M-1954.783-500.748h6.1v-1.221h-6.1v1.221Z" fill="#2c3e50"/>
    <path id="Trazado_3399" data-name="Trazado 3399" d="M-1946.387-504.8a1.3,1.3,0,0,0,1.066,1.358v1.767l-.859.068h.006v.853h2.559v-.853h.058l-.911-.068v-1.774a1.321,1.321,0,0,0,1.066-1.351v-2.351h-2.985v2.351Z" fill="#2c3e50"/>
    <path id="Trazado_3400" data-name="Trazado 3400" d="M-1936.823-520.267h-23.686v22.476H-1971.8v23.685h68.843v-23.685h-11.29v-22.476Zm1.025,2.133h7.767v4.584h3.854v-4.584h7.8v19.421H-1935.8v-19.421Zm-22.579,0h7.767v4.584h3.854v-4.584h7.8v19.421h-19.422v-19.421Zm8.133,41.9h-19.422v-19.421h7.767v4.584h3.854v-4.584h7.8v19.421Zm22.578,0h-19.422v-19.421h7.768v4.584h3.854v-4.584h7.8v19.421Zm14.778-19.421h7.8v19.421h-19.421v-19.421h7.767v4.584h3.854v-4.584Z" fill="#2c3e50"/>
    <path id="Trazado_3401" data-name="Trazado 3401" d="M-1931.885-504.625h.4v1.9h1.221v-1.9h.4a.318.318,0,0,0,.263-.14.315.315,0,0,0,.034-.3l-1.01-1.827a.318.318,0,0,0-.3-.2.318.318,0,0,0-.3.2l-1.01,1.827a.32.32,0,0,0,.033.3.321.321,0,0,0,.264.14Z" fill="#2c3e50"/>
    <path id="Trazado_3402" data-name="Trazado 3402" d="M-1928.441-504.625h.4v1.9h1.22v-1.9h.4a.32.32,0,0,0,.264-.14.32.32,0,0,0,.033-.3l-1.009-1.827a.319.319,0,0,0-.3-.2.319.319,0,0,0-.3.2l-1.009,1.827a.317.317,0,0,0,.033.3.319.319,0,0,0,.263.14Z" fill="#2c3e50"/>
    <path id="Trazado_3403" data-name="Trazado 3403" d="M-1932.2-500.748h6.1v-1.221h-6.1v1.221Z" fill="#2c3e50"/>
    <path id="Trazado_3404" data-name="Trazado 3404" d="M-1923.809-504.8a1.3,1.3,0,0,0,1.066,1.358v1.767l-.859.068h.006v.853h2.559v-.853h.058l-.911-.068v-1.774a1.321,1.321,0,0,0,1.066-1.351v-2.351h-2.985v2.351Z" fill="#2c3e50"/>
    <path id="Trazado_3405" data-name="Trazado 3405" d="M-1982.645-536.006v61.9h5.952V-523.97h78.633v49.864h5.952v-61.9l-45.269-21.3-45.268,21.3Zm79.69,7.01H-1971.8v-2.381h68.843V-529Zm-9.75-6.393h-49.344v-2.381h49.344v2.381Zm-9.75-6.393H-1952.3v-2.381h29.844v2.381Z" fill="#2c3e50"/>
    <path id="Trazado_3406" data-name="Trazado 3406" d="M-1830.779-290.648h22.519v13.292h11.173v-13.292h22.613v46.483a28.844,28.844,0,0,1,6.182-2.966v-49.3h-68.669v47.5c2.031.066,4.1.165,6.182.288v-42Z" fill="#2c3e50"/>
    <path id="Trazado_3407" data-name="Trazado 3407" d="M-1815.647-263.6a.924.924,0,0,0-.861-.586.919.919,0,0,0-.859.586l-2.929,5.3a.929.929,0,0,0,.1.859.925.925,0,0,0,.765.4h1.156v5.1h3.54v-5.1h1.158a.926.926,0,0,0,.765-.4.929.929,0,0,0,.1-.859l-2.928-5.3Z" fill="#2c3e50"/>
    <path id="Trazado_3408" data-name="Trazado 3408" d="M-1805.66-263.6a.928.928,0,0,0-.862-.586.926.926,0,0,0-.861.586l-2.926,5.3a.92.92,0,0,0,.1.859.92.92,0,0,0,.763.4h1.158v5.1h3.54v-5.1h1.157a.924.924,0,0,0,.763-.4.923.923,0,0,0,.1-.859l-2.925-5.3Z" fill="#2c3e50"/>
    <path id="Trazado_3409" data-name="Trazado 3409" d="M-1820.36-249.337v1.483c5.954.545,11.635,1.2,16.386,1.811l.481.061.822.1v-3.46Z" fill="#2c3e50"/>
    <path id="Trazado_3410" data-name="Trazado 3410" d="M-1796.021-257.551a3.763,3.763,0,0,0,3.091,3.939v5.121l-2.49.2h.018v2.472h7.418v-2.472h.169l-2.642-.2v-5.143a3.826,3.826,0,0,0,3.092-3.917v-6.815h-8.656v6.815Z" fill="#2c3e50"/>
    <path id="Trazado_3411" data-name="Trazado 3411" d="M-1763.824-244.72c-5.305,0-11.343,4.907-14.25,6.781,0,.032,0,.062,0,.1.248,9.288-5.518,10.786-14.313,10.786-12.912,0-18.237-2.682-24.429-4.909,26.768-.761,32.767.408,32.645-4.887-.08-3.506-4.288-4.007-20.207-6.042-11.367-1.452-26.186-2.969-38.308-2.969h-.011c-7.339,0-9.669.556-13.416,2.019v22.614c.451-.146,1.18-.386,2.091-.688,8.452-2.8,10.7-2.889,11.94-2.889h.256c.456,0,35.392,10.4,40.328,10.4,6.294-.011,24.025-5.906,33.058-13.88,7.266-6.411,7.608-16.429,4.614-16.429Z" fill="#2c3e50"/>
    <path id="Trazado_3412" data-name="Trazado 3412" d="M-2083.885-238.234a4.576,4.576,0,0,1,.621-.9l-5.632-5.241,5.011,6.14Z" fill="#2c3e50"/>
    <path id="Trazado_3413" data-name="Trazado 3413" d="M-2048.08-239.134a4.551,4.551,0,0,1,.622.9l5.01-6.14-5.632,5.24Z" fill="#2c3e50"/>
    <path id="Trazado_3414" data-name="Trazado 3414" d="M-2102.745-229.825h21.458a7.576,7.576,0,0,1-3.116-6.35c0-.1.005-.206.014-.325h-11.681v-60.8h24.315v14.352h12.064V-297.3h24.418v60.8h-11.681c.009.119.014.23.014.325a7.576,7.576,0,0,1-3.116,6.35h21.458V-303.97h-74.147v74.145Z" fill="#2c3e50"/>
    <path id="Trazado_3415" data-name="Trazado 3415" d="M-2050.908-236.175c0-1.45-7.38-2.175-14.76-2.175h-.007c-7.381,0-14.76.725-14.76,2.175,0,6.834,11.492,2.327,11.492,9.116,0,2.111-1.1,6.185-1.1,15.884a4.169,4.169,0,0,0,4.37,4.3h0a4.169,4.169,0,0,0,4.37-4.3c0-9.7-1.1-13.773-1.1-15.884,0-6.789,11.492-2.282,11.492-9.116Zm-13.213,3.2c0,1.164-.694,2.334-1.55,2.334s-1.551-1.17-1.551-2.334a1.666,1.666,0,0,1,1.551-1.883c.856,0,1.55.718,1.55,1.883Z" fill="#2c3e50"/>
    <path id="Trazado_3416" data-name="Trazado 3416" d="M-2082.812-262.227h-3.348v17.368h3.348v-17.368Z" fill="#2c3e50"/>
    <path id="Trazado_3417" data-name="Trazado 3417" d="M-2075.525-262.227h-1.532v15.555h1.532v-15.555Z" fill="#2c3e50"/>
    <path id="Trazado_3418" data-name="Trazado 3418" d="M-2079.171-262.227h-1.531v15.555h1.531v-15.555Z" fill="#2c3e50"/>
    <path id="Trazado_3419" data-name="Trazado 3419" d="M-2070.312-262.227h-2.5v15.555h2.5v-15.555Z" fill="#2c3e50"/>
    <path id="Trazado_3420" data-name="Trazado 3420" d="M-2063.752-262.227h-3.766v17.368h3.766v-17.368Z" fill="#2c3e50"/>
    <path id="Trazado_3421" data-name="Trazado 3421" d="M-2060.006-262.227h-1.171v15.555h1.171v-15.555Z" fill="#2c3e50"/>
    <path id="Trazado_3422" data-name="Trazado 3422" d="M-2051.225-262.227h-1.221v15.555h1.221v-15.555Z" fill="#2c3e50"/>
    <path id="Trazado_3423" data-name="Trazado 3423" d="M-2055.446-262.227h-2.035v15.555h2.035v-15.555Z" fill="#2c3e50"/>
    <path id="Trazado_3424" data-name="Trazado 3424" d="M-2045.183-262.227h-3.376v17.368h3.376v-17.368Z" fill="#2c3e50"/>
    <path id="Trazado_3425" data-name="Trazado 3425" d="M-1855.505-552.387a3.161,3.161,0,0,0,1.6,1.8,3.17,3.17,0,0,0,2.4.131l9.6-3.387a6.285,6.285,0,0,1,2.095-.359,6.334,6.334,0,0,1,2.73.622,6.337,6.337,0,0,1,3.216,3.606l18.65,53.654a18.428,18.428,0,0,1,4.6-1.873c.567-.145,1.14-.255,1.715-.347l-4.882-13.954,11.125-3.892,2.3,6.565,5.52-1.931-2.3-6.566,11.174-3.909,9.732,27.818-13.8,4.827a18.545,18.545,0,0,1,1.93,4.7c.126.49.226.982.311,1.475l21.723-7.551-2.126-6.117-4.943,1.718-10.846-31,0,0-11.022-31.5-30.974,10.836-1.752-5.04a12.88,12.88,0,0,0-6.529-7.325,12.941,12.941,0,0,0-9.8-.547l-9.592,3.368a3.14,3.14,0,0,0-1.922,3.987l.065.188Zm41.822,4.5,2.3,6.566,5.52-1.931-2.3-6.567,11.174-3.909,9.733,27.818-27.82,9.734L-1824.808-544l11.125-3.892Z" fill="#2c3e50"/>
    <path id="Trazado_3426" data-name="Trazado 3426" d="M-1794.944-497.654a.48.48,0,0,0-.1-.441l-2.362-2.111a.482.482,0,0,0-.527-.141.481.481,0,0,0-.323.438l-.447,2.63a18.469,18.469,0,0,1,3.525,2l-.645-1.844.572-.2a.481.481,0,0,0,.307-.332Z" fill="#2c3e50"/>
    <path id="Trazado_3427" data-name="Trazado 3427" d="M-1790.009-499.381a.481.481,0,0,0-.1-.44l-2.362-2.112a.486.486,0,0,0-.527-.141.486.486,0,0,0-.324.439l-.53,3.123a.489.489,0,0,0,.2.408.486.486,0,0,0,.447.068l.573-.2.951,2.717,1.748-.611-.951-2.718.572-.2a.485.485,0,0,0,.308-.333Z" fill="#2c3e50"/>
    <path id="Trazado_3428" data-name="Trazado 3428" d="M-1788.529-495.4l-4.782,1.673a18.542,18.542,0,0,1,1.4,1.473l3.995-1.4-.613-1.749Z" fill="#2c3e50"/>
    <path id="Trazado_3429" data-name="Trazado 3429" d="M-1782.386-502.107l-1.179-3.368-4.277,1.5,1.178,3.367a1.97,1.97,0,0,0,2.209,1.412l.885,2.53-1.2.528.01,0,.427,1.222,3.665-1.283-.428-1.222.084-.029-1.339.359-.889-2.54a2,2,0,0,0,.851-2.47Z" fill="#2c3e50"/>
    <path id="Trazado_3430" data-name="Trazado 3430" d="M-1809.617-527.878a.48.48,0,0,0,.447.068l.572-.2.951,2.717,1.748-.612-.95-2.717.571-.2a.482.482,0,0,0,.308-.332.48.48,0,0,0-.1-.441l-2.361-2.111a.482.482,0,0,0-.527-.141.483.483,0,0,0-.324.438l-.53,3.124a.481.481,0,0,0,.2.407Z" fill="#2c3e50"/>
    <path id="Trazado_3431" data-name="Trazado 3431" d="M-1804.683-529.6a.483.483,0,0,0,.447.068l.572-.2.952,2.717,1.748-.612-.951-2.717.572-.2a.481.481,0,0,0,.307-.332.48.48,0,0,0-.1-.441l-2.36-2.111a.49.49,0,0,0-.529-.141.485.485,0,0,0-.324.439l-.53,3.123a.487.487,0,0,0,.2.407Z" fill="#2c3e50"/>
    <path id="Trazado_3432" data-name="Trazado 3432" d="M-1807.683-522.1l8.74-3.059-.613-1.748-8.74,3.058.612,1.749Z" fill="#2c3e50"/>
    <path id="Trazado_3433" data-name="Trazado 3433" d="M-1795.482-530.7l.886,2.53-1.2.528.01,0,.427,1.222,3.665-1.282-.428-1.222.083-.03-1.339.359-.889-2.54a2,2,0,0,0,.851-2.47l-1.178-3.367-4.278,1.5,1.179,3.367a1.969,1.969,0,0,0,2.208,1.412Z" fill="#2c3e50"/>
    <path id="Trazado_3434" data-name="Trazado 3434" d="M-1809.556-494.073a14.258,14.258,0,0,0-10.249,17.336,14.231,14.231,0,0,0,13.78,10.7h0a14.283,14.283,0,0,0,3.554-.452,14.144,14.144,0,0,0,8.714-6.545,14.14,14.14,0,0,0,1.534-10.789,14.227,14.227,0,0,0-13.778-10.7,14.3,14.3,0,0,0-3.556.452Zm8.871,12.423a5.5,5.5,0,0,1-3.96,6.7,5.5,5.5,0,0,1-6.7-3.958,5.5,5.5,0,0,1,3.96-6.7,5.5,5.5,0,0,1,6.7,3.958Z" fill="#2c3e50"/>
    <path id="Trazado_3435" data-name="Trazado 3435" d="M-1777.188-378h.286v1.361h.876V-378h.287a.228.228,0,0,0,.189-.1.228.228,0,0,0,.024-.212l-.725-1.312a.227.227,0,0,0-.213-.145.229.229,0,0,0-.213.145l-.725,1.312a.228.228,0,0,0,.024.212.23.23,0,0,0,.19.1Z" fill="#2c3e50"/>
    <path id="Trazado_3436" data-name="Trazado 3436" d="M-1774.905-378.105a.227.227,0,0,0,.189.1h.286v1.361h.877V-378h.286a.227.227,0,0,0,.189-.1.226.226,0,0,0,.024-.212l-.725-1.312a.228.228,0,0,0-.213-.145.229.229,0,0,0-.213.145l-.724,1.312a.226.226,0,0,0,.024.212Z" fill="#2c3e50"/>
    <path id="Trazado_3437" data-name="Trazado 3437" d="M-1777.417-375.222h4.379v-.877h-4.379v.877Z" fill="#2c3e50"/>
    <path id="Trazado_3438" data-name="Trazado 3438" d="M-1770.627-377.156v1.268l-.617.049h.005v.612h1.836v-.612h.043l-.654-.049v-1.273a.948.948,0,0,0,.764-.97v-1.688h-2.142v1.688a.931.931,0,0,0,.765.975Z" fill="#2c3e50"/>
    <path id="Trazado_3439" data-name="Trazado 3439" d="M-1777.188-393.936h.286v1.362h.876v-1.362h.287a.227.227,0,0,0,.189-.1.23.23,0,0,0,.024-.213l-.725-1.311a.227.227,0,0,0-.213-.145.229.229,0,0,0-.213.145l-.725,1.311a.23.23,0,0,0,.024.213.23.23,0,0,0,.19.1Z" fill="#2c3e50"/>
    <path id="Trazado_3440" data-name="Trazado 3440" d="M-1774.716-393.936h.286v1.362h.877v-1.362h.286a.226.226,0,0,0,.189-.1.228.228,0,0,0,.024-.213l-.725-1.311a.228.228,0,0,0-.213-.145.229.229,0,0,0-.213.145l-.724,1.311a.228.228,0,0,0,.024.213.226.226,0,0,0,.189.1Z" fill="#2c3e50"/>
    <path id="Trazado_3441" data-name="Trazado 3441" d="M-1777.417-391.153h4.379v-.876h-4.379v.876Z" fill="#2c3e50"/>
    <path id="Trazado_3442" data-name="Trazado 3442" d="M-1771.392-394.063a.929.929,0,0,0,.765.975v1.268l-.617.049h.005v.612h1.836v-.612h.043l-.654-.049v-1.273a.947.947,0,0,0,.764-.97v-1.687h-2.142v1.687Z" fill="#2c3e50"/>
    <path id="Trazado_3443" data-name="Trazado 3443" d="M-1764.527-373.007v-32.155h-17v47.012h-76.128v3.352h97.146v-18.209ZM-1780-403.631h5.574v3.29h2.767v-3.29h5.6v13.939H-1780v-13.939Zm8.341,19.221v-3.29h5.6v13.939H-1780V-387.7h5.574v3.29Z" fill="#2c3e50"/>
    <path id="Trazado_3444" data-name="Trazado 3444" d="M-1785.6-407.207h-40.888v14.267s-9-.212-10.844,1.543l-6.817,8.364a9.363,9.363,0,0,1-4.715,2.424l-6.931,1.481c-1.15.219-1.555,1.711-1.713,2.869l-.074.544h2.351v2.9c0,1.339-1.084,1.714-2.423,1.714v7.878h5.526a6.79,6.79,0,0,0,6.647,5.428,6.791,6.791,0,0,0,6.648-5.428h33.315a6.8,6.8,0,0,0,6.667,5.466,6.8,6.8,0,0,0,6.667-5.466h2.753v-7.928l-33.861-2.657h37.693v-33.4Zm-59.882,45.6a2.989,2.989,0,0,1-2.989-2.99,2.989,2.989,0,0,1,2.989-2.99,2.991,2.991,0,0,1,2.99,2.99,2.99,2.99,0,0,1-2.99,2.99Zm15.85-18.934c0,.838-11.787.838-11.787,0,0,0,6.648-8.384,7.459-8.434l4.414-.19-.086,8.624Zm30.78,12.993a2.989,2.989,0,0,1,2.989,2.99,2.989,2.989,0,0,1-2.989,2.989,2.99,2.99,0,0,1-2.99-2.989,2.99,2.99,0,0,1,2.99-2.99Z" fill="#2c3e50"/>
    <path id="Trazado_3445" data-name="Trazado 3445" d="M-1973.927-385.826l7.314,4.937L-1967-388.1l-6.927,2.279Z" fill="#2c3e50"/>
    <path id="Trazado_3446" data-name="Trazado 3446" d="M-1902.959-381.906l-.284,6.032,7.146,4.257-3.324,1.453-6.247-3.406-7.269,2.793,6.027,3.886-3.522,1.539-6.282-4.116-8.483,3.336,6.821,4.251-3.74,1.634-7.058-4.507-8.943,3.1,7.556,5.1-3.973,1.736-43.024-29.811-8.172,2.688.731,7.761,41.649,32.013,8.838-4.033-.014-4.911,16.063-7.135-.147,4.791,7.825-3.57.222-4.73,14.26-6.333-.348,4.615,6.98-3.185.648-8.047-13.936-7.2Zm-78.547,7.4-.457-4.662,11.918,8.768.365,4.852-11.826-8.958Zm18.588,14.08-.308-4.957,14.354,10.561.171,5.166-14.217-10.77Z" fill="#2c3e50"/>
    <path id="Trazado_3447" data-name="Trazado 3447" d="M-1913.974-382.157l.082-2.111-18.422,6.105-.01,2.526,18.351-6.521Z" fill="#2c3e50"/>
    <path id="Trazado_3448" data-name="Trazado 3448" d="M-1921.394-398.93l2.094-.521-.381,14.175,2.769-.829.448-14.051,2.062-.512-3.109-5.96-.269.056-3.614,7.642Z" fill="#2c3e50"/>
    <path id="Trazado_3449" data-name="Trazado 3449" d="M-1931.224-395.694l2.092-.52-.137,14.206,3.2-.957.22-14.064,2.131-.529-3.54-6.248-.138.029-3.825,8.083Z" fill="#2c3e50"/>
    <path id="Trazado_3450" data-name="Trazado 3450" d="M-1962.611-380.384l21.72,15.49,33.68-12.463h0l1.269-39.653h0l-10.971-2.944-34.66,7.214.1,14.609-3.759-1.733-.575-15.035,33.818-6.916-9.305-2.377h0l-33.356,5.782,2.042,38.029Zm53.606-32.231-.747,32.835-27.782,10.065-.221-35.961,28.75-6.939Z" fill="#2c3e50"/>
  </g>
</svg>
