<svg xmlns="http://www.w3.org/2000/svg" width="1062.991" height="491.071" viewBox="0 0 1062.991 491.071">
  <g id="Grupo_18527" data-name="Grupo 18527" transform="translate(-187.812 -1521.145)">
    <line id="Línea_226" data-name="Línea 226" y2="69.062" transform="translate(636.458 1567.944)" fill="none" stroke="#ffdca8" stroke-linecap="round" stroke-miterlimit="10" stroke-width="3" stroke-dasharray="8"/>
    <line id="Línea_227" data-name="Línea 227" y2="69.062" transform="translate(802.156 1567.944)" fill="none" stroke="#ffdca8" stroke-linecap="round" stroke-miterlimit="10" stroke-width="3" stroke-dasharray="8"/>
    <path id="Trazado_50890" data-name="Trazado 50890" d="M375.815,1645.01v256.273h-188V1645.01" fill="#d4f1ff"/>
    <path id="Trazado_50891" data-name="Trazado 50891" d="M588.984,1629.007v272.276h-188V1629.007" fill="#d4f1ff"/>
    <path id="Trazado_50892" data-name="Trazado 50892" d="M1037.63,1629.007v272.276h-188V1629.007" fill="#d4f1ff"/>
    <path id="Trazado_50893" data-name="Trazado 50893" d="M1250.8,1645.01v256.273h-188V1645.01" fill="#d4f1ff"/>
    <rect id="Rectángulo_4662" data-name="Rectángulo 4662" width="152.2" height="46.8" rx="4" transform="translate(560.358 1521.145)" fill="#ffd553"/>
    <rect id="Rectángulo_4663" data-name="Rectángulo 4663" width="152.2" height="46.8" rx="4" transform="translate(726.056 1521.145)" fill="#ffd553"/>
    <rect id="Rectángulo_4664" data-name="Rectángulo 4664" width="188.003" height="87.6" rx="4" transform="translate(187.812 1585.207)" fill="#36afea"/>
    <rect id="Rectángulo_4665" data-name="Rectángulo 4665" width="188" height="87.6" rx="43.8" transform="translate(400.984 1585.207)" fill="#36afea"/>
    <path id="Trazado_50894" data-name="Trazado 50894" d="M786.271,1672.807H632.763c-2.855,0-4.97-2.386-4.335-4.89l9.648-38.02a3.6,3.6,0,0,0,0-1.78l-9.648-38.02c-.635-2.5,1.48-4.89,4.335-4.89H786.271a4.5,4.5,0,0,1,4.045,2.339l20.2,39.8a3.632,3.632,0,0,1,0,3.322l-20.2,39.8A4.5,4.5,0,0,1,786.271,1672.807Z" fill="#36afea"/>
    <rect id="Rectángulo_4666" data-name="Rectángulo 4666" width="188.596" height="87.6" rx="43.8" transform="translate(849.332 1585.207)" fill="#36afea"/>
    <rect id="Rectángulo_4667" data-name="Rectángulo 4667" width="188" height="87.6" rx="4" transform="translate(1062.803 1585.207)" fill="#36afea"/>
    <text id="Punto_de_inicio" data-name="Punto de inicio" transform="translate(575.906 1549.34)" fill="#805413" font-size="16" font-family="Montserrat-SemiBold, Montserrat" font-weight="600"><tspan x="0" y="0">Punto de inicio</tspan></text>
    <text id="PROCESOS_PRECEDENTES_Por_ejemplo_en_proveedores_internos_o_externos_en_clientes_ó_en_otras_partes_interesadas_pertinentes." data-name="PROCESOS
PRECEDENTES
Por ejemplo, en proveedores (internos o externos) en clientes ó en otras partes interesadas pertinentes." transform="translate(207.001 1686.071)" fill="#00223d" font-size="16" font-family="OpenSans-Bold, Open Sans" font-weight="700"><tspan x="0" y="17">PROCESOS</tspan><tspan x="0" y="39">PRECEDENTES</tspan><tspan font-family="OpenSans, Open Sans" font-weight="400"><tspan x="0" y="61">Por ejemplo, en </tspan><tspan x="0" y="83">proveedores </tspan><tspan x="0" y="105">(internos o </tspan><tspan x="0" y="127">externos) en </tspan><tspan x="0" y="149">clientes ó en otras </tspan><tspan x="0" y="171">partes interesadas </tspan><tspan x="0" y="193">pertinentes.</tspan></tspan></text>
    <text id="MATERIA_ENERGÍA_INFORMACIÓN_Por_ejemplo_en_la_forma_de_materiales_recursos_ó_requisitos." data-name="MATERIA, ENERGÍA, INFORMACIÓN Por ejemplo, en la forma de materiales, recursos ó requisitos." transform="translate(420.17 1686.071)" fill="#00223d" font-size="16" font-family="OpenSans-Bold, Open Sans" font-weight="700"><tspan x="0" y="17">MATERIA, </tspan><tspan x="0" y="39">ENERGÍA, </tspan><tspan x="0" y="61">INFORMACIÓN </tspan><tspan y="61" font-family="OpenSans, Open Sans" font-weight="400">Por </tspan><tspan x="0" y="83" font-family="OpenSans, Open Sans" font-weight="400">ejemplo, en la </tspan><tspan x="0" y="105" font-family="OpenSans, Open Sans" font-weight="400">forma de </tspan><tspan x="0" y="127" font-family="OpenSans, Open Sans" font-weight="400">materiales, </tspan><tspan x="0" y="149" font-family="OpenSans, Open Sans" font-weight="400">recursos ó </tspan><tspan x="0" y="171" font-family="OpenSans, Open Sans" font-weight="400">requisitos.</tspan></text>
    <text id="MATERIA_ENERGÍA_INFORMACIÓN_Por_ejemplo_en_la_forma_de_producto_servicio_ó_decisión." data-name="MATERIA, ENERGÍA, INFORMACIÓN Por ejemplo, en la forma de producto, servicio ó decisión." transform="translate(868.816 1686.071)" fill="#00223d" font-size="16" font-family="OpenSans-Bold, Open Sans" font-weight="700"><tspan x="0" y="17">MATERIA, </tspan><tspan x="0" y="39">ENERGÍA, </tspan><tspan x="0" y="61">INFORMACIÓN </tspan><tspan y="61" font-family="OpenSans, Open Sans" font-weight="400">Por </tspan><tspan x="0" y="83" font-family="OpenSans, Open Sans" font-weight="400">ejemplo, en la </tspan><tspan x="0" y="105" font-family="OpenSans, Open Sans" font-weight="400">forma de producto, </tspan><tspan x="0" y="127" font-family="OpenSans, Open Sans" font-weight="400">servicio ó decisión.</tspan></text>
    <text id="PROCESOS_POSTERIORES_Por_ejemplo_en_clientes_internos_o_externos_en_otras_partes_interesadas_pertinentes." data-name="PROCESOS POSTERIORES
Por ejemplo, en clientes (internos o externos), en otras partes interesadas pertinentes." transform="translate(1081.989 1686.071)" fill="#00223d" font-size="16" font-family="OpenSans-Bold, Open Sans" font-weight="700"><tspan x="0" y="17">PROCESOS </tspan><tspan x="0" y="39">POSTERIORES</tspan><tspan font-family="OpenSans, Open Sans" font-weight="400"><tspan x="0" y="61">Por ejemplo, en </tspan><tspan x="0" y="83">clientes (internos o </tspan><tspan x="0" y="105">externos), en otras </tspan><tspan x="0" y="127">partes interesadas </tspan><tspan x="0" y="149">pertinentes.</tspan></tspan></text>
    <text id="Punto_final" data-name="Punto final" transform="translate(758.348 1549.34)" fill="#805413" font-size="16" font-family="Montserrat-SemiBold, Montserrat" font-weight="600"><tspan x="0" y="0">Punto final</tspan></text>
    <text id="Actividades" transform="translate(721.357 1634.887)" fill="#fff" font-size="20" font-family="Montserrat-SemiBold, Montserrat" font-weight="600"><tspan x="-60.35" y="0">Actividades</tspan></text>
    <text id="Entradas" transform="translate(494.984 1634.887)" fill="#fff" font-size="20" font-family="Montserrat-SemiBold, Montserrat" font-weight="600"><tspan x="-46.12" y="0">Entradas</tspan></text>
    <text id="Salidas" transform="translate(943.63 1634.887)" fill="#fff" font-size="20" font-family="Montserrat-SemiBold, Montserrat" font-weight="600"><tspan x="-36.23" y="0">Salidas</tspan></text>
    <text id="Receptores_de_las_salidas" data-name="Receptores
de las salidas" transform="translate(1156.803 1622.887)" fill="#fff" font-size="20" font-family="Montserrat-SemiBold, Montserrat" font-weight="600"><tspan x="-58.32" y="0">Receptores</tspan><tspan x="-67.81" y="24">de las salidas</tspan></text>
    <text id="Fuentes_de_entradas" data-name="Fuentes de
entradas" transform="translate(281.813 1622.887)" fill="#fff" font-size="20" font-family="Montserrat-SemiBold, Montserrat" font-weight="600"><tspan x="-57.38" y="0">Fuentes de</tspan><tspan x="-45.64" y="24">entradas</tspan></text>
    <line id="Línea_228" data-name="Línea 228" x2="897.292" transform="translate(270.661 1967.243)" fill="none" stroke="#bfeef4" stroke-linecap="round" stroke-linejoin="round" stroke-width="3"/>
    <line id="Línea_229" data-name="Línea 229" y2="49.764" transform="translate(270.661 1917.479)" fill="none" stroke="#bfeef4" stroke-linecap="round" stroke-linejoin="round" stroke-width="3"/>
    <path id="Trazado_50895" data-name="Trazado 50895" d="M277.072,1922.1c.984,1.968-.011,3.578-2.211,3.578h-8.4c-2.2,0-3.2-1.61-2.211-3.578l4.622-9.244c.984-1.968,2.594-1.968,3.578,0Z" fill="#bfeef4"/>
    <line id="Línea_230" data-name="Línea 230" y2="49.764" transform="translate(494.984 1917.479)" fill="none" stroke="#bfeef4" stroke-linecap="round" stroke-linejoin="round" stroke-width="3"/>
    <path id="Trazado_50896" data-name="Trazado 50896" d="M501.395,1922.1c.984,1.968-.011,3.578-2.211,3.578h-8.4c-2.2,0-3.2-1.61-2.211-3.578l4.622-9.244c.984-1.968,2.594-1.968,3.578,0Z" fill="#bfeef4"/>
    <line id="Línea_231" data-name="Línea 231" y2="258.723" transform="translate(719.307 1706.36)" fill="none" stroke="#bfeef4" stroke-linecap="round" stroke-linejoin="round" stroke-width="3"/>
    <path id="Trazado_50897" data-name="Trazado 50897" d="M725.718,1710.983c.984,1.968-.011,3.577-2.211,3.577h-8.4c-2.2,0-3.2-1.609-2.211-3.577l4.622-9.245c.984-1.968,2.594-1.968,3.578,0Z" fill="#bfeef4"/>
    <line id="Línea_232" data-name="Línea 232" y2="49.764" transform="translate(943.63 1917.479)" fill="none" stroke="#bfeef4" stroke-linecap="round" stroke-linejoin="round" stroke-width="3"/>
    <path id="Trazado_50898" data-name="Trazado 50898" d="M950.042,1922.1c.983,1.968-.012,3.578-2.212,3.578h-8.4c-2.2,0-3.2-1.61-2.211-3.578l4.623-9.244c.983-1.968,2.593-1.968,3.577,0Z" fill="#bfeef4"/>
    <line id="Línea_233" data-name="Línea 233" y2="49.764" transform="translate(1167.954 1917.479)" fill="none" stroke="#bfeef4" stroke-linecap="round" stroke-linejoin="round" stroke-width="3"/>
    <path id="Trazado_50899" data-name="Trazado 50899" d="M1174.365,1922.1c.984,1.968-.011,3.578-2.211,3.578h-8.4c-2.2,0-3.2-1.61-2.212-3.578l4.623-9.244c.984-1.968,2.594-1.968,3.577,0Z" fill="#bfeef4"/>
    <rect id="Rectángulo_4668" data-name="Rectángulo 4668" width="306.314" height="87.6" rx="2" transform="translate(566.2 1921.283)" fill="#bfeef4"/>
    <text id="Posibles_controles_y_puntos_de_control_para_hacer_el_seguimiento_del_desempeño_y_medirlo" data-name="Posibles controles y puntos de control para hacer el seguimiento del desempeño y medirlo" transform="translate(578.127 1931.216)" fill="#00223d" font-size="16" font-family="OpenSans, Open Sans"><tspan x="27.781" y="17">Posibles controles y puntos de </tspan><tspan x="2.288" y="39">control para hacer el seguimiento del </tspan><tspan x="59.796" y="61">desempeño y medirlo</tspan></text>
  </g>
</svg>
