<svg xmlns="http://www.w3.org/2000/svg" width="829.117" height="220.615" viewBox="0 0 829.117 220.615">
  <g id="Grupo_21419" data-name="Grupo 21419" transform="translate(1220.86 -1549.078)">
    <g id="Grupo_21412" data-name="Grupo 21412">
      <line id="Línea_252" data-name="Línea 252" x1="24.918" transform="translate(-627.652 1580.805)" fill="none" stroke="#71d9e6" stroke-linecap="round" stroke-linejoin="round" stroke-width="5"/>
      <path id="Trazado_59056" data-name="Trazado 59056" d="M-607.356,1587.216c-1.968.984-3.578-.011-3.578-2.211v-8.4c0-2.2,1.61-3.195,3.578-2.211l9.244,4.622c1.968.984,1.968,2.594,0,3.578Z" fill="#71d9e6"/>
    </g>
    <g id="Grupo_21413" data-name="Grupo 21413">
      <line id="Línea_253" data-name="Línea 253" x1="24.918" transform="translate(-1015.967 1580.805)" fill="none" stroke="#71d9e6" stroke-linecap="round" stroke-linejoin="round" stroke-width="5"/>
      <path id="Trazado_59057" data-name="Trazado 59057" d="M-995.671,1587.216c-1.968.984-3.578-.011-3.578-2.211v-8.4c0-2.2,1.61-3.195,3.578-2.211l9.244,4.622c1.968.984,1.968,2.594,0,3.578Z" fill="#71d9e6"/>
    </g>
    <g id="Grupo_21415" data-name="Grupo 21415">
      <path id="Rectángulo_5292" data-name="Rectángulo 5292" d="M0,0H193.458a0,0,0,0,1,0,0V139.731a8,8,0,0,1-8,8H8a8,8,0,0,1-8-8V0A0,0,0,0,1,0,0Z" transform="translate(-1220.86 1598.4)" fill="#cef"/>
      <rect id="Rectángulo_5293" data-name="Rectángulo 5293" width="193.259" height="63.455" rx="4" transform="translate(-1220.761 1549.078)" fill="#36afea"/>
      <g id="Grupo_21414" data-name="Grupo 21414">
        <text id="_" data-name="•
•
•
•
•
" transform="translate(-1206.294 1621.693)" fill="#4dd0e0" font-size="16" font-family="OpenSans-Bold, Open Sans" font-weight="700"><tspan x="4.341" y="17">•</tspan><tspan x="4.341" y="39">•</tspan><tspan x="4.341" y="61">•</tspan><tspan x="4.341" y="83">•</tspan><tspan x="4.341" y="105">•</tspan></text>
        <text id="Compras._Recepcion._Proveedores._Pedidos._Logistica_inversa._" data-name="Compras.
Recepcion. Proveedores.
Pedidos.
Logistica inversa.
" transform="translate(-1191.596 1621.693)" fill="#00223d" font-size="16" font-family="OpenSans, Open Sans"><tspan x="0" y="17">Compras.</tspan><tspan x="0" y="39">Recepcion. </tspan><tspan x="0" y="61">Proveedores.</tspan><tspan x="0" y="83">Pedidos.</tspan><tspan x="0" y="105">Logistica inversa.</tspan></text>
      </g>
      <text id="Entradas" transform="translate(-1124.131 1587.24)" fill="#fff" font-size="22" font-family="Montserrat-SemiBold, Montserrat" font-weight="600"><tspan x="-50.732" y="0">Entradas</tspan></text>
    </g>
    <g id="Grupo_21417" data-name="Grupo 21417">
      <path id="Rectángulo_5294" data-name="Rectángulo 5294" d="M0,0H193.458a0,0,0,0,1,0,0V139.731a8,8,0,0,1-8,8H8a8,8,0,0,1-8-8V0A0,0,0,0,1,0,0Z" transform="translate(-585.201 1598.4)" fill="#cef"/>
      <rect id="Rectángulo_5295" data-name="Rectángulo 5295" width="193.458" height="63.455" rx="4" transform="translate(-585.201 1549.078)" fill="#36afea"/>
      <g id="Grupo_21416" data-name="Grupo 21416">
        <text id="_2" data-name="•


•
•
" transform="translate(-570.635 1621.693)" fill="#4dd0e0" font-size="16" font-family="OpenSans-Bold, Open Sans" font-weight="700"><tspan x="4.341" y="17">•</tspan><tspan x="7.349" y="39"></tspan><tspan x="7.349" y="61"></tspan><tspan x="4.341" y="83">•</tspan><tspan x="4.341" y="105">•</tspan></text>
        <text id="Transporte._Distribución_y_entrega._Servicio_al_cliente._Servicio_posventa." data-name="Transporte.
Distribución y entrega.
Servicio al cliente.
Servicio posventa." transform="translate(-555.937 1621.693)" fill="#00223d" font-size="16" font-family="OpenSans, Open Sans"><tspan x="0" y="17">Transporte.</tspan><tspan x="0" y="39">Distribución y </tspan><tspan x="0" y="61">entrega.</tspan><tspan x="0" y="83">Servicio al cliente.</tspan><tspan x="0" y="105">Servicio posventa.</tspan></text>
      </g>
      <text id="Salidas" transform="translate(-488.472 1587.24)" fill="#fff" font-size="22" font-family="Montserrat-SemiBold, Montserrat" font-weight="600"><tspan x="-39.853" y="0">Salidas</tspan></text>
    </g>
    <g id="Grupo_21418" data-name="Grupo 21418">
      <path id="Rectángulo_5296" data-name="Rectángulo 5296" d="M0,0H334.429a0,0,0,0,1,0,0V161.2a8,8,0,0,1-8,8H8a8,8,0,0,1-8-8V0A0,0,0,0,1,0,0Z" transform="translate(-973.516 1598.4)" fill="#cef"/>
      <rect id="Rectángulo_5297" data-name="Rectángulo 5297" width="334.429" height="63.455" rx="4" transform="translate(-973.516 1549.078)" fill="#36afea"/>
      <text id="_3" data-name="•


•
•" transform="translate(-962.75 1621.693)" fill="#4dd0e0" font-size="16" font-family="OpenSans-Bold, Open Sans" font-weight="700"><tspan x="4.341" y="17">•</tspan><tspan x="7.349" y="39"></tspan><tspan x="7.349" y="61"></tspan><tspan x="4.341" y="83">•</tspan><tspan x="4.341" y="105">•</tspan></text>
      <text id="_4" data-name="•

•
•" transform="translate(-777.585 1621.693)" fill="#4dd0e0" font-size="16" font-family="OpenSans-Bold, Open Sans" font-weight="700"><tspan x="4.341" y="17">•</tspan><tspan x="7.349" y="39"></tspan><tspan x="4.341" y="61">•</tspan><tspan x="4.341" y="83">•</tspan></text>
      <text id="Recepción_de_materiales_o_mercancia._Almacenamiento._Administración_de_Inventarios._" data-name="Recepción de materiales o mercancia.
Almacenamiento.
Administración de Inventarios.
" transform="translate(-948.052 1621.693)" fill="#00223d" font-size="16" font-family="OpenSans, Open Sans"><tspan x="0" y="17">Recepción de </tspan><tspan x="0" y="39">materiales o </tspan><tspan x="0" y="61">mercancia.</tspan><tspan x="0" y="83">Almacenamiento.</tspan><tspan x="0" y="105">Administración de </tspan><tspan x="0" y="127">Inventarios.</tspan></text>
      <text id="Atención_de_pedidos._Facturación._Alistamiento_Cargue_y_despacho._" data-name="Atención de pedidos.
Facturación.
Alistamiento, Cargue y despacho.
" transform="translate(-762.887 1621.693)" fill="#00223d" font-size="16" font-family="OpenSans, Open Sans"><tspan x="0" y="17">Atención de </tspan><tspan x="0" y="39">pedidos.</tspan><tspan x="0" y="61">Facturación.</tspan><tspan x="0" y="83">Alistamiento, </tspan><tspan x="0" y="105">Cargue y </tspan><tspan x="0" y="127">despacho.</tspan></text>
      <text id="Procesos" transform="translate(-806.301 1587.24)" fill="#fff" font-size="22" font-family="Montserrat-SemiBold, Montserrat" font-weight="600"><tspan x="-50.996" y="0">Procesos</tspan></text>
      <line id="Línea_254" data-name="Línea 254" y2="126.732" transform="translate(-785.738 1629)" fill="none" stroke="#b5e6ff" stroke-linecap="round" stroke-miterlimit="10" stroke-width="2"/>
    </g>
  </g>
</svg>
