<svg xmlns="http://www.w3.org/2000/svg" width="543.452" height="450.841" viewBox="0 0 543.452 450.841">
  <g id="Grupo_9655" data-name="Grupo 9655" transform="translate(-729.747 -120.979)">
    <path id="Trazado_1175" data-name="Trazado 1175" d="M826.831,349.247c25.374,96.423,203.2,245.69,302.542,219.549S1211.957,351,1186.582,254.58s-126.475-153.4-225.817-127.253S801.458,252.825,826.831,349.247Z" fill="#fefefe" opacity="0.34" style="isolation: isolate"/>
    <path id="Trazado_1176" data-name="Trazado 1176" d="M815.8,514.988c35.155,52.3,156.973,52.089,252.621,20.552s239.471-129.067,197.185-257.315c-16.46-49.921-85.31-133.219-278.448-40.652C879.963,288.95,767.237,442.751,815.8,514.988Z" fill="#cfeef6" opacity="0.28" style="isolation: isolate"/>
    <path id="Trazado_1177" data-name="Trazado 1177" d="M744.333,355.579C759.88,453.738,953.54,532.968,1051.006,517.53s185.2-139.235,169.657-237.394-67.195-158.116-199.336-60.895C941.722,277.81,728.786,257.42,744.333,355.579Z" fill="#fefefe" opacity="0.26" style="isolation: isolate"/>
    <path id="Trazado_1178" data-name="Trazado 1178" d="M791.552,471.329c3.95-11.308-10.5-40.484-27.333-46.366s-29.687,13.756-33.637,25.064,6.494,25.243,23.331,31.124S787.6,482.635,791.552,471.329Z" fill="#fefefe" opacity="0.26" style="isolation: isolate"/>
    <path id="Trazado_1179" data-name="Trazado 1179" d="M1158.554,144.041c-2.448,7.026,8.239,25.738,20.007,29.843s20.157-7.957,22.606-14.982-5.1-16.047-16.871-20.151S1161,137.016,1158.554,144.041Z" fill="#fefefe" opacity="0.26" style="isolation: isolate"/>
  </g>
</svg>
