<svg xmlns="http://www.w3.org/2000/svg" width="543.452" height="450.841" viewBox="0 0 543.452 450.841">
  <g id="Grupo_10403" data-name="Grupo 10403" transform="translate(-729.747 -120.979)">
    <g id="Grupo_9655" data-name="Grupo 9655">
      <path id="Trazado_1175" data-name="Trazado 1175" d="M826.831,349.247c25.374,96.423,203.2,245.69,302.542,219.549S1211.957,351,1186.582,254.58s-126.475-153.4-225.817-127.253S801.458,252.825,826.831,349.247Z" fill="#fefefe" opacity="0.34" style="isolation: isolate"/>
      <path id="Trazado_1176" data-name="Trazado 1176" d="M815.8,514.988c35.155,52.3,156.973,52.089,252.621,20.552s239.471-129.067,197.185-257.315c-16.46-49.921-85.31-133.219-278.448-40.652C879.963,288.95,767.237,442.751,815.8,514.988Z" fill="#cfeef6" opacity="0.28" style="isolation: isolate"/>
      <path id="Trazado_1177" data-name="Trazado 1177" d="M744.333,355.579C759.88,453.738,953.54,532.968,1051.006,517.53s185.2-139.235,169.657-237.394-67.195-158.116-199.336-60.895C941.722,277.81,728.786,257.42,744.333,355.579Z" fill="#fefefe" opacity="0.26" style="isolation: isolate"/>
      <path id="Trazado_1178" data-name="Trazado 1178" d="M791.552,471.329c3.95-11.308-10.5-40.484-27.333-46.366s-29.687,13.756-33.637,25.064,6.494,25.243,23.331,31.124S787.6,482.635,791.552,471.329Z" fill="#fefefe" opacity="0.26" style="isolation: isolate"/>
      <path id="Trazado_1179" data-name="Trazado 1179" d="M1158.554,144.041c-2.448,7.026,8.239,25.738,20.007,29.843s20.157-7.957,22.606-14.982-5.1-16.047-16.871-20.151S1161,137.016,1158.554,144.041Z" fill="#fefefe" opacity="0.26" style="isolation: isolate"/>
    </g>
    <g id="Grupo_9706" data-name="Grupo 9706">
      <path id="Trazado_1180" data-name="Trazado 1180" d="M1196.732,505.924c0,2.361-19.7,4.274-44,4.274s-44-1.913-44-4.274,19.7-4.274,44-4.274S1196.732,503.564,1196.732,505.924Z" fill="#0374ac" opacity="0.25"/>
      <path id="Trazado_1181" data-name="Trazado 1181" d="M963.5,505.924c0,2.361-17.062,4.274-38.108,4.274s-38.108-1.913-38.108-4.274,17.061-4.274,38.108-4.274S963.5,503.564,963.5,505.924Z" fill="#0374ac" opacity="0.25"/>
      <g id="Grupo_9705" data-name="Grupo 9705">
        <g id="Grupo_9656" data-name="Grupo 9656">
          <path id="Trazado_1182" data-name="Trazado 1182" d="M820.773,427.346a2.77,2.77,0,0,1-.024-2.058,2.7,2.7,0,0,1,1.969-1.092,20.48,20.48,0,0,1,18.087,5.45,126.588,126.588,0,0,1-13.032-40.622c-.4-2.84-.7-5.792.149-8.532s3.126-5.231,5.985-5.469a9.378,9.378,0,0,1,5.746,1.946c12.3,8.116,16.661,23.977,18.518,38.6a5.8,5.8,0,1,1,10.6,4.051c-.527-2.764,1.12-5.451,2.87-7.655,4.1-5.16,10.674-9.838,16.845-7.531,6.66,2.49,8.185,11.541,6.108,18.341-2.886,9.452-10.4,16.941-18.954,21.884-8.293,4.79-21.324,11.378-31.126,8.075C833.711,449.089,823.845,438.087,820.773,427.346Z" fill="#c97fa5"/>
          <path id="Trazado_1183" data-name="Trazado 1183" d="M832.63,378.025s10.351,52.185,32.685,67.006" fill="none" stroke="#4a2480" stroke-linecap="round" stroke-linejoin="round" stroke-width="0.85"/>
          <path id="Trazado_1184" data-name="Trazado 1184" d="M885.014,411.685s-7.232,21.425-25.4,28.533" fill="none" stroke="#4a2480" stroke-linecap="round" stroke-linejoin="round" stroke-width="0.85"/>
          <path id="Trazado_1185" data-name="Trazado 1185" d="M822.612,427.531s18.048,18.395,34.827,10.294" fill="none" stroke="#4a2480" stroke-linecap="round" stroke-linejoin="round" stroke-width="0.85"/>
          <path id="Trazado_1186" data-name="Trazado 1186" d="M863.884,414.08s-2.949,15.508-9.614,19.637" fill="none" stroke="#4a2480" stroke-linecap="round" stroke-linejoin="round" stroke-width="0.85"/>
          <path id="Trazado_1187" data-name="Trazado 1187" d="M843.343,385.977s1.649,15.575-2.615,20.352" fill="none" stroke="#4a2480" stroke-linecap="round" stroke-linejoin="round" stroke-width="0.85"/>
          <path id="Trazado_1188" data-name="Trazado 1188" d="M847.421,422.11s-2.382,2.366-7.377-3.082" fill="none" stroke="#4a2480" stroke-linecap="round" stroke-linejoin="round" stroke-width="0.85"/>
          <path id="Trazado_1189" data-name="Trazado 1189" d="M889.924,419.54a37.191,37.191,0,0,1-11.766,5.739" fill="none" stroke="#4a2480" stroke-linecap="round" stroke-linejoin="round" stroke-width="0.85"/>
          <path id="Trazado_1190" data-name="Trazado 1190" d="M859.473,427.293s4.671.871,8.134-3.967" fill="none" stroke="#4a2480" stroke-linecap="round" stroke-linejoin="round" stroke-width="0.85"/>
          <path id="Trazado_1191" data-name="Trazado 1191" d="M849.6,439.85s-1.326,4.526-9.263,6.318" fill="none" stroke="#4a2480" stroke-linecap="round" stroke-linejoin="round" stroke-width="0.85"/>
        </g>
        <path id="Trazado_1192" data-name="Trazado 1192" d="M827.486,230.66c-4.561.086-9.274.144-13.486-1.608-4.5-1.873-8.236-6.278-8-11.147s5.589-9.19,10.105-7.357c3.139,1.275,4.8,4.787,5.276,8.141a7.049,7.049,0,0,1,13.728,1.9,5.759,5.759,0,0,1,11.289.906c1.006-3.917,2.11-8.017,4.9-10.948s7.824-4.145,10.88-1.5c3.49,3.024,2.4,8.6,1.019,13a8.012,8.012,0,0,1,4.246,1.711,3.694,3.694,0,0,1,1.069,4.193c-.7,1.41-2.428,1.984-4,2.034C852.2,230.386,839.818,230.428,827.486,230.66Z" fill="#fff" opacity="0.7"/>
        <path id="Trazado_1193" data-name="Trazado 1193" d="M1158.6,206.567a60.371,60.371,0,0,1-13.17-1.1c-3.55-.832-7.557-3.226-7.31-6.864.185-2.727,3.035-4.769,5.765-4.644a8.632,8.632,0,0,1,6.6,4.31c.661-3.022,2.016-6.2,4.781-7.587s6.99.332,6.92,3.425c1.514-3.169,3.1-6.437,5.779-8.71a11.722,11.722,0,0,1,13.453-1.2c4.072,2.578,5.881,8.381,3.629,12.641a9.3,9.3,0,0,1,8.207-.06,6.793,6.793,0,0,1,3.585,7.077c-1.378,6.58-10.2,3.009-14.624,2.963Z" fill="#fff" opacity="0.7"/>
        <path id="Trazado_1194" data-name="Trazado 1194" d="M1030.989,237.321a5.313,5.313,0,0,1-3.471-.808c-1.069-.885-1.266-2.419-1.387-3.8a4.551,4.551,0,0,1,.308-2.672,4.079,4.079,0,0,1,2.445-1.6,8.667,8.667,0,0,1,5.4-.245,4.235,4.235,0,0,1,2.994,4.122,4.4,4.4,0,0,1,7.933-.459,14.229,14.229,0,0,1,17.129-8.383,7.271,7.271,0,0,1,3.995,2.749,3.811,3.811,0,0,1-.2,4.58c-.628.648-1.577,1.052-1.875,1.9a6.223,6.223,0,0,0-.124,1.56c-.448,5.376-10.431,4.351-13.884,3.782C1043.874,236.995,1037.455,237.313,1030.989,237.321Z" fill="#fff" opacity="0.7"/>
        <g id="Grupo_9657" data-name="Grupo 9657">
          <path id="Trazado_1195" data-name="Trazado 1195" d="M891.063,467.585c.152-1.915.149-4.031-1.076-5.51-1.88-2.271-5.755-1.7-7.846.378s-2.864,5.1-3.55,7.97c4.069-14.121,7.841-30.423-.377-42.605a7.988,7.988,0,0,0-3.741-3.341c-2.441-.84-5.213.519-6.765,2.581s-2.139,4.678-2.59,7.22a102.676,102.676,0,0,0-1.432,23.368,23.024,23.024,0,0,0-6.295-18.545l-1.429,4.481a61.3,61.3,0,0,0-4.54-36.233c-2.306-5.035-6.391-10.367-11.922-10.08-4.629.241-8.1,4.472-9.723,8.816-3.674,9.858-.825,20.94,3.363,30.592a116.217,116.217,0,0,0,16.594,27.234c-1.747-3.133-6.518-3.649-9.379-1.485s-3.831,6.21-3.069,9.716,2.979,6.528,5.5,9.081A38.821,38.821,0,0,0,861.6,491.714C879.421,495.808,889.774,483.818,891.063,467.585Z" fill="#a57be8"/>
          <path id="Trazado_1196" data-name="Trazado 1196" d="M874.489,487.917s-38.058-40.681-34.312-86.344" fill="none" stroke="#4a2480" stroke-linecap="round" stroke-linejoin="round" stroke-width="0.85"/>
          <path id="Trazado_1197" data-name="Trazado 1197" d="M848.862,412.457s-2.12,12.5-6.118,17.435" fill="none" stroke="#4a2480" stroke-linecap="round" stroke-linejoin="round" stroke-width="0.85"/>
          <path id="Trazado_1198" data-name="Trazado 1198" d="M846.651,442.294s-4.09,1.649-8.159-3.154" fill="none" stroke="#4a2480" stroke-linecap="round" stroke-linejoin="round" stroke-width="0.85"/>
          <path id="Trazado_1199" data-name="Trazado 1199" d="M873.8,430.465s2.593,24.218-8.9,45.412" fill="none" stroke="#4a2480" stroke-linecap="round" stroke-linejoin="round" stroke-width="0.85"/>
          <path id="Trazado_1200" data-name="Trazado 1200" d="M869.545,482.051s-13.559.331-27.072-12.707" fill="none" stroke="#4a2480" stroke-linecap="round" stroke-linejoin="round" stroke-width="0.85"/>
          <path id="Trazado_1201" data-name="Trazado 1201" d="M887.287,464.239s-5.066,16.691-14.724,21.492" fill="none" stroke="#4a2480" stroke-linecap="round" stroke-linejoin="round" stroke-width="0.85"/>
          <path id="Trazado_1202" data-name="Trazado 1202" d="M872.759,452.239s6.053-2.812,7.265-13.6" fill="none" stroke="#4a2480" stroke-linecap="round" stroke-linejoin="round" stroke-width="0.85"/>
          <path id="Trazado_1203" data-name="Trazado 1203" d="M855.692,478.522s-1.451,4.224-9.07,1.065" fill="none" stroke="#4a2480" stroke-linecap="round" stroke-linejoin="round" stroke-width="0.85"/>
          <path id="Trazado_1204" data-name="Trazado 1204" d="M855.5,461.1a33.653,33.653,0,0,0,3.631-16.155" fill="none" stroke="#4a2480" stroke-linecap="round" stroke-linejoin="round" stroke-width="0.85"/>
        </g>
        <g id="Grupo_9658" data-name="Grupo 9658">
          <path id="Trazado_1205" data-name="Trazado 1205" d="M1196.615,465.78a2.775,2.775,0,0,0-.157-2.052,2.705,2.705,0,0,0-2.058-.915,20.48,20.48,0,0,0-17.537,7.021,126.593,126.593,0,0,0,9.406-41.611c.151-2.865.188-5.831-.9-8.486s-3.574-4.936-6.443-4.921a9.384,9.384,0,0,0-5.553,2.444c-11.539,9.168-14.485,25.35-15.049,40.077a5.8,5.8,0,1,0-10.2,4.969c.282-2.8-1.595-5.332-3.532-7.374-4.536-4.779-11.5-8.86-17.442-6.019-6.415,3.067-7.138,12.217-4.47,18.808,3.706,9.161,11.847,15.96,20.806,20.13,8.682,4.042,22.243,9.458,31.715,5.3C1185.64,488.577,1194.5,476.75,1196.615,465.78Z" fill="#c97fa5"/>
          <path id="Trazado_1206" data-name="Trazado 1206" d="M1180.463,417.694s-5.718,52.894-26.661,69.622" fill="none" stroke="#4a2480" stroke-linecap="round" stroke-linejoin="round" stroke-width="0.85"/>
          <path id="Trazado_1207" data-name="Trazado 1207" d="M1131.245,455.833s9.089,20.706,27.815,26.187" fill="none" stroke="#4a2480" stroke-linecap="round" stroke-linejoin="round" stroke-width="0.85"/>
          <path id="Trazado_1208" data-name="Trazado 1208" d="M1194.8,466.126s-16.359,19.912-33.785,13.319" fill="none" stroke="#4a2480" stroke-linecap="round" stroke-linejoin="round" stroke-width="0.85"/>
          <path id="Trazado_1209" data-name="Trazado 1209" d="M1152.5,456.359s4.3,15.189,11.306,18.715" fill="none" stroke="#4a2480" stroke-linecap="round" stroke-linejoin="round" stroke-width="0.85"/>
          <path id="Trazado_1210" data-name="Trazado 1210" d="M1170.492,426.558s-.272,15.659,4.4,20.042" fill="none" stroke="#4a2480" stroke-linecap="round" stroke-linejoin="round" stroke-width="0.85"/>
          <path id="Trazado_1211" data-name="Trazado 1211" d="M1169.609,462.91s2.582,2.146,7.078-3.72" fill="none" stroke="#4a2480" stroke-linecap="round" stroke-linejoin="round" stroke-width="0.85"/>
          <path id="Trazado_1212" data-name="Trazado 1212" d="M1127.045,464.09a37.176,37.176,0,0,0,12.225,4.681" fill="none" stroke="#4a2480" stroke-linecap="round" stroke-linejoin="round" stroke-width="0.85"/>
          <path id="Trazado_1213" data-name="Trazado 1213" d="M1158.06,469.133s-4.576,1.279-8.451-3.236" fill="none" stroke="#4a2480" stroke-linecap="round" stroke-linejoin="round" stroke-width="0.85"/>
          <path id="Trazado_1214" data-name="Trazado 1214" d="M1169,480.772s1.719,4.392,9.783,5.479" fill="none" stroke="#4a2480" stroke-linecap="round" stroke-linejoin="round" stroke-width="0.85"/>
        </g>
        <g id="Grupo_9671" data-name="Grupo 9671">
          <g id="Grupo_9660" data-name="Grupo 9660">
            <g id="Grupo_9659" data-name="Grupo 9659">
              <rect id="Rectángulo_2604" data-name="Rectángulo 2604" width="291.132" height="193.536" rx="5.536" transform="translate(863.131 250.572)" fill="#ccc"/>
              <path id="Rectángulo_2605" data-name="Rectángulo 2605" d="M4.817,0h281.5a4.817,4.817,0,0,1,4.817,4.817V167.07a0,0,0,0,1,0,0H0a0,0,0,0,1,0,0V4.817A4.817,4.817,0,0,1,4.817,0Z" transform="translate(863.131 250.572)" fill="#b3b3b3"/>
              <path id="Trazado_1215" data-name="Trazado 1215" d="M1015.314,432.938h-11.579a3.309,3.309,0,0,1-3.309-3.308h0a3.309,3.309,0,0,1,3.309-3.308h11.579a3.308,3.308,0,0,1,3.308,3.308h0A3.308,3.308,0,0,1,1015.314,432.938Z" fill="#9e9e9e"/>
              <path id="Trazado_1216" data-name="Trazado 1216" d="M1028.838,474.838v-30.73H989.2v30.73a15.734,15.734,0,0,1-15.734,15.734h0v13.194h72.108V490.572h-1.006A15.733,15.733,0,0,1,1028.838,474.838Z" fill="#ccc"/>
              <path id="Trazado_1217" data-name="Trazado 1217" d="M1028.838,448.561,989.2,453.013v-8.9h39.634Z" fill="#b3b3b3"/>
              <rect id="Rectángulo_2606" data-name="Rectángulo 2606" width="268.796" height="142.648" transform="translate(873.887 261.218)" fill="#fff"/>
            </g>
          </g>
          <g id="Grupo_9665" data-name="Grupo 9665">
            <g id="Grupo_9664" data-name="Grupo 9664">
              <rect id="Rectángulo_2607" data-name="Rectángulo 2607" width="271.596" height="144.999" transform="translate(873.726 259.81)" fill="#dedede"/>
              <rect id="Rectángulo_2608" data-name="Rectángulo 2608" width="271.596" height="18.829" transform="translate(873.726 259.81)" fill="#fff"/>
              <rect id="Rectángulo_2609" data-name="Rectángulo 2609" width="219.73" height="8.308" rx="2.228" transform="translate(881.263 264.932)" fill="#dedede"/>
              <g id="Grupo_9661" data-name="Grupo 9661">
                <path id="Trazado_1218" data-name="Trazado 1218" d="M1117.575,269.086a3.889,3.889,0,1,1-3.89-3.889A3.889,3.889,0,0,1,1117.575,269.086Z" fill="#31bf2c"/>
                <path id="Trazado_1219" data-name="Trazado 1219" d="M1128.36,269.086a3.889,3.889,0,1,1-3.889-3.889A3.89,3.89,0,0,1,1128.36,269.086Z" fill="#ffe454"/>
                <path id="Trazado_1220" data-name="Trazado 1220" d="M1139.145,269.086a3.89,3.89,0,1,1-3.89-3.889A3.89,3.89,0,0,1,1139.145,269.086Z" fill="#fa2363"/>
              </g>
              <rect id="Rectángulo_2610" data-name="Rectángulo 2610" width="125.962" height="101.854" transform="translate(881.263 290.777)" fill="#fff"/>
              <g id="Grupo_9662" data-name="Grupo 9662">
                <rect id="Rectángulo_2611" data-name="Rectángulo 2611" width="58.514" height="4.901" transform="translate(1015.342 290.777)" fill="#fff"/>
                <rect id="Rectángulo_2612" data-name="Rectángulo 2612" width="58.514" height="4.901" transform="translate(1015.342 300.472)" fill="#fff"/>
                <rect id="Rectángulo_2613" data-name="Rectángulo 2613" width="58.514" height="4.901" transform="translate(1015.342 310.167)" fill="#fff"/>
                <rect id="Rectángulo_2614" data-name="Rectángulo 2614" width="58.514" height="4.901" transform="translate(1015.342 319.862)" fill="#fff"/>
                <rect id="Rectángulo_2615" data-name="Rectángulo 2615" width="58.514" height="4.901" transform="translate(1015.342 329.558)" fill="#fff"/>
                <rect id="Rectángulo_2616" data-name="Rectángulo 2616" width="58.514" height="4.901" transform="translate(1015.342 339.253)" fill="#fff"/>
                <rect id="Rectángulo_2617" data-name="Rectángulo 2617" width="58.514" height="4.901" transform="translate(1015.342 348.948)" fill="#fff"/>
                <rect id="Rectángulo_2618" data-name="Rectángulo 2618" width="58.514" height="4.901" transform="translate(1015.342 358.644)" fill="#fff"/>
                <rect id="Rectángulo_2619" data-name="Rectángulo 2619" width="58.514" height="4.901" transform="translate(1015.342 368.339)" fill="#fff"/>
                <rect id="Rectángulo_2620" data-name="Rectángulo 2620" width="58.514" height="4.901" transform="translate(1015.342 378.034)" fill="#fff"/>
                <rect id="Rectángulo_2621" data-name="Rectángulo 2621" width="58.514" height="4.901" transform="translate(1015.342 387.73)" fill="#fff"/>
              </g>
              <g id="Grupo_9663" data-name="Grupo 9663">
                <rect id="Rectángulo_2622" data-name="Rectángulo 2622" width="58.514" height="4.901" transform="translate(1078.973 290.777)" fill="#fff"/>
                <rect id="Rectángulo_2623" data-name="Rectángulo 2623" width="58.514" height="4.901" transform="translate(1078.973 300.472)" fill="#fff"/>
                <rect id="Rectángulo_2624" data-name="Rectángulo 2624" width="58.514" height="4.901" transform="translate(1078.973 310.167)" fill="#fff"/>
                <rect id="Rectángulo_2625" data-name="Rectángulo 2625" width="58.514" height="4.901" transform="translate(1078.973 319.862)" fill="#fff"/>
                <rect id="Rectángulo_2626" data-name="Rectángulo 2626" width="58.514" height="4.901" transform="translate(1078.973 329.558)" fill="#fff"/>
                <rect id="Rectángulo_2627" data-name="Rectángulo 2627" width="58.514" height="4.901" transform="translate(1078.973 339.253)" fill="#fff"/>
                <rect id="Rectángulo_2628" data-name="Rectángulo 2628" width="58.514" height="4.901" transform="translate(1078.973 348.948)" fill="#fff"/>
                <rect id="Rectángulo_2629" data-name="Rectángulo 2629" width="58.514" height="4.901" transform="translate(1078.973 358.644)" fill="#fff"/>
                <rect id="Rectángulo_2630" data-name="Rectángulo 2630" width="58.514" height="4.901" transform="translate(1078.973 368.339)" fill="#fff"/>
                <rect id="Rectángulo_2631" data-name="Rectángulo 2631" width="58.514" height="4.901" transform="translate(1078.973 378.034)" fill="#fff"/>
                <rect id="Rectángulo_2632" data-name="Rectángulo 2632" width="58.514" height="4.901" transform="translate(1078.973 387.73)" fill="#fff"/>
              </g>
            </g>
          </g>
          <g id="Grupo_9670" data-name="Grupo 9670">
            <g id="Grupo_9666" data-name="Grupo 9666">
              <path id="Trazado_1221" data-name="Trazado 1221" d="M912.312,299.877H937.8a1.712,1.712,0,0,1,1.71,1.778l-1.2,30.694a1.711,1.711,0,0,1-1.71,1.644H894.051a1.711,1.711,0,0,1-1.71-1.644l-1.2-30.694a1.711,1.711,0,0,1,1.71-1.778h19.459Z" fill="#bababa"/>
              <path id="Trazado_1222" data-name="Trazado 1222" d="M936.144,301.079l-.649-2.4a1.711,1.711,0,0,0-1.652-1.265H922.29a1.711,1.711,0,0,0-1.652,1.265l-.65,2.4a1.709,1.709,0,0,1-1.651,1.264H892.853a1.711,1.711,0,0,0-1.71,1.778l1.2,30.694a1.711,1.711,0,0,0,1.71,1.644H936.6a1.711,1.711,0,0,0,1.71-1.644l1.2-30.694a1.712,1.712,0,0,0-1.71-1.778h0A1.711,1.711,0,0,1,936.144,301.079Z" fill="#dedede"/>
              <rect id="Rectángulo_2633" data-name="Rectángulo 2633" width="17.674" height="4.137" rx="1.696" transform="translate(916.557 328.842)" fill="#fff"/>
            </g>
            <g id="Grupo_9667" data-name="Grupo 9667">
              <path id="Trazado_1223" data-name="Trazado 1223" d="M912.312,348.052H937.8a1.712,1.712,0,0,1,1.71,1.778l-1.2,30.694a1.711,1.711,0,0,1-1.71,1.644H894.051a1.711,1.711,0,0,1-1.71-1.644l-1.2-30.694a1.711,1.711,0,0,1,1.71-1.778h19.459Z" fill="#bababa"/>
              <path id="Trazado_1224" data-name="Trazado 1224" d="M936.144,349.254l-.649-2.4a1.711,1.711,0,0,0-1.652-1.265H922.29a1.711,1.711,0,0,0-1.652,1.265l-.65,2.4a1.71,1.71,0,0,1-1.651,1.265H892.853a1.71,1.71,0,0,0-1.71,1.777l1.2,30.694a1.711,1.711,0,0,0,1.71,1.644H936.6a1.711,1.711,0,0,0,1.71-1.644l1.2-30.694a1.711,1.711,0,0,0-1.71-1.777h0A1.712,1.712,0,0,1,936.144,349.254Z" fill="#dedede"/>
              <rect id="Rectángulo_2634" data-name="Rectángulo 2634" width="17.674" height="4.137" rx="1.696" transform="translate(916.557 377.017)" fill="#fff"/>
            </g>
            <g id="Grupo_9668" data-name="Grupo 9668">
              <path id="Trazado_1225" data-name="Trazado 1225" d="M970.15,299.877h25.485a1.711,1.711,0,0,1,1.709,1.778l-1.2,30.694a1.711,1.711,0,0,1-1.71,1.644H951.889a1.711,1.711,0,0,1-1.71-1.644l-1.2-30.694a1.712,1.712,0,0,1,1.71-1.778H970.15Z" fill="#bababa"/>
              <path id="Trazado_1226" data-name="Trazado 1226" d="M993.983,301.079l-.65-2.4a1.711,1.711,0,0,0-1.652-1.265H980.128a1.709,1.709,0,0,0-1.651,1.265l-.65,2.4a1.711,1.711,0,0,1-1.652,1.264H950.691a1.712,1.712,0,0,0-1.71,1.778l1.2,30.694a1.711,1.711,0,0,0,1.71,1.644h42.547a1.711,1.711,0,0,0,1.71-1.644l1.2-30.694a1.711,1.711,0,0,0-1.709-1.778h0A1.711,1.711,0,0,1,993.983,301.079Z" fill="#dedede"/>
              <rect id="Rectángulo_2635" data-name="Rectángulo 2635" width="17.674" height="4.137" rx="1.696" transform="translate(974.396 328.842)" fill="#fff"/>
            </g>
            <g id="Grupo_9669" data-name="Grupo 9669">
              <path id="Trazado_1227" data-name="Trazado 1227" d="M970.15,348.052h25.485a1.711,1.711,0,0,1,1.709,1.778l-1.2,30.694a1.711,1.711,0,0,1-1.71,1.644H951.889a1.711,1.711,0,0,1-1.71-1.644l-1.2-30.694a1.712,1.712,0,0,1,1.71-1.778H970.15Z" fill="#bababa"/>
              <path id="Trazado_1228" data-name="Trazado 1228" d="M993.983,349.254l-.65-2.4a1.711,1.711,0,0,0-1.652-1.265H980.128a1.709,1.709,0,0,0-1.651,1.265l-.65,2.4a1.712,1.712,0,0,1-1.652,1.265H950.691a1.711,1.711,0,0,0-1.71,1.777l1.2,30.694a1.711,1.711,0,0,0,1.71,1.644h42.547a1.711,1.711,0,0,0,1.71-1.644l1.2-30.694a1.71,1.71,0,0,0-1.709-1.777h0A1.712,1.712,0,0,1,993.983,349.254Z" fill="#dedede"/>
              <rect id="Rectángulo_2636" data-name="Rectángulo 2636" width="17.674" height="4.137" rx="1.696" transform="translate(974.396 377.017)" fill="#fff"/>
            </g>
          </g>
        </g>
        <g id="Grupo_9675" data-name="Grupo 9675">
          <rect id="Rectángulo_2637" data-name="Rectángulo 2637" width="83.172" height="189.556" transform="translate(1013.48 316.245)" fill="#275996"/>
          <rect id="Rectángulo_2638" data-name="Rectángulo 2638" width="70.027" height="174.192" transform="translate(1019.927 323.294)" fill="#1c306b"/>
          <rect id="Rectángulo_2639" data-name="Rectángulo 2639" width="66.371" height="39.631" transform="translate(1021.88 369.313)" fill="#275996"/>
          <rect id="Rectángulo_2640" data-name="Rectángulo 2640" width="66.371" height="39.631" transform="translate(1021.88 412.677)" fill="#275996"/>
          <rect id="Rectángulo_2641" data-name="Rectángulo 2641" width="66.371" height="39.631" transform="translate(1021.88 453.828)" fill="#275996"/>
          <rect id="Rectángulo_2642" data-name="Rectángulo 2642" width="17.061" height="3.732" transform="translate(1046.535 418.363)" fill="#1c306b"/>
          <rect id="Rectángulo_2643" data-name="Rectángulo 2643" width="66.371" height="39.631" transform="translate(1021.88 325.171)" fill="#275996"/>
          <rect id="Rectángulo_2644" data-name="Rectángulo 2644" width="17.061" height="1.224" transform="translate(1046.535 331.213)" fill="#1c306b"/>
          <path id="Trazado_1229" data-name="Trazado 1229" d="M1022.01,369.313l-9.357,9.064h84.824l-9.357-9.064Z" fill="#123466"/>
          <path id="Trazado_1230" data-name="Trazado 1230" d="M1013.48,429.027h83.172l-83.172,8.189Z" fill="#1c306b" opacity="0.6" style="mix-blend-mode: multiply;isolation: isolate"/>
          <g id="Grupo_9672" data-name="Grupo 9672">
            <path id="Trazado_1231" data-name="Trazado 1231" d="M1051.162,366.681h33.4a2.242,2.242,0,0,1,2.241,2.33l-1.57,40.233a2.243,2.243,0,0,1-2.241,2.155h-55.77a2.243,2.243,0,0,1-2.241-2.155l-1.57-40.233a2.242,2.242,0,0,1,2.241-2.33h25.507Z" fill="#f2660a"/>
            <path id="Trazado_1232" data-name="Trazado 1232" d="M1082.4,368.256l-.852-3.15a2.242,2.242,0,0,0-2.165-1.657H1064.24a2.243,2.243,0,0,0-2.165,1.657l-.852,3.15a2.243,2.243,0,0,1-2.165,1.658h-33.4a2.242,2.242,0,0,0-2.241,2.33l1.57,40.232a2.243,2.243,0,0,0,2.241,2.155h55.77a2.243,2.243,0,0,0,2.241-2.155l1.57-40.232a2.242,2.242,0,0,0-2.241-2.33h0A2.244,2.244,0,0,1,1082.4,368.256Z" fill="#ffb330"/>
            <rect id="Rectángulo_2645" data-name="Rectángulo 2645" width="23.167" height="5.422" rx="1.696" transform="translate(1056.726 404.647)" fill="#fff"/>
            <line id="Línea_102" data-name="Línea 102" x2="12.565" transform="translate(1065.475 367.183)" fill="none" stroke="#123466" stroke-miterlimit="10" stroke-width="1"/>
          </g>
          <g id="Grupo_9673" data-name="Grupo 9673">
            <path id="Trazado_1233" data-name="Trazado 1233" d="M1047.8,371.081h34.8a2.335,2.335,0,0,1,2.334,2.427l-1.636,41.909a2.336,2.336,0,0,1-2.334,2.245h-58.094a2.336,2.336,0,0,1-2.334-2.245l-1.636-41.909a2.335,2.335,0,0,1,2.334-2.427h26.57Z" fill="#f2660a"/>
            <path id="Trazado_1234" data-name="Trazado 1234" d="M1080.338,372.722l-.887-3.282a2.336,2.336,0,0,0-2.255-1.726h-15.774a2.334,2.334,0,0,0-2.255,1.726l-.888,3.282a2.335,2.335,0,0,1-2.255,1.726h-34.8a2.336,2.336,0,0,0-2.334,2.428l1.636,41.908a2.336,2.336,0,0,0,2.334,2.245h58.094a2.336,2.336,0,0,0,2.334-2.245l1.636-41.908a2.336,2.336,0,0,0-2.334-2.428h0A2.336,2.336,0,0,1,1080.338,372.722Z" fill="#ffb330"/>
            <rect id="Rectángulo_2646" data-name="Rectángulo 2646" width="24.132" height="5.648" rx="1.696" transform="translate(1053.595 410.629)" fill="#fff"/>
          </g>
          <g id="Grupo_9674" data-name="Grupo 9674">
            <rect id="Rectángulo_2647" data-name="Rectángulo 2647" width="84.824" height="50.65" transform="translate(1012.654 378.377)" fill="#275996"/>
          </g>
          <line id="Línea_103" data-name="Línea 103" x2="12.565" transform="translate(1063.043 371.289)" fill="none" stroke="#123466" stroke-miterlimit="10" stroke-width="1"/>
          <rect id="Rectángulo_2648" data-name="Rectángulo 2648" width="17.061" height="1.224" transform="translate(1046.535 386.49)" fill="#1c306b"/>
          <rect id="Rectángulo_2649" data-name="Rectángulo 2649" width="17.061" height="1.224" transform="translate(1046.535 461.041)" fill="#1c306b"/>
        </g>
        <g id="Grupo_9685" data-name="Grupo 9685">
          <path id="Trazado_1235" data-name="Trazado 1235" d="M1168.68,310.416s2.607,10.419,8,12.4c6.367,2.336,3.464,12.942-.794,13.057,0,0,7.271,10.337-4.036,13.117-9.429,2.319-14.61-28.284-14.61-28.284Z" fill="#1c306b"/>
          <path id="Trazado_1236" data-name="Trazado 1236" d="M1144.928,312.893s2.726,8.829-.066,12.7,1.071,9.158,3.881,7.24c0,0-2.1,8.224,4.948,5.8s2.12-24.4,2.12-24.4Z" fill="#1c306b"/>
          <g id="Grupo_9676" data-name="Grupo 9676">
            <path id="Trazado_1237" data-name="Trazado 1237" d="M1133.3,492.154l-16.5,14.383,19.749.2,2.976-3.736,1.467,3.759,5.125.027-2.218-15.758Z" fill="#fa2363"/>
            <path id="Trazado_1238" data-name="Trazado 1238" d="M1124.447,499.87l.718,4.54,13.181.07-1.8,2.259-19.749-.2Z" fill="#9c1b41"/>
            <path id="Trazado_1239" data-name="Trazado 1239" d="M1140.139,504.585l5.669.03.306,2.175-5.125-.027Z" fill="#9c1b41"/>
          </g>
          <path id="Trazado_1240" data-name="Trazado 1240" d="M1141.488,492.186a11.049,11.049,0,0,1-12.3,3.546l5.717-5.243Z" fill="#ffba82"/>
          <g id="Grupo_9677" data-name="Grupo 9677">
            <path id="Trazado_1241" data-name="Trazado 1241" d="M1136.6,385.152l-26.547,2.715-1.316-18.029,20.844-2.13,14.676-27.563,11,12.576Z" fill="#fa2363"/>
          </g>
          <path id="Trazado_1242" data-name="Trazado 1242" d="M1164.475,389.848s6.164,22.99-2.727,28.1c-9.653,5.546-15.983,30.3-15.983,30.3s-1.714,21.079-1.545,27.713c.142,5.529-.167,13.077-.324,15.074-.124,1.579-10.54,1.82-10.6,1.122-.319-3.9-.922-16.316-1.172-19.109-1.068-11.943-2.33-22.047-.887-31.859,1.472-10,8.983-45.7,8.983-45.7Z" fill="#123466"/>
          <g id="Grupo_9678" data-name="Grupo 9678">
            <path id="Trazado_1243" data-name="Trazado 1243" d="M1176.57,485.393l-7.094,22.751,16.587-12.684.749-5.056,2.972,2.185,4.293-3.313L1184.9,477.56Z" fill="#fa2363"/>
            <path id="Trazado_1244" data-name="Trazado 1244" d="M1172.764,497.6l2.711,3.324,11.041-8.52-.453,3.058-16.587,12.684Z" fill="#9c1b41"/>
            <path id="Trazado_1245" data-name="Trazado 1245" d="M1188.061,491.323l4.749-3.664,1.267,1.617-4.293,3.313Z" fill="#9c1b41"/>
          </g>
          <path id="Trazado_1246" data-name="Trazado 1246" d="M1169.353,390.285s8.246,19.924,1.846,28.836c-3.959,5.514-2.469,20.543-2.469,20.543s14.167,35.321,17.785,39.959l-10.265,6.8c-2.309-2.953-9.887-15.72-11.367-17.914s-9.78-16.883-11.835-22.827c-4.475-12.948-8.488-49.966-8.488-49.966Z" fill="#275996"/>
          <path id="Trazado_1247" data-name="Trazado 1247" d="M1153.447,333.241l15.367,4.713c8.116,3.247,10.837,9.739,9.728,15.1l-7.387,30.219,1.492,17.918-32.743-4.256,2.568-25.295c-5.887-13.648,1.853-31.431,5.715-36.346,0,0,3.263-1.4,4.052-1.723C1153.162,333.2,1153.059,333.145,1153.447,333.241Z" fill="#fff"/>
          <path id="Trazado_1248" data-name="Trazado 1248" d="M1165.921,320.643l.3,15.042c-.136,1.62-3.667,5.512-7.351,6.222-2.161.416-4.016-1.848-3.641-4.4l1.681-11.453Z" fill="#ffba82"/>
          <path id="Trazado_1249" data-name="Trazado 1249" d="M1155.618,334.856l.763-5.16,7.906-4.018-.324,2.07S1162.791,331.165,1155.618,334.856Z" fill="#ed944c"/>
          <path id="Trazado_1250" data-name="Trazado 1250" d="M1166.621,337.142l-11.444,73.352,20.045-.624-2.393-31.545,6.533-34.963S1176.5,340.165,1166.621,337.142Z" fill="#fa2363"/>
          <path id="Trazado_1251" data-name="Trazado 1251" d="M1153.156,333.2s-8.6.6-11.316,11.153c-3.2,12.423.062,32.9.062,32.9l-5.939,28.671,1.974.286,1.967-9.275s7.265-24.987,3.96-34.457C1140.814,353.743,1153.156,333.2,1153.156,333.2Z" fill="#fa2363"/>
          <path id="Trazado_1252" data-name="Trazado 1252" d="M1166.691,337.373l-.513-3.73-9.373,7.818,1.432,4.746Z" fill="#fa2363"/>
          <path id="Trazado_1253" data-name="Trazado 1253" d="M1155.995,332.367l-.246,1.58,1.056,7.515-3.091,2.891.1-10.993Z" fill="#fa2363"/>
          <path id="Trazado_1254" data-name="Trazado 1254" d="M1165.549,327.85l-8.3,4.534a4.429,4.429,0,0,1-4.921-.227,6.067,6.067,0,0,1-2.2-3.721l-3.473-12.156,14.543-6.96Z" fill="#ffba82"/>
          <path id="Trazado_1255" data-name="Trazado 1255" d="M1146.122,313.041c-.126.884,13.412,8.386,15.677,5.687,4.441-5.292,4.211,6.422,4.211,6.422s10.153-19.011-6.447-22.075C1153.166,301.895,1147.176,305.656,1146.122,313.041Z" fill="#1c306b"/>
          <path id="Trazado_1256" data-name="Trazado 1256" d="M1150.667,320.957a.618.618,0,0,1-.215.76.447.447,0,0,1-.642-.253.618.618,0,0,1,.214-.761A.447.447,0,0,1,1150.667,320.957Z" fill="#123466"/>
          <path id="Trazado_1257" data-name="Trazado 1257" d="M1147.821,320.1l-.427,3.88a1.027,1.027,0,0,0,.624,1.11l1.355.439Z" fill="#ffba82"/>
          <path id="Trazado_1258" data-name="Trazado 1258" d="M1184.425,481.271s-2.42,10.214-10.041,11.131l1.866-5.984Z" fill="#ffba82"/>
          <g id="Grupo_9679" data-name="Grupo 9679">
            <path id="Trazado_1259" data-name="Trazado 1259" d="M1109.433,387.284l-1.67-18.021-.262.024,1.67,18.021Z" fill="#123466"/>
          </g>
          <g id="Grupo_9681" data-name="Grupo 9681">
            <path id="Trazado_1260" data-name="Trazado 1260" d="M1108.865,357.626l27.945-6.1a1.922,1.922,0,0,1,2.3,1.527l6.081,33.723a1.908,1.908,0,0,1-1.479,2.2L1097.06,399.16a1.922,1.922,0,0,1-2.271-1.382l-8.709-33.149a1.908,1.908,0,0,1,1.446-2.346h0Z" fill="#f2660a"/>
            <g id="Grupo_9680" data-name="Grupo 9680">
              <path id="Trazado_1261" data-name="Trazado 1261" d="M1098,358.942l3.445,2.473a1.9,1.9,0,0,0,.9.412c1.014.178,3.116.444,2.9-.452-.279-1.177-4.229-4.381-4.229-4.381" fill="#ffba82"/>
              <path id="Trazado_1262" data-name="Trazado 1262" d="M1095.34,360.087l3.445,2.472a1.9,1.9,0,0,0,.9.413c1.015.178,3.117.443,2.9-.453-.279-1.176-4.229-4.381-4.229-4.381" fill="#ffba82"/>
              <path id="Trazado_1263" data-name="Trazado 1263" d="M1092.679,361.232l3.445,2.472a1.905,1.905,0,0,0,.9.413c1.015.178,3.117.443,2.905-.453-.279-1.177-4.229-4.381-4.229-4.381" fill="#ffba82"/>
              <path id="Trazado_1264" data-name="Trazado 1264" d="M1093.393,361s3.593,2.632,3.872,3.809c.213.9-1.889.63-2.9.453a1.913,1.913,0,0,1-.9-.413l-1.927-1.383a1.958,1.958,0,0,1-.461-2.789c1.123-1.556,4.617-2.75,7.6-3.86a7.155,7.155,0,0,1,7.763,1.346l-3.386.742Z" fill="#ffba82"/>
            </g>
            <path id="Trazado_1265" data-name="Trazado 1265" d="M1145.016,388.434l-48.681,10.626-6.9-31.173,48.681-10.626Z" fill="#fff"/>
            <path id="Trazado_1266" data-name="Trazado 1266" d="M1133.374,359l-1.292-2.463a1.925,1.925,0,0,0-2.116-.982l-12.668,2.765a1.912,1.912,0,0,0-1.507,1.773l-.134,2.774a1.911,1.911,0,0,1-1.506,1.772l-27.945,6.1a1.908,1.908,0,0,0-1.447,2.346l10.624,27.381a1.923,1.923,0,0,0,2.272,1.382l46.656-10.184a1.909,1.909,0,0,0,1.478-2.2l-8-27.954a1.92,1.92,0,0,0-2.3-1.527h0A1.926,1.926,0,0,1,1133.374,359Z" fill="#ffb330"/>
            <path id="Trazado_1267" data-name="Trazado 1267" d="M1139.063,388.834l-15.753,3.438a1.858,1.858,0,0,1-2.213-1.406l-.2-.9a1.846,1.846,0,0,1,1.416-2.2l15.752-3.439a1.858,1.858,0,0,1,2.213,1.407l.2.9A1.846,1.846,0,0,1,1139.063,388.834Z" fill="#fff"/>
          </g>
          <g id="Grupo_9683" data-name="Grupo 9683">
            <g id="Grupo_9682" data-name="Grupo 9682">
              <path id="Trazado_1268" data-name="Trazado 1268" d="M1137.256,389.8l-9.632.135a1.762,1.762,0,0,0-.784.181c-.668.344-1.975,1.108-1.188,1.454,1.034.456,11.483.463,11.483.463" fill="#ffba82"/>
              <path id="Trazado_1269" data-name="Trazado 1269" d="M1139.759,381.888l-2.205,1.315a4.354,4.354,0,0,1-1.34.508L1127.991,385s-2.072.98-1.06,1.632,10.23.582,10.23.582l-11.127.156a1.453,1.453,0,0,0-.634.143c-.708.355-2.421,1.3-1.474,1.72,1.179.519,13.1.528,13.1.528" fill="#ffba82"/>
              <path id="Trazado_1270" data-name="Trazado 1270" d="M1128.141,392.563a4.206,4.206,0,0,1,1.716-.7l6.524.039.361-5.026,3.017-4.984,5.195-.351s6.143,4.167-.121,10.288a3.526,3.526,0,0,1-1.748.871l-6.025,1.266a2.236,2.236,0,0,1-.384,0c-1.3-.1-8.079-.229-8.55-.437C1127.856,393.408,1127.888,392.809,1128.141,392.563Z" fill="#ffba82"/>
            </g>
            <path id="Trazado_1271" data-name="Trazado 1271" d="M1137.92,383.649l.691-1.58c.269-.731-.628-1.187-1.379-1.829l-2.654-1.8c-.34-.231-.305-.617.072-.726a4.8,4.8,0,0,1,3.994.359l7.006,3.6Z" fill="#ffba82"/>
          </g>
          <path id="Trazado_1272" data-name="Trazado 1272" d="M1173.345,397.3l-29.131-.857,1.1-18.049,18.612,1.237,2.648-10.19,12.786-26.08,1.369,1.52a19.129,19.129,0,0,1,4.538,15.168,44.255,44.255,0,0,1-2.425,9.207Z" fill="#fa2363"/>
          <path id="Trazado_1273" data-name="Trazado 1273" d="M1160.727,319.262s-15.024,2.059-16.513-5.907S1154.109,304.22,1160.727,319.262Z" fill="#1c306b"/>
          <line id="Línea_104" data-name="Línea 104" y1="2.956" x2="12.649" transform="translate(1117.831 358.135)" fill="none" stroke="#123466" stroke-miterlimit="10" stroke-width="1"/>
          <path id="Trazado_1274" data-name="Trazado 1274" d="M1166.5,317.653a3.936,3.936,0,0,1-1.364,4.838,2.847,2.847,0,0,1-4.089-1.614,3.937,3.937,0,0,1,1.364-4.837A2.846,2.846,0,0,1,1166.5,317.653Z" fill="#ffba82"/>
          <path id="Trazado_1275" data-name="Trazado 1275" d="M1163.491,322.364a1.345,1.345,0,1,0,1.327-1.57A1.464,1.464,0,0,0,1163.491,322.364Z" fill="#fff"/>
          <g id="Grupo_9684" data-name="Grupo 9684">
            <path id="Trazado_1276" data-name="Trazado 1276" d="M1149.6,397.3l-5.731-.454,1.091-19.267,5.731.454Z" fill="#9c1b41"/>
            <path id="Trazado_1277" data-name="Trazado 1277" d="M1148.585,380.7a1.008,1.008,0,1,1-.984-1.188A1.093,1.093,0,0,1,1148.585,380.7Z" fill="#fff"/>
          </g>
        </g>
        <g id="Grupo_9688" data-name="Grupo 9688">
          <g id="Grupo_9687" data-name="Grupo 9687">
            <g id="Grupo_9686" data-name="Grupo 9686">
              <path id="Trazado_1278" data-name="Trazado 1278" d="M856.035,248.159l28.116-6.178a1.933,1.933,0,0,1,2.317,1.547l6.119,34.154a1.933,1.933,0,0,1-1.488,2.229l-46.942,10.314a1.934,1.934,0,0,1-2.285-1.4l-8.762-33.574a1.934,1.934,0,0,1,1.455-2.376h0Z" fill="#f2660a"/>
              <path id="Trazado_1279" data-name="Trazado 1279" d="M882.62,243.707l-1.3-2.494a1.934,1.934,0,0,0-2.129-.995l-12.746,2.8a1.931,1.931,0,0,0-1.515,1.795l-.135,2.81a1.932,1.932,0,0,1-1.516,1.8L835.163,255.6a1.933,1.933,0,0,0-1.455,2.376l8.762,33.573a1.932,1.932,0,0,0,2.285,1.4L891.7,282.632a1.933,1.933,0,0,0,1.488-2.229l-6.119-34.154a1.932,1.932,0,0,0-2.317-1.547h0A1.932,1.932,0,0,1,882.62,243.707Z" fill="#ffb330"/>
              <rect id="Rectángulo_2650" data-name="Rectángulo 2650" width="19.965" height="4.673" rx="1.696" transform="translate(867.74 279.086) rotate(-12.392)" fill="#fff"/>
            </g>
            <line id="Línea_105" data-name="Línea 105" y1="2.848" x2="12.679" transform="translate(866.582 242.596)" fill="none" stroke="#123466" stroke-miterlimit="10" stroke-width="1"/>
          </g>
        </g>
        <g id="Grupo_9704" data-name="Grupo 9704">
          <g id="Grupo_9689" data-name="Grupo 9689">
            <path id="Trazado_1280" data-name="Trazado 1280" d="M938.812,488.705l16.46,15.8-20.066-.394-2.944-4.063L930.693,504l-5.208-.129,2.585-16.682Z" fill="#275996"/>
            <path id="Trazado_1281" data-name="Trazado 1281" d="M947.642,497.181l-.825,4.8-13.392-.332,1.781,2.457,20.066.394Z" fill="#123466"/>
            <path id="Trazado_1282" data-name="Trazado 1282" d="M931.6,501.709l-5.76-.143-.357,2.3,5.208.129Z" fill="#123466"/>
          </g>
          <path id="Trazado_1283" data-name="Trazado 1283" d="M915.351,390.777s-3.677,26.114,4.314,31.78c4.943,3.505,7.307,29.854,7.307,29.854s-3.583,36.578-3.823,38.14,18.73.778,19.5-.19c0,0,1.822-35.711,2.041-42.126a500.808,500.808,0,0,0-2.67-68.509Z" fill="#9c1b41"/>
          <g id="Grupo_9690" data-name="Grupo 9690">
            <path id="Trazado_1284" data-name="Trazado 1284" d="M911.083,485.639l10.73,21.413-18.272-8.824-1.579-4.963-2.524,2.957-4.735-2.315,6.958-14.19Z" fill="#275996"/>
            <path id="Trazado_1285" data-name="Trazado 1285" d="M916.839,497.126l-2.078,4.052-12.176-5.953.955,3,18.272,8.824Z" fill="#123466"/>
            <path id="Trazado_1286" data-name="Trazado 1286" d="M900.9,494.508l-5.237-2.56-.96,1.959,4.735,2.315Z" fill="#123466"/>
          </g>
          <path id="Trazado_1287" data-name="Trazado 1287" d="M911.988,385.381s-9.486,23.765-3.114,31.994c3.943,5.092-.181,31.479-.181,31.479s-10.154,33.815-10.741,35.229,15.789,6.964,16.744,6.3c0,0,12.677-35.934,14.079-42.116,5.534-24.407,9.178-59.416,9.178-59.416Z" fill="#fa2363"/>
          <g id="Grupo_9703" data-name="Grupo 9703">
            <path id="Trazado_1288" data-name="Trazado 1288" d="M923.258,318.414l10.225,3.3.016,5.8-10.693-3.285Z" fill="#123466"/>
            <g id="Grupo_9697" data-name="Grupo 9697">
              <g id="Grupo_9693" data-name="Grupo 9693">
                <path id="Trazado_1289" data-name="Trazado 1289" d="M965.52,317.208s-.567-1,1.129-2.608,3.538-3.722,4.461-2.679,1.274,1.558,2.18,1.9.6,1.761,1.267,2.919a4.006,4.006,0,0,1,.844,2.145c.252,1.335,1.636.8,1.193,2.229s-1.127,6.07-5.739,7.965c0,0-2.292-.578-4.5-3.878S965.52,317.208,965.52,317.208Z" fill="#ffba82"/>
                <g id="Grupo_9691" data-name="Grupo 9691">
                  <path id="Trazado_1290" data-name="Trazado 1290" d="M966.962,321.4s.876,1.243,1.188,1.111a2.2,2.2,0,0,0,.249,1.418c.387.472,1.19,1.2,1.641.893,0,0,.119,1.173.637,1.336s1.356-.205,2.844-1.2a7.27,7.27,0,0,0,1.9-1.608s-1.226,1.465-2.53,2.84-2.058,1.908-2.92.854-.657-1.316-2.053-2.51-2.264-1.062-2.761-2.908A1.5,1.5,0,0,0,966.962,321.4Z" fill="#ed944c"/>
                </g>
                <g id="Grupo_9692" data-name="Grupo 9692">
                  <path id="Trazado_1291" data-name="Trazado 1291" d="M959.169,313.762c-4.485-1.655-7.1-7.318-5.822-12.624s5.96-8.276,10.446-6.62,7.1,7.319,5.823,12.624S963.655,315.418,959.169,313.762Zm3.875-16.127c-3.032-1.119-6.2.889-7.062,4.476s.9,7.415,3.936,8.534,6.2-.889,7.062-4.475S966.076,298.754,963.044,297.635Z" fill="#fc3063"/>
                  <path id="Trazado_1292" data-name="Trazado 1292" d="M967.95,323.793a1.423,1.423,0,0,1-.8-.835l-4.031-10.051a1.822,1.822,0,0,1,.593-2.18,1.209,1.209,0,0,1,1.761.734l4.03,10.051a1.821,1.821,0,0,1-.593,2.18A1.082,1.082,0,0,1,967.95,323.793Z" fill="#fc3063"/>
                </g>
                <path id="Trazado_1293" data-name="Trazado 1293" d="M966.543,318.459s-1.4-2.016-2.326-1.611a2.037,2.037,0,0,0-1.237,2.253,11.044,11.044,0,0,0,1.252,3.158,10.593,10.593,0,0,0,2.6,3.631,9.655,9.655,0,0,1-1.682-4.26s1.22.768,1.807-.228A2.328,2.328,0,0,0,966.543,318.459Z" fill="#ffba82"/>
                <path id="Trazado_1294" data-name="Trazado 1294" d="M975.4,318.881a4.006,4.006,0,0,0-.844-2.145c-.667-1.158-.361-2.582-1.267-2.919s-1.257-.852-2.18-1.9-2.764,1.072-4.461,2.679-1.129,2.608-1.129,2.608a13.027,13.027,0,0,0-.361,4.424,1.5,1.5,0,0,0,1.8-.23s.876,1.243,1.188,1.111a2.2,2.2,0,0,0,.249,1.418c.387.472,1.19,1.2,1.641.893,0,0,.119,1.173.637,1.336s1.356-.205,2.844-1.2a9.8,9.8,0,0,0,1.683-1.354l.215-.254a2.377,2.377,0,0,1-.215.254c-.407.478-1.339,1.557-2.315,2.586-1.3,1.375-2.058,1.908-2.92.854s-.657-1.316-2.053-2.51-2.258-1.065-2.756-2.892a7.762,7.762,0,0,0,1.2,3.551c2.208,3.3,4.5,3.878,4.5,3.878,4.611-1.9,5.3-6.537,5.739-7.965S975.653,320.216,975.4,318.881Z" fill="#ffba82"/>
              </g>
              <g id="Grupo_9696" data-name="Grupo 9696">
                <g id="Grupo_9695" data-name="Grupo 9695">
                  <g id="Grupo_9694" data-name="Grupo 9694">
                    <path id="Trazado_1295" data-name="Trazado 1295" d="M950.083,361.416l23.091-30.472-10.761-12.5L948.6,336.673l-10.557-10.1-6.278,17.134Z" fill="#123466"/>
                  </g>
                </g>
              </g>
            </g>
            <g id="Grupo_9698" data-name="Grupo 9698">
              <path id="Trazado_1296" data-name="Trazado 1296" d="M930.886,324.955,914.473,328.2c-7.907,2.982-9.514,9.5-8.576,14.957l5.481,25.648-.682,24.469,15.737,3.158c7.051,1.416,16.46,1.029,22.017-4.527l-.162-4.974L945.6,350.961c-.037-6.774-.571-15.743-4.174-20.841a23.127,23.127,0,0,0-3.377-3.547C937.277,325.9,932.533,325.107,930.886,324.955Z" fill="#275996"/>
              <path id="Trazado_1297" data-name="Trazado 1297" d="M920.194,307.967l.4,17.04c.091,1.64,3.732,1.707,7.267,2.557,2.074.5,3.587,2.268,3.288-.322l-1.338-11.617Z" fill="#ffba82"/>
              <path id="Trazado_1298" data-name="Trazado 1298" d="M930.533,321.893l-.613-5.234-7.524-4.34.26,2.1S923.707,317.909,930.533,321.893Z" fill="#ed944c"/>
            </g>
            <path id="Trazado_1299" data-name="Trazado 1299" d="M921.187,315.791l10.5,4.177a4.208,4.208,0,0,0,4.671-1.077,6.63,6.63,0,0,0,1.662-4.1l.376-16.08-15.016-3.706Z" fill="#ffba82"/>
            <path id="Trazado_1300" data-name="Trazado 1300" d="M937.725,303.886l2.05,5.474a.99.99,0,0,1-1.094,1.405l-1.671-.337Z" fill="#ffba82"/>
            <path id="Trazado_1301" data-name="Trazado 1301" d="M935.616,306.241a.61.61,0,0,0,.295.723.449.449,0,0,0,.583-.364.61.61,0,0,0-.294-.723A.45.45,0,0,0,935.616,306.241Z" fill="#123466"/>
            <path id="Trazado_1302" data-name="Trazado 1302" d="M934.4,304.974a.269.269,0,0,0,.186-.056l1.684-1.244a.454.454,0,0,0,.111-.544.288.288,0,0,0-.44-.137l-1.684,1.245a.454.454,0,0,0-.11.543A.318.318,0,0,0,934.4,304.974Z" fill="#f2660a"/>
            <g id="Grupo_9702" data-name="Grupo 9702">
              <g id="Grupo_9701" data-name="Grupo 9701">
                <g id="Grupo_9700" data-name="Grupo 9700">
                  <g id="Grupo_9699" data-name="Grupo 9699">
                    <path id="Trazado_1303" data-name="Trazado 1303" d="M914.341,405.345l3.143,8.989a1.8,1.8,0,0,1,.1.787c-.084.732-.329,2.191-.908,1.572-.761-.813-4.308-10.516-4.308-10.516" fill="#ffba82"/>
                    <path id="Trazado_1304" data-name="Trazado 1304" d="M920.626,400.467l-.436,2.472a4.373,4.373,0,0,0-.005,1.409l1.628,8.052s-.181,2.241-1.111,1.511-3.991-9.315-3.991-9.315l3.63,10.386a1.474,1.474,0,0,1,.086.634c-.08.773-.353,2.67-1.05,1.924-.867-.927-4.914-11.994-4.914-11.994" fill="#ffba82"/>
                    <path id="Trazado_1305" data-name="Trazado 1305" d="M914.946,414.7a4.212,4.212,0,0,0,.053-1.822l-2.247-6.046,4.406-1.956,3.468-4.409-1.443-4.938s-5.836-4.362-9.229,3.429a3.51,3.51,0,0,0-.192,1.9l.9,6a2.436,2.436,0,0,0,.129.358c.535,1.176,2.945,7.43,3.291,7.8C914.28,415.237,914.81,415.014,914.946,414.7Z" fill="#ffba82"/>
                  </g>
                  <path id="Trazado_1306" data-name="Trazado 1306" d="M919.663,402.743l1.189-1.151c.569-.485,1.283.2,2.116.691l2.523,1.884c.323.241.659.085.629-.3a4.893,4.893,0,0,0-1.676-3.594l-5.622-5.346Z" fill="#ffba82"/>
                </g>
                <path id="Trazado_1307" data-name="Trazado 1307" d="M897.489,376.333l11.444,28.5,13.212-8.134-8.988-22.376,7.131-33.906c.865-4.112-1.126-8.314-4.447-9.385l-2.25-.725c-3.321-1.071-6.716,1.394-7.58,5.507Z" fill="#123466"/>
              </g>
            </g>
            <path id="Trazado_1308" data-name="Trazado 1308" d="M930.016,324.423" fill="#4ec7b5"/>
          </g>
          <path id="Trazado_1309" data-name="Trazado 1309" d="M919.475,321.849l10.225,3.3.016,5.8-10.693-3.285Z" fill="#123466"/>
          <path id="Trazado_1310" data-name="Trazado 1310" d="M922.645,305.724l4.609-4.981s10.431,4.435,12.567-.389,1.885-7.312,1.885-7.312-19.363-8.489-20.7,5.445S922.645,305.724,922.645,305.724Z" fill="#f2660a"/>
          <path id="Trazado_1311" data-name="Trazado 1311" d="M919.174,305.428c-.552,2.074.359,4.309,2.034,4.992s3.48-.444,4.032-2.517-.359-4.309-2.034-4.993S919.726,303.354,919.174,305.428Z" fill="#ffba82"/>
        </g>
        <path id="Trazado_1312" data-name="Trazado 1312" d="M895.794,269.7s109.406-31.182,160.932,43.194" fill="none" stroke="#3d2b4f" stroke-linecap="round" stroke-linejoin="round" stroke-width="1" stroke-dasharray="0 0 2.835"/>
      </g>
    </g>
  </g>
</svg>
