<svg xmlns="http://www.w3.org/2000/svg" xmlns:xlink="http://www.w3.org/1999/xlink" width="532.065" height="362.093" viewBox="0 0 532.065 362.093">
  <defs>
    <linearGradient id="linear-gradient" x1="0.5" y1="1" x2="0.5" gradientUnits="objectBoundingBox">
      <stop offset="0" stop-color="#cbf1f6"/>
      <stop offset="1" stop-color="#fff"/>
    </linearGradient>
  </defs>
  <g id="Grupo_18526" data-name="Grupo 18526" transform="translate(-735.935 -900.999)">
    <text id="Recursos" transform="translate(1001.967 1093.195)" fill="#3a9ca8" font-size="30" font-family="Montserrat-Regular, Montserrat" style="isolation: isolate"><tspan x="-69.435" y="0">Recursos</tspan></text>
    <g id="Grupo_18516" data-name="Grupo 18516">
      <rect id="Rectángulo_4658" data-name="Rectángulo 4658" width="174.233" height="140.058" rx="12" transform="translate(735.935 900.999)" fill="#bfeef4"/>
      <path id="Trazado_50835" data-name="Trazado 50835" d="M764.951,998.807V982.372l1.743-2.46,7.753-4.843-6.677-4.041,1.049-19.91s4.425-11.3,13-10.254,12.86,7.84,13.009,11.222,1.84,17.068,1.84,17.068l-7.469,5.915,2.815,2.631,16.177-5.761,4-5.568v-6.444S804.2,953.91,804.2,940.8l-1.754-5.621s-2.857-21.215,13.746-22.291a186.6,186.6,0,0,1,27.5,0s.935,19.524-1.754,26.442c0,0,1.77,12.453-7.608,21.216l.461,5.829,4.305,5.6,11.929,5.02,4.828-2.171.768-5.665s-7.322-3.3-5.6-13.548c0,0-6.087-11.207,5.6-14.436l17.987-.307s1.3,8.991-.84,14.942c0,0,3.3,7.195-5.77,14.267l-.154,4.122,12.3,5.04,1.383,21.739Z" fill="url(#linear-gradient)"/>
      <g id="Grupo_18515" data-name="Grupo 18515">
        <g id="Grupo_18514" data-name="Grupo 18514">
          <path id="Trazado_50836" data-name="Trazado 50836" d="M868.812,950.487c-4.073-2.036-11.709-2.06-12.033-2.06a1.754,1.754,0,1,0,0,3.507c1.971,0,7.692.3,10.465,1.69a1.754,1.754,0,1,0,1.568-3.137Zm0,0" fill="#36afea"/>
          <path id="Trazado_50837" data-name="Trazado 50837" d="M877.556,975.454l-7.243-2.069a.738.738,0,0,1-.531-.7v-2.419a13.06,13.06,0,0,0,1.676-1.374,12.9,12.9,0,0,0,3.948-9.332v-3.337l.7-1.4a11.175,11.175,0,0,0,1.175-4.976v-9.037a1.753,1.753,0,0,0-1.754-1.753H858.654a11.141,11.141,0,0,0-11.129,11.127v.1a9.3,9.3,0,0,0,.978,4.138l.9,1.8v2.865a13.685,13.685,0,0,0,5.625,11.063v2.533c0,.391,0,.552-1.448.966l-3.534,1.01-10.223-3.718a1.748,1.748,0,0,0-.477-1.342l-3.267-3.432V960.4c.346-.284.685-.577,1.015-.886a20.58,20.58,0,0,0,6.485-14.961v-4.6a20.264,20.264,0,0,0,1.875-8.524V912.682a1.753,1.753,0,0,0-1.753-1.753h-26.25A16.771,16.771,0,0,0,800.7,927.681v3.751a20.269,20.269,0,0,0,1.875,8.523v3.959a21.429,21.429,0,0,0,7.5,16.354v5.9L806.8,969.6a1.753,1.753,0,0,0-.479,1.343l-10.789,3.923A9.207,9.207,0,0,0,793.369,976l-1.693-.848c5.042-2.194,6.64-5.282,6.716-5.436a1.745,1.745,0,0,0,0-1.568c-1.263-2.528-1.417-7.163-1.54-10.886-.04-1.239-.079-2.411-.153-3.453-.6-8.411-6.993-14.754-14.874-14.754s-14.276,6.342-14.874,14.754c-.074,1.042-.113,2.214-.153,3.453-.123,3.724-.276,8.358-1.541,10.886a1.752,1.752,0,0,0,0,1.568c.077.154,1.671,3.235,6.725,5.433l-4.707,2.352a7.343,7.343,0,0,0-4.078,6.6v12.954a1.753,1.753,0,0,0,3.507,0V984.1a3.852,3.852,0,0,1,2.14-3.464l5.86-2.93,2.038,1.938a7.376,7.376,0,0,0,10.166,0l2.039-1.936,1.91.954a9.232,9.232,0,0,0-1.411,4.9v13.5a1.754,1.754,0,1,0,3.507,0v-13.5a5.767,5.767,0,0,1,3.783-5.4l11.375-4.136,4.735,7.1a3.621,3.621,0,0,0,2.662,1.6c.121.012.241.017.362.017a3.613,3.613,0,0,0,2.562-1.064l2.888-2.888v18.266a1.754,1.754,0,1,0,3.507,0V978.789l2.889,2.888a3.612,3.612,0,0,0,2.562,1.065c.12,0,.241-.006.362-.018a3.62,3.62,0,0,0,2.662-1.6l4.734-7.1,11.375,4.135a5.767,5.767,0,0,1,3.784,5.4v13.5a1.754,1.754,0,1,0,3.507,0v-13.5a9.27,9.27,0,0,0-2.594-6.416l.434-.123a9.72,9.72,0,0,0,1.631-.59l4.477,4.477v16.148a1.753,1.753,0,1,0,3.507,0V980.907l4.446-4.446a4.274,4.274,0,0,0,.747.3l7.241,2.069a3.887,3.887,0,0,1,2.809,3.722v14.506a1.753,1.753,0,1,0,3.507,0V982.549a7.41,7.41,0,0,0-5.351-7.1Zm-103.109-3.1a12.606,12.606,0,0,1-5.628-3.613,19.291,19.291,0,0,0,1-4.2,13.1,13.1,0,0,0,4.629,5.711Zm10.045,4.746a3.869,3.869,0,0,1-5.334,0l-1.63-1.549a3.625,3.625,0,0,0,.426-1.712v-1.869a13.046,13.046,0,0,0,7.742,0v1.867a3.626,3.626,0,0,0,.426,1.713Zm-2.666-8.05a9.507,9.507,0,0,1-9.5-9.5,1.754,1.754,0,0,0-1.753-1.754,1.717,1.717,0,0,0-.289.026c.006-.151.011-.3.016-.451.039-1.206.077-2.345.146-3.322a13.023,13.023,0,0,1,3.545-8.176,10.9,10.9,0,0,1,15.661,0,13.023,13.023,0,0,1,3.545,8.176c.07.977.107,2.116.148,3.321,0,.1.006.208.009.313a15.753,15.753,0,0,0-8.66-6.329,22.029,22.029,0,0,0-6.671-1.057,1.75,1.75,0,0,0-1.213.536l-3.164,3.281a1.754,1.754,0,0,0,2.525,2.434l2.632-2.73c2.268.111,9.561.96,12.4,7.207a9.472,9.472,0,0,1-9.379,8.021Zm7.377,3.31v-2.091a12.988,12.988,0,0,0,4.63-5.716,19.3,19.3,0,0,0,1,4.189,12.676,12.676,0,0,1-5.629,3.618Zm16.875-28.448v-4.351a1.76,1.76,0,0,0-.174-.762,16.829,16.829,0,0,1-1.7-7.369v-3.751a13.259,13.259,0,0,1,13.245-13.245h24.5v17a16.817,16.817,0,0,1-1.7,7.369,1.749,1.749,0,0,0-.174.762v4.993a16.834,16.834,0,0,1-5.375,12.4,17.188,17.188,0,0,1-1.347,1.14l-.029.024a16.866,16.866,0,0,1-11.38,3.393c-8.893-.576-15.861-8.307-15.861-17.6Zm9.873,35.284a.109.109,0,0,1-.1.034.112.112,0,0,1-.089-.053L810.312,971l1.755-1.845,8.273,5.655Zm7.123-6.767-9.5-6.492v-3.273a19.756,19.756,0,0,0,8.134,2.349c.463.029.922.045,1.38.045a20.319,20.319,0,0,0,9.478-2.323v3.2Zm7.31,6.749a.117.117,0,0,1-.09.053.108.108,0,0,1-.1-.035l-4.387-4.387,8.273-5.656L835.837,971ZM862.4,977.7l-3.979-3.979a4.789,4.789,0,0,0,.108-1.041v-.741a12.321,12.321,0,0,0,3.473.614c.135,0,.269.006.4.006a13.007,13.007,0,0,0,3.866-.585v.707a4.181,4.181,0,0,0,.127,1.021Zm6.613-11.329a9.424,9.424,0,0,1-6.906,2.676,9.815,9.815,0,0,1-9.2-9.963v-3.277a1.751,1.751,0,0,0-.186-.785l-1.084-2.167a5.8,5.8,0,0,1-.606-2.57v-.1a7.63,7.63,0,0,1,7.622-7.62h15.121v7.283a7.654,7.654,0,0,1-.805,3.408l-.886,1.771a1.766,1.766,0,0,0-.185.785v3.749a9.421,9.421,0,0,1-2.883,6.815Zm0,0" fill="#36afea"/>
          <path id="Trazado_50838" data-name="Trazado 50838" d="M873.653,984.051A1.754,1.754,0,0,0,871.9,985.8v11.25a1.754,1.754,0,0,0,3.507,0V985.8a1.753,1.753,0,0,0-1.753-1.753Zm0,0" fill="#36afea"/>
          <path id="Trazado_50839" data-name="Trazado 50839" d="M772.451,986.37a1.754,1.754,0,0,0-1.754,1.753v8.931a1.754,1.754,0,0,0,3.508,0v-8.931a1.754,1.754,0,0,0-1.754-1.753Zm0,0" fill="#36afea"/>
          <path id="Trazado_50840" data-name="Trazado 50840" d="M837.438,932.066c-6.631-6.631-20.508-5.364-26.167-4.51a3.6,3.6,0,0,0-3.076,3.586v4.04a1.754,1.754,0,0,0,3.508,0v-4.041a.116.116,0,0,1,.092-.118,55.418,55.418,0,0,1,11.392-.557c5.468.365,9.429,1.737,11.772,4.081a1.754,1.754,0,1,0,2.479-2.481Zm0,0" fill="#36afea"/>
          <path id="Trazado_50841" data-name="Trazado 50841" d="M802.45,987.8a1.753,1.753,0,0,0-1.754,1.753v7.5a1.754,1.754,0,1,0,3.508,0v-7.5a1.754,1.754,0,0,0-1.754-1.753Zm0,0" fill="#36afea"/>
          <path id="Trazado_50842" data-name="Trazado 50842" d="M843.7,987.8a1.753,1.753,0,0,0-1.754,1.753v7.5a1.754,1.754,0,1,0,3.507,0v-7.5A1.753,1.753,0,0,0,843.7,987.8Zm0,0" fill="#36afea"/>
        </g>
      </g>
      <path id="Trazado_50843" data-name="Trazado 50843" d="M735.935,997.266v31.492a12.335,12.335,0,0,0,12.3,12.3H897.869a12.335,12.335,0,0,0,12.3-12.3V997.266Z" fill="#36afea"/>
      <text id="Humanos" transform="translate(823.051 1026.373)" fill="#fff" font-size="25" font-family="Montserrat-Regular, Montserrat" style="isolation: isolate"><tspan x="-60.35" y="0">Humanos</tspan></text>
    </g>
    <g id="Grupo_18519" data-name="Grupo 18519">
      <rect id="Rectángulo_4659" data-name="Rectángulo 4659" width="174.233" height="140.058" rx="12" transform="translate(735.935 1123.034)" fill="#bfeef4"/>
      <path id="Trazado_50844" data-name="Trazado 50844" d="M778.839,1144.1v53.37l2.152,3.666h10.894l1.561,5.38H841.87l1.283-5.38,13.5-.154,3.974,5.534s6.611,1.274,6.15-4.436l-8.148-14.115s5.842-8.192,4.151-16.343-7.226-9.5-7.226-9.5V1144.1l-2.133-2.921H823.367l-.549-5.227H811.892l-.651,5.535H781.3Z" fill="url(#linear-gradient)"/>
      <g id="Grupo_18518" data-name="Grupo 18518">
        <g id="Grupo_18517" data-name="Grupo 18517">
          <path id="Trazado_50845" data-name="Trazado 50845" d="M823.367,1170.773a1.762,1.762,0,1,1,1.761-1.762,1.763,1.763,0,0,1-1.761,1.762Zm-12.126-6.885a1.761,1.761,0,1,1,1.762-1.762,1.763,1.763,0,0,1-1.762,1.762Zm-12.126,6.885a1.762,1.762,0,1,1,1.762-1.762,1.763,1.763,0,0,1-1.762,1.762Zm36.377-20.464a1.762,1.762,0,1,1-1.761,1.762,1.764,1.764,0,0,1,1.761-1.762Zm0,6.166a4.411,4.411,0,1,0-3.518-1.759l-7.236,10.111a4.39,4.39,0,0,0-4.369.962l-4.823-2.737a4.342,4.342,0,0,0,.1-.926,4.4,4.4,0,1,0-8.709.926l-4.822,2.737a4.4,4.4,0,1,0,1.307,2.3l4.823-2.737a4.392,4.392,0,0,0,5.995,0l4.823,2.737a4.4,4.4,0,1,0,7.823-1.719l7.236-10.112a4.385,4.385,0,0,0,1.371.22Z" fill="#36afea"/>
          <path id="Trazado_50846" data-name="Trazado 50846" d="M841.162,1204.989a.362.362,0,0,1-.362.361H793.807a.361.361,0,0,1-.361-.361v-2.908h47.716v2.908Zm10.567-5.55H781.694a1.1,1.1,0,0,1-1.095-1.095v-54.505a1.1,1.1,0,0,1,1.095-1.095h6.228a1.321,1.321,0,1,0,0-2.642h-6.228a3.741,3.741,0,0,0-3.737,3.737v54.505a3.741,3.741,0,0,0,3.737,3.737H790.8v2.908a3.008,3.008,0,0,0,3,3h13.225l-6.226,12.154a1.321,1.321,0,1,0,2.352,1.2L810,1207.993h14.607l6.843,13.358a1.321,1.321,0,1,0,2.351-1.2l-6.225-12.154H840.8a3.007,3.007,0,0,0,3-3v-2.908h7.925a1.321,1.321,0,0,0,0-2.642Z" fill="#36afea"/>
          <path id="Trazado_50847" data-name="Trazado 50847" d="M812.614,1137.505a.673.673,0,0,1,.672-.672h8.036a.673.673,0,0,1,.672.672v2.6h-9.38v-2.6Zm-19.407,5.239h59.707a1.1,1.1,0,0,1,1.094,1.095V1156.4a1.322,1.322,0,0,0,2.643,0v-12.562a3.742,3.742,0,0,0-3.737-3.737H824.636v-2.6a3.318,3.318,0,0,0-3.314-3.314h-8.036a3.318,3.318,0,0,0-3.315,3.314v2.6H793.207a1.321,1.321,0,1,0,0,2.642Z" fill="#36afea"/>
          <path id="Trazado_50848" data-name="Trazado 50848" d="M800.474,1191.844h-2.717v-9.032h2.717v9.032Zm-4.038-11.674a1.321,1.321,0,0,0-1.322,1.321v11.674a1.321,1.321,0,0,0,1.322,1.321h5.359a1.321,1.321,0,0,0,1.322-1.321v-11.674a1.321,1.321,0,0,0-1.322-1.321Z" fill="#36afea"/>
          <path id="Trazado_50849" data-name="Trazado 50849" d="M812.6,1191.844h-2.718V1176.06H812.6v15.784Zm-4.039-18.426a1.321,1.321,0,0,0-1.321,1.321v18.426a1.32,1.32,0,0,0,1.321,1.321h5.36a1.321,1.321,0,0,0,1.321-1.321v-18.426a1.322,1.322,0,0,0-1.321-1.321Z" fill="#36afea"/>
          <path id="Trazado_50850" data-name="Trazado 50850" d="M824.725,1191.844h-2.717v-9.032h2.717v9.032Zm-4.038-11.674a1.32,1.32,0,0,0-1.321,1.321v11.674a1.32,1.32,0,0,0,1.321,1.321h5.359a1.321,1.321,0,0,0,1.322-1.321v-11.674a1.321,1.321,0,0,0-1.322-1.321Z" fill="#36afea"/>
          <path id="Trazado_50851" data-name="Trazado 50851" d="M832.812,1187.966a1.321,1.321,0,0,0-1.321,1.321v3.878a1.321,1.321,0,0,0,1.321,1.321h5.36a1.321,1.321,0,1,0,0-2.642h-4.039v-2.557a1.32,1.32,0,0,0-1.321-1.321Z" fill="#36afea"/>
          <path id="Trazado_50852" data-name="Trazado 50852" d="M864.314,1205.253a2.382,2.382,0,0,1-3.251-.87l-7.29-12.631a17.317,17.317,0,0,0,4.119-2.381L865.185,1202a2.377,2.377,0,0,1-.871,3.251Zm-20.819-15.377a14.626,14.626,0,1,1,11.1-1.461,14.528,14.528,0,0,1-11.1,1.461Zm23.978,10.805-7.579-13.127a17.276,17.276,0,1,0-17.083,4.875,17.386,17.386,0,0,0,4.5.6,17.016,17.016,0,0,0,3.889-.449l7.578,13.129a5.022,5.022,0,1,0,8.7-5.023Z" fill="#36afea"/>
          <path id="Trazado_50853" data-name="Trazado 50853" d="M851.365,1171.623a1.027,1.027,0,0,0,2.054,0c0-2.538-2.225-4.646-5.133-5.056v-1.1a1.027,1.027,0,1,0-2.053,0v1.1c-2.908.41-5.133,2.518-5.133,5.056s2.225,4.646,5.133,5.055v6.127c-1.766-.344-3.08-1.54-3.08-2.97a1.027,1.027,0,0,0-2.053,0c0,2.537,2.225,4.646,5.133,5.056v1.1a1.027,1.027,0,0,0,2.053,0v-1.1c2.908-.411,5.133-2.519,5.133-5.056s-2.225-4.646-5.133-5.056v-6.126c1.766.344,3.079,1.539,3.079,2.97Zm-8.212,0c0-1.431,1.314-2.626,3.08-2.97v5.94c-1.766-.345-3.08-1.539-3.08-2.97Zm8.212,8.212c0,1.431-1.313,2.626-3.079,2.97v-5.94c1.766.344,3.079,1.539,3.079,2.97Zm0,0" fill="#36afea"/>
        </g>
      </g>
      <path id="Trazado_50854" data-name="Trazado 50854" d="M735.935,1219.3v31.493a12.336,12.336,0,0,0,12.3,12.3H897.869a12.335,12.335,0,0,0,12.3-12.3V1219.3Z" fill="#36afea"/>
      <text id="Financieros" transform="translate(823.051 1247.751)" fill="#fff" font-size="25" font-family="Montserrat-Regular, Montserrat" style="isolation: isolate"><tspan x="-72.125" y="0">Financieros</tspan></text>
    </g>
    <g id="Grupo_18522" data-name="Grupo 18522">
      <rect id="Rectángulo_4660" data-name="Rectángulo 4660" width="174.233" height="140.058" rx="12" transform="translate(1093.767 900.999)" fill="#bfeef4"/>
      <path id="Trazado_50855" data-name="Trazado 50855" d="M1132.329,999.06V942.094h23.929v-20.6h13.836V911.039h20.7v9.839l14.041.922v18.3l10.728,1.686v13.263l13.562,2.392.311,41.619Z" fill="url(#linear-gradient)"/>
      <g id="Grupo_18521" data-name="Grupo 18521">
        <g id="Grupo_18520" data-name="Grupo 18520">
          <path id="Trazado_50856" data-name="Trazado 50856" d="M1172.213,927.962a1.734,1.734,0,0,0-1.734-1.734h-6.936a1.734,1.734,0,0,0-1.735,1.734V934.9a1.735,1.735,0,0,0,1.735,1.734h6.936a1.735,1.735,0,0,0,1.734-1.734Zm-3.468,5.2h-3.468V929.7h3.468Zm0,0" fill="#36afea"/>
          <path id="Trazado_50857" data-name="Trazado 50857" d="M1186.086,927.962a1.734,1.734,0,0,0-1.734-1.734h-6.937a1.734,1.734,0,0,0-1.734,1.734V934.9a1.735,1.735,0,0,0,1.734,1.734h6.937a1.735,1.735,0,0,0,1.734-1.734Zm-3.468,5.2h-3.469V929.7h3.469Zm0,0" fill="#36afea"/>
          <path id="Trazado_50858" data-name="Trazado 50858" d="M1199.959,927.962a1.734,1.734,0,0,0-1.734-1.734h-6.937a1.734,1.734,0,0,0-1.734,1.734V934.9a1.735,1.735,0,0,0,1.734,1.734h6.937a1.735,1.735,0,0,0,1.734-1.734Zm-3.468,5.2h-3.469V929.7h3.469Zm0,0" fill="#36afea"/>
          <path id="Trazado_50859" data-name="Trazado 50859" d="M1172.213,941.834a1.735,1.735,0,0,0-1.734-1.734h-6.936a1.735,1.735,0,0,0-1.735,1.734v6.937a1.735,1.735,0,0,0,1.735,1.734h6.936a1.735,1.735,0,0,0,1.734-1.734Zm-3.468,5.2h-3.468v-3.468h3.468Zm0,0" fill="#36afea"/>
          <path id="Trazado_50860" data-name="Trazado 50860" d="M1186.086,941.834a1.735,1.735,0,0,0-1.734-1.734h-6.937a1.735,1.735,0,0,0-1.734,1.734v6.937a1.735,1.735,0,0,0,1.734,1.734h6.937a1.735,1.735,0,0,0,1.734-1.734Zm-3.468,5.2h-3.469v-3.468h3.469Zm0,0" fill="#36afea"/>
          <path id="Trazado_50861" data-name="Trazado 50861" d="M1199.959,941.834a1.735,1.735,0,0,0-1.734-1.734h-6.937a1.735,1.735,0,0,0-1.734,1.734v6.937a1.735,1.735,0,0,0,1.734,1.734h6.937a1.735,1.735,0,0,0,1.734-1.734Zm-3.468,5.2h-3.469v-3.468h3.469Zm0,0" fill="#36afea"/>
          <path id="Trazado_50862" data-name="Trazado 50862" d="M1170.479,953.973h-6.936a1.735,1.735,0,0,0-1.735,1.734v6.937a1.735,1.735,0,0,0,1.735,1.734h6.936a1.735,1.735,0,0,0,1.734-1.734v-6.937a1.735,1.735,0,0,0-1.734-1.734Zm-1.734,6.937h-3.468v-3.469h3.468Zm0,0" fill="#36afea"/>
          <path id="Trazado_50863" data-name="Trazado 50863" d="M1184.352,953.973h-6.937a1.735,1.735,0,0,0-1.734,1.734v6.937a1.735,1.735,0,0,0,1.734,1.734h6.937a1.735,1.735,0,0,0,1.734-1.734v-6.937a1.735,1.735,0,0,0-1.734-1.734Zm-1.734,6.937h-3.469v-3.469h3.469Zm0,0" fill="#36afea"/>
          <path id="Trazado_50864" data-name="Trazado 50864" d="M1198.225,953.973h-6.937a1.735,1.735,0,0,0-1.734,1.734v6.937a1.735,1.735,0,0,0,1.734,1.734h6.937a1.735,1.735,0,0,0,1.734-1.734v-6.937a1.735,1.735,0,0,0-1.734-1.734Zm-1.734,6.937h-3.469v-3.469h3.469Zm0,0" fill="#36afea"/>
          <path id="Trazado_50865" data-name="Trazado 50865" d="M1151.4,948.771a1.734,1.734,0,0,0-3.468,0v6.936a1.734,1.734,0,0,0,3.468,0Zm0,0" fill="#36afea"/>
          <path id="Trazado_50866" data-name="Trazado 50866" d="M1142.733,947.037h-8.67v-3.468h15.607a1.734,1.734,0,0,0,0-3.469h-17.341a1.734,1.734,0,0,0-1.734,1.734v55.492a1.734,1.734,0,0,0,3.468,0V985.187h8.67a1.734,1.734,0,0,0,1.734-1.734v-6.936a1.734,1.734,0,0,0-1.734-1.735h-8.67v-3.468h8.67a1.734,1.734,0,0,0,1.734-1.734v-6.936a1.734,1.734,0,0,0-1.734-1.734h-8.67v-3.469h8.67a1.734,1.734,0,0,0,1.734-1.734v-6.936a1.734,1.734,0,0,0-1.734-1.734ZM1141,978.251v3.468h-6.936v-3.468Zm0-13.873v3.468h-6.936v-3.468Zm0-10.4h-6.936v-3.468H1141Zm0,0" fill="#36afea"/>
          <path id="Trazado_50867" data-name="Trazado 50867" d="M1151.4,962.644a1.734,1.734,0,0,0-3.468,0v6.936a1.734,1.734,0,0,0,3.468,0Zm0,0" fill="#36afea"/>
          <path id="Trazado_50868" data-name="Trazado 50868" d="M1149.67,974.782a1.734,1.734,0,0,0-1.734,1.735v6.936a1.734,1.734,0,0,0,3.468,0v-6.936a1.735,1.735,0,0,0-1.734-1.735Zm0,0" fill="#36afea"/>
          <path id="Trazado_50869" data-name="Trazado 50869" d="M1229.438,953.973H1217.3V934.9a1.734,1.734,0,0,0-3.469,0v5.2H1206.9v-5.2a1.734,1.734,0,0,0-3.468,0v53.757h-6.936v-10.4h1.734a1.735,1.735,0,0,0,1.734-1.734V969.58a1.735,1.735,0,0,0-1.734-1.734h-34.683a1.735,1.735,0,0,0-1.734,1.734v6.937a1.735,1.735,0,0,0,1.734,1.734h1.734v10.4h-6.935v-65.9h45.086v5.2a1.734,1.734,0,0,0,3.468,0v-6.937a1.735,1.735,0,0,0-1.734-1.734h-12.139V910.62a1.734,1.734,0,0,0-1.734-1.733h-20.809a1.734,1.734,0,0,0-1.734,1.733v8.671h-12.139a1.735,1.735,0,0,0-1.734,1.734v67.63h-6.936a1.734,1.734,0,0,0,0,3.469H1212.1v3.468h-64.161a1.734,1.734,0,0,0,0,3.468h65.9a1.734,1.734,0,0,0,1.734-1.734v-5.2H1227.7v5.2a1.734,1.734,0,0,0,3.469,0V955.707A1.735,1.735,0,0,0,1229.438,953.973Zm-57.225-41.618h17.341v6.936h-17.341Zm-6.937,58.959h31.215v3.468h-31.215Zm13.873,17.341h-10.4v-10.4h10.4Zm13.873,0h-10.4v-10.4h10.4Zm13.873-45.086h6.936v3.468H1212.1a1.734,1.734,0,1,0,0,3.468h1.734v3.468H1206.9Zm0,13.872h13.873v3.468H1206.9Zm0,13.873h3.468v3.468H1206.9Zm6.936,17.341H1206.9v-3.468h6.936Zm6.937,0H1217.3v-3.468h3.468Zm6.936,0h-3.468v-3.468h3.468Zm0-6.936H1206.9v-3.468H1227.7Zm-13.873-6.937v-3.468h3.469v3.468Zm13.873,0h-6.936v-3.468h6.936Zm0-6.936H1206.9v-3.468H1227.7Zm0-6.937h-3.468v-3.468h3.468Z" fill="#36afea"/>
        </g>
      </g>
      <path id="Trazado_50870" data-name="Trazado 50870" d="M1093.767,997.266v31.492a12.335,12.335,0,0,0,12.3,12.3H1255.7a12.335,12.335,0,0,0,12.3-12.3V997.266Z" fill="#36afea"/>
      <text id="Materiales" transform="translate(1180.883 1026.373)" fill="#fff" font-size="25" font-family="Montserrat-Regular, Montserrat" style="isolation: isolate"><tspan x="-65.7" y="0">Materiales</tspan></text>
    </g>
    <g id="Grupo_18525" data-name="Grupo 18525">
      <rect id="Rectángulo_4661" data-name="Rectángulo 4661" width="174.233" height="140.058" rx="12" transform="translate(1093.767 1123.034)" fill="#bfeef4"/>
      <path id="Trazado_50871" data-name="Trazado 50871" d="M1147.561,1219.3a8.418,8.418,0,0,1-8.624-7.043c-1.517-7.466,0-49.285,0-49.285a9.632,9.632,0,0,1,8.624-7.29c7.364-.82,9,7.485,9,7.485v7.244h12.728l-1.449-4.347,2.9-2.9c-3.583-2.9-10.142-21.732,7.244-21.732,16.511,0,9.249,21.537,7.244,21.732,0,0,5.192,2.792,1.449,7.244h18.261V1141.4s-.592-5.755,6.368-5.755c5.6,0,5.316,5.8,5.316,5.8l.168,28.976h5.776v52.095Z" fill="url(#linear-gradient)"/>
      <g id="Grupo_18524" data-name="Grupo 18524">
        <g id="Grupo_18523" data-name="Grupo 18523">
          <path id="Trazado_50872" data-name="Trazado 50872" d="M1192.474,1171.86h7.244a1.449,1.449,0,0,0,0-2.9h-7.244a1.449,1.449,0,0,0,0,2.9Zm0,0" fill="#36afea"/>
          <path id="Trazado_50873" data-name="Trazado 50873" d="M1222.9,1168.962a1.449,1.449,0,0,0-1.449,1.449v47.81h-73.889a7.244,7.244,0,1,1,7.244-7.244,1.449,1.449,0,0,0,2.9,0V1171.86h4.346a1.449,1.449,0,1,0,0-2.9H1157.7v-4.346a10.141,10.141,0,1,0-20.283,0v46.361a10.154,10.154,0,0,0,10.141,10.142H1222.9a1.449,1.449,0,0,0,1.449-1.449v-49.259a1.449,1.449,0,0,0-1.449-1.449Zm-82.582-4.346a7.244,7.244,0,0,1,14.488,0v39.262a10.127,10.127,0,0,0-14.488,0Zm0,0" fill="#36afea"/>
          <path id="Trazado_50874" data-name="Trazado 50874" d="M1204.167,1186.886l2.319,5.8,3.476,8.693a1.449,1.449,0,0,0,2.692,0l3.477-8.693,2.319-5.8a1.451,1.451,0,0,0,.091-.484c0-.019.011-.034.011-.054v-24.63a1.448,1.448,0,1,0-2.9,0V1184.9h-2.9v-33.323h2.9v4.347a1.448,1.448,0,1,0,2.9,0v-14.488a7.244,7.244,0,0,0-14.488,0v44.913c0,.02.011.035.012.056a1.463,1.463,0,0,0,.091.482Zm5.8,6.706h2.675l-1.338,3.343Zm3.834-2.9h-4.993l-1.159-2.9h7.31Zm-3.945-5.795h-2.9v-33.323h2.9Zm-2.9-36.22v-2.9h8.693v2.9Zm0-7.244a4.346,4.346,0,1,1,8.693,0v1.449h-8.693Zm0,0" fill="#36afea"/>
          <path id="Trazado_50875" data-name="Trazado 50875" d="M1169.293,1162.732v.7a4.321,4.321,0,0,0,0,8.16v.271a8.7,8.7,0,0,0,5.995,8.257,12.012,12.012,0,0,1-5.619,3.188l-2.21.553a7.144,7.144,0,0,0,1.732,14.08h3a1.449,1.449,0,0,0,0-2.9h-3a4.246,4.246,0,0,1-1.028-8.365l2.209-.552a14.926,14.926,0,0,0,8.373-5.608,8.7,8.7,0,0,0,7.934-8.655v-.267a4.32,4.32,0,0,0,0-8.159v-.7a13,13,0,0,0,2.53-16.326,1.449,1.449,0,1,0-2.495,1.473,10.1,10.1,0,0,1-2.391,13.052,1.45,1.45,0,0,0-.542,1.13v1.106H1182.5l1.271-11.431a1.45,1.45,0,0,0-1.9-1.535l-3.889,1.3-3.889-1.3a1.45,1.45,0,0,0-1.9,1.535l1.271,11.431h-1.279v-1.1a1.446,1.446,0,0,0-.542-1.13,10.131,10.131,0,0,1,11.479-16.639,1.449,1.449,0,0,0,1.473-2.5,13.03,13.03,0,0,0-15.308,20.932Zm8.693,14.923a5.8,5.8,0,0,1-5.795-5.8h11.59a5.8,5.8,0,0,1-5.8,5.8Zm-2.655-23.989,2.2.734a1.45,1.45,0,0,0,.916,0l2.2-.734-1.054,9.5h-3.2Zm-.243,12.4h10.142a1.449,1.449,0,0,1,0,2.9h-14.488a1.449,1.449,0,0,1,0-2.9Zm0,0" fill="#36afea"/>
          <path id="Trazado_50876" data-name="Trazado 50876" d="M1162.049,1153.025a1.448,1.448,0,1,1-1.449-1.449,1.449,1.449,0,0,1,1.449,1.449Zm0,0" fill="#36afea"/>
          <path id="Trazado_50877" data-name="Trazado 50877" d="M1196.82,1153.025a1.448,1.448,0,1,1-1.448-1.449,1.449,1.449,0,0,1,1.448,1.449Zm0,0" fill="#36afea"/>
          <path id="Trazado_50878" data-name="Trazado 50878" d="M1179.435,1135.64a1.449,1.449,0,1,1-1.449-1.449,1.449,1.449,0,0,1,1.449,1.449Zm0,0" fill="#36afea"/>
          <path id="Trazado_50879" data-name="Trazado 50879" d="M1162.206,1145.587a1.449,1.449,0,1,0-.53-1.979,1.448,1.448,0,0,0,.53,1.979Zm0,0" fill="#36afea"/>
          <path id="Trazado_50880" data-name="Trazado 50880" d="M1192.318,1162.972a1.449,1.449,0,1,0-.531-1.978,1.448,1.448,0,0,0,.531,1.978Zm0,0" fill="#36afea"/>
          <path id="Trazado_50881" data-name="Trazado 50881" d="M1188.079,1137.595a1.449,1.449,0,1,1-1.776-1.025,1.449,1.449,0,0,1,1.776,1.025Zm0,0" fill="#36afea"/>
          <path id="Trazado_50882" data-name="Trazado 50882" d="M1193.766,1145.587a1.448,1.448,0,1,0-1.979-.53,1.447,1.447,0,0,0,1.979.53Zm0,0" fill="#36afea"/>
          <path id="Trazado_50883" data-name="Trazado 50883" d="M1164.185,1160.994a1.449,1.449,0,1,0-.53,1.978,1.451,1.451,0,0,0,.53-1.978Zm0,0" fill="#36afea"/>
          <path id="Trazado_50884" data-name="Trazado 50884" d="M1170.018,1139.224a1.45,1.45,0,1,0-1.979-.53,1.45,1.45,0,0,0,1.979.53Zm0,0" fill="#36afea"/>
          <path id="Trazado_50885" data-name="Trazado 50885" d="M1185.23,1209.528h5.8a1.449,1.449,0,0,0,1.449-1.449v-2.435a10,10,0,0,0,1.411-.813l2.106,1.218a1.45,1.45,0,0,0,1.98-.531l2.9-5.018a1.45,1.45,0,0,0-.531-1.98l-2.1-1.215c.024-.275.035-.545.035-.816s-.011-.541-.035-.816l2.1-1.215a1.449,1.449,0,0,0,.531-1.979l-2.9-5.019a1.451,1.451,0,0,0-1.98-.531l-2.106,1.218a10,10,0,0,0-1.411-.813V1184.9a1.449,1.449,0,0,0-1.449-1.449h-5.8a1.449,1.449,0,0,0-1.449,1.449v2.435a10,10,0,0,0-1.411.813l-2.106-1.218a1.451,1.451,0,0,0-1.98.531l-2.9,5.019a1.449,1.449,0,0,0,.532,1.979l2.1,1.215c-.024.275-.035.545-.035.816s.011.541.035.816l-2.1,1.215a1.449,1.449,0,1,0,1.448,2.51l2.939-1.7a1.448,1.448,0,0,0,.7-1.517,6.965,6.965,0,0,1,0-2.645,1.449,1.449,0,0,0-.7-1.518l-1.69-.976,1.449-2.509,1.689.976a1.447,1.447,0,0,0,1.666-.154,7.236,7.236,0,0,1,2.289-1.319,1.449,1.449,0,0,0,.971-1.365v-1.954h2.9v1.954a1.449,1.449,0,0,0,.965,1.365,7.24,7.24,0,0,1,2.29,1.319,1.445,1.445,0,0,0,1.665.154l1.69-.976,1.448,2.509-1.683.976a1.452,1.452,0,0,0-.7,1.518,6.921,6.921,0,0,1,0,2.645,1.45,1.45,0,0,0,.7,1.517l1.689.976-1.449,2.509-1.689-.976a1.449,1.449,0,0,0-1.666.154,7.223,7.223,0,0,1-2.289,1.319,1.45,1.45,0,0,0-.965,1.365v1.955h-2.9v-1.955a1.449,1.449,0,0,0-.965-1.365,7.221,7.221,0,0,1-2.289-1.319,1.449,1.449,0,0,0-1.666-.154l-2.944,1.7a1.449,1.449,0,1,0,1.449,2.51l2.106-1.218a10,10,0,0,0,1.411.813v2.435a1.449,1.449,0,0,0,1.449,1.449Zm0,0" fill="#36afea"/>
          <path id="Trazado_50886" data-name="Trazado 50886" d="M1192.474,1196.489a4.346,4.346,0,1,0-4.346,4.346,4.345,4.345,0,0,0,4.346-4.346Zm-5.8,0a1.449,1.449,0,1,1,1.449,1.449,1.448,1.448,0,0,1-1.449-1.449Zm0,0" fill="#36afea"/>
          <path id="Trazado_50887" data-name="Trazado 50887" d="M1189.576,1215.323h17.386a5.8,5.8,0,0,0,5.795-5.8v-2.9a1.448,1.448,0,1,0-2.9,0v2.9a2.9,2.9,0,0,1-2.9,2.9h-17.386a1.448,1.448,0,0,0,0,2.9Zm0,0" fill="#36afea"/>
          <path id="Trazado_50888" data-name="Trazado 50888" d="M1163.5,1209.528a4.346,4.346,0,1,0,4.346-4.346,4.347,4.347,0,0,0-4.346,4.346Zm5.795,0a1.448,1.448,0,1,1-1.449-1.449,1.45,1.45,0,0,1,1.449,1.449Zm0,0" fill="#36afea"/>
        </g>
      </g>
      <path id="Trazado_50889" data-name="Trazado 50889" d="M1093.767,1219.3v31.493a12.336,12.336,0,0,0,12.3,12.3H1255.7a12.335,12.335,0,0,0,12.3-12.3V1219.3Z" fill="#36afea"/>
      <text id="Intangibles" transform="translate(1180.883 1247.751)" fill="#fff" font-size="25" font-family="Montserrat-Regular, Montserrat" style="isolation: isolate"><tspan x="-69.938" y="0">Intangibles</tspan></text>
    </g>
  </g>
</svg>
