<svg xmlns="http://www.w3.org/2000/svg" xmlns:xlink="http://www.w3.org/1999/xlink" viewBox="0 0 155.57 155.61"><defs><style>.cls-1{fill:url(#Degradado_sin_nombre_25);}.cls-2{fill:url(#Degradado_sin_nombre_25-2);}.cls-3{fill:#36afea;}</style><linearGradient id="Degradado_sin_nombre_25" x1="38.9" y1="107.39" x2="38.9" y2="1.63" gradientUnits="userSpaceOnUse"><stop offset="0" stop-color="#cbf1f6"/><stop offset="1" stop-color="#fff"/></linearGradient><linearGradient id="Degradado_sin_nombre_25-2" x1="106.57" y1="151.93" x2="106.57" y2="60.02" xlink:href="#Degradado_sin_nombre_25"/></defs><g id="Capa_2" data-name="Capa 2"><g id="CONTENIDO"><path class="cls-1" d="M76.2,38.93a37.3,37.3,0,1,0-50.26,35V98.56H34v8.83h9.82V98.56h8.06V73.9A37.32,37.32,0,0,0,76.2,38.93Z"/><path class="cls-2" d="M108.91,60A43.56,43.56,0,0,0,71.54,126L60.66,142.27l11.4,9.66,15.58-10.34A43.56,43.56,0,1,0,108.91,60Z"/><path class="cls-3" d="M125.33,60.07a46.69,46.69,0,0,0-60.1,60.15l4.85-1.83a41.45,41.45,0,1,1,24.19,24.19l-1.83,4.85a46.67,46.67,0,0,0,32.89-87.36Z"/><path class="cls-3" d="M120.56,83.53a23.34,23.34,0,0,0-31.87,31.88l4.49-2.6a18.17,18.17,0,1,1,6.66,6.66L97.25,124a23.33,23.33,0,1,0,23.31-40.43Z"/><path class="cls-3" d="M122.79,70.3a36.25,36.25,0,0,0-47.38,47.45l4.78-2A31.08,31.08,0,1,1,97,132.5l-2,4.77a36.26,36.26,0,0,0,27.84-67Z"/><path class="cls-3" d="M109.21,93.38a10.38,10.38,0,0,0-10.67,10.37A10.24,10.24,0,0,0,100,109l-15.3,15.3L73.13,122a2.6,2.6,0,0,0-2.62,1l-13,18.15a2.6,2.6,0,0,0,.6,3.62,2.55,2.55,0,0,0,.7.35l2,.65a51.87,51.87,0,0,1-21.48,4.66H7.94a2.69,2.69,0,0,1-2.73-2.32,2.59,2.59,0,0,1,2.58-2.86h36a8,8,0,0,0,8.1-7.54,7.78,7.78,0,0,0-7.78-8H7.94a2.7,2.7,0,0,1-2.73-2.33,2.59,2.59,0,0,1,2.58-2.86H25.94A15.55,15.55,0,0,0,41.33,111.1a7.74,7.74,0,0,0,5.35-7.35v-2.59a7.78,7.78,0,0,0,7.78-7.78V74.55A38.87,38.87,0,0,0,77.28,45.28a2.6,2.6,0,0,0-2.58-3h0a2.59,2.59,0,0,0-2.55,2.16,33.69,33.69,0,0,1-27.8,27.71l1.47-17.67h5.69A10.61,10.61,0,0,0,62.22,44.8a10.37,10.37,0,1,0-20.72-.9l-.44,5.4H36.74l-.43-5.19A10.38,10.38,0,0,0,25.65,33.74,10.49,10.49,0,0,0,15.57,43.82,10.37,10.37,0,0,0,25.94,54.48h6l1.47,17.67A33.71,33.71,0,1,1,72.24,33.91a2.58,2.58,0,0,0,2.56,2.2h0a2.6,2.6,0,0,0,2.58-3,38.9,38.9,0,1,0-54,41.39V93.38a7.78,7.78,0,0,0,7.78,7.78v2.59a7.77,7.77,0,0,0,5,7.24,10.39,10.39,0,0,1-10.16,8.32H8.12A8,8,0,0,0,0,126.85a7.79,7.79,0,0,0,7.78,8H43.94a2.69,2.69,0,0,1,2.73,2.32,2.59,2.59,0,0,1-2.58,2.86h-36A8,8,0,0,0,0,147.59a7.78,7.78,0,0,0,7.78,8H39.34A57.21,57.21,0,0,0,66,149l1.61,4.82A2.6,2.6,0,0,0,70,155.61a2.57,2.57,0,0,0,1.51-.49l18.15-13a2.62,2.62,0,0,0,1-2.62l-2.33-11.6,15.3-15.3a10.15,10.15,0,0,0,5.22,1.48,10.37,10.37,0,0,0,10.37-10.66A10.48,10.48,0,0,0,109.21,93.38ZM46.68,44.11a5.19,5.19,0,0,1,5.19-5.18,5.27,5.27,0,0,1,5.19,5.19,5.2,5.2,0,0,1-5.19,5.18H46.25ZM26.16,49.3a5.34,5.34,0,0,1-5.38-4.68,5.18,5.18,0,0,1,5.16-5.69,5.25,5.25,0,0,1,5.19,5.32v.08l.42,5ZM41.5,103.75a2.59,2.59,0,0,1-2.86,2.58,2.7,2.7,0,0,1-2.33-2.73v-2.44H41.5Zm-.88-49.27L39.11,72.63H38.7L37.18,54.48ZM28.53,76.37a37.84,37.84,0,0,0,20.75,0v4H28.53Zm0,9.23H49.28v2.59H28.53ZM31.13,96a2.6,2.6,0,0,1-2.6-2.59H49.28A2.59,2.59,0,0,1,46.68,96Zm35.6,46.3-2.93-1,10-13.92,6.57,1.31Zm4.64,6.6-1-2.93L84,132.35l1.31,6.57Zm37.54-39.93a5,5,0,0,1-1.32-.2l2.76-2.75a2.59,2.59,0,0,0-3.67-3.66l-2.76,2.74a4.9,4.9,0,0,1-.19-1.32,5.2,5.2,0,0,1,5.16-5.19,5.27,5.27,0,0,1,5.21,5.22A5.19,5.19,0,0,1,108.91,108.94Z"/></g></g></svg>