<svg xmlns="http://www.w3.org/2000/svg" xmlns:xlink="http://www.w3.org/1999/xlink" viewBox="0 0 104.21 104.26"><defs><style>.cls-1{fill:url(#Degradado_sin_nombre_21);}.cls-2{fill:#049be5;}</style><linearGradient id="Degradado_sin_nombre_21" x1="52.49" y1="103.16" x2="52.49" y2="2.14" gradientUnits="userSpaceOnUse"><stop offset="0" stop-color="#c3e7f9"/><stop offset="1" stop-color="#fff"/></linearGradient></defs><g id="Capa_2" data-name="Capa 2"><g id="CONTENIDO"><path class="cls-1" d="M99.25,69.32V20.52a8.36,8.36,0,0,0-8.37-8.36H83.93V7.61a5.47,5.47,0,0,0-5.48-5.47h-.59a5.47,5.47,0,0,0-5.47,5.47v4.55H56.14V7.61a5.47,5.47,0,0,0-5.48-5.47h-.59A5.47,5.47,0,0,0,44.6,7.61v4.55H28V7.61a5.47,5.47,0,0,0-5.47-5.47h-.59a5.47,5.47,0,0,0-5.48,5.47v4.55H10.22a8.36,8.36,0,0,0-8.37,8.36v69.6a8.37,8.37,0,0,0,8.37,8.37h58a21.52,21.52,0,0,0,31-29.17Z"/><path class="cls-2" d="M92.05,10.42H85.11V7a6.95,6.95,0,1,0-13.9,0v3.47H57.32V7a7,7,0,0,0-13.9,0v3.47H29.53V7a7,7,0,0,0-13.9,0v3.47h-7A8.7,8.7,0,0,0,0,19.11V92.05a8.7,8.7,0,0,0,8.68,8.69H60.79a1.74,1.74,0,1,0,0-3.48H8.68a5.21,5.21,0,0,1-5.21-5.21V34.74H97.26V59.05a1.74,1.74,0,0,0,3.48,0V19.11a8.7,8.7,0,0,0-8.69-8.69ZM74.68,7a3.48,3.48,0,1,1,6.95,0V17.37a3.48,3.48,0,0,1-6.95,0ZM46.89,7a3.48,3.48,0,1,1,7,0V17.37a3.48,3.48,0,0,1-7,0ZM19.11,7a3.47,3.47,0,1,1,6.94,0V17.37a3.47,3.47,0,0,1-6.94,0ZM3.47,31.26V19.11a5.22,5.22,0,0,1,5.21-5.22h7v3.48a7,7,0,0,0,13.9,0V13.89H43.42v3.48a6.95,6.95,0,0,0,13.9,0V13.89H71.21v3.48a7,7,0,0,0,13.9,0V13.89h6.94a5.22,5.22,0,0,1,5.21,5.22V31.26Z"/><path class="cls-2" d="M102.47,67.74a1.74,1.74,0,0,0,0-3.48H95.53A1.74,1.74,0,0,0,93.79,66v7a1.74,1.74,0,0,0,3.47,0V70.68a19.06,19.06,0,1,1-9-7,1.74,1.74,0,0,0,1.21-3.26,22.62,22.62,0,1,0,9.9,7.27Z"/><path class="cls-2" d="M83.37,76.74v-9a1.74,1.74,0,1,0-3.47,0v9a5.21,5.21,0,0,0-3.16,3.16H71.21a1.74,1.74,0,1,0,0,3.47h5.53a5.2,5.2,0,1,0,6.63-6.63Zm-1.74,6.63A1.73,1.73,0,0,1,80,82.3,1.73,1.73,0,0,1,82.3,80a1.74,1.74,0,0,1-.67,3.34Z"/><path class="cls-2" d="M43.42,53.84h-7A3.47,3.47,0,0,1,33,50.37V45.16a3.47,3.47,0,0,1,3.47-3.48h7a3.47,3.47,0,0,1,3.47,3.48v5.21a3.47,3.47,0,0,1-3.47,3.47Zm-7-8.68v5.21h7V45.16Z"/><path class="cls-2" d="M64.26,53.84H57.32a3.47,3.47,0,0,1-3.48-3.47V45.16a3.48,3.48,0,0,1,3.48-3.48h6.94a3.48,3.48,0,0,1,3.48,3.48v5.21a3.47,3.47,0,0,1-3.48,3.47Zm-6.94-8.68v5.21h6.94V45.16Z"/><path class="cls-2" d="M22.58,53.84H15.63a3.47,3.47,0,0,1-3.47-3.47V45.16a3.47,3.47,0,0,1,3.47-3.48h6.95a3.47,3.47,0,0,1,3.47,3.48v5.21a3.47,3.47,0,0,1-3.47,3.47Zm-6.95-8.68v5.21h6.95V45.16Z"/><path class="cls-2" d="M85.11,53.84h-7a3.47,3.47,0,0,1-3.48-3.47V45.16a3.48,3.48,0,0,1,3.48-3.48h7a3.48,3.48,0,0,1,3.47,3.48v5.21a3.47,3.47,0,0,1-3.47,3.47Zm-7-8.68v5.21h7V45.16Z"/><path class="cls-2" d="M43.42,73h-7A3.47,3.47,0,0,1,33,69.47V64.26a3.47,3.47,0,0,1,3.47-3.47h7a3.47,3.47,0,0,1,3.47,3.47v5.21A3.47,3.47,0,0,1,43.42,73Zm-7-8.69v5.21h7V64.26Z"/><path class="cls-2" d="M57.32,73a3.48,3.48,0,0,1-3.48-3.48V64.26a3.47,3.47,0,0,1,3.48-3.47h5.21a1.74,1.74,0,0,1,0,3.47H57.32v5.21a1.74,1.74,0,0,1,0,3.48Z"/><path class="cls-2" d="M22.58,73H15.63a3.47,3.47,0,0,1-3.47-3.48V64.26a3.47,3.47,0,0,1,3.47-3.47h6.95a3.47,3.47,0,0,1,3.47,3.47v5.21A3.47,3.47,0,0,1,22.58,73Zm-6.95-8.69v5.21h6.95V64.26Z"/><path class="cls-2" d="M43.42,92.05h-7A3.47,3.47,0,0,1,33,88.58V83.37a3.47,3.47,0,0,1,3.47-3.47h7a3.47,3.47,0,0,1,3.47,3.47v5.21a3.47,3.47,0,0,1-3.47,3.47Zm-7-8.68v5.21h7V83.37Z"/><path class="cls-2" d="M22.58,92.05H15.63a3.47,3.47,0,0,1-3.47-3.47V83.37a3.47,3.47,0,0,1,3.47-3.47h6.95a3.47,3.47,0,0,1,3.47,3.47v5.21a3.47,3.47,0,0,1-3.47,3.47Zm-6.95-8.68v5.21h6.95V83.37Z"/></g></g></svg>