<svg xmlns="http://www.w3.org/2000/svg" xmlns:xlink="http://www.w3.org/1999/xlink" viewBox="0 0 128.43 132.87"><defs><style>.cls-1{fill:url(#Degradado_sin_nombre_25);}.cls-2,.cls-4{fill:#36afea;}.cls-3{fill:none;stroke:#36afea;stroke-linecap:round;stroke-miterlimit:10;stroke-width:3px;}.cls-4{opacity:0.25;}</style><linearGradient id="Degradado_sin_nombre_25" x1="64.21" y1="130.2" x2="64.21" y2="2.49" gradientUnits="userSpaceOnUse"><stop offset="0" stop-color="#cbf1f6"/><stop offset="1" stop-color="#fff"/></linearGradient></defs><g id="Capa_2" data-name="Capa 2"><g id="CONTENIDO"><polygon class="cls-1" points="64.21 2.49 51.23 11.53 51.23 2.49 10.9 2.49 10.9 39.6 2.08 45.74 2.08 130.2 126.35 130.2 126.35 45.74 64.21 2.49"/><path class="cls-2" d="M48.93,3a1,1,0,0,1,1,1V53.37a1,1,0,0,1-1,1.05H14.14a1,1,0,0,1-1.05-1.05V4.05a1,1,0,0,1,1.05-1H48.93m0-3H14.14a4,4,0,0,0-4.05,4.05V53.37a4,4,0,0,0,4.05,4.05H48.93a4,4,0,0,0,4-4.05V4.05a4,4,0,0,0-4-4Z"/><path class="cls-2" d="M42.44,15.63a1,1,0,0,1,1.05,1v21a1,1,0,0,1-1.05,1.05H20.62a1.06,1.06,0,0,1-1.05-1.05v-21a1.06,1.06,0,0,1,1.05-1H42.44m0-3H20.62a4.05,4.05,0,0,0-4.05,4v21a4.06,4.06,0,0,0,4.05,4.05H42.44a4.05,4.05,0,0,0,4.05-4.05v-21a4,4,0,0,0-4.05-4Z"/><path class="cls-2" d="M31.53,48a.31.31,0,1,1,0,.61.31.31,0,0,1,0-.61m0-3a3.31,3.31,0,1,0,3.31,3.3A3.3,3.3,0,0,0,31.53,45Z"/><line class="cls-3" x1="27.29" y1="7.76" x2="35.78" y2="7.76"/><path class="cls-2" d="M31.53,21.69a3.16,3.16,0,1,1-3.15,3.16,3.17,3.17,0,0,1,3.15-3.16m0-3a6.16,6.16,0,1,0,6.16,6.16,6.15,6.15,0,0,0-6.16-6.16Z"/><path class="cls-2" d="M34,31.06a2.52,2.52,0,0,1,2.52,2.52v5.19H26.59V33.58a2.52,2.52,0,0,1,2.52-2.52H34m0-3H29.11a5.52,5.52,0,0,0-5.52,5.52v8.19H39.48V33.58A5.52,5.52,0,0,0,34,28.06Z"/><polygon class="cls-4" points="103.47 77.3 103.47 55.71 24.37 55.71 24.37 104.23 49.95 103.73 50.48 130.16 104.06 130.16 104.06 77.3 103.47 77.3"/><path class="cls-2" d="M127.52,42.52,65.38.36a2.07,2.07,0,0,0-2.33,0L53,7.19v5L64.21,4.59l60.06,40.76v83.36h-18V84.3a2.17,2.17,0,0,0-1.73-2.17,2.08,2.08,0,0,0-2.43,2.06v44.52H53V105.53a3.44,3.44,0,0,0-3.45-3.45H26.35V68.88h0V57.42h75.73V75.2a2.15,2.15,0,0,0,1.73,2.16,2.09,2.09,0,0,0,2.43-2V57.42h2.36a2.08,2.08,0,0,0,2.08-2.08V46.46a2.08,2.08,0,0,0-2.08-2.08H53v4.16h53.53v4.72H51.91a5,5,0,0,1-4,2H17.75v.11a2.08,2.08,0,0,0,2.08,2.08h2.36v71.29h-18V45.35l5.92-4v-5L.91,42.52A2.08,2.08,0,0,0,0,44.24v86.55a2.08,2.08,0,0,0,2.08,2.08H126.35a2.08,2.08,0,0,0,2.08-2.08V44.24A2.08,2.08,0,0,0,127.52,42.52ZM35.23,106.24h4.71v9.15H35.23Zm13.59,22.47H26.35V106.24h4.72v11.23a2.08,2.08,0,0,0,2.08,2.08H42a2.08,2.08,0,0,0,2.08-2.08V106.24h4.72Z"/></g></g></svg>