<svg xmlns="http://www.w3.org/2000/svg" xmlns:xlink="http://www.w3.org/1999/xlink" viewBox="0 0 104.26 104.26"><defs><style>.cls-1{fill:url(#Degradado_sin_nombre_21);}.cls-2{fill:url(#Degradado_sin_nombre_21-2);}.cls-3{fill:#049be5;}</style><linearGradient id="Degradado_sin_nombre_21" x1="22.9" y1="43.29" x2="22.9" y2="3.47" gradientUnits="userSpaceOnUse"><stop offset="0" stop-color="#c3e7f9"/><stop offset="1" stop-color="#fff"/></linearGradient><linearGradient id="Degradado_sin_nombre_21-2" x1="78.29" y1="103.16" x2="78.29" y2="3.47" xlink:href="#Degradado_sin_nombre_21"/></defs><g id="Capa_2" data-name="Capa 2"><g id="CONTENIDO"><rect class="cls-1" x="2.4" y="3.47" width="41" height="39.82"/><path class="cls-2" d="M92.8,58.09s-4.4-9-10.1-1.27c0,0-2.3-7.17-9.1-1.55v-12H96.2V3.47h-41V43.29h8.2V66L55.2,77.89s-1.4,1.16,0,5.48,8.2,19.79,8.2,19.79h34L102,86V60.79S100.75,54.09,92.8,58.09Z"/><path class="cls-3" d="M97.37,55.27a6.85,6.85,0,0,0-3.28.83,6.88,6.88,0,0,0-11.27-2.4,6.9,6.9,0,0,0-7.67-1.4V46.42H92.24a6.33,6.33,0,0,0,6.32-6.32V22.81a2,2,0,0,0-4.08,0v17.3a2.24,2.24,0,0,1-2.24,2.24H75.15V38a6.89,6.89,0,0,0-13.77,0v4.35H58.44a2.24,2.24,0,0,1-2.24-2.24V6.31a2.25,2.25,0,0,1,2.24-2.24h33.8a2.24,2.24,0,0,1,2.24,2.24v8.76a2,2,0,0,0,4.08,0V6.31A6.32,6.32,0,0,0,92.24,0H58.44a6.32,6.32,0,0,0-6.31,6.31v33.8a6.32,6.32,0,0,0,6.31,6.32h2.94V63.7L54.36,74a11.92,11.92,0,0,0-.94,11.73l8.15,17.38a2.05,2.05,0,0,0,1.84,1.17,2.08,2.08,0,0,0,.87-.2,2,2,0,0,0,1-2.7L57.11,84a7.83,7.83,0,0,1,.61-7.7l3.66-5.36v3.85a2,2,0,1,0,4.07,0V38a2.82,2.82,0,0,1,5.63,0V68.08a2,2,0,1,0,4.07,0V58.59a2.82,2.82,0,1,1,5.63,0v9.49a2,2,0,1,0,4.07,0V58.59a2.82,2.82,0,1,1,5.63,0v9.49a2,2,0,0,0,4.08,0V62.16a2.81,2.81,0,0,1,5.62,0v17a44.5,44.5,0,0,1-2,13.36l-2.85,9.07a2,2,0,0,0,1.34,2.55,1.86,1.86,0,0,0,.61.1,2,2,0,0,0,1.94-1.43L102,93.75a48.63,48.63,0,0,0,2.23-14.57v-17a6.9,6.9,0,0,0-6.89-6.89Z"/><path class="cls-3" d="M40.11,0H6.31A6.32,6.32,0,0,0,0,6.31v33.8a6.32,6.32,0,0,0,6.31,6.32h8.76a2,2,0,0,0,0-4.08H6.31a2.24,2.24,0,0,1-2.24-2.24V6.31A2.25,2.25,0,0,1,6.31,4.07h33.8a2.24,2.24,0,0,1,2.24,2.24v33.8a2.24,2.24,0,0,1-2.24,2.24H24.23a2,2,0,0,0,0,4.08H40.11a6.32,6.32,0,0,0,6.32-6.32V6.31A6.32,6.32,0,0,0,40.11,0Z"/><path class="cls-3" d="M31.81,31.8a2,2,0,0,0,0-2.88l-5.72-5.71,5.72-5.71a2,2,0,1,0-2.89-2.88l-5.71,5.71L17.5,14.62a2,2,0,1,0-2.88,2.88l5.71,5.71-5.71,5.71A2,2,0,1,0,17.5,31.8l5.71-5.71,5.71,5.71a2,2,0,0,0,2.89,0Z"/><path class="cls-3" d="M84.39,13.29,74.24,23.43,70,19.17a2,2,0,1,0-2.88,2.88l5.7,5.7a2,2,0,0,0,2.88,0L87.27,16.17a2,2,0,0,0-2.88-2.88Z"/></g></g></svg>