<svg xmlns="http://www.w3.org/2000/svg" xmlns:xlink="http://www.w3.org/1999/xlink" viewBox="0 0 102.75 104.26"><defs><style>.cls-1{fill:url(#Degradado_sin_nombre_25);}.cls-2{fill:#049be5;}</style><linearGradient id="Degradado_sin_nombre_25" x1="51.93" y1="102.21" x2="51.93" y2="1.78" gradientUnits="userSpaceOnUse"><stop offset="0" stop-color="#cbf1f6"/><stop offset="1" stop-color="#fff"/></linearGradient></defs><g id="Capa_2" data-name="Capa 2"><g id="CONTENIDO"><path class="cls-1" d="M100.63,78.15c-2.11-4.78-16.57-12.22-16.57-12.22L76.83,50.26,67,54s6.43,11.93-4.89,13.93-11.68-8-11.68-8l-11.6,4.5,3.35,8.87a8.48,8.48,0,0,1-2.77.47,8.6,8.6,0,1,1,0-17.2,8.49,8.49,0,0,1,3.76.88V42.67H55.41a8.47,8.47,0,0,0-.8,3.6,8.6,8.6,0,0,0,17.2,0,8.47,8.47,0,0,0-.8-3.6h13V14A12.25,12.25,0,0,0,71.81,1.78H14.53A12.24,12.24,0,0,0,2.29,14V71.3A12.24,12.24,0,0,0,14.53,83.55h21A11.29,11.29,0,0,0,36,89.36c2.36,7.6,8.29,5.52,13,2.21l4,10.64,18.54-6.69c0,3,4.53,5,4.53,5h24.47S102.75,82.92,100.63,78.15Z"/><path class="cls-2" d="M73.64,0H12A12,12,0,0,0,0,12v61.5a12,12,0,0,0,12,12H29.41a1.41,1.41,0,0,0,1.41-1.42v-.59a1.41,1.41,0,0,0-1.41-1.41H12a8.59,8.59,0,0,1-8.57-8.57v-29h11a1.84,1.84,0,0,0,1.71-2A1.9,1.9,0,0,0,16,42a6.87,6.87,0,0,1,5.08-9.51,6.72,6.72,0,0,1,5.52,1.43A6.87,6.87,0,0,1,28.53,42a1.78,1.78,0,0,0,.84,2.37,1.7,1.7,0,0,0,.73.17h11V54.8a9,9,0,0,0-1.71-.14,10.28,10.28,0,0,0-5.58,18.91A1.41,1.41,0,0,0,35.88,73l.25-.57a1.42,1.42,0,0,0-.55-1.76,6.85,6.85,0,0,1,6.55-12,1.71,1.71,0,0,0,2.25-.88,1.64,1.64,0,0,0,.14-.69V44.52h8.71a11,11,0,0,0-.14,1.72,10.3,10.3,0,0,0,6.68,9.62,1.42,1.42,0,0,0,1.85-1.07l.11-.57a1.44,1.44,0,0,0-.91-1.62,6.88,6.88,0,0,1-4.31-6.36,6.77,6.77,0,0,1,.58-2.74,1.72,1.72,0,0,0-.88-2.26,1.81,1.81,0,0,0-.69-.14h-11V32.39a9.91,9.91,0,0,0,1.72.15,10.28,10.28,0,0,0,0-20.55,11,11,0,0,0-1.72.14V3.42H73.64A8.58,8.58,0,0,1,82.2,12V41.1h-11a1.72,1.72,0,0,0-1.71,1.71,1.81,1.81,0,0,0,.14.69,6.49,6.49,0,0,1,.52,1.83,1.06,1.06,0,0,0,1,.91h1.29A1.08,1.08,0,0,0,73.56,45c0-.17,0-.34-.07-.51H83.91a1.7,1.7,0,0,0,1.71-1.71V12a12,12,0,0,0-12-12ZM46.24,15.41a6.86,6.86,0,0,1,6.69,8.34,6.55,6.55,0,0,1-2,3.51,6.8,6.8,0,0,1-7.41,1.27,1.72,1.72,0,0,0-2.26.89,1.76,1.76,0,0,0-.14.68V41H32.4a10.41,10.41,0,0,0,.14-1.57v-.15a10.16,10.16,0,0,0-7-9.75A10.3,10.3,0,0,0,12,39.24v.15A10.39,10.39,0,0,0,12.12,41H3.42V12A8.59,8.59,0,0,1,12,3.42H41.1v11a1.71,1.71,0,0,0,1.71,1.71A1.64,1.64,0,0,0,43.5,16a6.77,6.77,0,0,1,2.74-.58Z"/><path class="cls-2" d="M99.08,73.6,84.69,63.69,79.16,48.92a1.71,1.71,0,0,0-2.2-1l-.1,0L65.73,52.87a1.73,1.73,0,0,0-.91,2.18c.19.48.36.84.54,1.22a12.08,12.08,0,0,1,.57,1.29A6.86,6.86,0,1,1,53.1,62.4a7,7,0,0,1-.42-2.79,1.72,1.72,0,0,0-1.62-1.8,1.79,1.79,0,0,0-.69.11L38.47,62.4a1.72,1.72,0,0,0-1,2.21L41.74,76A9.75,9.75,0,0,0,36,79.35a10.45,10.45,0,0,0-2.18,9.87,10.3,10.3,0,0,0,13.42,6.55A9.14,9.14,0,0,0,48.85,95l3,8a2,2,0,0,0,2.27,1.19h0l17-6.39a9.25,9.25,0,0,0,3.72,4.08,1.55,1.55,0,0,0,2.24-.86l.11-.33a1.51,1.51,0,0,0-.63-1.79,5.72,5.72,0,0,1-2.21-2.31l5.16-1.94a12,12,0,0,0,9.85,7.86,1.3,1.3,0,0,0,1.43-1.3v-.84a1.3,1.3,0,0,0-1.14-1.28,8.62,8.62,0,0,1-7.42-8.48,1.7,1.7,0,0,0-.5-1.21l-6-6a2.54,2.54,0,0,1-.23-3.3,2.54,2.54,0,0,1,3.81-.27L90.22,90.79a1.48,1.48,0,0,0,2.08,0l.34-.34a1.46,1.46,0,0,0,0-2.08l-2.49-2.5a12,12,0,0,0-.16-8l-3.21-8.57,10.35,7.13a5.14,5.14,0,0,1,2.19,4.21V101.4a1.34,1.34,0,0,0,1.35,1.35h.73a1.34,1.34,0,0,0,1.35-1.35V80.63a8.61,8.61,0,0,0-3.67-7ZM86.79,79.06a8.7,8.7,0,0,1,.5,4l-5.56-5.56a6,6,0,1,0-8.52,8.31l.1.11,5.42,5.41-24.2,9.12-3.27-8.72A1.67,1.67,0,0,0,50,90.61a1.5,1.5,0,0,0-.37,0,1.73,1.73,0,0,0-1.2.49,6.86,6.86,0,0,1-10.59-1.46,6.73,6.73,0,0,1-.71-5.43,7,7,0,0,1,4.13-4.48A6.66,6.66,0,0,1,43,79.3a6.5,6.5,0,0,1,1.08,0,1.71,1.71,0,0,0,1.8-1.62,1.82,1.82,0,0,0-.11-.69L41.28,65l8.15-3.07A10.29,10.29,0,0,0,65.94,68a10.49,10.49,0,0,0,2.89-12.44c0-.1-.09-.19-.13-.28l7.88-3.49Z"/></g></g></svg>