<svg xmlns="http://www.w3.org/2000/svg" xmlns:xlink="http://www.w3.org/1999/xlink" viewBox="0 0 166.02 155.68"><defs><style>.cls-1{fill:url(#Degradado_sin_nombre_25);}.cls-2{fill:url(#Degradado_sin_nombre_25-2);}.cls-3{fill:#36afea;}</style><linearGradient id="Degradado_sin_nombre_25" x1="8.26" y1="152.69" x2="8.26" y2="80.49" gradientUnits="userSpaceOnUse"><stop offset="0" stop-color="#cbf1f6"/><stop offset="1" stop-color="#fff"/></linearGradient><linearGradient id="Degradado_sin_nombre_25-2" x1="94" y1="152.69" x2="94" y2="0.59" xlink:href="#Degradado_sin_nombre_25"/></defs><g id="Capa_2" data-name="Capa 2"><g id="CONTENIDO"><rect class="cls-1" x="2.68" y="80.49" width="11.17" height="72.21"/><path class="cls-2" d="M154.1.59h-121s-8.78.3-8.78,8.18V152.69h11.6V129.05H46.72v23.64h12.5v-23.3H69.5v23.3H80.81v-23h74s8.89-.14,8.89-10.69V10.24S164,.59,154.1.59Z"/><path class="cls-3" d="M38.15,11.73a2.47,2.47,0,1,0-1,3.07,2.49,2.49,0,0,0,1-3.07Z"/><path class="cls-3" d="M54.93,11.73a2.47,2.47,0,1,0-1,3.06,2.49,2.49,0,0,0,1-3.06Z"/><path class="cls-3" d="M46.54,11.73a2.47,2.47,0,1,0-.93,3,2.49,2.49,0,0,0,.93-3Z"/><path class="cls-3" d="M154.85,0H33.05A11.18,11.18,0,0,0,21.88,11.17V52.8a2.47,2.47,0,0,0,4.94,0V24h73.41V56.13a2.47,2.47,0,0,0,1.38,2.22,2.41,2.41,0,0,0,1.08.25,2.45,2.45,0,0,0,1.52-.52l31.17-24.15a2.46,2.46,0,0,0,.93-1.65,2.38,2.38,0,0,0-.5-1.82A43.15,43.15,0,0,0,129.59,24h31.49v95.79a6.24,6.24,0,0,1-6.23,6.23H83.44V115.16a42,42,0,0,0,51.72-48.55,2.47,2.47,0,1,0-4.85.93A37,37,0,0,1,117.58,103L97.35,75l27.28-21.21a37.13,37.13,0,0,1,3.59,6.69,2.47,2.47,0,0,0,4.57-1.87,42,42,0,0,0-5.72-9.85,2.46,2.46,0,0,0-3.46-.43L96.42,69.49V35.05A2.47,2.47,0,0,0,94,32.58,42,42,0,0,0,67.13,106.8V126H60.9V110.56a2.46,2.46,0,0,0-2.46-2.46H47.06a2.46,2.46,0,0,0-2.47,2.46V126H38.2V62.69a2.47,2.47,0,0,0-2.47-2.47H24.35a2.47,2.47,0,0,0-2.47,2.47v90.53a2.47,2.47,0,0,0,2.47,2.46H35.73a2.47,2.47,0,0,0,2.47-2.46V131h6.39v22.25a2.46,2.46,0,0,0,2.47,2.46H58.44a2.46,2.46,0,0,0,2.46-2.46V131h6.23v22.25a2.46,2.46,0,0,0,2.47,2.46H81a2.46,2.46,0,0,0,2.47-2.46V131h71.41A11.18,11.18,0,0,0,166,119.81V11.17A11.18,11.18,0,0,0,154.85,0Zm-128,150.75V65.15h6.44v85.6Zm22.7,0V113H56v37.72Zm7.41-76.22A37.06,37.06,0,0,1,91.48,37.6V74.53A2.56,2.56,0,0,0,92,76h0l21.63,29.92A37,37,0,0,1,83.44,110V90.82A2.47,2.47,0,0,0,81,88.35H69.6a2.47,2.47,0,0,0-2.47,2.47v9.23a36.75,36.75,0,0,1-10.2-25.52Zm15.13,76.22V93.29h6.45v57.46Zm33.1-99.65V19.33a36.81,36.81,0,0,1,25.17,12.26Zm17-32a41.85,41.85,0,0,0-19.52-4.77,2.46,2.46,0,0,0-2.46,2.46v2.31H26.82V11.17a6.23,6.23,0,0,1,6.23-6.23h121.8a6.23,6.23,0,0,1,6.23,6.23v7.92Z"/><path class="cls-3" d="M13.85,77H2.47A2.47,2.47,0,0,0,0,79.47v73.75a2.46,2.46,0,0,0,2.47,2.46H13.85a2.47,2.47,0,0,0,2.47-2.46V133.27a2.47,2.47,0,0,0-4.94,0v17.48H4.94V81.94h6.44v40.94a2.47,2.47,0,0,0,4.94,0V79.47A2.48,2.48,0,0,0,13.85,77Z"/><path class="cls-3" d="M155,114.1H128.85a2.47,2.47,0,1,0,0,4.94H155a2.47,2.47,0,1,0,0-4.94Z"/><path class="cls-3" d="M155,103.65H136.75a2.47,2.47,0,0,0,0,4.94H155a2.47,2.47,0,0,0,0-4.94Z"/></g></g></svg>