<svg xmlns="http://www.w3.org/2000/svg" xmlns:xlink="http://www.w3.org/1999/xlink" viewBox="0 0 119.19 104.26"><defs><style>.cls-1{fill:url(#Degradado_sin_nombre_21);}.cls-2{fill:#049be5;}</style><linearGradient id="Degradado_sin_nombre_21" x1="59.38" y1="102.89" x2="59.38" y2="1.22" gradientUnits="userSpaceOnUse"><stop offset="0" stop-color="#c3e7f9"/><stop offset="1" stop-color="#fff"/></linearGradient></defs><g id="Capa_2" data-name="Capa 2"><g id="CONTENIDO"><path class="cls-1" d="M2.59,102.89h113.6l1.2-35.52s-.06-7-5.8-7.42-17-9.86-17-9.86l-.4-5.2s4.6-4.2,5.6-9.8c0,0,7.67-.6,2.84-8.6,0,0,7.16-17.6-11.64-24.8,0,0-12.71-2.59-20.92,4.59,0,0-10.94.5-5,19.16,0,0-6.67,6.45,1.13,9.65a20.07,20.07,0,0,0,5.4,9.6l-.4,5.4s-5.27,6-17.2,9.78c0,0-7.8,2.37-8.6,4.79l-5.8-4.79.2-5.9s4.8-2.68,7.8-10.88c0,0,8.29-3.29,3-8.94,0,0,5.35-13.21-9.85-23,0,0,1.31-9.37-9.64-9.91s-10.56,9.91-10.56,9.91-12.53,8.09-8.93,23c0,0-4.87,6.25,2.33,7.6,0,0,2.7,9.82,9.38,13.28v4.84l-6.78,4.79s-15,3.83-15.2,11.23S2.59,102.89,2.59,102.89Z"/><path class="cls-2" d="M73.34,76.73H66.8a1.75,1.75,0,0,0,0,3.49h6.54a1.75,1.75,0,0,0,0-3.49Z"/><path class="cls-2" d="M111.8,58l-9.51-3.67-4.85-4.84A1.71,1.71,0,0,0,96.32,49V45.16a18.06,18.06,0,0,0,4.57-9,5.07,5.07,0,0,0,1.22-.1,5.17,5.17,0,0,0,4-5.12V29.67A5.25,5.25,0,0,0,104.58,26c1.54-8.39.27-15.22-3.69-19.79S90.89-.37,83,.05A23.5,23.5,0,0,0,69.63,5,9.25,9.25,0,0,0,66,6.22c-1.94,1.16-4.25,3.61-4.25,8.64A43.54,43.54,0,0,0,63,25a5.18,5.18,0,0,0-2.84,4.68V31a5.16,5.16,0,0,0,4,5.12,5,5,0,0,0,1.22.1,18,18,0,0,0,4.57,9V49a1.71,1.71,0,0,0-1.12.51L64,54.37,54.48,58a11.74,11.74,0,0,0-2.33,1.22,1.75,1.75,0,0,0,2,2.89,8.14,8.14,0,0,1,1.63-.85l8.82-3.41L71.31,68A5,5,0,0,0,75,70.22a4,4,0,0,0,.49,0,5,5,0,0,0,2.46-.65l-1.45,32.83a1.76,1.76,0,0,0,1.67,1.83h.08A1.75,1.75,0,0,0,80,102.59l1.35-30.48H85l1.34,30.48A1.76,1.76,0,0,0,88,104.26h.08a1.75,1.75,0,0,0,1.66-1.83L88.34,69.6a5,5,0,0,0,2.45.65,4.19,4.19,0,0,0,.5,0A5,5,0,0,0,95,68l6.75-10.12,8.82,3.41a8.07,8.07,0,0,1,3.14,2.19l-6,6a11.47,11.47,0,0,0-3.38,8.17v24.82a1.75,1.75,0,1,0,3.49,0V77.69a8,8,0,0,1,2.36-5.7l5.3-5.3a8.28,8.28,0,0,1,.28,2.44l-1.35,33.31a1.75,1.75,0,0,0,1.67,1.82h.07a1.74,1.74,0,0,0,1.74-1.68l1.36-33.3A11.56,11.56,0,0,0,111.8,58Zm-43-22.59a3.39,3.39,0,0,0-3.54-2.77,1.38,1.38,0,0,1-.4,0A1.68,1.68,0,0,1,63.65,31V29.69A1.65,1.65,0,0,1,64.88,28a1.53,1.53,0,0,1,1.5.57,2.43,2.43,0,0,0,1.23.87,2.46,2.46,0,0,0,2.11-.34,12.7,12.7,0,0,0,2.87-2.8,1.75,1.75,0,0,0-2.81-2.08,9,9,0,0,1-1.36,1.47,5,5,0,0,0-1.89-1,40,40,0,0,1-1.25-9.84c0-2.67.83-4.55,2.45-5.58a5.79,5.79,0,0,1,2.61-.84A1.76,1.76,0,0,0,71.55,8,19.66,19.66,0,0,1,83.23,3.54c6.73-.36,11.92,1.34,15,4.91s4.16,9.14,3,16.07a7.7,7.7,0,0,0-1.49.11l-1.64-3.94a1.75,1.75,0,0,0-2.06-1c-.16,0-16.28,4.13-23-4.29a1.75,1.75,0,0,0-2.72,2.19c6.9,8.6,20.6,6.73,25.16,5.81l1.27,3.05a2.87,2.87,0,0,0,3.31,1.7,3.91,3.91,0,0,1,1.31-.1,1.66,1.66,0,0,1,1.24,1.64V31a1.69,1.69,0,0,1-1.22,1.7,1.44,1.44,0,0,1-.41,0,3.39,3.39,0,0,0-3.53,2.77,14.57,14.57,0,0,1-28.66,0Zm7.74,30.86a1.52,1.52,0,0,1-2.34-.23l-6.79-10.2,2.73-2.73,10.43,9.13Zm4.93,2.31.11-2.4,1.55-1.56,1.55,1.56.11,2.4Zm1.66-8.75L73.45,51.4V48.06a18.11,18.11,0,0,0,19.38,0V51.4Zm8.92,6.21a1.49,1.49,0,0,1-1.11.67,1.55,1.55,0,0,1-1.23-.44l-4-4,10.44-9.13,2.73,2.73Z"/><path class="cls-2" d="M55.37,67.19l-8.53-3.72-4.66-4.66a1.76,1.76,0,0,0-1.12-.51V55.56a18,18,0,0,0,7.83-11.74,5.34,5.34,0,0,0,1.38-.13,5.2,5.2,0,0,0,3.86-5.09V37.32A5.19,5.19,0,0,0,51.89,33a19.8,19.8,0,0,0,.6-4.84,20.36,20.36,0,0,0-9.8-17.26A11.31,11.31,0,0,0,31.15,0,11.33,11.33,0,0,0,19.6,10.93,20.36,20.36,0,0,0,9.8,28.19,19.58,19.58,0,0,0,10.4,33a5.22,5.22,0,0,0-2.23,4.33V38.6A5.2,5.2,0,0,0,12,43.69a5.38,5.38,0,0,0,1.38.13,18.06,18.06,0,0,0,7.83,11.74V58.3a1.81,1.81,0,0,0-1.12.51l-4.66,4.66L6.93,67.19A11.61,11.61,0,0,0,0,78.26l1,24.33a1.75,1.75,0,0,0,1.75,1.67h.07a1.76,1.76,0,0,0,1.67-1.82l-1-24.33a8,8,0,0,1,1.11-4.39l4.58,5.49a9.7,9.7,0,0,1,2.24,6.21v17.09a1.75,1.75,0,0,0,3.5,0V85.42A13.2,13.2,0,0,0,11.87,77L7,71.13a8.46,8.46,0,0,1,1.32-.74l7.43-3.24L21,75.67a3.37,3.37,0,0,0,2.36,1.56,3.05,3.05,0,0,0,.52,0,3.39,3.39,0,0,0,2.19-.81l3.33-2.84v28.88a1.75,1.75,0,1,0,3.49,0V73.63l3.33,2.84a3.41,3.41,0,0,0,2.19.81,3.17,3.17,0,0,0,.53,0,3.35,3.35,0,0,0,2.35-1.56l5.25-8.52L54,70.39a9,9,0,0,1,1.33.74L50.42,77a13.19,13.19,0,0,0-3.05,8.44v17.09a1.75,1.75,0,1,0,3.49,0V85.42a9.71,9.71,0,0,1,2.25-6.21l4.58-5.49a8.14,8.14,0,0,1,1.11,4.39l-1,24.33a1.76,1.76,0,0,0,1.67,1.82h.08a1.75,1.75,0,0,0,1.74-1.67l1-24.33a11.62,11.62,0,0,0-6.91-11.07ZM31.15,3.49a8,8,0,0,1,7.77,5.58,22.14,22.14,0,0,0-15.55,0,8,8,0,0,1,7.78-5.58ZM16.82,43.1a3.39,3.39,0,0,0-3.54-2.77,1.71,1.71,0,0,1-.45,0,1.71,1.71,0,0,1-1.17-1.69V37.34a1.65,1.65,0,0,1,1.23-1.66,1.52,1.52,0,0,1,1.49.57,2.43,2.43,0,0,0,3.35.53A12.73,12.73,0,0,0,20.56,34a1.75,1.75,0,0,0-2.8-2.1,8.61,8.61,0,0,1-1.33,1.43A5.11,5.11,0,0,0,13.8,32.2a15.92,15.92,0,0,1-.51-4c0-9.39,8-17,17.86-17S49,18.8,49,28.19a16.5,16.5,0,0,1-.5,4,7.57,7.57,0,0,0-1.36.22l-1.31-1.08a3.36,3.36,0,0,0-2.33-.76c-2.57.15-15.71.5-22.45-7.57a1.75,1.75,0,1,0-2.68,2.24c3.32,4,8.2,6.67,14.49,8a43,43,0,0,0,10.79.83l2,1.68a1.75,1.75,0,0,0,2,.16,4,4,0,0,1,1.72-.23,1.66,1.66,0,0,1,1.24,1.64V38.6a1.72,1.72,0,0,1-1.17,1.69,1.83,1.83,0,0,1-.46,0,3.38,3.38,0,0,0-3.53,2.77,14.57,14.57,0,0,1-28.66,0Zm7.09,30.63L18.66,65.2l2.69-2.69,7.23,7.23Zm7.24-6.36L24.73,61V57.34a18.05,18.05,0,0,0,12.84,0V61Zm7.24,6.36-4.67-4L41,62.51l2.69,2.69Z"/><path class="cls-2" d="M24.61,84.43h-4.9a1.75,1.75,0,0,0,0,3.49h4.9a1.75,1.75,0,1,0,0-3.49Z"/></g></g></svg>