<svg xmlns="http://www.w3.org/2000/svg" xmlns:xlink="http://www.w3.org/1999/xlink" viewBox="0 0 118.45 118.45"><defs><style>.cls-1{fill:url(#Degradado_sin_nombre_25);}.cls-2{fill:#36afea;}</style><linearGradient id="Degradado_sin_nombre_25" x1="59.23" y1="117.21" x2="59.23" y2="2.31" gradientUnits="userSpaceOnUse"><stop offset="0" stop-color="#cbf1f6"/><stop offset="1" stop-color="#fff"/></linearGradient></defs><g id="Capa_2" data-name="Capa 2"><g id="CONTENIDO"><path class="cls-1" d="M108.53,2.31H9.92A7.92,7.92,0,0,0,2,10.23V84.08A7.92,7.92,0,0,0,9.92,92h35.5l-2,16H38.3a4.61,4.61,0,0,0,0,9.21h42a4.61,4.61,0,1,0,0-9.21H75L73,92h35.5a7.92,7.92,0,0,0,7.92-7.92V10.23A7.92,7.92,0,0,0,108.53,2.31Z"/><path class="cls-2" d="M37.51,71.07A23.69,23.69,0,1,0,13.82,47.38,23.69,23.69,0,0,0,37.51,71.07Zm-7.9-5.61V57.25a5.92,5.92,0,0,1,5.93-5.92h3.94a5.93,5.93,0,0,1,5.93,5.92v8.21a19.57,19.57,0,0,1-15.8,0Zm11.85-22a4,4,0,0,1-7.9,0v-4a4,4,0,0,1,7.9,0Zm-4-15.79a19.71,19.71,0,0,1,11.84,35.5V57.25a9.85,9.85,0,0,0-5.7-8.91,7.85,7.85,0,0,0,1.76-4.91v-4a7.9,7.9,0,0,0-15.8,0v4a7.85,7.85,0,0,0,1.76,4.91,9.88,9.88,0,0,0-5.71,8.91v5.89a19.72,19.72,0,0,1,11.85-35.5Z"/><rect class="cls-2" x="69.1" y="29.61" width="7.9" height="3.95" rx="1.97"/><rect class="cls-2" x="80.94" y="29.61" width="23.69" height="3.95" rx="1.97"/><rect class="cls-2" x="69.1" y="37.51" width="3.95" height="3.95" rx="1.97"/><rect class="cls-2" x="76.99" y="37.51" width="3.95" height="3.95" rx="1.97"/><rect class="cls-2" x="84.89" y="37.51" width="3.95" height="3.95" rx="1.97"/><rect class="cls-2" x="92.79" y="37.51" width="3.95" height="3.95" rx="1.97"/><rect class="cls-2" x="100.68" y="37.51" width="3.95" height="3.95" rx="1.97"/><rect class="cls-2" x="69.1" y="45.41" width="19.74" height="3.95" rx="1.97"/><rect class="cls-2" x="92.79" y="45.41" width="11.85" height="3.95" rx="1.97"/><rect class="cls-2" x="69.1" y="53.3" width="11.85" height="3.95" rx="1.97"/><rect class="cls-2" x="84.89" y="53.3" width="7.9" height="3.95" rx="1.97"/><rect class="cls-2" x="96.74" y="53.3" width="7.9" height="3.95" rx="1.97"/><rect class="cls-2" x="69.1" y="61.2" width="15.79" height="3.95" rx="1.97"/><rect class="cls-2" x="88.84" y="61.2" width="7.9" height="3.95" rx="1.97"/><rect class="cls-2" x="100.68" y="61.2" width="3.95" height="3.95" rx="1.97"/><rect class="cls-2" x="102.66" y="82.92" width="3.95" height="3.95" rx="1.97"/><rect class="cls-2" x="11.85" y="7.9" width="3.95" height="3.95" rx="1.97"/><rect class="cls-2" x="19.74" y="7.9" width="3.95" height="3.95" rx="1.97"/><rect class="cls-2" x="27.64" y="7.9" width="3.95" height="3.95" rx="1.97"/><path class="cls-2" d="M116.81,29.59a2.05,2.05,0,0,0,1.64-2.06V9.87A9.88,9.88,0,0,0,108.58,0H9.87A9.88,9.88,0,0,0,0,9.87v75a9.88,9.88,0,0,0,9.87,9.87h33.3l-1.48,11.85H37.76a6.09,6.09,0,0,0-6.17,5.74,5.92,5.92,0,0,0,5.92,6.1H80.69a6.09,6.09,0,0,0,6.17-5.74,5.92,5.92,0,0,0-5.92-6.1H76.76L75.28,94.76h33.3a9.88,9.88,0,0,0,9.87-9.87V35.64a2,2,0,0,0-1.64-2,2,2,0,0,0-2.31,1.95V75H25.66a2,2,0,0,0-2,2h0a2,2,0,0,0,2,2H114.5v5.92a5.92,5.92,0,0,1-5.92,5.92H9.87A5.92,5.92,0,0,1,4,84.89V79H17.77a2,2,0,0,0,2-2h0a2,2,0,0,0-2-2H4V19.74H114.5v7.9A2,2,0,0,0,116.81,29.59Zm-35.87,81a2,2,0,0,1,2,2.31,2,2,0,0,1-2,1.64H37.62a2.05,2.05,0,0,1-2.06-1.64,2,2,0,0,1,1.95-2.31ZM47.15,94.76H71.3l1.48,11.85H45.67ZM4,15.79V9.87A5.92,5.92,0,0,1,9.87,4h98.71a5.92,5.92,0,0,1,5.92,5.92v5.92Z"/></g></g></svg>