<svg xmlns="http://www.w3.org/2000/svg" xmlns:xlink="http://www.w3.org/1999/xlink" viewBox="0 0 128.43 132.87"><defs><style>.cls-1{fill:url(#Degradado_sin_nombre_25);}.cls-2,.cls-3{fill:#36afea;}.cls-3{opacity:0.25;}</style><linearGradient id="Degradado_sin_nombre_25" x1="64.21" y1="130.2" x2="64.21" y2="2.49" gradientUnits="userSpaceOnUse"><stop offset="0" stop-color="#cbf1f6"/><stop offset="1" stop-color="#fff"/></linearGradient></defs><g id="Capa_2" data-name="Capa 2"><g id="CONTENIDO"><polygon class="cls-1" points="64.21 2.49 50.74 11.87 50.74 2.49 2.08 2.49 2.08 25.31 31.43 25.31 2.08 45.74 2.08 130.2 126.35 130.2 126.35 45.74 64.21 2.49"/><path class="cls-2" d="M48.93,3a1,1,0,0,1,1,1V24.36a1,1,0,0,1-1,1.05H4.05a1,1,0,0,1-1-1.05V4.05a1,1,0,0,1,1-1H48.93m0-3H4.05A4,4,0,0,0,0,4.05V24.36a4,4,0,0,0,4.05,4.05H48.93a4,4,0,0,0,4-4.05V4.05a4,4,0,0,0-4-4Z"/><path class="cls-2" d="M9.77,9.14a1.06,1.06,0,0,0-.85.37,1.54,1.54,0,0,0-.33,1.07v7.14A1.69,1.69,0,0,0,9,18.89a1.28,1.28,0,0,0,1.86,0,1.74,1.74,0,0,0,.35-1.17V14.34a5.89,5.89,0,0,1,.39-2.41,1.59,1.59,0,0,1,1.61-.84,1.13,1.13,0,0,1,.9.33,1.55,1.55,0,0,1,.34.86,10.93,10.93,0,0,1,.07,1.46v4a1.77,1.77,0,0,0,.35,1.18,1.19,1.19,0,0,0,.92.39,1.21,1.21,0,0,0,.94-.39A1.72,1.72,0,0,0,17,17.72V14.4a6.32,6.32,0,0,1,.27-2.23,2.12,2.12,0,0,1,.69-.79,1.73,1.73,0,0,1,.94-.29,1.16,1.16,0,0,1,.91.33,1.45,1.45,0,0,1,.37.81,8.86,8.86,0,0,1,.07,1.29v4.2a1.69,1.69,0,0,0,.36,1.17,1.18,1.18,0,0,0,.93.4,1.2,1.2,0,0,0,.94-.39,1.72,1.72,0,0,0,.36-1.18V12.84a5.33,5.33,0,0,0-.32-2.13,2.52,2.52,0,0,0-1.11-1.15,3.6,3.6,0,0,0-1.76-.4,3.4,3.4,0,0,0-1.6.37,4.42,4.42,0,0,0-1.35,1.14,3,3,0,0,0-1.12-1.14A3.29,3.29,0,0,0,14,9.16a3.69,3.69,0,0,0-1.64.36A4.33,4.33,0,0,0,11,10.67v-.24a1.29,1.29,0,0,0-.35-.95,1.17,1.17,0,0,0-.85-.34Z"/><path class="cls-2" d="M29.59,9.12a6.74,6.74,0,0,0-2.46.4,3.28,3.28,0,0,0-1.45,1,2.11,2.11,0,0,0-.47,1.28.86.86,0,0,0,.31.69,1,1,0,0,0,.72.27.81.81,0,0,0,.61-.17,7.38,7.38,0,0,0,.49-.7,2.32,2.32,0,0,1,.82-.8,3.14,3.14,0,0,1,1.43-.26,1.78,1.78,0,0,1,1.46.46,2.73,2.73,0,0,1,.4,1.45c-.53.15-1,.28-1.46.39s-1,.22-1.62.35l-1.18.25a3.23,3.23,0,0,0-1.78,1,2.52,2.52,0,0,0-.65,1.74,2.6,2.6,0,0,0,.4,1.41,2.73,2.73,0,0,0,1.12,1,3.59,3.59,0,0,0,1.68.38,5,5,0,0,0,1.9-.35,7.94,7.94,0,0,0,1.75-1.06,5.26,5.26,0,0,0,.8,1.05,1.08,1.08,0,0,0,.75.36A1.21,1.21,0,0,0,34,19a.92.92,0,0,0,.36-.7,4.34,4.34,0,0,0-.23-1,4.88,4.88,0,0,1-.23-1.47c0-.5,0-1,0-1.36s0-.9,0-1.49a5.34,5.34,0,0,0-.39-2.23,2.44,2.44,0,0,0-1.33-1.23,7,7,0,0,0-2.59-.39Zm-.77,8.53a1.55,1.55,0,0,1-1.12-.4,1.23,1.23,0,0,1-.43-1,1,1,0,0,1,.36-.85A2,2,0,0,1,28.4,15l1.45-.33a12.06,12.06,0,0,0,1.6-.42v.36a3.88,3.88,0,0,1-.34,1.86,2.22,2.22,0,0,1-.92.84,3,3,0,0,1-1.37.32Z"/><path class="cls-2" d="M43,9.14a1.1,1.1,0,0,0-.72.24,4.46,4.46,0,0,0-.68.78L40,12.38l-1.62-2.22a4.31,4.31,0,0,0-.67-.77A1,1,0,0,0,37,9.14a1.21,1.21,0,0,0-.81.28.88.88,0,0,0-.31.67,2,2,0,0,0,.52,1.16l2,2.7-2.26,3.24a2.26,2.26,0,0,0-.51,1.12A.87.87,0,0,0,36,19a1.15,1.15,0,0,0,.8.3,1,1,0,0,0,.71-.24,4.24,4.24,0,0,0,.68-.79L40,15.59l1.81,2.67a4.42,4.42,0,0,0,.68.78,1.08,1.08,0,0,0,.73.25,1.2,1.2,0,0,0,.81-.29.84.84,0,0,0,.33-.67,2.37,2.37,0,0,0-.53-1.14L41.6,14l2-2.7a4.05,4.05,0,0,0,.41-.61,1.2,1.2,0,0,0,.13-.55.85.85,0,0,0-.32-.67A1.2,1.2,0,0,0,43,9.14Z"/><path class="cls-2" d="M79.61,102.08V75.45H53v4.16H57.7V90.84a2.08,2.08,0,0,0,2.08,2.08h8.87a2.08,2.08,0,0,0,2.08-2.08V79.61h4.72v22.47Zm-13-13.32H61.86V79.61h4.71Z"/><path class="cls-2" d="M106.24,102.08V77.53a2.08,2.08,0,0,0-2.08-2.08H79.61v4.16h4.71V90.84a2.09,2.09,0,0,0,2.09,2.08h8.87a2.08,2.08,0,0,0,2.08-2.08V79.61h4.72v22.47Zm-13-13.32H88.49V79.61H93.2Z"/><path class="cls-2" d="M106.24,128.71V104.16a2.08,2.08,0,0,0-2.08-2.08H79.61v4.16h4.71v11.23a2.09,2.09,0,0,0,2.09,2.08h8.87a2.08,2.08,0,0,0,2.08-2.08V106.24h4.72v22.47Zm-13-13.32H88.49v-9.15H93.2Z"/><rect class="cls-3" x="24.76" y="55.71" width="79.1" height="21.59"/><path class="cls-2" d="M127.52,42.52,65.38.36a2.07,2.07,0,0,0-2.33,0L53,7.19v5L64.21,4.59l60.06,40.76v83.36h-18V84.3a2.17,2.17,0,0,0-1.73-2.17,2.08,2.08,0,0,0-2.43,2.06v44.52H79.61V102.08H53V75.45H26.35v-18h75.73V75.2a2.15,2.15,0,0,0,1.73,2.16,2.09,2.09,0,0,0,2.43-2V57.42h2.36a2.08,2.08,0,0,0,2.08-2.08V46.46a2.08,2.08,0,0,0-2.08-2.08H19.83a2.08,2.08,0,0,0-2.08,2.08v8.88a2.08,2.08,0,0,0,2.08,2.08h2.36v71.29h-18V45.35l25-16.94H21.71L.91,42.52A2.08,2.08,0,0,0,0,44.24v86.55a2.08,2.08,0,0,0,2.08,2.08H126.35a2.08,2.08,0,0,0,2.08-2.08V44.24A2.08,2.08,0,0,0,127.52,42.52ZM35.23,79.61h4.71v9.15H35.23ZM21.91,53.26V48.54h84.61v4.72Zm4.44,26.35h4.72V90.84a2.08,2.08,0,0,0,2.08,2.08H42a2.08,2.08,0,0,0,2.08-2.08V79.61h4.72v22.47H26.35Zm13.59,26.63v9.15H35.23v-9.15Zm8.88,22.47H26.35V106.24h4.72v11.23a2.08,2.08,0,0,0,2.08,2.08H42a2.08,2.08,0,0,0,2.08-2.08V106.24h4.72Zm13-22.47h4.71v9.15H61.86Zm13.59,22.47H53V106.24H57.7v11.23a2.08,2.08,0,0,0,2.08,2.08h8.87a2.08,2.08,0,0,0,2.08-2.08V106.24h4.72Z"/></g></g></svg>