<svg xmlns="http://www.w3.org/2000/svg" xmlns:xlink="http://www.w3.org/1999/xlink" viewBox="0 0 171.2 120.37"><defs><style>.cls-1{fill:url(#Degradado_sin_nombre_25);}.cls-2{fill:#36afea;}</style><linearGradient id="Degradado_sin_nombre_25" x1="85.6" y1="115.99" x2="85.6" y2="37.82" gradientUnits="userSpaceOnUse"><stop offset="0" stop-color="#cbf1f6"/><stop offset="1" stop-color="#fff"/></linearGradient></defs><g id="Capa_2" data-name="Capa 2"><g id="CONTENIDO"><path class="cls-1" d="M85.6,116C54.36,116,24.31,99.76,8.24,74.42,20.9,62,50.15,37.82,85.6,37.82S150.3,62,163,74.42C146.89,99.76,116.84,116,85.6,116Z"/><path class="cls-2" d="M67.9,61.17a3.34,3.34,0,1,0,0,4.72,3.34,3.34,0,0,0,0-4.72Z"/><path class="cls-2" d="M85.6,66.87a10,10,0,1,0,10,10,10,10,0,0,0-10-10Zm0,13.38a3.35,3.35,0,1,1,3.34-3.35,3.35,3.35,0,0,1-3.34,3.35Z"/><path class="cls-2" d="M85.6,50.16A26.51,26.51,0,0,0,74.86,52.4a3.34,3.34,0,1,0,2.69,6.12,20.07,20.07,0,1,1-12,18.38v-.33a3.35,3.35,0,1,0-6.69-.16v.49A26.75,26.75,0,1,0,85.6,50.16Z"/><path class="cls-2" d="M85.6,0a3.35,3.35,0,0,0-3.35,3.34V23.41a3.35,3.35,0,0,0,6.69,0V3.34A3.35,3.35,0,0,0,85.6,0Z"/><path class="cls-2" d="M48.24,24.79,34.06,10.61a3.34,3.34,0,0,0-4.73,4.72L43.51,29.52a3.34,3.34,0,1,0,4.73-4.73Z"/><path class="cls-2" d="M141.87,10.61a3.34,3.34,0,0,0-4.73,0L123,24.79a3.34,3.34,0,1,0,4.73,4.73l14.19-14.19a3.34,3.34,0,0,0,0-4.72Z"/><path class="cls-2" d="M170.36,77.48c-21.24-24.05-52.78-44-84.76-44s-63.53,20-84.76,44a3.34,3.34,0,1,0,5,4.42c.71-.8,1.44-1.61,2.18-2.41,16.53,25,46.48,40.88,77.57,40.88s61-15.91,77.56-40.88c.75.8,1.47,1.61,2.19,2.41a3.34,3.34,0,1,0,5-4.42ZM85.6,113.69c-29.4,0-57.67-15.28-72.79-39.12C24.72,62.9,52.25,40.12,85.6,40.12s60.87,22.78,72.79,34.45C143.27,98.41,115,113.69,85.6,113.69Z"/></g></g></svg>