<svg xmlns="http://www.w3.org/2000/svg" xmlns:xlink="http://www.w3.org/1999/xlink" viewBox="0 0 111.71 104.26"><defs><style>.cls-1{fill:url(#Degradado_sin_nombre_25);}.cls-2{fill:#049be5;}</style><linearGradient id="Degradado_sin_nombre_25" x1="55.74" y1="101.81" x2="55.74" y2="1.78" gradientUnits="userSpaceOnUse"><stop offset="0" stop-color="#cbf1f6"/><stop offset="1" stop-color="#fff"/></linearGradient></defs><g id="Capa_2" data-name="Capa 2"><g id="CONTENIDO"><path class="cls-1" d="M59.35,49.12S60.16,54.7,71.46,54L63.59,33s-22.72-7.8,1-31.26L67,7.42S86.43,11,77,29.73L85.41,54s10.41-1.54,17.24,1.86,15,14-6.76,35c0,0,4.46,7.68-.08,9.58s-5.33.69-6.89-4.74c0,0-37.55,13.83-64.56,0S-6.85,55.29,17.75,41,61,35.9,59.35,49.12Z"/><path class="cls-2" d="M25.32,98.24l1-2.3a1.24,1.24,0,0,0-.63-1.62C11.91,88,3.72,77.86,3.72,67c0-11,8.5-21.36,22.74-27.64a37.82,37.82,0,0,1,20.47-2.83A13,13,0,0,1,54.15,40l.74.72a9.48,9.48,0,0,1,3,6.89,8.13,8.13,0,0,0,2.49,5.82,8.51,8.51,0,0,0,5.94,2.38h4.25l1,2.41c-4,2.09-6.32,5.28-6.32,8.78,0,6.27,7.36,11.17,16.76,11.17S98.68,73.29,98.68,67c0-4.81-4.39-8.94-11-10.51L79.22,29.1A14.88,14.88,0,0,0,68.89,5.78V4.59A4.58,4.58,0,0,0,67.2,1a4.45,4.45,0,0,0-5.89.35L59.26,3.35a24.18,24.18,0,0,0-7.13,17.21,14.9,14.9,0,0,0,10,14.05l2.67,6.73a1.43,1.43,0,0,0,1.86.8l.79-.32A1.43,1.43,0,0,0,68.23,40l-1.8-4.52.6,0a14.82,14.82,0,0,0,9.25-3.24l12.64,41a20.27,20.27,0,0,1-7,1.21L71.06,47.08a1.32,1.32,0,0,0-1.72-.74l-1,.4a1.32,1.32,0,0,0-.74,1.72l1.45,3.65H66.28a4.85,4.85,0,0,1-3.35-1.34,4.38,4.38,0,0,1-1.36-3.14,13.4,13.4,0,0,0-4.09-9.57l-.75-.72a16.73,16.73,0,0,0-9.3-4.49A41.58,41.58,0,0,0,25,36C9.33,42.87,0,54.48,0,67S9.47,91.35,25.32,98.24ZM68.89,67c0-2,1.49-3.88,4-5.29l4.9,12.33c-5.1-1-8.88-3.83-8.88-7ZM67,31.73A11.17,11.17,0,0,1,55.86,20.56,20.42,20.42,0,0,1,61.89,6L64,3.93a.67.67,0,0,1,.48-.21.72.72,0,0,1,.29.06.67.67,0,0,1,.44.66V7.53A1.84,1.84,0,0,0,67,9.39a11.17,11.17,0,1,1,0,22.34ZM89,60.79c3.64,1.37,6,3.72,6,6.23a5.81,5.81,0,0,1-2.68,4.47Z"/><path class="cls-2" d="M96.24,52h-.1l-1.6,0a1.51,1.51,0,0,0-1.46,1.55l0,.72a1.5,1.5,0,0,0,1.55,1.45l1.57,0h0c6.44,0,11.71,5,11.75,11.13V67c0,13-11.64,24.36-28.59,29.9l-1.07-2.14a6.33,6.33,0,0,0-1.2-1.67l-1.86-1.85a2.76,2.76,0,0,1-.8-1.94v-.68a6.66,6.66,0,0,0-4.18-6.3,6.44,6.44,0,0,0-8.06,3.15l-.67,1.34a2.76,2.76,0,0,1-3.31,1.37,6.4,6.4,0,0,0-4.93.35l-.93.46a6.49,6.49,0,0,0-2.48,2.2l-1.15,1.71a6.5,6.5,0,0,0,.1,7.31,73.91,73.91,0,0,1-17.11-3.51,1.43,1.43,0,0,0-1.81.86l-.29.81a1.44,1.44,0,0,0,.88,1.85,80,80,0,0,0,25.33,4,76.7,76.7,0,0,0,31.37-6.39l.4,1,0,.07a6.26,6.26,0,0,0,10.94.91,6.5,6.5,0,0,0,.7-5.52l-1-3.1C107,84.52,111.71,76,111.71,67v-.15c0-8.19-7-14.84-15.47-14.84ZM53.91,100.51,52,98.25A2.73,2.73,0,0,1,51.86,95L53,93.27a2.77,2.77,0,0,1,1.06-.92l.93-.47a2.68,2.68,0,0,1,2.08-.15,6.49,6.49,0,0,0,7.82-3.24l.61-1.21a2.84,2.84,0,0,1,2.63-1.64,2.74,2.74,0,0,1,2.62,2.73v.95a6.47,6.47,0,0,0,1.89,4.57l1.85,1.85a3,3,0,0,1,.52.71L75.77,98a77.33,77.33,0,0,1-19.91,2.54l-2,0Zm41.86-5a2.65,2.65,0,0,1-1.22,3.14,2.55,2.55,0,0,1-3.48-1.2l-.49-1.23c1.55-.83,3-1.7,4.47-2.64l.1-.06Z"/><path class="cls-2" d="M9.31,58.64c0,3.66,4.22,6.52,9.62,6.52s9.62-2.86,9.62-6.52-4.23-6.51-9.62-6.51S9.31,55,9.31,58.64Zm15.51,0c0,1.14-2.29,2.8-5.89,2.8S13,59.78,13,58.64s2.3-2.79,5.9-2.79,5.89,1.65,5.89,2.79Z"/><path class="cls-2" d="M20.79,81.92c5.39,0,9.62-2.87,9.62-6.52s-4.23-6.52-9.62-6.52-9.62,2.87-9.62,6.52,4.23,6.52,9.62,6.52Zm0-9.31c3.6,0,5.9,1.65,5.9,2.79s-2.3,2.79-5.9,2.79-5.9-1.65-5.9-2.79,2.3-2.79,5.9-2.79Z"/><path class="cls-2" d="M37.55,93.09c5.39,0,9.62-2.87,9.62-6.52s-4.23-6.52-9.62-6.52-9.62,2.87-9.62,6.52,4.22,6.52,9.62,6.52Zm0-9.31c3.6,0,5.89,1.65,5.89,2.79s-2.29,2.79-5.89,2.79-5.9-1.65-5.9-2.79,2.3-2.79,5.9-2.79Z"/><path class="cls-2" d="M35.06,54c5.4,0,9.62-2.86,9.62-6.52S40.46,41,35.06,41s-9.61,2.86-9.61,6.51S29.67,54,35.06,54Zm0-9.31c3.6,0,5.9,1.65,5.9,2.79s-2.3,2.79-5.9,2.79-5.89-1.65-5.89-2.79,2.29-2.79,5.89-2.79Z"/><path class="cls-2" d="M58.27,68.78,58.71,67a5.54,5.54,0,0,0-3.6-6.56l-.49-.16A1.77,1.77,0,0,1,53.45,59a5.5,5.5,0,0,0-8.78-3l-4.37,3.5a1.66,1.66,0,0,1-.54.29L36.52,61A5.52,5.52,0,0,0,33,64.44l-.28.86A5.52,5.52,0,0,0,35.51,72a18.79,18.79,0,0,0,10.81,1.85l7.29-.91a5.54,5.54,0,0,0,4.66-4.12ZM45.86,70.12a15.18,15.18,0,0,1-8.69-1.49,1.78,1.78,0,0,1-.89-2.16l.29-.86a1.76,1.76,0,0,1,1.12-1.12l3.24-1.08a5.53,5.53,0,0,0,1.7-.93L47,59a1.77,1.77,0,0,1,1.1-.4,1.86,1.86,0,0,1,.58.1A1.76,1.76,0,0,1,49.84,60a5.47,5.47,0,0,0,3.6,3.88l.49.17a1.78,1.78,0,0,1,1.16,2.12l-.44,1.75a1.8,1.8,0,0,1-1.5,1.34Z"/></g></g></svg>