<svg xmlns="http://www.w3.org/2000/svg" xmlns:xlink="http://www.w3.org/1999/xlink" width="1096.468" height="464.805" viewBox="0 0 1096.468 464.805">
  <defs>
    <linearGradient id="linear-gradient" x1="0.5" y1="1" x2="0.5" gradientUnits="objectBoundingBox">
      <stop offset="0" stop-color="#94e3ec"/>
      <stop offset="1" stop-color="#71d9e6"/>
    </linearGradient>
    <linearGradient id="linear-gradient-2" x1="0.5" y1="1" x2="0.5" gradientUnits="objectBoundingBox">
      <stop offset="0" stop-color="#71d9e6"/>
      <stop offset="1" stop-color="#94e3ec"/>
    </linearGradient>
    <linearGradient id="linear-gradient-5" y1="0.5" x2="1" y2="0.5" gradientUnits="objectBoundingBox">
      <stop offset="0" stop-color="#65c9eb"/>
      <stop offset="0.113" stop-color="#5bc3ea"/>
      <stop offset="0.415" stop-color="#46b8ea"/>
      <stop offset="0.713" stop-color="#3ab1ea"/>
      <stop offset="1" stop-color="#36afea"/>
    </linearGradient>
    <linearGradient id="linear-gradient-6" y1="0.5" x2="1" y2="0.5" gradientUnits="objectBoundingBox">
      <stop offset="0" stop-color="#cad688"/>
      <stop offset="0.174" stop-color="#dad26a"/>
      <stop offset="0.385" stop-color="#eace4d"/>
      <stop offset="0.595" stop-color="#f5cc38"/>
      <stop offset="0.801" stop-color="#fcca2c"/>
      <stop offset="1" stop-color="#ffca28"/>
    </linearGradient>
    <linearGradient id="linear-gradient-7" y1="0.5" x2="1" y2="0.5" gradientUnits="objectBoundingBox">
      <stop offset="0" stop-color="#c49992"/>
      <stop offset="0.142" stop-color="#d0867b"/>
      <stop offset="0.361" stop-color="#df6f5e"/>
      <stop offset="0.578" stop-color="#eb5e49"/>
      <stop offset="0.793" stop-color="#f1543d"/>
      <stop offset="1" stop-color="#f45139"/>
    </linearGradient>
    <linearGradient id="linear-gradient-8" x1="0.5" y1="1" x2="0.5" gradientUnits="objectBoundingBox">
      <stop offset="0" stop-color="#94e3ec"/>
      <stop offset="1" stop-color="#fff"/>
    </linearGradient>
  </defs>
  <g id="Grupo_18568" data-name="Grupo 18568" transform="translate(1355.156 -2191.477)">
    <path id="Trazado_50936" data-name="Trazado 50936" d="M-353.281,2420.585l-154.307-226.456a5.947,5.947,0,0,0-10.891,3.3v24.829a8.144,8.144,0,0,1-8.143,8.144h-822.589a5.945,5.945,0,0,0-5.945,5.945v375.085a5.936,5.936,0,0,0,5.935,5.936h822.6a8.143,8.143,0,0,1,8.143,8.143v24.83a5.947,5.947,0,0,0,10.891,3.294l154.307-226.456A5.928,5.928,0,0,0-353.281,2420.585Z" fill="url(#linear-gradient)"/>
    <path id="Trazado_50937" data-name="Trazado 50937" d="M-1006.5,2339.9v23.608h-2.275c-1.484,0-2.275.736-2.275,4.365h4.55v4.025h7.222s.122,6.529,5.8,6.529,5.479-5.837,5.479-5.837l24.732.1s.62,6.233,5.54,6.233,5.539-4.848,5.342-6.53l4.55-.3v-11.278a6.038,6.038,0,0,0-4.649-4.056l-1.924-8.013s2.319-1.91-1.539-4.813h-9.1l-.594-4.036Z" fill="url(#linear-gradient-2)"/>
    <path id="Trazado_50938" data-name="Trazado 50938" d="M-813.006,2339.9v23.608h-2.275c-1.484,0-2.275.736-2.275,4.365h4.55v4.025h7.222s.122,6.529,5.8,6.529,5.479-5.837,5.479-5.837l24.731.1s.621,6.233,5.541,6.233,5.539-4.848,5.341-6.53l4.551-.3v-11.278a6.038,6.038,0,0,0-4.65-4.056l-1.924-8.013s2.32-1.91-1.538-4.813h-9.1l-.594-4.036Z" fill="url(#linear-gradient-2)"/>
    <path id="Trazado_50939" data-name="Trazado 50939" d="M-620.009,2339.9v23.608h-2.275c-1.484,0-2.275.736-2.275,4.365h4.55v4.025h7.222s.122,6.529,5.8,6.529,5.479-5.837,5.479-5.837l24.732.1s.62,6.233,5.54,6.233,5.539-4.848,5.342-6.53l4.55-.3v-11.278a6.038,6.038,0,0,0-4.649-4.056l-1.924-8.013s2.319-1.91-1.539-4.813h-9.1l-.594-4.036Z" fill="url(#linear-gradient-2)"/>
    <text id="Proveedores" transform="translate(-1273.868 2404.541)" fill="#fff" font-size="20" font-family="Montserrat-Regular, Montserrat"><tspan x="-63.67" y="0">Proveedores</tspan></text>
    <text id="Planta" transform="translate(-1077.993 2404.541)" fill="#fff" font-size="20" font-family="Montserrat-Regular, Montserrat"><tspan x="-31.89" y="0">Planta</tspan></text>
    <text id="Centro_de_distribución" data-name="Centro de
distribución" transform="translate(-882.848 2404.541)" fill="#fff" font-size="20" font-family="Montserrat-Regular, Montserrat"><tspan x="-50.14" y="0">Centro de</tspan><tspan x="-60.07" y="24">distribución</tspan></text>
    <text id="Centro_de_distribución-2" data-name="Centro de
distribución" transform="translate(-689.451 2404.541)" fill="#fff" font-size="20" font-family="Montserrat-Regular, Montserrat"><tspan x="-50.14" y="0">Centro de</tspan><tspan x="-60.07" y="24">distribución</tspan></text>
    <text id="Minoristas" transform="translate(-495.975 2358.258)" fill="#fff" font-size="20" font-family="Montserrat-Regular, Montserrat"><tspan x="-52.43" y="0">Minoristas</tspan></text>
    <text id="Supermercados" transform="translate(-495.975 2473.399)" fill="#fff" font-size="20" font-family="Montserrat-Regular, Montserrat"><tspan x="-79.75" y="0">Supermercados</tspan></text>
    <g id="Grupo_18556" data-name="Grupo 18556">
      <path id="Trazado_50940" data-name="Trazado 50940" d="M-409.509,2486.738h-934.774v39.809h908.215Z" fill="url(#linear-gradient-5)"/>
      <path id="Trazado_50941" data-name="Trazado 50941" d="M-508.612,2635.28l45.984-68.923h-881.655l-.224,38.21a2.886,2.886,0,0,0,2.886,2.9h816.145A15.533,15.533,0,0,1-509.943,2623v11.874A.727.727,0,0,0-508.612,2635.28Z" fill="url(#linear-gradient-6)"/>
      <path id="Trazado_50942" data-name="Trazado 50942" d="M-436.068,2526.547h-908.215v39.81h881.655Z" fill="url(#linear-gradient-7)"/>
    </g>
    <text id="Flujo_de_Materiales" data-name="Flujo de Materiales" transform="translate(-798.933 2514)" fill="#fff" font-size="20" font-family="Montserrat-Regular, Montserrat"><tspan x="-95.44" y="0">Flujo de Materiales</tspan></text>
    <text id="Flujo_de_Información" data-name="Flujo de Información" transform="translate(-798.933 2554.303)" fill="#fff" font-size="20" font-family="Montserrat-Regular, Montserrat"><tspan x="-104.07" y="0">Flujo de Información</tspan></text>
    <text id="Flujo_de_Dinero" data-name="Flujo de Dinero" transform="translate(-798.933 2595.596)" fill="#fff" font-size="20" font-family="Montserrat-Regular, Montserrat"><tspan x="-76.47" y="0">Flujo de Dinero</tspan></text>
    <g id="Grupo_18558" data-name="Grupo 18558">
      <path id="Trazado_50943" data-name="Trazado 50943" d="M-271.769,2408.647l-30.324,10.044-29.478-9.2,29.478-9.942Z" fill="#ffe17d"/>
      <path id="Trazado_50944" data-name="Trazado 50944" d="M-320.837,2412.36l9.03,3.061,27.677-9.865-9.6-3.485Z" fill="#ff8087"/>
      <path id="Trazado_50945" data-name="Trazado 50945" d="M-302.093,2418.691v31.657l-29.478-8.953v-31.9Z" fill="#ffd164"/>
      <path id="Trazado_50946" data-name="Trazado 50946" d="M-321.826,2412.36v9.695l10.019,3.759v-10.393Z" fill="#e6646e"/>
      <path id="Trazado_50947" data-name="Trazado 50947" d="M-302.093,2418.691v31.657l30.324-10.051v-31.65Z" fill="#ffc350"/>
      <path id="Trazado_50948" data-name="Trazado 50948" d="M-281.419,2454.9v15.234s-13.513,6.316-20.334,6.53-31.18-10.882-31.18-10.882-1.693-1.183,0-3.952a4.2,4.2,0,0,1,4.775-1.786l10.769,4.971s-.48-6.356,2.685-6.158,12.951,0,12.951,0A27.59,27.59,0,0,1-281.419,2454.9Z" fill="#ffe0ce"/>
      <rect id="Rectángulo_4681" data-name="Rectángulo 4681" width="8.302" height="15.235" transform="translate(-270.574 2455.69)" fill="#68c3ef"/>
      <g id="Grupo_18557" data-name="Grupo 18557">
        <path id="Trazado_50949" data-name="Trazado 50949" d="M-333.937,2461.829a5.011,5.011,0,0,0,.08,3.892,4.935,4.935,0,0,0,2.77,2.639l20.939,7.984a23.463,23.463,0,0,0,17.252-.19l10.121-4.2v.517a1.356,1.356,0,0,0,1.356,1.355h10.845a1.355,1.355,0,0,0,1.355-1.355h6.778a1.355,1.355,0,0,0,1.356-1.356,1.355,1.355,0,0,0-1.356-1.355h-6.778V2468.4a1.356,1.356,0,0,0-1.355-1.356,1.357,1.357,0,0,0-1.356,1.356v2.711h-8.134v-16.267h8.134v8.134a1.356,1.356,0,0,0,1.356,1.355,1.355,1.355,0,0,0,1.355-1.355V2456.2h6.778a1.356,1.356,0,0,0,1.356-1.356,1.355,1.355,0,0,0-1.356-1.356h-6.778a1.355,1.355,0,0,0-1.355-1.355h-10.845a1.356,1.356,0,0,0-1.356,1.355v15.525l-11.149,4.635a20.749,20.749,0,0,1-15.254.165l-20.942-7.985a2.23,2.23,0,0,1-1.253-1.2,2.321,2.321,0,0,1-.037-1.8,2.238,2.238,0,0,1,1.22-1.262,2.155,2.155,0,0,1,1.693,0l11.333,4.813a8.377,8.377,0,0,0,3.129.661c.028,0,.055.008.081.008h16.267a1.355,1.355,0,0,0,1.356-1.355,1.355,1.355,0,0,0-1.356-1.356H-313.87c-.18,0-.355-.037-.532-.053a2.032,2.032,0,0,1-1.573-1.969,2.033,2.033,0,0,1,2.021-2.045h10.516a9.621,9.621,0,0,0,4.276-1.008,29.077,29.077,0,0,1,12.951-3.058h.725a1.356,1.356,0,0,0,1.355-1.356,1.355,1.355,0,0,0-1.355-1.356h-.725a31.867,31.867,0,0,0-14.164,3.344,6.894,6.894,0,0,1-3.063.723h-10.516a4.745,4.745,0,0,0-4.745,4.745,4.443,4.443,0,0,0,.045.489l-8.789-3.732a4.847,4.847,0,0,0-3.8,0,4.936,4.936,0,0,0-2.7,2.77Zm0,0" fill="#4d4d4d"/>
        <path id="Trazado_50950" data-name="Trazado 50950" d="M-332.874,2408.391a1.364,1.364,0,0,0-.059.364v32.535a1.359,1.359,0,0,0,.941,1.292l29.824,9.489a1.354,1.354,0,0,0,.821,0l29.824-9.489a1.356,1.356,0,0,0,.949-1.292v-32.535a1.358,1.358,0,0,0-.954-1.287l-29.823-9.489a1.354,1.354,0,0,0-.821,0l-29.823,9.489c-.043.019-.083.039-.123.061s-.1.05-.154.079a1.386,1.386,0,0,0-.262.206,1.441,1.441,0,0,0-.1.1,1.336,1.336,0,0,0-.239.426v.047Zm36.363-6.035-25.349,8.068-5.243-1.669,25.35-8.066Zm9.714,3.093-25.35,8.066-5.242-1.669,25.35-8.066Zm-43.424,5.16,7.011,2.229v9.857a1.354,1.354,0,0,0,.949,1.291l2.486.791a1.335,1.335,0,0,0,.406.064,1.355,1.355,0,0,0,1.289-.946,1.355,1.355,0,0,0-.882-1.7l-1.54-.489v-8l7,2.23v8l-1.4-.444a1.354,1.354,0,0,0-1.7.881,1.356,1.356,0,0,0,.88,1.7l3.164,1.008a1.393,1.393,0,0,0,.406.064,1.356,1.356,0,0,0,1.356-1.356v-8.993l7.682,2.44v19.344a1.356,1.356,0,0,0,1.356,1.355,1.355,1.355,0,0,0,1.355-1.355v-19.344l22.105-7.032a1.354,1.354,0,0,0,.881-1.7,1.356,1.356,0,0,0-1.7-.881l-22.638,7.2-5.92-1.883,25.35-8.067,9.037,2.875V2440.3l-27.112,8.626V2444a1.355,1.355,0,0,0-1.355-1.356,1.356,1.356,0,0,0-1.356,1.356v4.924l-27.112-8.627Zm0,29.689" fill="#4d4d4d"/>
        <path id="Trazado_50951" data-name="Trazado 50951" d="M-277.352,2431.8a1.356,1.356,0,0,0-1.356,1.356v4.067a1.357,1.357,0,0,0,1.356,1.356,1.356,1.356,0,0,0,1.355-1.356v-4.067a1.356,1.356,0,0,0-1.355-1.356Zm0,0" fill="#4d4d4d"/>
        <path id="Trazado_50952" data-name="Trazado 50952" d="M-282.775,2433.156a1.356,1.356,0,0,0-1.356,1.356v4.067a1.356,1.356,0,0,0,1.356,1.355,1.356,1.356,0,0,0,1.356-1.355v-4.067a1.356,1.356,0,0,0-1.356-1.356Zm0,0" fill="#4d4d4d"/>
      </g>
    </g>
    <g id="Grupo_18559" data-name="Grupo 18559">
      <path id="Trazado_50953" data-name="Trazado 50953" d="M-951.855,2356.086l-1.679-6.72a1.014,1.014,0,0,0,.8-.993v-1.083a4.27,4.27,0,0,0-4.266-4.266h-7.651v-2.234a2.1,2.1,0,0,0-2.1-2.1h-39a2.1,2.1,0,0,0-2.1,2.1v18.417a1.016,1.016,0,0,0,1.016,1.016,1.016,1.016,0,0,0,1.016-1.016V2340.79a.067.067,0,0,1,.067-.068h39a.067.067,0,0,1,.067.068v18.417a1.016,1.016,0,0,0,1.016,1.016,1.016,1.016,0,0,0,1.016-1.016v-1.151h11.987a3.324,3.324,0,0,1,3.156,2.3h-3.158a1.016,1.016,0,0,0-1.016,1.016v2.166a3.186,3.186,0,0,0,3.183,3.183h1.15v4.469H-952a6.445,6.445,0,0,0-6.079-4.334,6.445,6.445,0,0,0-6.08,4.334h-.488v-7.652a1.015,1.015,0,0,0-1.016-1.015,1.015,1.015,0,0,0-1.016,1.015v7.651h-21.072a6.445,6.445,0,0,0-6.08-4.333,6.443,6.443,0,0,0-6.078,4.333h-5.839a.067.067,0,0,1-.067-.067v-2.235h4.4a1.016,1.016,0,0,0,1.016-1.015,1.016,1.016,0,0,0-1.016-1.016h-9.75a1.016,1.016,0,0,0-1.016,1.016,1.016,1.016,0,0,0,1.016,1.015h3.317v2.235a2.1,2.1,0,0,0,2.1,2.1h5.487c0,.022,0,.045,0,.067a6.44,6.44,0,0,0,6.432,6.433,6.44,6.44,0,0,0,6.433-6.433c0-.022,0-.045,0-.067h22.89c0,.022,0,.045,0,.067a6.439,6.439,0,0,0,6.432,6.433,6.439,6.439,0,0,0,6.432-6.433c0-.022,0-.045,0-.067h3.319a1.016,1.016,0,0,0,1.016-1.015v-10.835a5.357,5.357,0,0,0-4.541-5.287Zm-12.793-11.03H-957a2.237,2.237,0,0,1,2.235,2.234v.068h-9.886Zm0,10.968v-6.635h9.025l1.659,6.635Zm-29.184,21.668a4.406,4.406,0,0,1-4.4-4.4,4.406,4.406,0,0,1,4.4-4.4,4.407,4.407,0,0,1,4.4,4.4,4.406,4.406,0,0,1-4.4,4.4Zm35.752,0a4.406,4.406,0,0,1-4.4-4.4,4.406,4.406,0,0,1,4.4-4.4,4.406,4.406,0,0,1,4.4,4.4,4.406,4.406,0,0,1-4.4,4.4Zm8.735-13H-950.5a1.153,1.153,0,0,1-1.151-1.152v-1.151h2.3v2.3Zm0,0" fill="#3a9ca8"/>
      <path id="Trazado_50954" data-name="Trazado 50954" d="M-993.832,2371.192a2.1,2.1,0,0,0-2.1,2.1,2.1,2.1,0,0,0,2.1,2.1,2.1,2.1,0,0,0,2.1-2.1,2.1,2.1,0,0,0-2.1-2.1Zm0,0" fill="#3a9ca8"/>
      <path id="Trazado_50955" data-name="Trazado 50955" d="M-958.08,2371.192a2.1,2.1,0,0,0-2.1,2.1,2.1,2.1,0,0,0,2.1,2.1,2.1,2.1,0,0,0,2.1-2.1,2.1,2.1,0,0,0-2.1-2.1Zm0,0" fill="#3a9ca8"/>
      <path id="Trazado_50956" data-name="Trazado 50956" d="M-970,2366.858h-15.167a1.016,1.016,0,0,0-1.016,1.016,1.016,1.016,0,0,0,1.016,1.016H-970a1.016,1.016,0,0,0,1.016-1.016,1.016,1.016,0,0,0-1.016-1.016Zm0,0" fill="#3a9ca8"/>
      <path id="Trazado_50957" data-name="Trazado 50957" d="M-996,2362.525h-13a1.015,1.015,0,0,0-1.016,1.015,1.015,1.015,0,0,0,1.016,1.016h13a1.015,1.015,0,0,0,1.016-1.016,1.015,1.015,0,0,0-1.016-1.015Zm0,0" fill="#3a9ca8"/>
    </g>
    <g id="Grupo_18560" data-name="Grupo 18560">
      <path id="Trazado_50958" data-name="Trazado 50958" d="M-758.057,2356.086l-1.679-6.72a1.014,1.014,0,0,0,.8-.993v-1.083a4.27,4.27,0,0,0-4.266-4.266h-7.651v-2.234a2.1,2.1,0,0,0-2.1-2.1h-39a2.1,2.1,0,0,0-2.1,2.1v18.417a1.016,1.016,0,0,0,1.016,1.016,1.016,1.016,0,0,0,1.016-1.016V2340.79a.068.068,0,0,1,.068-.068h39a.068.068,0,0,1,.068.068v18.417a1.015,1.015,0,0,0,1.015,1.016,1.016,1.016,0,0,0,1.016-1.016v-1.151h11.987a3.324,3.324,0,0,1,3.156,2.3h-3.158a1.016,1.016,0,0,0-1.016,1.016v2.166a3.187,3.187,0,0,0,3.183,3.183h1.151v4.469H-758.2a6.444,6.444,0,0,0-6.079-4.334,6.443,6.443,0,0,0-6.079,4.334h-.489v-7.652a1.015,1.015,0,0,0-1.016-1.015,1.015,1.015,0,0,0-1.015,1.015v7.651h-21.073a6.443,6.443,0,0,0-6.079-4.333,6.443,6.443,0,0,0-6.079,4.333h-5.838a.068.068,0,0,1-.068-.067v-2.235h4.4a1.016,1.016,0,0,0,1.016-1.015,1.016,1.016,0,0,0-1.016-1.016h-9.75a1.016,1.016,0,0,0-1.016,1.016,1.016,1.016,0,0,0,1.016,1.015h3.317v2.235a2.1,2.1,0,0,0,2.1,2.1h5.486c0,.022,0,.045,0,.067a6.44,6.44,0,0,0,6.433,6.433,6.441,6.441,0,0,0,6.433-6.433c0-.022,0-.045,0-.067h22.889c0,.022,0,.045,0,.067a6.439,6.439,0,0,0,6.432,6.433,6.439,6.439,0,0,0,6.432-6.433c0-.022,0-.045,0-.067h3.32a1.015,1.015,0,0,0,1.015-1.015v-10.835a5.356,5.356,0,0,0-4.541-5.287Zm-12.793-11.03h7.651a2.237,2.237,0,0,1,2.235,2.234v.068h-9.886Zm0,10.968v-6.635h9.025l1.659,6.635Zm-29.183,21.668a4.406,4.406,0,0,1-4.4-4.4,4.407,4.407,0,0,1,4.4-4.4,4.406,4.406,0,0,1,4.4,4.4,4.406,4.406,0,0,1-4.4,4.4Zm35.751,0a4.406,4.406,0,0,1-4.4-4.4,4.406,4.406,0,0,1,4.4-4.4,4.406,4.406,0,0,1,4.4,4.4,4.406,4.406,0,0,1-4.4,4.4Zm8.735-13H-756.7a1.153,1.153,0,0,1-1.151-1.152v-1.151h2.3v2.3Zm0,0" fill="#3a9ca8"/>
      <path id="Trazado_50959" data-name="Trazado 50959" d="M-800.033,2371.192a2.1,2.1,0,0,0-2.1,2.1,2.1,2.1,0,0,0,2.1,2.1,2.1,2.1,0,0,0,2.1-2.1,2.1,2.1,0,0,0-2.1-2.1Zm0,0" fill="#3a9ca8"/>
      <path id="Trazado_50960" data-name="Trazado 50960" d="M-764.282,2371.192a2.1,2.1,0,0,0-2.1,2.1,2.1,2.1,0,0,0,2.1,2.1,2.1,2.1,0,0,0,2.1-2.1,2.1,2.1,0,0,0-2.1-2.1Zm0,0" fill="#3a9ca8"/>
      <path id="Trazado_50961" data-name="Trazado 50961" d="M-776.2,2366.858h-15.167a1.016,1.016,0,0,0-1.016,1.016,1.016,1.016,0,0,0,1.016,1.016H-776.2a1.016,1.016,0,0,0,1.016-1.016,1.016,1.016,0,0,0-1.016-1.016Zm0,0" fill="#3a9ca8"/>
      <path id="Trazado_50962" data-name="Trazado 50962" d="M-802.2,2362.525h-13a1.015,1.015,0,0,0-1.016,1.015,1.015,1.015,0,0,0,1.016,1.016h13a1.015,1.015,0,0,0,1.016-1.016,1.015,1.015,0,0,0-1.016-1.015Zm0,0" fill="#3a9ca8"/>
    </g>
    <g id="Grupo_18561" data-name="Grupo 18561">
      <path id="Trazado_50963" data-name="Trazado 50963" d="M-565.06,2356.086l-1.679-6.72a1.015,1.015,0,0,0,.8-.993v-1.083a4.271,4.271,0,0,0-4.266-4.266h-7.651v-2.234a2.1,2.1,0,0,0-2.1-2.1h-39a2.1,2.1,0,0,0-2.1,2.1v18.417a1.015,1.015,0,0,0,1.015,1.016,1.017,1.017,0,0,0,1.017-1.016V2340.79a.067.067,0,0,1,.067-.068h39a.067.067,0,0,1,.067.068v18.417a1.016,1.016,0,0,0,1.015,1.016,1.017,1.017,0,0,0,1.017-1.016v-1.151h11.986a3.323,3.323,0,0,1,3.156,2.3h-3.158a1.016,1.016,0,0,0-1.016,1.016v2.166a3.187,3.187,0,0,0,3.183,3.183h1.151v4.469h-2.656a6.444,6.444,0,0,0-6.079-4.334,6.443,6.443,0,0,0-6.079,4.334h-.489v-7.652a1.015,1.015,0,0,0-1.016-1.015,1.015,1.015,0,0,0-1.015,1.015v7.651h-21.073a6.443,6.443,0,0,0-6.079-4.333,6.444,6.444,0,0,0-6.079,4.333h-5.838a.067.067,0,0,1-.067-.067v-2.235h4.4a1.015,1.015,0,0,0,1.015-1.015,1.015,1.015,0,0,0-1.015-1.016h-9.751a1.016,1.016,0,0,0-1.016,1.016,1.016,1.016,0,0,0,1.016,1.015h3.318v2.235a2.1,2.1,0,0,0,2.1,2.1h5.487c0,.022,0,.045,0,.067a6.439,6.439,0,0,0,6.432,6.433,6.44,6.44,0,0,0,6.433-6.433c0-.022,0-.045,0-.067h22.889c0,.022,0,.045,0,.067a6.439,6.439,0,0,0,6.432,6.433,6.44,6.44,0,0,0,6.433-6.433c0-.022,0-.045,0-.067h3.32a1.015,1.015,0,0,0,1.015-1.015v-10.835a5.356,5.356,0,0,0-4.541-5.287Zm-12.792-11.03h7.651a2.237,2.237,0,0,1,2.235,2.234v.068h-9.886Zm0,10.968v-6.635h9.024l1.659,6.635Zm-29.184,21.668a4.406,4.406,0,0,1-4.4-4.4,4.406,4.406,0,0,1,4.4-4.4,4.406,4.406,0,0,1,4.4,4.4,4.406,4.406,0,0,1-4.4,4.4Zm35.751,0a4.405,4.405,0,0,1-4.4-4.4,4.406,4.406,0,0,1,4.4-4.4,4.406,4.406,0,0,1,4.4,4.4,4.406,4.406,0,0,1-4.4,4.4Zm8.735-13H-563.7a1.153,1.153,0,0,1-1.151-1.152v-1.151h2.3v2.3Zm0,0" fill="#3a9ca8"/>
      <path id="Trazado_50964" data-name="Trazado 50964" d="M-607.036,2371.192a2.1,2.1,0,0,0-2.1,2.1,2.1,2.1,0,0,0,2.1,2.1,2.1,2.1,0,0,0,2.1-2.1,2.1,2.1,0,0,0-2.1-2.1Zm0,0" fill="#3a9ca8"/>
      <path id="Trazado_50965" data-name="Trazado 50965" d="M-571.285,2371.192a2.1,2.1,0,0,0-2.1,2.1,2.1,2.1,0,0,0,2.1,2.1,2.1,2.1,0,0,0,2.1-2.1,2.1,2.1,0,0,0-2.1-2.1Zm0,0" fill="#3a9ca8"/>
      <path id="Trazado_50966" data-name="Trazado 50966" d="M-583.2,2366.858h-15.167a1.015,1.015,0,0,0-1.015,1.016,1.015,1.015,0,0,0,1.015,1.016H-583.2a1.016,1.016,0,0,0,1.016-1.016,1.016,1.016,0,0,0-1.016-1.016Zm0,0" fill="#3a9ca8"/>
      <path id="Trazado_50967" data-name="Trazado 50967" d="M-609.2,2362.525h-13a1.015,1.015,0,0,0-1.016,1.015,1.015,1.015,0,0,0,1.016,1.016h13a1.015,1.015,0,0,0,1.015-1.016,1.015,1.015,0,0,0-1.015-1.015Zm0,0" fill="#3a9ca8"/>
    </g>
    <line id="Línea_234" data-name="Línea 234" x2="19.007" transform="translate(-943.681 2357.735)" fill="none" stroke="#ffdca8" stroke-linecap="round" stroke-miterlimit="10" stroke-width="2" stroke-dasharray="4 6"/>
    <line id="Línea_235" data-name="Línea 235" x2="19.007" transform="translate(-1034.206 2357.735)" fill="none" stroke="#ffdca8" stroke-linecap="round" stroke-miterlimit="10" stroke-width="2" stroke-dasharray="4 6"/>
    <line id="Línea_236" data-name="Línea 236" x2="19.007" transform="translate(-1139.03 2357.735)" fill="none" stroke="#ffdca8" stroke-linecap="round" stroke-miterlimit="10" stroke-width="2" stroke-dasharray="4 6"/>
    <line id="Línea_237" data-name="Línea 237" y2="45.526" transform="translate(-1176.148 2287.91)" fill="none" stroke="#4dd0e0" stroke-linecap="round" stroke-miterlimit="10" stroke-width="2" stroke-dasharray="4 6"/>
    <line id="Línea_238" data-name="Línea 238" x2="19.007" transform="translate(-1229.306 2357.735)" fill="none" stroke="#ffdca8" stroke-linecap="round" stroke-miterlimit="10" stroke-width="2" stroke-dasharray="4 6"/>
    <line id="Línea_239" data-name="Línea 239" x2="19.007" transform="translate(-840.096 2357.735)" fill="none" stroke="#ffdca8" stroke-linecap="round" stroke-miterlimit="10" stroke-width="2" stroke-dasharray="4 6"/>
    <line id="Línea_240" data-name="Línea 240" x2="19.007" transform="translate(-746.853 2357.735)" fill="none" stroke="#ffdca8" stroke-linecap="round" stroke-miterlimit="10" stroke-width="2" stroke-dasharray="4 6"/>
    <line id="Línea_241" data-name="Línea 241" x2="19.007" transform="translate(-650.067 2357.735)" fill="none" stroke="#ffdca8" stroke-linecap="round" stroke-miterlimit="10" stroke-width="2" stroke-dasharray="4 6"/>
    <path id="Trazado_50968" data-name="Trazado 50968" d="M-599.384,2331.684v-23.92a5.936,5.936,0,0,1,5.935-5.936h54.987" fill="none" stroke="#ffdca8" stroke-linecap="round" stroke-miterlimit="10" stroke-width="2" stroke-dasharray="4 6"/>
    <path id="Trazado_50969" data-name="Trazado 50969" d="M-599.384,2384.614v23.92a5.936,5.936,0,0,0,5.935,5.936h54.987" fill="none" stroke="#ffdca8" stroke-linecap="round" stroke-miterlimit="10" stroke-width="2" stroke-dasharray="4 6"/>
    <text id="Transporte" transform="translate(-1176.148 2278.66)" fill="#0096a8" font-size="17.807" font-family="Montserrat-Regular, Montserrat"><tspan x="-48.898" y="0">Transporte</tspan></text>
    <text id="Clientes_finales" data-name="Clientes
finales" transform="translate(-297.688 2505.599)" fill="#3a9ca8" font-size="19" font-family="Montserrat-Regular, Montserrat"><tspan x="-38.788" y="0">Clientes</tspan><tspan x="-31.264" y="22.8">finales</tspan></text>
    <path id="Trazado_50970" data-name="Trazado 50970" d="M-462.179,2446.539l-2.465-5.835v-28.767l2.465-5.019v-9.778l-6.762-1.648v-4.3l-6.716-.594v-3.71l6.716-1.728v-8.808h-53.9v8.808l6.716,1.728v3.71l-6.716.594v4.3l-6.762,1.648v9.778l2.465,5.019V2440.7l-2.465,5.835-3.174.742v4.6h73.769v-4.6Z" fill="url(#linear-gradient-8)"/>
    <g id="Grupo_18562" data-name="Grupo 18562">
      <path id="Trazado_50971" data-name="Trazado 50971" d="M-478.814,2380.154h-34.321a1.141,1.141,0,0,0-1.141,1.141,1.141,1.141,0,0,0,1.141,1.141h34.321a1.141,1.141,0,0,0,1.141-1.141,1.141,1.141,0,0,0-1.141-1.141Zm0,0" fill="#3a9ca8"/>
      <path id="Trazado_50972" data-name="Trazado 50972" d="M-482.946,2418.441v18.193a1.625,1.625,0,0,0,1.623,1.622h10.993a1.624,1.624,0,0,0,1.622-1.622v-18.193a1.624,1.624,0,0,0-1.622-1.622h-10.993a1.625,1.625,0,0,0-1.623,1.622Zm11.956,17.533h-3.7v-5.022h3.7Zm0-7.3h-3.7v-5.022h3.7Zm-9.674-9.569h9.674v2.265h-9.674Zm0,4.547h3.7v5.022h-3.7Zm0,7.3h3.7v5.022h-3.7Zm0,0" fill="#3a9ca8"/>
      <path id="Trazado_50973" data-name="Trazado 50973" d="M-510.626,2416.819h-10.993a1.624,1.624,0,0,0-1.622,1.622v18.193a1.624,1.624,0,0,0,1.622,1.622h10.993a1.625,1.625,0,0,0,1.623-1.622v-18.193a1.625,1.625,0,0,0-1.623-1.622Zm-6.638,19.155h-3.7v-5.022h3.7Zm0-7.3h-3.7v-5.022h3.7Zm5.979,7.3h-3.7v-5.022h3.7Zm0-7.3h-3.7v-5.022h3.7Zm0-7.3h-9.674V2419.1h9.674Zm0,0" fill="#3a9ca8"/>
      <path id="Trazado_50974" data-name="Trazado 50974" d="M-460.126,2445.726h-1.769V2443a2.3,2.3,0,0,0-1.412-2.12v-29.231a7.827,7.827,0,0,0,2.053-5.29v-.451a1.141,1.141,0,0,0-1.141-1.141,1.141,1.141,0,0,0-1.141,1.141v.451a5.578,5.578,0,0,1-5.575,5.576,5.581,5.581,0,0,1-5.574-5.576v-9.221h9.8a1.346,1.346,0,0,1,1.345,1.346v2.1a1.142,1.142,0,0,0,1.141,1.141,1.142,1.142,0,0,0,1.141-1.141v-2.1a3.631,3.631,0,0,0-3.627-3.628h-3.089v-2.723a2.3,2.3,0,0,0-2.3-2.3h-4.417v-2.381h4.417a2.3,2.3,0,0,0,2.3-2.3v-7.728a2.3,2.3,0,0,0-2.3-2.3h-51.413a2.3,2.3,0,0,0-2.3,2.3v7.728a2.3,2.3,0,0,0,2.3,2.3h4.417v2.381h-4.417a2.3,2.3,0,0,0-2.3,2.3v2.722h-3.089a3.632,3.632,0,0,0-3.627,3.628v7.876a7.824,7.824,0,0,0,2.053,5.29v29.231a2.3,2.3,0,0,0-1.412,2.12v2.723h-1.769a2.3,2.3,0,0,0-2.3,2.3v2.706a2.3,2.3,0,0,0,2.3,2.3h33.186a1.141,1.141,0,0,0,1.141-1.141,1.141,1.141,0,0,0-1.141-1.141h-33.186a.016.016,0,0,1-.016-.016v-2.706a.016.016,0,0,1,.016-.016h71.7a.016.016,0,0,1,.016.016v2.706a.016.016,0,0,1-.016.016h-33.186a1.141,1.141,0,0,0-1.141,1.141,1.141,1.141,0,0,0,1.141,1.141h33.186a2.3,2.3,0,0,0,2.3-2.3v-2.706a2.3,2.3,0,0,0-2.3-2.3Zm-8.985-31.506a7.909,7.909,0,0,0,3.522-.832V2440.7h-20.622v-22.232a1.654,1.654,0,0,0-1.652-1.653h-16.223a1.654,1.654,0,0,0-1.652,1.653V2440.7H-526.36v-27.316a7.974,7.974,0,0,0,3.522.832,7.867,7.867,0,0,0,6.716-3.783,7.87,7.87,0,0,0,6.716,3.783,7.87,7.87,0,0,0,6.716-3.783,7.869,7.869,0,0,0,6.716,3.783,7.866,7.866,0,0,0,6.716-3.783,7.868,7.868,0,0,0,6.715,3.783,7.867,7.867,0,0,0,6.717-3.783,7.868,7.868,0,0,0,6.715,3.783Zm-19.382,4.881v21.6h-6.34v-21.6Zm-8.622,0v21.6h-6.341v-21.6Zm-17.866-12.739v-9.221h11.149v9.221a5.581,5.581,0,0,1-5.574,5.576,5.581,5.581,0,0,1-5.575-5.576Zm13.431,0v-9.221h11.15v9.221a5.581,5.581,0,0,1-5.574,5.576,5.582,5.582,0,0,1-5.576-5.576Zm13.433,0v-9.221h11.15v9.221a5.582,5.582,0,0,1-5.576,5.576,5.581,5.581,0,0,1-5.574-5.576Zm-33.564-21.187a.016.016,0,0,1-.016-.016v-7.728a.016.016,0,0,1,.016-.016h51.413a.016.016,0,0,1,.016.016v7.728a.016.016,0,0,1-.016.016Zm44.714,2.282v2.381h-38.014v-2.381Zm-44.73,4.679a.016.016,0,0,1,.016-.016h51.413a.016.016,0,0,1,.016.016v2.723H-521.7Zm-6.716,6.351a1.347,1.347,0,0,1,1.345-1.347h9.8v9.222a5.581,5.581,0,0,1-5.574,5.576,5.584,5.584,0,0,1-5.575-5.576Zm64.236,47.239h-63.594V2443a.016.016,0,0,1,.015-.017h63.562a.017.017,0,0,1,.017.017Zm0,0" fill="#3a9ca8"/>
    </g>
    <path id="Trazado_50975" data-name="Trazado 50975" d="M-477.128,2284.594l3.867,1.352,3.918-3.079.971-4.208-8.168-12.909-.786-5.738-45.92.4v4.946l-8.093,12.861s-.792,8.439,3.462,7.731,5.243-2.092,5.243-2.092l-.612,19.389-8.152.1v4.254l3.323.792-.247,15.714h5.787a8.168,8.168,0,0,0-1.953,5.2,6.4,6.4,0,0,0,6.44,6.54,6.48,6.48,0,0,0,6.513-5.869c0-2.293-1.948-5.789-1.948-5.789h41.253v-15.349l3.858-.891v-3.709l-8.954-.891Zm-1.187,19.045h-43.491V2284.8c5.774,3.716,8.273-1.933,8.273-1.933,4.551,5.345,8.9.591,8.9.591,4.946,4.551,9-.591,9-.591,2.077,5.95,9.6.987,9.6.987,2.572,2.572,7.716.946,7.716.946Z" fill="url(#linear-gradient-8)"/>
    <g id="Grupo_18563" data-name="Grupo 18563">
      <path id="Trazado_50976" data-name="Trazado 50976" d="M-518.047,2325.541a3.763,3.763,0,0,0-3.759,3.759,3.764,3.764,0,0,0,3.759,3.759,3.763,3.763,0,0,0,3.758-3.759,3.763,3.763,0,0,0-3.758-3.759Zm0,5.119a1.361,1.361,0,0,1-1.36-1.36,1.361,1.361,0,0,1,1.36-1.359,1.362,1.362,0,0,1,1.36,1.359,1.362,1.362,0,0,1-1.36,1.36Zm0,0" fill="#3a9ca8"/>
      <path id="Trazado_50977" data-name="Trazado 50977" d="M-460.466,2296.751h-4.478a1.2,1.2,0,0,0-1.05.617l-2.855,5.141h-7.692v-16.562a5.64,5.64,0,0,0,3.279,1.047,5.685,5.685,0,0,0,5.678-5.678v-3.2a1.232,1.232,0,0,0-.209-.678l-8.108-11.849V2260.2a1.2,1.2,0,0,0-1.2-1.2h-37.747a1.2,1.2,0,0,0-1.2,1.2,1.2,1.2,0,0,0,1.2,1.2H-478.3v3.359h-43.666V2261.4h2.639a1.2,1.2,0,0,0,1.2-1.2,1.2,1.2,0,0,0-1.2-1.2h-3.839a1.2,1.2,0,0,0-1.2,1.2v5.387l-8.107,11.85a1.225,1.225,0,0,0-.21.678v3.2a5.686,5.686,0,0,0,5.679,5.678,5.644,5.644,0,0,0,3.278-1.047v16.562h-7.757a1.2,1.2,0,0,0-1.2,1.2v4.567a1.2,1.2,0,0,0,1.2,1.2h2v14.7a1.2,1.2,0,0,0,1.2,1.2h3.73a7.555,7.555,0,0,0-1.091,3.919,7.607,7.607,0,0,0,7.6,7.6,7.606,7.606,0,0,0,7.6-7.6,7.555,7.555,0,0,0-1.091-3.919h10.906a12.734,12.734,0,0,0,12.658,11.517,12.732,12.732,0,0,0,12.658-11.517h3.336a1.2,1.2,0,0,0,1.2-1.2v-14.7h2.64a1.2,1.2,0,0,0,1.2-1.2v-4.257l2.7-4.869h3.773a1.2,1.2,0,0,0,1.2-1.2,1.2,1.2,0,0,0-1.2-1.2Zm-9.516-15.435a3.283,3.283,0,0,1-3.279,3.278,3.281,3.281,0,0,1-3.279-3.278v-2h6.558Zm-7.752-14.156,6.676,9.757H-476.9l-3.594-9.757Zm-40.313,19.834c.179,0,.355-.01.53-.026a24.027,24.027,0,0,0,3.907,2.772l-.516,7.488a1.21,1.21,0,0,0,1.981.99l6.066-5.239a1.2,1.2,0,0,0,.2-.23c.526.117,1.061.222,1.605.309l3.03,7.272a1.209,1.209,0,0,0,2.215,0l3.081-7.4q.681-.135,1.37-.307a1.192,1.192,0,0,0,.25.3l6.1,5.268a1.21,1.21,0,0,0,1.981-.99l-.524-7.613a19.368,19.368,0,0,0,3.8-2.652,5.722,5.722,0,0,0,.745.05,5.642,5.642,0,0,0,3.279-1.047v16.563h-42.387v-16.562a5.64,5.64,0,0,0,3.279,1.047Zm-3.279-5.678v-2h6.558v2a3.282,3.282,0,0,1-3.279,3.278,3.281,3.281,0,0,1-3.279-3.278Zm9.791,13.205.248-3.59a27.946,27.946,0,0,0,2.684,1.057Zm9.986-1.168c.467.025.939.039,1.416.039.46,0,.937-.023,1.425-.062l-1.425,3.421Zm9.636-1.51c.96-.327,1.907-.7,2.819-1.1l.258,3.758Zm6.415-10.527v-2h6.558v2a3.282,3.282,0,0,1-3.279,3.278,3.282,3.282,0,0,1-3.279-3.278Zm2.443-14.156,3.6,9.757h-6.264l-2.054-9.757Zm-11.4,0h4.225l2.054,9.757h-6.279Zm0,12.156h6.558v2a3.282,3.282,0,0,1-3.279,3.278,3.282,3.282,0,0,1-3.279-3.278Zm-8.957-12.156h6.558v9.757h-6.558Zm0,12.156h6.558v2a3.282,3.282,0,0,1-3.279,3.278,3.282,3.282,0,0,1-3.279-3.278Zm-1.2,5.484a5.667,5.667,0,0,0,4.478,2.194,5.671,5.671,0,0,0,4.479-2.194,5.667,5.667,0,0,0,4.477,2.194,5.669,5.669,0,0,0,4.479-2.194,5.752,5.752,0,0,0,1.192,1.141c-3.37,2.553-9.7,5.051-14.628,5.051a25.176,25.176,0,0,1-14.744-4.967,5.708,5.708,0,0,0,1.309-1.225,5.669,5.669,0,0,0,4.478,2.194,5.671,5.671,0,0,0,4.48-2.194Zm-5.425-17.64h4.225v9.757h-6.279Zm-2.333,12.156h6.558v2a3.282,3.282,0,0,1-3.279,3.278,3.282,3.282,0,0,1-3.279-3.278Zm-.119-12.156-2.054,9.757h-6.264l3.6-9.757Zm-10.045,0h2.765l-3.595,9.757h-5.846ZM-527,2284.594a3.281,3.281,0,0,1-3.279-3.278v-2h6.557v2a3.281,3.281,0,0,1-3.278,3.278Zm8.957,49.9a5.2,5.2,0,0,1-5.2-5.2,5.2,5.2,0,0,1,5.2-5.2,5.2,5.2,0,0,1,5.2,5.2,5.2,5.2,0,0,1-5.2,5.2Zm19.825-9.117h6.683a3.773,3.773,0,0,0,.2.471l-4.722,4.722a10.271,10.271,0,0,1-2.156-5.193Zm6.878-2.869a3.773,3.773,0,0,0-.2.471h-6.683a10.262,10.262,0,0,1,2.156-5.193Zm-3.025-6.419a10.259,10.259,0,0,1,5.193-2.156v6.684a3.654,3.654,0,0,0-.47.194Zm5.193,18.333a10.259,10.259,0,0,1-5.193-2.156l4.723-4.722a3.524,3.524,0,0,0,.47.195Zm1.2-8.885a1.362,1.362,0,0,1-1.36-1.36,1.361,1.361,0,0,1,1.36-1.359,1.361,1.361,0,0,1,1.36,1.359,1.361,1.361,0,0,1-1.36,1.36Zm1.2-4.92v-6.684a10.264,10.264,0,0,1,5.192,2.156l-4.722,4.722a3.714,3.714,0,0,0-.47-.194Zm0,13.806v-6.684a3.58,3.58,0,0,0,.47-.195l4.722,4.723a10.273,10.273,0,0,1-5.192,2.156Zm6.889-3.853-4.723-4.723a3.622,3.622,0,0,0,.2-.47h6.684a10.271,10.271,0,0,1-2.156,5.193Zm-4.528-7.591a3.635,3.635,0,0,0-.2-.471l4.723-4.723a10.278,10.278,0,0,1,2.156,5.193h-6.684Zm15.073-15.907h-16.715a1.2,1.2,0,0,0-1.2,1.2,1.2,1.2,0,0,0,1.2,1.2h12.876v13.507h-2.137a12.733,12.733,0,0,0-12.658-11.517,12.733,12.733,0,0,0-12.658,11.517h-12.934a1.163,1.163,0,0,0-.229.022,7.554,7.554,0,0,0-4.249-1.3,7.552,7.552,0,0,0-4.249,1.3,1.173,1.173,0,0,0-.23-.022h-4.558v-13.507h36.548a1.2,1.2,0,0,0,1.2-1.2,1.2,1.2,0,0,0-1.2-1.2h-39.747v-2.168h60.94Zm0,0" fill="#3a9ca8"/>
    </g>
    <path id="Trazado_50978" data-name="Trazado 50978" d="M-720.488,2377.692h61.928V2325.3s2.519,1.931,4.449,0,0-4.155,0-4.155l-35.34-18-35.786,18.4s-1.881,5.342,4.551,4.551Z" fill="url(#linear-gradient-8)"/>
    <g id="Grupo_18564" data-name="Grupo 18564">
      <path id="Trazado_50979" data-name="Trazado 50979" d="M-654.111,2319.333l-3.589-1.794a1.3,1.3,0,0,0-1.742.581,1.3,1.3,0,0,0,.582,1.743l3.587,1.793a1.6,1.6,0,0,1,.888,1.436,1.6,1.6,0,0,1-1.608,1.6,1.6,1.6,0,0,1-.715-.17l-32.152-16.07a1.3,1.3,0,0,0-1.161,0l-23.37,11.685a1.3,1.3,0,0,0-.582,1.743,1.3,1.3,0,0,0,1.742.582l22.791-11.4L-659.578,2326v52.43a1.3,1.3,0,0,0,1.3,1.3,1.3,1.3,0,0,0,1.3-1.3v-51.253a4.2,4.2,0,0,0,5.078-3.082,4.2,4.2,0,0,0-2.207-4.757Zm0,0" fill="#3a9ca8"/>
      <path id="Trazado_50980" data-name="Trazado 50980" d="M-672.562,2339.475h-33.757a1.3,1.3,0,0,0-1.3,1.3,1.3,1.3,0,0,0,1.3,1.3h33.757a1.3,1.3,0,0,0,1.3-1.3,1.3,1.3,0,0,0-1.3-1.3Zm0,0" fill="#3a9ca8"/>
      <path id="Trazado_50981" data-name="Trazado 50981" d="M-672.562,2344.668h-33.757a1.3,1.3,0,0,0-1.3,1.3,1.3,1.3,0,0,0,1.3,1.3h33.757a1.3,1.3,0,0,0,1.3-1.3,1.3,1.3,0,0,0-1.3-1.3Zm0,0" fill="#3a9ca8"/>
      <path id="Trazado_50982" data-name="Trazado 50982" d="M-672.562,2349.861h-33.757a1.3,1.3,0,0,0-1.3,1.3,1.3,1.3,0,0,0,1.3,1.3h33.757a1.3,1.3,0,0,0,1.3-1.3,1.3,1.3,0,0,0-1.3-1.3Zm0,0" fill="#3a9ca8"/>
      <path id="Trazado_50983" data-name="Trazado 50983" d="M-655.557,2377.127H-666.07v-40.249h1.3a1.3,1.3,0,0,0,1.3-1.3v-5.193a1.3,1.3,0,0,0-1.3-1.3h-7.79a1.3,1.3,0,0,0-1.3,1.3,1.3,1.3,0,0,0,1.3,1.3h6.492v2.6h-46.74v-2.6h35.055a1.3,1.3,0,0,0,1.3-1.3,1.3,1.3,0,0,0-1.3-1.3h-36.354a1.3,1.3,0,0,0-1.3,1.3v5.193a1.3,1.3,0,0,0,1.3,1.3h1.3v40.249H-719.3V2326l3.176-1.582a1.3,1.3,0,0,0,.582-1.742,1.3,1.3,0,0,0-1.742-.581l-4.887,2.437a1.6,1.6,0,0,1-2.153-.714,1.6,1.6,0,0,1-.17-.721,1.6,1.6,0,0,1,.888-1.436l34.168-17.084,26.684,13.35a1.3,1.3,0,0,0,1.742-.582,1.3,1.3,0,0,0-.581-1.742l-27.265-13.633a1.3,1.3,0,0,0-1.161,0l-34.748,17.368a4.2,4.2,0,0,0-1.918,5.618,4.2,4.2,0,0,0,4.788,2.221v49.955h-1.446c-.546,0-.989.529-.989,1.349s.443,1.247.989,1.247h67.788c.547,0,.989-.516.989-1.369S-655.01,2377.127-655.557,2377.127Zm-54.657-40.249h41.547v18.177h-41.547Zm0,20.773h41.547v19.476h-3.9v-14.282a1.3,1.3,0,0,0-1.3-1.3h-7.79a1.3,1.3,0,0,0-1.3,1.3v6.492H-697.23a1.3,1.3,0,0,0-1.3,1.3v6.492h-11.685Zm14.282,19.476v-5.194h5.193v5.194Zm7.79,0v-5.194h5.193v5.194Zm12.983-5.194v5.194h-5.193v-5.194Zm-5.193-2.6v-5.194h5.193v5.194Z" fill="#3a9ca8"/>
    </g>
    <path id="Trazado_50984" data-name="Trazado 50984" d="M-916.364,2378.527h69.249v-33.471h-37.2l-.2-17.658,2.378,1.27,1.382-4.626-2.939-3.782v-12.168l.841-1.583v-3.165h-9.328l.148,3.165,1.224,1.732v6.381l-9.579-7.42-19.542,16.175.791,5.293,2.869-.594Z" fill="url(#linear-gradient-8)"/>
    <g id="Grupo_18565" data-name="Grupo 18565">
      <path id="Trazado_50985" data-name="Trazado 50985" d="M-898.706,2307.12a2.6,2.6,0,0,0-3.355,0l-18.058,15.188a2.23,2.23,0,0,0-.8,1.712v3.475a2.235,2.235,0,0,0,3.569,1.795v48.151h-.1a1.141,1.141,0,0,0-1.141,1.141,1.141,1.141,0,0,0,1.141,1.141h71.524a1.141,1.141,0,0,0,1.141-1.141,1.14,1.14,0,0,0-1.111-1.139V2345.9a2.747,2.747,0,0,0-2.744-2.744H-862.61a1.141,1.141,0,0,0-1.141,1.141,1.141,1.141,0,0,0,1.141,1.141h13.975a.462.462,0,0,1,.462.462v31.537H-853.5v-20.408a1.944,1.944,0,0,0,1.717-1.928v-3.08a1.943,1.943,0,0,0-1.941-1.94h-24.146a1.943,1.943,0,0,0-1.941,1.94v3.08a1.944,1.944,0,0,0,1.481,1.884v20.452h-5.09v-32h15.484a1.141,1.141,0,0,0,1.141-1.141,1.141,1.141,0,0,0-1.141-1.141h-15.484v-13.868a2.237,2.237,0,0,0,3.569-1.8v-3.475a2.233,2.233,0,0,0-.8-1.712l-2.2-1.847v-3.811a1.141,1.141,0,0,0-1.141-1.141,1.141,1.141,0,0,0-1.141,1.141v1.891l-4.244-3.569v-6.183h4.244v2.536a1.141,1.141,0,0,0,1.141,1.141,1.14,1.14,0,0,0,1.141-1.141v-2.584a1.85,1.85,0,0,0,1.436-1.8v-3.264a1.851,1.851,0,0,0-1.848-1.849h-7.981a1.851,1.851,0,0,0-1.849,1.849v3.264a1.85,1.85,0,0,0,1.435,1.8v4.312Zm42.925,70.321h-20.266v-3.387h20.266Zm0-5.669h-20.266v-3.388h20.266Zm0-5.669h-20.266v-3.388h20.266Zm0-5.67h-20.266v-3.387h20.266Zm-21.747-8.066h23.464v2.4h-23.464Zm-16.438,25.074H-906.8v-20.4h12.835Zm0-22.677H-906.8v-2.4h12.836Zm8.265-10.463v33.14h-5.983v-25.075a2.283,2.283,0,0,0-2.281-2.281H-906.8a2.285,2.285,0,0,0-2.282,2.281v25.075h-5.981v-50.063l14.473-12.173a.324.324,0,0,1,.418,0l14.473,12.173Zm3.585-20.246h0Zm-8.688-19.945h7.114v2.4H-890.8Zm8.672,19.931v3.357l-16.574-13.939a2.6,2.6,0,0,0-3.355,0l-16.573,13.939v-3.357l18.042-15.175a.324.324,0,0,1,.418,0l18.042,15.175Zm0,0" fill="#3a9ca8"/>
      <path id="Trazado_50986" data-name="Trazado 50986" d="M-897.661,2368.385h1.029a1.141,1.141,0,0,0,1.141-1.141,1.141,1.141,0,0,0-1.141-1.141h-1.029a1.141,1.141,0,0,0-1.141,1.141,1.141,1.141,0,0,0,1.141,1.141Zm0,0" fill="#3a9ca8"/>
      <path id="Trazado_50987" data-name="Trazado 50987" d="M-907,2334.255a6.628,6.628,0,0,0,6.621,6.621,6.629,6.629,0,0,0,6.621-6.621,6.629,6.629,0,0,0-6.621-6.621,6.628,6.628,0,0,0-6.621,6.621Zm5.48,4.186a4.354,4.354,0,0,1-3.045-3.045h3.045Zm0-5.327h-3.045a4.354,4.354,0,0,1,3.045-3.045Zm2.282-3.045a4.353,4.353,0,0,1,3.044,3.045h-3.044Zm0,5.327h3.044a4.353,4.353,0,0,1-3.044,3.045Zm0,0" fill="#3a9ca8"/>
    </g>
    <path id="Trazado_50988" data-name="Trazado 50988" d="M-1112.685,2353.647v24.781h69v-24.781s5.342.091,3.413-4.258l-37.678-23.268-9.659,6.228-1.324-25a3.24,3.24,0,0,0,1.027-4.007h-7.716s-1.216,1.181.2,3.76l-.3,29.381-6.134,4.239-1.192-33.225s1.786-.89.6-4.55h-7.123a4.25,4.25,0,0,0,.2,4.056l-.495,38.482-5.173,3.9S-1117.78,2354.686-1112.685,2353.647Z" fill="url(#linear-gradient-8)"/>
    <path id="Trazado_50989" data-name="Trazado 50989" d="M-1040.169,2348.367l-35.1-22.516a4.974,4.974,0,0,0-5.357,0l-6.28,4.029-.154-7.549a1.14,1.14,0,0,0-1.139-1.117h-.024a1.14,1.14,0,0,0-1.116,1.162l.183,8.946-5.365,3.441.541-26.459h4.352l.18,8.755a1.144,1.144,0,0,0,1.162,1.115,1.139,1.139,0,0,0,1.117-1.162l-.185-9.012a1.655,1.655,0,0,0,.7-1.352v-3.164a1.658,1.658,0,0,0-1.655-1.657h-7.093a1.659,1.659,0,0,0-1.656,1.657v3.164a1.654,1.654,0,0,0,.8,1.416l-.577,28.181-4,2.569-.631-30.816a1.653,1.653,0,0,0,.7-1.35v-3.164a1.658,1.658,0,0,0-1.655-1.657h-7.093a1.659,1.659,0,0,0-1.656,1.657v3.164a1.654,1.654,0,0,0,.805,1.418l-.765,37.351-4.6,2.949a3.463,3.463,0,0,0-1.044,4.778,3.462,3.462,0,0,0,3.215,1.575v22.626a1.14,1.14,0,0,0-1,1.13,1.138,1.138,0,0,0,1.139,1.139h70.93a1.14,1.14,0,0,0,1.14-1.139,1.141,1.141,0,0,0-1-1.13V2354.72c.1.008.2.014.3.014a3.456,3.456,0,0,0,2.916-1.59,3.461,3.461,0,0,0-1.044-4.777Zm-54.608-44.26h5.846v1.919h-5.846Zm-14.114,0h5.846v1.919h-5.846Zm5.806,36.15-5.735,3.68.728-35.632h4.353Zm39.669,37.079h-29.064v-3.329h29.064Zm0-5.608h-29.064V2368.4h29.064Zm0-5.608h-29.064v-3.33h29.064Zm0-5.609h-29.064v-3.329h29.064Zm18.8,16.825h-16.518v-20.23a2,2,0,0,0,1.466-1.927v-2.7a2.006,2.006,0,0,0-2-2h-13.614a1.139,1.139,0,0,0-1.139,1.139,1.14,1.14,0,0,0,1.139,1.14h13.339v2.151h-32v-2.151h13.34a1.14,1.14,0,0,0,1.139-1.14,1.139,1.139,0,0,0-1.139-1.139h-13.615a2.005,2.005,0,0,0-2,2v2.7a2,2,0,0,0,1.466,1.927v20.23h-16.519v-23.607l33.329-21.38,33.329,21.38Zm3.576-25.422a1.182,1.182,0,0,1-1.629.356l-34.661-22.234a1.141,1.141,0,0,0-1.23,0l-34.661,22.234a1.18,1.18,0,0,1-1.628-.356,1.181,1.181,0,0,1,.355-1.629l35.1-22.516a2.688,2.688,0,0,1,2.9,0l35.1,22.516a1.181,1.181,0,0,1,.356,1.629Zm0,0" fill="#3a9ca8"/>
    <path id="Trazado_50990" data-name="Trazado 50990" d="M-1311.677,2346.8v30.888h75.58v-58.126s.062-16.422-15.9-16.422-15.76,16.62-15.76,16.62v17.318h-31.634Z" fill="url(#linear-gradient-8)"/>
    <g id="Grupo_18566" data-name="Grupo 18566">
      <path id="Trazado_50991" data-name="Trazado 50991" d="M-1272.652,2345.588h-14.157l-9.114-7.291h7.473a1.216,1.216,0,0,0,1.215-1.215,1.216,1.216,0,0,0-1.215-1.216c-6.129.068-11.131-.188-11.7.267-12.618,10.309-12.608,9.619-12.608,10.671v31.6a1.215,1.215,0,0,0,1.215,1.215h38.888a1.215,1.215,0,0,0,1.215-1.215,1.215,1.215,0,0,0-1.215-1.215h-13.368v-29.166h13.368a1.216,1.216,0,0,0,1.215-1.215,1.216,1.216,0,0,0-1.215-1.216Zm-28.255,23.09-4.557,6.076V2362.6Zm-3.341-8.507h9.722l-4.861,6.482Zm0,17.014,4.861-6.482,4.861,6.482Zm10.937-2.431-4.557-6.076,4.557-6.076Zm4.861,2.431h-2.431c0-19.647.04-18.343-.08-18.66a1.217,1.217,0,0,0-1.135-.784c-14.974,0-15.157-.247-15.642.621a1.2,1.2,0,0,0-.146.445c-.006.051-.01.134-.01.149v17.014a1.213,1.213,0,0,0,.7,1.1l-.089.118h-3.038v-29.8l10.938-8.75,10.937,8.75Zm0,0" fill="#3a9ca8"/>
      <path id="Trazado_50992" data-name="Trazado 50992" d="M-1255.639,2323.714a1.216,1.216,0,0,0-1.215,1.215v48.61a1.216,1.216,0,0,0,1.215,1.215,1.216,1.216,0,0,0,1.216-1.215v-1.215h4.861v1.215a1.215,1.215,0,0,0,1.215,1.215,1.215,1.215,0,0,0,1.215-1.215v-48.61a1.215,1.215,0,0,0-1.215-1.215,1.215,1.215,0,0,0-1.215,1.215v1.215h-4.861v-1.215a1.216,1.216,0,0,0-1.216-1.215Zm6.077,46.179h-4.861v-4.861h4.861Zm0-7.291h-4.861v-4.861h4.861Zm0-7.292h-4.861v-4.861h4.861Zm0-7.291h-4.861v-4.861h4.861Zm0-7.292h-4.861v-4.861h4.861Zm0-12.152v4.861h-4.861v-4.861Zm0,0" fill="#3a9ca8"/>
      <path id="Trazado_50993" data-name="Trazado 50993" d="M-1248.347,2316.422a1.215,1.215,0,0,0,1.215-1.215v-3.645a4.861,4.861,0,0,0-4.861-4.861,4.861,4.861,0,0,0-4.861,4.861v3.645a1.216,1.216,0,0,0,1.215,1.215Zm-6.076-4.86a2.429,2.429,0,0,1,2.43-2.431,2.43,2.43,0,0,1,2.431,2.431v2.43h-4.861Zm0,0" fill="#3a9ca8"/>
      <path id="Trazado_50994" data-name="Trazado 50994" d="M-1305.464,2348.019v6.076a1.216,1.216,0,0,0,1.216,1.215h9.722a1.216,1.216,0,0,0,1.215-1.215v-6.076a1.216,1.216,0,0,0-1.215-1.215h-9.722a1.216,1.216,0,0,0-1.216,1.215Zm2.431,1.215h7.291v3.646h-7.291Zm0,0" fill="#3a9ca8"/>
      <path id="Trazado_50995" data-name="Trazado 50995" d="M-1272.652,2352.88h-9.722a1.215,1.215,0,0,0-1.215,1.215v12.153a1.216,1.216,0,0,0,1.215,1.215h9.722a1.216,1.216,0,0,0,1.215-1.215v-12.153a1.215,1.215,0,0,0-1.215-1.215Zm-6.076,12.152h-2.431v-3.645h2.431Zm0-6.076h-2.431v-3.646h2.431Zm4.861,6.076h-2.431v-3.645h2.431Zm0-6.076h-2.431v-3.646h2.431Zm0,0" fill="#3a9ca8"/>
      <path id="Trazado_50996" data-name="Trazado 50996" d="M-1272.652,2335.866h-10.937a1.217,1.217,0,0,0-1.216,1.216,1.217,1.217,0,0,0,1.216,1.215h10.937a1.216,1.216,0,0,0,1.215-1.215,1.216,1.216,0,0,0-1.215-1.216Zm0,0" fill="#3a9ca8"/>
      <path id="Trazado_50997" data-name="Trazado 50997" d="M-1237.116,2310.595c-.009-.017-.027-.028-.038-.046l.006,0a17.108,17.108,0,0,0-4.1-4.855l-.017-.016c-.02-.016-.038-.034-.058-.051l-.008.007a1.2,1.2,0,0,0-.781-.3,1.215,1.215,0,0,0-1.215,1.215,1.2,1.2,0,0,0,.408.9.356.356,0,0,0,.025.035,13.608,13.608,0,0,1,3.747,4.486,14.569,14.569,0,0,1,1.736,6.894h-21.4a1.216,1.216,0,0,0-1.215,1.215,1.216,1.216,0,0,0,1.215,1.215h21.4v4.861h-6.076a1.216,1.216,0,0,0-1.215,1.216,1.215,1.215,0,0,0,1.215,1.215h6.076v4.861h-2.43a1.216,1.216,0,0,0-1.216,1.215,1.216,1.216,0,0,0,1.216,1.215h2.43v4.861h-6.076a1.216,1.216,0,0,0-1.215,1.216,1.216,1.216,0,0,0,1.215,1.215h6.076v4.861h-2.43a1.216,1.216,0,0,0-1.216,1.215,1.216,1.216,0,0,0,1.216,1.215h2.43v4.861h-6.076a1.216,1.216,0,0,0-1.215,1.216,1.216,1.216,0,0,0,1.215,1.215h6.076v4.861h-2.43a1.216,1.216,0,0,0-1.216,1.215,1.216,1.216,0,0,0,1.216,1.215h2.43v4.861h-6.076a1.216,1.216,0,0,0-1.215,1.216,1.216,1.216,0,0,0,1.215,1.215h6.076v4.861h-29.166v-4.861h6.077a1.216,1.216,0,0,0,1.215-1.215,1.216,1.216,0,0,0-1.215-1.216h-6.077v-4.861h2.431a1.215,1.215,0,0,0,1.215-1.215,1.215,1.215,0,0,0-1.215-1.215h-2.431v-4.861h6.077a1.216,1.216,0,0,0,1.215-1.215,1.216,1.216,0,0,0-1.215-1.216h-6.077v-4.861h2.431a1.215,1.215,0,0,0,1.215-1.215,1.215,1.215,0,0,0-1.215-1.215h-2.431v-4.861h6.077a1.216,1.216,0,0,0,1.215-1.215,1.216,1.216,0,0,0-1.215-1.216h-6.077v-4.861h2.431a1.215,1.215,0,0,0,1.215-1.215,1.215,1.215,0,0,0-1.215-1.215h-2.431v-4.861h6.077a1.216,1.216,0,0,0,1.215-1.215,1.216,1.216,0,0,0-1.215-1.216h-6.077v-4.861h2.431a1.215,1.215,0,0,0,1.215-1.215,1.215,1.215,0,0,0-1.215-1.215h-2.431a14.6,14.6,0,0,1,18.684-14,1.217,1.217,0,0,0,.925-.1,1.214,1.214,0,0,0,.584-.725,1.217,1.217,0,0,0-.1-.925,1.222,1.222,0,0,0-.725-.583,17.036,17.036,0,0,0-21.8,16.33V2378.4a1.215,1.215,0,0,0,1.215,1.215h31.6a1.216,1.216,0,0,0,1.216-1.215v-59.547A17.012,17.012,0,0,0-1237.116,2310.595Z" fill="#3a9ca8"/>
    </g>
    <path id="Trazado_50998" data-name="Trazado 50998" d="M-1203.253,2339.9v23.608h-2.275c-1.484,0-2.275.736-2.275,4.365h4.55v4.025h7.222s.122,6.529,5.8,6.529,5.479-5.837,5.479-5.837l24.731.1s.621,6.233,5.541,6.233,5.539-4.848,5.341-6.53l4.551-.3v-11.278a6.038,6.038,0,0,0-4.65-4.056l-1.924-8.013s2.32-1.91-1.538-4.813h-9.1l-.594-4.036Z" fill="url(#linear-gradient-2)"/>
    <g id="Grupo_18567" data-name="Grupo 18567">
      <path id="Trazado_50999" data-name="Trazado 50999" d="M-1148.256,2356.086l-1.679-6.72a1.015,1.015,0,0,0,.8-.993v-1.083a4.271,4.271,0,0,0-4.266-4.266h-7.652v-2.234a2.1,2.1,0,0,0-2.1-2.1h-39a2.1,2.1,0,0,0-2.1,2.1v18.417a1.015,1.015,0,0,0,1.015,1.016,1.016,1.016,0,0,0,1.016-1.016V2340.79a.068.068,0,0,1,.068-.068h39a.068.068,0,0,1,.068.068v18.417a1.015,1.015,0,0,0,1.015,1.016,1.016,1.016,0,0,0,1.016-1.016v-1.151h11.987a3.323,3.323,0,0,1,3.156,2.3h-3.158a1.016,1.016,0,0,0-1.016,1.016v2.166a3.187,3.187,0,0,0,3.183,3.183h1.151v4.469h-2.656a6.444,6.444,0,0,0-6.079-4.334,6.443,6.443,0,0,0-6.079,4.334h-.489v-7.652a1.015,1.015,0,0,0-1.016-1.015,1.015,1.015,0,0,0-1.015,1.015v7.651h-21.073a6.443,6.443,0,0,0-6.079-4.333,6.443,6.443,0,0,0-6.079,4.333h-5.838a.068.068,0,0,1-.068-.067v-2.235h4.4a1.015,1.015,0,0,0,1.015-1.015,1.015,1.015,0,0,0-1.015-1.016h-9.751a1.016,1.016,0,0,0-1.016,1.016,1.016,1.016,0,0,0,1.016,1.015h3.318v2.235a2.1,2.1,0,0,0,2.1,2.1h5.486c0,.022,0,.045,0,.067a6.44,6.44,0,0,0,6.433,6.433,6.441,6.441,0,0,0,6.433-6.433c0-.022,0-.045,0-.067h22.889c0,.022,0,.045,0,.067a6.439,6.439,0,0,0,6.432,6.433,6.439,6.439,0,0,0,6.432-6.433c0-.022,0-.045,0-.067h3.32a1.015,1.015,0,0,0,1.015-1.015v-10.835a5.356,5.356,0,0,0-4.541-5.287Zm-12.793-11.03h7.652a2.237,2.237,0,0,1,2.234,2.234v.068h-9.886Zm0,10.968v-6.635h9.025l1.659,6.635Zm-29.183,21.668a4.406,4.406,0,0,1-4.4-4.4,4.407,4.407,0,0,1,4.4-4.4,4.406,4.406,0,0,1,4.4,4.4,4.406,4.406,0,0,1-4.4,4.4Zm35.751,0a4.406,4.406,0,0,1-4.4-4.4,4.406,4.406,0,0,1,4.4-4.4,4.406,4.406,0,0,1,4.4,4.4,4.406,4.406,0,0,1-4.4,4.4Zm8.735-13h-1.151a1.153,1.153,0,0,1-1.151-1.152v-1.151h2.3v2.3Zm0,0" fill="#3a9ca8"/>
      <path id="Trazado_51000" data-name="Trazado 51000" d="M-1190.232,2371.192a2.1,2.1,0,0,0-2.1,2.1,2.1,2.1,0,0,0,2.1,2.1,2.1,2.1,0,0,0,2.1-2.1,2.1,2.1,0,0,0-2.1-2.1Zm0,0" fill="#3a9ca8"/>
      <path id="Trazado_51001" data-name="Trazado 51001" d="M-1154.481,2371.192a2.1,2.1,0,0,0-2.1,2.1,2.1,2.1,0,0,0,2.1,2.1,2.1,2.1,0,0,0,2.1-2.1,2.1,2.1,0,0,0-2.1-2.1Zm0,0" fill="#3a9ca8"/>
      <path id="Trazado_51002" data-name="Trazado 51002" d="M-1166.4,2366.858h-15.167a1.016,1.016,0,0,0-1.016,1.016,1.016,1.016,0,0,0,1.016,1.016h15.167a1.016,1.016,0,0,0,1.016-1.016,1.016,1.016,0,0,0-1.016-1.016Zm0,0" fill="#3a9ca8"/>
      <path id="Trazado_51003" data-name="Trazado 51003" d="M-1192.4,2362.525h-13a1.015,1.015,0,0,0-1.016,1.015,1.015,1.015,0,0,0,1.016,1.016h13a1.015,1.015,0,0,0,1.016-1.016,1.015,1.015,0,0,0-1.016-1.015Zm0,0" fill="#3a9ca8"/>
    </g>
  </g>
</svg>
