<svg xmlns="http://www.w3.org/2000/svg" width="524.295" height="351.931" viewBox="0 0 524.295 351.931">
  <g id="Grupo_15604" data-name="Grupo 15604" transform="translate(-742.506 -896.36)">
    <text id="Resultado" transform="translate(1266.801 1234.688)" fill="#36afea" font-size="25" font-family="Montserrat-Regular, Montserrat"><tspan x="-127.525" y="0">Resultado</tspan></text>
    <text id="Solicitud" transform="translate(742.506 1234.688)" fill="#36afea" font-size="25" font-family="Montserrat-Regular, Montserrat"><tspan x="0" y="0">Solicitud</tspan></text>
    <circle id="Elipse_538" data-name="Elipse 538" cx="175.965" cy="175.965" r="175.965" transform="translate(828.688 896.36)" fill="#94e3ec"/>
    <g id="Grupo_15595" data-name="Grupo 15595">
      <path id="Trazado_42631" data-name="Trazado 42631" d="M908.2,1039.021a222.722,222.722,0,0,1,103.421,28.114c50.666,28.262,103.517,28.351,136.083,19.009.867-.248,1.7-.5,2.513-.755.382-4.305.588-8.66.588-13.064a146.159,146.159,0,0,0-289.481-28.641A187.526,187.526,0,0,1,908.2,1039.021Z" fill="#ebfafc"/>
      <path id="Trazado_42632" data-name="Trazado 42632" d="M1105.522,1112.6a214.782,214.782,0,0,1-104.135-27.126c-58.263-32.5-115.978-27.689-142.744-19.255-.083,2.026-.136,4.06-.136,6.106a146.163,146.163,0,0,0,287.855,35.859A182.978,182.978,0,0,1,1105.522,1112.6Z" fill="#ebfafc"/>
    </g>
    <text id="Informaciones" transform="translate(1004.654 1011.688)" fill="#36afea" font-size="25" font-family="Montserrat-Regular, Montserrat"><tspan x="-90.537" y="0">Informaciones</tspan></text>
    <text id="Reglas_de_Gestión" data-name="Reglas de
Gestión" transform="translate(1004.654 1149.425)" fill="#36afea" font-size="25" font-family="Montserrat-Regular, Montserrat"><tspan x="-61.638" y="0">Reglas de</tspan><tspan x="-48.388" y="30">Gestión</tspan></text>
    <g id="Grupo_15596" data-name="Grupo 15596">
      <path id="Trazado_42633" data-name="Trazado 42633" d="M762.506,1203.885V1091.838a19.513,19.513,0,0,1,19.513-19.513h16.218" fill="none" stroke="#ffdca8" stroke-linecap="round" stroke-miterlimit="10" stroke-width="3"/>
      <path id="Trazado_42634" data-name="Trazado 42634" d="M801.131,1078.736c-1.967.984-3.577-.011-3.577-2.211v-8.4c0-2.2,1.61-3.195,3.577-2.211l9.245,4.622c1.968.984,1.968,2.594,0,3.578Z" fill="#ffdca8"/>
    </g>
    <g id="Grupo_15597" data-name="Grupo 15597">
      <path id="Trazado_42635" data-name="Trazado 42635" d="M1246.8,1203.885V1091.838a19.513,19.513,0,0,0-19.512-19.513H1211.07" fill="none" stroke="#ffdca8" stroke-linecap="round" stroke-miterlimit="10" stroke-width="3"/>
      <path id="Trazado_42636" data-name="Trazado 42636" d="M1208.176,1078.736c1.968.984,3.578-.011,3.578-2.211v-8.4c0-2.2-1.61-3.195-3.578-2.211l-9.245,4.622c-1.967.984-1.967,2.594,0,3.578Z" fill="#ffdca8"/>
    </g>
    <g id="Grupo_15603" data-name="Grupo 15603">
      <g id="Grupo_15598" data-name="Grupo 15598">
        <path id="Trazado_42637" data-name="Trazado 42637" d="M919.544,1041.183c-.5,2.143.846,3.476,2.985,2.962l8.168-1.962c2.139-.514,2.73-2.312,1.314-3.995l-6.654-7.909c-1.416-1.684-2.982-1.307-3.479.836Z" fill="#ffdca8"/>
        <line id="Línea_195" data-name="Línea 195" x2="15.139" y2="63.007" transform="translate(925.679 1039.275)" fill="none" stroke="#ffdca8" stroke-linecap="round" stroke-miterlimit="10" stroke-width="3"/>
      </g>
      <g id="Grupo_15599" data-name="Grupo 15599">
        <path id="Trazado_42638" data-name="Trazado 42638" d="M965.456,1045.332c-1.248,1.812-.486,3.544,1.693,3.85l8.319,1.166c2.178.3,3.387-1.151,2.686-3.236l-3.294-9.8c-.7-2.085-2.3-2.309-3.543-.5Z" fill="#ffdca8"/>
        <line id="Línea_196" data-name="Línea 196" x1="8.996" y2="64.173" transform="translate(962.868 1045.804)" fill="none" stroke="#ffdca8" stroke-linecap="round" stroke-miterlimit="10" stroke-width="3"/>
      </g>
      <g id="Grupo_15600" data-name="Grupo 15600">
        <path id="Trazado_42639" data-name="Trazado 42639" d="M998.242,1048.972c-.983,1.968.012,3.578,2.212,3.578h8.4c2.2,0,3.2-1.61,2.211-3.578l-4.623-9.244c-.983-1.968-2.593-1.968-3.577,0Z" fill="#ffdca8"/>
        <line id="Línea_197" data-name="Línea 197" y2="64.8" transform="translate(1004.654 1048.55)" fill="none" stroke="#ffdca8" stroke-linecap="round" stroke-miterlimit="10" stroke-width="3"/>
      </g>
      <g id="Grupo_15601" data-name="Grupo 15601">
        <path id="Trazado_42640" data-name="Trazado 42640" d="M1030.867,1053.229c-.677,2.093.549,3.535,2.724,3.2l8.305-1.263c2.175-.331,2.916-2.072,1.648-3.87l-5.96-8.444c-1.268-1.8-2.86-1.556-3.537.538Z" fill="#ffdca8"/>
        <line id="Línea_198" data-name="Línea 198" x2="9.742" y2="64.064" transform="translate(1037.142 1051.848)" fill="none" stroke="#ffdca8" stroke-linecap="round" stroke-miterlimit="10" stroke-width="3"/>
      </g>
      <g id="Grupo_15602" data-name="Grupo 15602">
        <path id="Trazado_42641" data-name="Trazado 42641" d="M1075.64,1058.253c-1.309,1.768-.607,3.526,1.56,3.9l8.275,1.449c2.167.38,3.424-1.034,2.8-3.142l-2.958-9.9c-.63-2.108-2.216-2.385-3.525-.617Z" fill="#ffdca8"/>
        <line id="Línea_199" data-name="Línea 199" x1="11.179" y2="63.828" transform="translate(1070.849 1058.943)" fill="none" stroke="#ffdca8" stroke-linecap="round" stroke-miterlimit="10" stroke-width="3"/>
      </g>
    </g>
  </g>
</svg>
