<svg xmlns="http://www.w3.org/2000/svg" xmlns:xlink="http://www.w3.org/1999/xlink" width="86.475" height="89.872" viewBox="0 0 86.475 89.872">
  <defs>
    <linearGradient id="linear-gradient" x1="0.5" y1="1" x2="0.5" gradientUnits="objectBoundingBox">
      <stop offset="0" stop-color="#cbf1f6"/>
      <stop offset="1" stop-color="#fff"/>
    </linearGradient>
  </defs>
  <path id="Trazado_50927" data-name="Trazado 50927" d="M-443.158,3319.233c.785-7.495,4.56-12.868,12.488-12.868s12.128,9.9,12.128,9.9l5.4-.3v-26.4h-1.818l-1.782-9.1,3.6-2v-25.5l-1.818-1.2-3.525-10.072h59.643v10.672l-3.3,1.664v24.436l3.3.6v9.212l-2.7,2.76-.6,24.628s5.266-.272,5.428,3.568-5.226,3.525-5.226,3.525h-56.9a11.91,11.91,0,0,1-11.828,8.807A12.212,12.212,0,0,1-443.158,3319.233Z" transform="translate(443.186 -3241.693)" fill="url(#linear-gradient)"/>
</svg>
