<svg xmlns="http://www.w3.org/2000/svg" xmlns:xlink="http://www.w3.org/1999/xlink" width="103.14" height="102.601" viewBox="0 0 103.14 102.601">
  <defs>
    <linearGradient id="linear-gradient" x1="0.5" y1="1" x2="0.5" gradientUnits="objectBoundingBox">
      <stop offset="0" stop-color="#cbf1f6"/>
      <stop offset="1" stop-color="#fff"/>
    </linearGradient>
  </defs>
  <path id="Trazado_50910" data-name="Trazado 50910" d="M-810.366,3326.765s.362,3.6,6,2.8a198.989,198.989,0,0,0,38.789,4.2c20.211,0,41.811-6.088,41.811-6.088l3.17.99v-11.5s17.687-3.4,11.491-15a6.826,6.826,0,0,0,0-8.519,9.014,9.014,0,0,0,0-8.692s2.913-3.491,1.484-6.989c0,0-2.945-.8-4.545,0,0,0,3.44-5.609,1.174-7.5,0,0-1.456-.988-6.174,0,0,0-.459-7.8-3.43-9a11.263,11.263,0,0,0-3.27,9.4s-2.691-1.4-7.4-.7v-12.2s-15.425-24.1-34.315-26.8c0,0-16.089-.5-32.889,27l-11.5.6v11.5l4.3,1.609s-6.019,17.8-1.56,48.9Z" transform="translate(810.366 -3231.164)" fill="url(#linear-gradient)"/>
</svg>
